  0
SECTION
  2
HEADER
  9
$ACADVER
  1
AC1006
  9
$EXTMIN
 10
0.000000
 20
0.000000
 30
0.000000
  9
$EXTMAX
 10
1500.000000
 20
1500.000000
 30
0.000000
  0
ENDSEC
  0
SECTION
  2
ENTITIES
  0
POLYLINE
  8
0
 66
1
 70
1
  0
VERTEX
  8
0
 10
1164.946251
 20
1369.595611
 42
0.029710
  0
VERTEX
  8
0
 10
1140.887099
 20
1358.428105
 42
0.015070
  0
VERTEX
  8
0
 10
1111.974762
 20
1341.715720
 42
0.014590
  0
VERTEX
  8
0
 10
1082.156983
 20
1322.033609
 42
0.016989
  0
VERTEX
  8
0
 10
1055.054276
 20
1301.575837
 42
0.013039
  0
VERTEX
  8
0
 10
1034.564135
 20
1284.083562
 42
0.007029
  0
VERTEX
  8
0
 10
1010.199507
 20
1261.532199
 42
0.006800
  0
VERTEX
  8
0
 10
987.416237
 20
1239.243545
 42
0.021225
  0
VERTEX
  8
0
 10
972.948296
 20
1223.408981
 42
0.021051
  0
VERTEX
  8
0
 10
962.705706
 20
1210.096202
 42
0.008120
  0
VERTEX
  8
0
 10
949.592950
 20
1190.824215
 42
0.008058
  0
VERTEX
  8
0
 10
936.111419
 20
1169.562524
 42
0.010248
  0
VERTEX
  8
0
 10
924.397107
 20
1149.500000
 42
-0.032129
  0
VERTEX
  8
0
 10
921.214891
 20
1144.559601
 42
-0.088804
  0
VERTEX
  8
0
 10
918.219023
 20
1141.728186
 42
-0.030997
  0
VERTEX
  8
0
 10
913.080287
 20
1138.799124
 42
-0.001207
  0
VERTEX
  8
0
 10
893.478374
 20
1129.241237
 42
0.017895
  0
VERTEX
  8
0
 10
882.900957
 20
1123.639369
 42
0.020246
  0
VERTEX
  8
0
 10
873.189704
 20
1117.505854
 42
0.020679
  0
VERTEX
  8
0
 10
864.191243
 20
1110.733637
 42
0.020462
  0
VERTEX
  8
0
 10
855.750000
 20
1103.218372
 42
-0.005427
  0
VERTEX
  8
0
 10
853.456595
 20
1101.049504
 42
-0.095542
  0
VERTEX
  8
0
 10
852.592351
 20
1100.512306
 42
-0.437229
  0
VERTEX
  8
0
 10
852.152553
 20
1100.729511
 42
-0.072048
  0
VERTEX
  8
0
 10
852.000000
 20
1101.782701
 42
0.029546
  0
VERTEX
  8
0
 10
851.933430
 20
1102.908254
 42
0.009276
  0
VERTEX
  8
0
 10
851.703321
 20
1104.581051
 42
0.009231
  0
VERTEX
  8
0
 10
851.376668
 20
1106.442487
 42
0.010095
  0
VERTEX
  8
0
 10
850.990029
 20
1108.235649
 42
-0.021607
  0
VERTEX
  8
0
 10
850.469501
 20
1110.951762
 42
-0.002132
  0
VERTEX
  8
0
 10
849.528876
 20
1117.536977
 42
-0.002688
  0
VERTEX
  8
0
 10
848.482931
 20
1125.400301
 42
-0.002129
  0
VERTEX
  8
0
 10
847.434148
 20
1133.911509
 42
0.003395
  0
VERTEX
  8
0
 10
846.314470
 20
1142.812245
 42
0.003226
  0
VERTEX
  8
0
 10
845.055763
 20
1151.850006
 42
0.003201
  0
VERTEX
  8
0
 10
843.840135
 20
1159.826526
 42
0.011390
  0
VERTEX
  8
0
 10
842.912627
 20
1164.911509
 42
-0.002350
  0
VERTEX
  8
0
 10
841.842349
 20
1170.232441
 42
-0.000514
  0
VERTEX
  8
0
 10
840.052109
 20
1179.404095
 42
-0.000535
  0
VERTEX
  8
0
 10
838.003530
 20
1190.017548
 42
-0.000513
  0
VERTEX
  8
0
 10
835.948952
 20
1200.783284
 42
0.002829
  0
VERTEX
  8
0
 10
833.789773
 20
1211.819260
 42
0.002533
  0
VERTEX
  8
0
 10
831.426987
 20
1223.244245
 42
0.002540
  0
VERTEX
  8
0
 10
829.201247
 20
1233.481663
 42
0.007934
  0
VERTEX
  8
0
 10
827.559546
 20
1240.337691
 42
0.016058
  0
VERTEX
  8
0
 10
823.578450
 20
1254.027165
 42
0.005131
  0
VERTEX
  8
0
 10
816.800315
 20
1274.117985
 42
0.005301
  0
VERTEX
  8
0
 10
809.387886
 20
1294.663478
 42
0.010999
  0
VERTEX
  8
0
 10
803.083850
 20
1310.499770
 42
0.031315
  0
VERTEX
  8
0
 10
796.646257
 20
1323.381216
 42
0.143010
  0
VERTEX
  8
0
 10
790.646309
 20
1329.091175
 42
0.238329
  0
VERTEX
  8
0
 10
784.377424
 20
1329.145187
 42
0.094593
  0
VERTEX
  8
0
 10
777.317414
 20
1323.801083
 42
-0.014071
  0
VERTEX
  8
0
 10
776.035896
 20
1322.459155
 42
-0.013061
  0
VERTEX
  8
0
 10
774.649463
 20
1321.156742
 42
-0.013172
  0
VERTEX
  8
0
 10
773.355906
 20
1320.063433
 42
-0.042162
  0
VERTEX
  8
0
 10
772.418970
 20
1319.434633
 42
0.144327
  0
VERTEX
  8
0
 10
770.279570
 20
1317.260356
 42
0.001818
  0
VERTEX
  8
0
 10
761.105954
 20
1299.936735
 42
0.005976
  0
VERTEX
  8
0
 10
752.264574
 20
1282.592015
 42
0.010465
  0
VERTEX
  8
0
 10
745.421117
 20
1268.000000
 42
0.019687
  0
VERTEX
  8
0
 10
735.742322
 20
1243.642511
 42
0.015180
  0
VERTEX
  8
0
 10
727.061115
 20
1216.401369
 42
0.015321
  0
VERTEX
  8
0
 10
720.156816
 20
1189.077892
 42
0.022034
  0
VERTEX
  8
0
 10
715.866835
 20
1164.500000
 42
0.027182
  0
VERTEX
  8
0
 10
714.749369
 20
1149.506605
 42
0.006413
  0
VERTEX
  8
0
 10
714.568096
 20
1124.383854
 42
0.006811
  0
VERTEX
  8
0
 10
715.059143
 20
1098.854393
 42
0.019616
  0
VERTEX
  8
0
 10
716.334242
 20
1081.195128
 42
0.012196
  0
VERTEX
  8
0
 10
719.219687
 20
1060.062057
 42
0.014105
  0
VERTEX
  8
0
 10
723.023010
 20
1040.102706
 42
0.014967
  0
VERTEX
  8
0
 10
727.684118
 20
1021.573081
 42
0.018828
  0
VERTEX
  8
0
 10
733.150070
 20
1004.742655
 42
0.012841
  0
VERTEX
  8
0
 10
737.008862
 20
995.006782
 42
0.004074
  0
VERTEX
  8
0
 10
743.250701
 20
980.691943
 42
0.002750
  0
VERTEX
  8
0
 10
749.672244
 20
966.496949
 42
0.036457
  0
VERTEX
  8
0
 10
752.441292
 20
961.466716
 42
-0.032434
  0
VERTEX
  8
0
 10
753.202613
 20
960.109633
 42
-0.002798
  0
VERTEX
  8
0
 10
754.898215
 20
956.515486
 42
-0.003680
  0
VERTEX
  8
0
 10
756.867024
 20
952.198160
 42
-0.002847
  0
VERTEX
  8
0
 10
758.950518
 20
947.466716
 42
0.004319
  0
VERTEX
  8
0
 10
761.189506
 20
942.422486
 42
0.003725
  0
VERTEX
  8
0
 10
763.626727
 20
937.161576
 42
0.003752
  0
VERTEX
  8
0
 10
765.908523
 20
932.423248
 42
0.010849
  0
VERTEX
  8
0
 10
767.583679
 20
929.189713
 42
-0.027892
  0
VERTEX
  8
0
 10
769.202959
 20
925.784811
 42
-0.008024
  0
VERTEX
  8
0
 10
771.324603
 20
920.348572
 42
-0.008046
  0
VERTEX
  8
0
 10
773.523785
 20
914.130723
 42
-0.008483
  0
VERTEX
  8
0
 10
775.481424
 20
907.953467
 42
0.005286
  0
VERTEX
  8
0
 10
778.858708
 20
897.055094
 42
0.026859
  0
VERTEX
  8
0
 10
781.125033
 20
891.120296
 42
0.034088
  0
VERTEX
  8
0
 10
783.774417
 20
886.112696
 42
0.011988
  0
VERTEX
  8
0
 10
788.224030
 20
879.302721
 42
-0.018622
  0
VERTEX
  8
0
 10
790.263118
 20
876.089697
 42
-0.013596
  0
VERTEX
  8
0
 10
792.294144
 20
872.381333
 42
-0.013773
  0
VERTEX
  8
0
 10
794.028776
 20
868.756480
 42
-0.029272
  0
VERTEX
  8
0
 10
795.124635
 20
865.847369
 42
0.000000
  0
VERTEX
  8
0
 10
797.072366
 20
859.589298
 42
0.000000
  0
VERTEX
  8
0
 10
793.893484
 20
853.044649
 42
-0.007594
  0
VERTEX
  8
0
 10
792.262985
 20
849.813601
 42
-0.002875
  0
VERTEX
  8
0
 10
789.891219
 20
845.348581
 42
-0.002847
  0
VERTEX
  8
0
 10
787.255924
 20
840.521592
 42
-0.003472
  0
VERTEX
  8
0
 10
784.732714
 20
836.035627
 42
0.004937
  0
VERTEX
  8
0
 10
780.890657
 20
829.157804
 42
0.047575
  0
VERTEX
  8
0
 10
779.573889
 20
826.081863
 42
0.077547
  0
VERTEX
  8
0
 10
779.151614
 20
823.372604
 42
0.023241
  0
VERTEX
  8
0
 10
779.346931
 20
819.187717
 42
0.042418
  0
VERTEX
  8
0
 10
780.396553
 20
813.349905
 42
0.042536
  0
VERTEX
  8
0
 10
782.415734
 20
807.778623
 42
0.040758
  0
VERTEX
  8
0
 10
785.441166
 20
802.422706
 42
0.033217
  0
VERTEX
  8
0
 10
789.491287
 20
797.226459
 42
0.049553
  0
VERTEX
  8
0
 10
795.753705
 20
791.470422
 42
0.013180
  0
VERTEX
  8
0
 10
806.820701
 20
783.604519
 42
0.013927
  0
VERTEX
  8
0
 10
818.668873
 20
776.115187
 42
0.031123
  0
VERTEX
  8
0
 10
828.147978
 20
771.256916
 42
0.011176
  0
VERTEX
  8
0
 10
833.250895
 20
769.165057
 42
0.041906
  0
VERTEX
  8
0
 10
836.573038
 20
768.199222
 42
0.042798
  0
VERTEX
  8
0
 10
839.975085
 20
767.811010
 42
0.012010
  0
VERTEX
  8
0
 10
845.328014
 20
767.789295
 42
0.011772
  0
VERTEX
  8
0
 10
849.335944
 20
767.963774
 42
0.006954
  0
VERTEX
  8
0
 10
854.110195
 20
768.351134
 42
0.006955
  0
VERTEX
  8
0
 10
858.868893
 20
768.870813
 42
0.011837
  0
VERTEX
  8
0
 10
862.828014
 20
769.454437
 42
-0.011300
  0
VERTEX
  8
0
 10
880.875286
 20
772.134657
 42
-0.016318
  0
VERTEX
  8
0
 10
896.937544
 20
773.619842
 42
-0.017871
  0
VERTEX
  8
0
 10
910.127513
 20
773.934235
 42
-0.062440
  0
VERTEX
  8
0
 10
918.542934
 20
772.777274
 42
0.036652
  0
VERTEX
  8
0
 10
921.499480
 20
772.214582
 42
0.066165
  0
VERTEX
  8
0
 10
923.960585
 20
772.257251
 42
0.038486
  0
VERTEX
  8
0
 10
927.102331
 20
772.980972
 42
0.005673
  0
VERTEX
  8
0
 10
933.307285
 20
775.000714
 42
0.030895
  0
VERTEX
  8
0
 10
950.092733
 20
781.857433
 42
0.018740
  0
VERTEX
  8
0
 10
969.056626
 20
791.900848
 42
0.017192
  0
VERTEX
  8
0
 10
989.223196
 20
804.513661
 42
0.014473
  0
VERTEX
  8
0
 10
1009.694986
 20
819.197880
 42
-0.003419
  0
VERTEX
  8
0
 10
1016.066410
 20
823.984833
 42
-0.041867
  0
VERTEX
  8
0
 10
1018.655197
 20
825.585670
 42
-0.141768
  0
VERTEX
  8
0
 10
1020.247259
 20
825.889339
 42
-0.174802
  0
VERTEX
  8
0
 10
1021.606560
 20
825.250583
 42
-0.075081
  0
VERTEX
  8
0
 10
1023.784751
 20
822.297501
 42
-0.019205
  0
VERTEX
  8
0
 10
1026.360620
 20
816.927133
 42
-0.020298
  0
VERTEX
  8
0
 10
1028.569672
 20
811.201742
 42
-0.047894
  0
VERTEX
  8
0
 10
1029.620376
 20
806.753008
 42
-0.087790
  0
VERTEX
  8
0
 10
1029.436190
 20
802.022196
 42
-0.059350
  0
VERTEX
  8
0
 10
1027.669466
 20
796.907748
 42
-0.041472
  0
VERTEX
  8
0
 10
1024.058118
 20
790.801177
 42
-0.015456
  0
VERTEX
  8
0
 10
1018.038108
 20
782.847097
 42
-0.034644
  0
VERTEX
  8
0
 10
1002.390978
 20
765.984837
 42
-0.031851
  0
VERTEX
  8
0
 10
984.140637
 20
750.927804
 42
-0.027108
  0
VERTEX
  8
0
 10
961.506291
 20
736.358140
 42
-0.014869
  0
VERTEX
  8
0
 10
932.376907
 20
720.895921
 42
-0.019658
  0
VERTEX
  8
0
 10
925.023998
 20
717.621613
 42
-0.032679
  0
VERTEX
  8
0
 10
918.574903
 20
715.525175
 42
-0.018543
  0
VERTEX
  8
0
 10
909.779817
 20
713.633250
 42
-0.002613
  0
VERTEX
  8
0
 10
891.500000
 20
710.503403
 42
0.009559
  0
VERTEX
  8
0
 10
877.902907
 20
707.980438
 42
0.014034
  0
VERTEX
  8
0
 10
866.066366
 20
705.200877
 42
0.011443
  0
VERTEX
  8
0
 10
852.770255
 20
701.354467
 42
0.004101
  0
VERTEX
  8
0
 10
834.000000
 20
695.286162
 42
0.016111
  0
VERTEX
  8
0
 10
816.255782
 20
688.746423
 42
0.011254
  0
VERTEX
  8
0
 10
796.678110
 20
680.287705
 42
0.010793
  0
VERTEX
  8
0
 10
776.464356
 20
670.475243
 42
0.010925
  0
VERTEX
  8
0
 10
756.775451
 20
659.837398
 42
-0.001610
  0
VERTEX
  8
0
 10
739.741627
 20
650.219893
 42
-0.002830
  0
VERTEX
  8
0
 10
725.589446
 20
642.394304
 42
-0.003398
  0
VERTEX
  8
0
 10
713.666816
 20
635.994164
 42
-0.005685
  0
VERTEX
  8
0
 10
703.544399
 20
630.794982
 42
0.007521
  0
VERTEX
  8
0
 10
689.719191
 20
623.629640
 42
0.010518
  0
VERTEX
  8
0
 10
677.601133
 20
616.783657
 42
0.008851
  0
VERTEX
  8
0
 10
664.325127
 20
608.589588
 42
0.003579
  0
VERTEX
  8
0
 10
646.500000
 20
596.966171
 42
-0.002200
  0
VERTEX
  8
0
 10
625.680518
 20
583.308189
 42
-0.008986
  0
VERTEX
  8
0
 10
612.853605
 20
575.298050
 42
-0.013228
  0
VERTEX
  8
0
 10
602.399316
 20
569.398097
 42
-0.010312
  0
VERTEX
  8
0
 10
590.748571
 20
563.527899
 42
-0.029379
  0
VERTEX
  8
0
 10
568.798147
 20
554.572866
 42
-0.039221
  0
VERTEX
  8
0
 10
547.952414
 20
549.245395
 42
-0.044102
  0
VERTEX
  8
0
 10
528.828916
 20
547.641762
 42
-0.063908
  0
VERTEX
  8
0
 10
512.048636
 20
549.871935
 42
-0.021827
  0
VERTEX
  8
0
 10
496.526495
 20
554.731731
 42
-0.020271
  0
VERTEX
  8
0
 10
481.091438
 20
561.033199
 42
-0.021061
  0
VERTEX
  8
0
 10
466.981851
 20
568.204945
 42
-0.032349
  0
VERTEX
  8
0
 10
455.500000
 20
575.679155
 42
-0.025906
  0
VERTEX
  8
0
 10
446.039326
 20
583.543624
 42
-0.008233
  0
VERTEX
  8
0
 10
432.769449
 20
596.201318
 42
-0.008514
  0
VERTEX
  8
0
 10
419.485383
 20
609.750646
 42
-0.016948
  0
VERTEX
  8
0
 10
409.527148
 20
621.000000
 42
-0.028052
  0
VERTEX
  8
0
 10
403.044488
 20
629.805566
 42
-0.028083
  0
VERTEX
  8
0
 10
397.590871
 20
639.278370
 42
-0.023568
  0
VERTEX
  8
0
 10
392.508883
 20
650.686138
 42
-0.011767
  0
VERTEX
  8
0
 10
387.111560
 20
665.544426
 42
-0.013252
  0
VERTEX
  8
0
 10
382.143619
 20
681.696089
 42
-0.023547
  0
VERTEX
  8
0
 10
379.041277
 20
695.262724
 42
-0.023804
  0
VERTEX
  8
0
 10
377.248740
 20
708.960414
 42
-0.013894
  0
VERTEX
  8
0
 10
376.342461
 20
725.500000
 42
-0.010799
  0
VERTEX
  8
0
 10
376.259721
 20
740.948894
 42
-0.023811
  0
VERTEX
  8
0
 10
377.012570
 20
752.722993
 42
-0.023559
  0
VERTEX
  8
0
 10
378.887696
 20
764.448441
 42
-0.010356
  0
VERTEX
  8
0
 10
382.416914
 20
779.769706
 42
-0.020412
  0
VERTEX
  8
0
 10
392.394715
 20
813.460507
 42
-0.019141
  0
VERTEX
  8
0
 10
405.276772
 20
846.968916
 42
-0.019968
  0
VERTEX
  8
0
 10
419.837859
 20
877.483320
 42
-0.032301
  0
VERTEX
  8
0
 10
434.860465
 20
902.000000
 42
-0.014136
  0
VERTEX
  8
0
 10
444.570440
 20
914.971210
 42
-0.001661
  0
VERTEX
  8
0
 10
467.109838
 20
943.177789
 42
-0.001849
  0
VERTEX
  8
0
 10
489.781130
 20
971.144636
 42
-0.010989
  0
VERTEX
  8
0
 10
501.996314
 20
985.446308
 42
-0.004325
  0
VERTEX
  8
0
 10
507.771132
 20
991.802630
 42
-0.001750
  0
VERTEX
  8
0
 10
515.749720
 20
1000.373066
 42
-0.001732
  0
VERTEX
  8
0
 10
524.399023
 20
1009.535188
 42
-0.002200
  0
VERTEX
  8
0
 10
532.449836
 20
1017.930087
 42
0.002931
  0
VERTEX
  8
0
 10
545.949471
 20
1032.047949
 42
0.018495
  0
VERTEX
  8
0
 10
552.514060
 20
1039.530111
 42
0.033998
  0
VERTEX
  8
0
 10
556.616647
 20
1045.335332
 42
0.029952
  0
VERTEX
  8
0
 10
560.089717
 20
1051.888315
 42
0.020567
  0
VERTEX
  8
0
 10
562.373574
 20
1057.502697
 42
0.111563
  0
VERTEX
  8
0
 10
562.774367
 20
1060.744495
 42
0.141901
  0
VERTEX
  8
0
 10
561.691290
 20
1063.447385
 42
0.040784
  0
VERTEX
  8
0
 10
558.606073
 20
1066.795460
 42
0.055780
  0
VERTEX
  8
0
 10
554.692809
 20
1069.668310
 42
0.069617
  0
VERTEX
  8
0
 10
550.514886
 20
1071.350669
 42
0.049490
  0
VERTEX
  8
0
 10
544.999681
 20
1072.155481
 42
0.014832
  0
VERTEX
  8
0
 10
536.500000
 20
1072.294381
 42
0.030538
  0
VERTEX
  8
0
 10
525.709273
 20
1071.490293
 42
0.027878
  0
VERTEX
  8
0
 10
514.757106
 20
1069.370585
 42
0.023674
  0
VERTEX
  8
0
 10
502.585139
 20
1065.681776
 42
0.012874
  0
VERTEX
  8
0
 10
488.000000
 20
1060.069242
 42
-0.000752
  0
VERTEX
  8
0
 10
483.230470
 20
1058.099847
 42
-0.000731
  0
VERTEX
  8
0
 10
478.409375
 20
1056.125878
 42
-0.000720
  0
VERTEX
  8
0
 10
474.165728
 20
1054.402706
 42
-0.002718
  0
VERTEX
  8
0
 10
471.500000
 20
1053.341556
 42
0.037248
  0
VERTEX
  8
0
 10
465.728636
 20
1050.568826
 42
0.008444
  0
VERTEX
  8
0
 10
456.399058
 20
1044.986328
 42
0.007045
  0
VERTEX
  8
0
 10
444.056600
 20
1037.071831
 42
0.003053
  0
VERTEX
  8
0
 10
427.850389
 20
1026.211759
 42
0.006624
  0
VERTEX
  8
0
 10
407.728688
 20
1012.156052
 42
0.007996
  0
VERTEX
  8
0
 10
389.225987
 20
998.409256
 42
0.008164
  0
VERTEX
  8
0
 10
371.506212
 20
984.333181
 42
0.007502
  0
VERTEX
  8
0
 10
353.742079
 20
969.290644
 42
0.008886
  0
VERTEX
  8
0
 10
341.765654
 20
958.455637
 42
0.004846
  0
VERTEX
  8
0
 10
327.437912
 20
944.759462
 42
0.000965
  0
VERTEX
  8
0
 10
312.772647
 20
930.410765
 42
0.192143
  0
VERTEX
  8
0
 10
311.962453
 20
928.570476
 42
-0.131793
  0
VERTEX
  8
0
 10
311.772903
 20
927.951433
 42
-0.012950
  0
VERTEX
  8
0
 10
310.903720
 20
926.639452
 42
-0.015659
  0
VERTEX
  8
0
 10
309.759515
 20
925.110101
 42
-0.011790
  0
VERTEX
  8
0
 10
308.410981
 20
923.500000
 42
0.014205
  0
VERTEX
  8
0
 10
286.696325
 20
897.317681
 42
0.016082
  0
VERTEX
  8
0
 10
267.421769
 20
870.983017
 42
0.016373
  0
VERTEX
  8
0
 10
250.183957
 20
843.906225
 42
0.015904
  0
VERTEX
  8
0
 10
234.578142
 20
815.500000
 42
0.004754
  0
VERTEX
  8
0
 10
226.968866
 20
800.182257
 42
0.009625
  0
VERTEX
  8
0
 10
221.328563
 20
787.958048
 42
0.010770
  0
VERTEX
  8
0
 10
217.429619
 20
778.513383
 42
0.054123
  0
VERTEX
  8
0
 10
215.952135
 20
773.000000
 42
-0.022100
  0
VERTEX
  8
0
 10
215.426356
 20
770.377739
 42
-0.003466
  0
VERTEX
  8
0
 10
214.127216
 20
765.268750
 42
-0.003848
  0
VERTEX
  8
0
 10
212.506495
 20
759.264264
 42
-0.003348
  0
VERTEX
  8
0
 10
210.718546
 20
753.000000
 42
0.015165
  0
VERTEX
  8
0
 10
201.955400
 20
719.299602
 42
0.019632
  0
VERTEX
  8
0
 10
196.086078
 20
687.903257
 42
0.019944
  0
VERTEX
  8
0
 10
192.760902
 20
656.552088
 42
0.016527
  0
VERTEX
  8
0
 10
191.662264
 20
623.000000
 42
0.006789
  0
VERTEX
  8
0
 10
191.947271
 20
602.491782
 42
0.011449
  0
VERTEX
  8
0
 10
192.813303
 20
585.313370
 42
0.011822
  0
VERTEX
  8
0
 10
194.439812
 20
568.582621
 42
0.007878
  0
VERTEX
  8
0
 10
197.057215
 20
549.500000
 42
-0.002170
  0
VERTEX
  8
0
 10
197.852428
 20
544.156249
 42
-0.002224
  0
VERTEX
  8
0
 10
198.594456
 20
538.850000
 42
-0.002153
  0
VERTEX
  8
0
 10
199.198049
 20
534.239755
 42
-0.009364
  0
VERTEX
  8
0
 10
199.492744
 20
531.500000
 42
0.040759
  0
VERTEX
  8
0
 10
201.472555
 20
519.959400
 42
0.005965
  0
VERTEX
  8
0
 10
207.660346
 20
497.004199
 42
0.007294
  0
VERTEX
  8
0
 10
214.851770
 20
472.889266
 42
0.013519
  0
VERTEX
  8
0
 10
221.498923
 20
453.573753
 42
0.023160
  0
VERTEX
  8
0
 10
233.828534
 20
424.796355
 42
0.016686
  0
VERTEX
  8
0
 10
250.102661
 20
393.874742
 42
0.016334
  0
VERTEX
  8
0
 10
268.907494
 20
363.237816
 42
0.018702
  0
VERTEX
  8
0
 10
288.887244
 20
335.284922
 42
0.026269
  0
VERTEX
  8
0
 10
295.907978
 20
327.124939
 42
0.008050
  0
VERTEX
  8
0
 10
307.338061
 20
315.550395
 42
0.008303
  0
VERTEX
  8
0
 10
319.990080
 20
303.549979
 42
0.012314
  0
VERTEX
  8
0
 10
331.500000
 20
293.500912
 42
0.020808
  0
VERTEX
  8
0
 10
344.046354
 20
283.933296
 42
0.008852
  0
VERTEX
  8
0
 10
361.583402
 20
272.135543
 42
0.008389
  0
VERTEX
  8
0
 10
379.041858
 20
261.245583
 42
0.031411
  0
VERTEX
  8
0
 10
390.512974
 20
255.300794
 42
0.004788
  0
VERTEX
  8
0
 10
403.542132
 20
249.703543
 42
0.004561
  0
VERTEX
  8
0
 10
416.888193
 20
244.263442
 42
0.004681
  0
VERTEX
  8
0
 10
428.923605
 20
239.615096
 42
0.012968
  0
VERTEX
  8
0
 10
437.500000
 20
236.646021
 42
0.000219
  0
VERTEX
  8
0
 10
442.658289
 20
235.011262
 42
0.000111
  0
VERTEX
  8
0
 10
449.155148
 20
232.957006
 42
0.000110
  0
VERTEX
  8
0
 10
455.863244
 20
230.839226
 42
0.000165
  0
VERTEX
  8
0
 10
461.730289
 20
228.990515
 42
-0.008149
  0
VERTEX
  8
0
 10
470.171334
 20
226.181790
 42
-0.038792
  0
VERTEX
  8
0
 10
474.822448
 20
224.132194
 42
-0.035856
  0
VERTEX
  8
0
 10
479.260881
 20
221.322906
 42
-0.006304
  0
VERTEX
  8
0
 10
487.134810
 20
215.354706
 42
0.023371
  0
VERTEX
  8
0
 10
501.536679
 20
205.193126
 42
0.058349
  0
VERTEX
  8
0
 10
513.108314
 20
199.586845
 42
0.059153
  0
VERTEX
  8
0
 10
525.566908
 20
196.847584
 42
0.024569
  0
VERTEX
  8
0
 10
542.805322
 20
196.000000
 42
0.016192
  0
VERTEX
  8
0
 10
554.739976
 20
196.386601
 42
0.018637
  0
VERTEX
  8
0
 10
566.073916
 20
197.547075
 42
0.019733
  0
VERTEX
  8
0
 10
576.648772
 20
199.457882
 42
0.024410
  0
VERTEX
  8
0
 10
586.302323
 20
202.098795
 42
0.021536
  0
VERTEX
  8
0
 10
593.740236
 20
204.889192
 42
0.035934
  0
VERTEX
  8
0
 10
599.687770
 20
207.938903
 42
0.039423
  0
VERTEX
  8
0
 10
604.740703
 20
211.580309
 42
0.033820
  0
VERTEX
  8
0
 10
609.443805
 20
216.148722
 42
-0.017257
  0
VERTEX
  8
0
 10
612.135353
 20
218.942176
 42
-0.062059
  0
VERTEX
  8
0
 10
614.108585
 20
220.428285
 42
-0.067250
  0
VERTEX
  8
0
 10
616.302873
 20
221.323206
 42
-0.022657
  0
VERTEX
  8
0
 10
619.691308
 20
222.037082
 42
-0.031851
  0
VERTEX
  8
0
 10
627.047734
 20
222.765203
 42
-0.009725
  0
VERTEX
  8
0
 10
638.234501
 20
222.938916
 42
-0.009937
  0
VERTEX
  8
0
 10
649.537446
 20
222.669920
 42
-0.027065
  0
VERTEX
  8
0
 10
657.500000
 20
221.888815
 42
0.032667
  0
VERTEX
  8
0
 10
666.976143
 20
221.066201
 42
0.005780
  0
VERTEX
  8
0
 10
684.818321
 20
220.892723
 42
0.006679
  0
VERTEX
  8
0
 10
703.326685
 20
221.173957
 42
0.015311
  0
VERTEX
  8
0
 10
717.246097
 20
221.998531
 42
0.005033
  0
VERTEX
  8
0
 10
722.892997
 20
222.564283
 42
0.002763
  0
VERTEX
  8
0
 10
729.795777
 20
223.364748
 42
0.002754
  0
VERTEX
  8
0
 10
736.793627
 20
224.254586
 42
0.004399
  0
VERTEX
  8
0
 10
742.760805
 20
225.100267
 42
-0.007024
  0
VERTEX
  8
0
 10
752.337245
 20
226.406216
 42
-0.072376
  0
VERTEX
  8
0
 10
756.315465
 20
226.314655
 42
-0.101421
  0
VERTEX
  8
0
 10
759.590125
 20
225.045810
 42
-0.019333
  0
VERTEX
  8
0
 10
764.851501
 20
221.364831
 42
0.094153
  0
VERTEX
  8
0
 10
771.673820
 20
217.972985
 42
0.049549
  0
VERTEX
  8
0
 10
781.030033
 20
216.322497
 42
0.045604
  0
VERTEX
  8
0
 10
791.567463
 20
216.486401
 42
0.044385
  0
VERTEX
  8
0
 10
802.000000
 20
218.551370
 42
0.046565
  0
VERTEX
  8
0
 10
809.961916
 20
221.705490
 42
0.013222
  0
VERTEX
  8
0
 10
821.681458
 20
228.057593
 42
0.013871
  0
VERTEX
  8
0
 10
833.590396
 20
235.373283
 42
0.025720
  0
VERTEX
  8
0
 10
842.754511
 20
242.055507
 42
-0.014641
  0
VERTEX
  8
0
 10
849.124452
 20
246.919980
 42
-0.049879
  0
VERTEX
  8
0
 10
853.640576
 20
249.525161
 42
-0.078003
  0
VERTEX
  8
0
 10
857.369641
 20
250.548647
 42
-0.092248
  0
VERTEX
  8
0
 10
861.011697
 20
250.286690
 42
-0.151603
  0
VERTEX
  8
0
 10
862.277468
 20
249.498934
 42
-0.035778
  0
VERTEX
  8
0
 10
863.785656
 20
247.480293
 42
-0.025031
  0
VERTEX
  8
0
 10
865.621594
 20
244.274398
 42
-0.008050
  0
VERTEX
  8
0
 10
868.025584
 20
239.347345
 42
0.026441
  0
VERTEX
  8
0
 10
878.617534
 20
219.523096
 42
0.029437
  0
VERTEX
  8
0
 10
890.904848
 20
201.656093
 42
0.030789
  0
VERTEX
  8
0
 10
904.624406
 20
186.103057
 42
0.035940
  0
VERTEX
  8
0
 10
919.500000
 20
173.199093
 42
0.032208
  0
VERTEX
  8
0
 10
927.600192
 20
167.911749
 42
0.013011
  0
VERTEX
  8
0
 10
939.264025
 20
161.722016
 42
0.012579
  0
VERTEX
  8
0
 10
951.002503
 20
156.242879
 42
0.042676
  0
VERTEX
  8
0
 10
959.000000
 20
153.536970
 42
0.033684
  0
VERTEX
  8
0
 10
967.176558
 20
152.102985
 42
0.016228
  0
VERTEX
  8
0
 10
977.790850
 20
151.318052
 42
0.016241
  0
VERTEX
  8
0
 10
988.520963
 20
151.222732
 42
0.031067
  0
VERTEX
  8
0
 10
997.102236
 20
151.960044
 42
0.035441
  0
VERTEX
  8
0
 10
1009.092078
 20
154.624545
 42
0.034701
  0
VERTEX
  8
0
 10
1020.673311
 20
158.969248
 42
0.035747
  0
VERTEX
  8
0
 10
1031.188817
 20
164.710337
 42
0.044341
  0
VERTEX
  8
0
 10
1039.994304
 20
171.541851
 42
-0.005881
  0
VERTEX
  8
0
 10
1042.678544
 20
173.976537
 42
-0.006264
  0
VERTEX
  8
0
 10
1045.364064
 20
176.296023
 42
-0.005985
  0
VERTEX
  8
0
 10
1047.722038
 20
178.233818
 42
-0.028721
  0
VERTEX
  8
0
 10
1049.138681
 20
179.241965
 42
0.109527
  0
VERTEX
  8
0
 10
1051.179992
 20
181.258354
 42
0.014513
  0
VERTEX
  8
0
 10
1054.343533
 20
186.484462
 42
0.017932
  0
VERTEX
  8
0
 10
1057.366335
 20
192.298532
 42
0.030539
  0
VERTEX
  8
0
 10
1059.410142
 20
197.378210
 42
-0.197621
  0
VERTEX
  8
0
 10
1060.006416
 20
198.069571
 42
-0.243673
  0
VERTEX
  8
0
 10
1060.846668
 20
198.061896
 42
-0.061397
  0
VERTEX
  8
0
 10
1062.285482
 20
197.056704
 42
-0.006271
  0
VERTEX
  8
0
 10
1065.346959
 20
194.233184
 42
0.017995
  0
VERTEX
  8
0
 10
1067.808595
 20
192.067436
 42
0.011301
  0
VERTEX
  8
0
 10
1070.830350
 20
189.707895
 42
0.011342
  0
VERTEX
  8
0
 10
1073.913579
 20
187.517565
 42
0.020299
  0
VERTEX
  8
0
 10
1076.555357
 20
185.881849
 42
-0.024826
  0
VERTEX
  8
0
 10
1079.215947
 20
184.200986
 42
-0.012967
  0
VERTEX
  8
0
 10
1082.363704
 20
181.862120
 42
-0.012865
  0
VERTEX
  8
0
 10
1085.475801
 20
179.290015
 42
-0.019189
  0
VERTEX
  8
0
 10
1088.047467
 20
176.871164
 42
0.012051
  0
VERTEX
  8
0
 10
1091.449337
 20
173.578681
 42
0.056658
  0
VERTEX
  8
0
 10
1093.641047
 20
171.974745
 42
0.071921
  0
VERTEX
  8
0
 10
1095.884724
 20
171.091642
 42
0.026777
  0
VERTEX
  8
0
 10
1099.228277
 20
170.490683
 42
0.018588
  0
VERTEX
  8
0
 10
1101.684178
 20
170.276169
 42
0.013190
  0
VERTEX
  8
0
 10
1104.448974
 20
170.210978
 42
0.013340
  0
VERTEX
  8
0
 10
1107.095565
 20
170.289030
 42
0.027360
  0
VERTEX
  8
0
 10
1109.157022
 20
170.518521
 42
0.030819
  0
VERTEX
  8
0
 10
1113.680147
 20
171.564202
 42
0.023317
  0
VERTEX
  8
0
 10
1118.493373
 20
173.242152
 42
0.020918
  0
VERTEX
  8
0
 10
1122.668671
 20
175.126257
 42
0.118982
  0
VERTEX
  8
0
 10
1124.514836
 20
176.689402
 42
-0.079146
  0
VERTEX
  8
0
 10
1125.267236
 20
177.435903
 42
-0.128554
  0
VERTEX
  8
0
 10
1126.102536
 20
177.757768
 42
-0.083516
  0
VERTEX
  8
0
 10
1127.243663
 20
177.695450
 42
-0.020004
  0
VERTEX
  8
0
 10
1129.083477
 20
177.203648
 42
0.056369
  0
VERTEX
  8
0
 10
1143.532563
 20
174.445954
 42
0.070983
  0
VERTEX
  8
0
 10
1157.108803
 20
175.339984
 42
0.074380
  0
VERTEX
  8
0
 10
1169.393873
 20
179.907702
 42
0.070470
  0
VERTEX
  8
0
 10
1180.059814
 20
187.934917
 42
0.074870
  0
VERTEX
  8
0
 10
1188.247236
 20
199.036279
 42
0.025311
  0
VERTEX
  8
0
 10
1196.742236
 20
217.298783
 42
0.024471
  0
VERTEX
  8
0
 10
1204.240180
 20
238.778606
 42
0.025425
  0
VERTEX
  8
0
 10
1209.493819
 20
260.617889
 42
0.022037
  0
VERTEX
  8
0
 10
1212.129648
 20
279.165248
 42
0.013819
  0
VERTEX
  8
0
 10
1213.650933
 20
301.029912
 42
0.013721
  0
VERTEX
  8
0
 10
1213.970956
 20
323.268367
 42
0.019531
  0
VERTEX
  8
0
 10
1212.941842
 20
343.000000
 42
0.014917
  0
VERTEX
  8
0
 10
1210.488259
 20
363.178854
 42
0.008818
  0
VERTEX
  8
0
 10
1206.419733
 20
387.100492
 42
0.008698
  0
VERTEX
  8
0
 10
1201.371292
 20
411.565547
 42
0.011722
  0
VERTEX
  8
0
 10
1195.902239
 20
433.501679
 42
-0.001023
  0
VERTEX
  8
0
 10
1194.259529
 20
439.537289
 42
-0.001198
  0
VERTEX
  8
0
 10
1192.726782
 20
445.269243
 42
-0.001055
  0
VERTEX
  8
0
 10
1191.452968
 20
450.120362
 42
-0.007365
  0
VERTEX
  8
0
 10
1190.870769
 20
452.500000
 42
-0.004104
  0
VERTEX
  8
0
 10
1188.896494
 20
461.454509
 42
-0.070656
  0
VERTEX
  8
0
 10
1188.693942
 20
464.440957
 42
-0.097359
  0
VERTEX
  8
0
 10
1189.415441
 20
467.073881
 42
-0.010551
  0
VERTEX
  8
0
 10
1192.353908
 20
472.681537
 42
0.002692
  0
VERTEX
  8
0
 10
1205.608518
 20
497.037222
 42
0.005787
  0
VERTEX
  8
0
 10
1215.504804
 20
515.980042
 42
0.007221
  0
VERTEX
  8
0
 10
1222.692247
 20
530.655741
 42
0.021341
  0
VERTEX
  8
0
 10
1227.045000
 20
541.000000
 42
0.017119
  0
VERTEX
  8
0
 10
1236.613373
 20
569.739827
 42
0.020069
  0
VERTEX
  8
0
 10
1243.636854
 20
597.592032
 42
0.020289
  0
VERTEX
  8
0
 10
1248.346586
 20
625.648905
 42
0.018260
  0
VERTEX
  8
0
 10
1250.972394
 20
655.000000
 42
-0.000944
  0
VERTEX
  8
0
 10
1252.174932
 20
677.003673
 42
-0.006216
  0
VERTEX
  8
0
 10
1252.934766
 20
688.011376
 42
-0.006543
  0
VERTEX
  8
0
 10
1253.581739
 20
694.841829
 42
-0.162364
  0
VERTEX
  8
0
 10
1254.359108
 20
696.539343
 42
-0.382013
  0
VERTEX
  8
0
 10
1257.787186
 20
696.847415
 42
-0.041046
  0
VERTEX
  8
0
 10
1264.292214
 20
691.116367
 42
-0.034930
  0
VERTEX
  8
0
 10
1271.962348
 20
681.948666
 42
-0.021314
  0
VERTEX
  8
0
 10
1279.750000
 20
670.171357
 42
-0.003099
  0
VERTEX
  8
0
 10
1282.528652
 20
665.487326
 42
-0.004762
  0
VERTEX
  8
0
 10
1284.870312
 20
661.394649
 42
-0.001733
  0
VERTEX
  8
0
 10
1286.836078
 20
657.853011
 42
-0.126479
  0
VERTEX
  8
0
 10
1287.000000
 20
657.215354
 42
0.185106
  0
VERTEX
  8
0
 10
1287.508646
 20
655.888500
 42
0.055691
  0
VERTEX
  8
0
 10
1289.151616
 20
654.425881
 42
0.055723
  0
VERTEX
  8
0
 10
1291.069478
 20
653.366183
 42
0.192286
  0
VERTEX
  8
0
 10
1292.462755
 20
653.347334
 42
0.253606
  0
VERTEX
  8
0
 10
1293.303830
 20
654.330532
 42
0.032572
  0
VERTEX
  8
0
 10
1293.721139
 20
657.172657
 42
0.017623
  0
VERTEX
  8
0
 10
1293.948090
 20
662.165495
 42
0.002545
  0
VERTEX
  8
0
 10
1294.000000
 20
672.362661
 42
0.015674
  0
VERTEX
  8
0
 10
1293.298082
 20
694.747780
 42
0.020294
  0
VERTEX
  8
0
 10
1291.180351
 20
715.180492
 42
0.017774
  0
VERTEX
  8
0
 10
1287.155882
 20
737.371923
 42
0.008566
  0
VERTEX
  8
0
 10
1280.508209
 20
765.500000
 42
0.009331
  0
VERTEX
  8
0
 10
1272.559254
 20
794.461549
 42
0.015204
  0
VERTEX
  8
0
 10
1264.617037
 20
818.676077
 42
0.017563
  0
VERTEX
  8
0
 10
1256.249954
 20
839.475423
 42
0.022307
  0
VERTEX
  8
0
 10
1247.021222
 20
858.000000
 42
-0.057337
  0
VERTEX
  8
0
 10
1246.081007
 20
860.272728
 42
-0.006466
  0
VERTEX
  8
0
 10
1244.618818
 20
865.665458
 42
-0.007771
  0
VERTEX
  8
0
 10
1243.056386
 20
872.153998
 42
-0.006240
  0
VERTEX
  8
0
 10
1241.571431
 20
879.180281
 42
0.004715
  0
VERTEX
  8
0
 10
1238.628057
 20
893.320344
 42
0.004875
  0
VERTEX
  8
0
 10
1235.449686
 20
907.245143
 42
0.003194
  0
VERTEX
  8
0
 10
1232.461834
 20
919.425739
 42
0.048854
  0
VERTEX
  8
0
 10
1230.999658
 20
923.500000
 42
-0.018182
  0
VERTEX
  8
0
 10
1230.374403
 20
924.955140
 42
-0.000553
  0
VERTEX
  8
0
 10
1228.009810
 20
931.081250
 42
-0.001092
  0
VERTEX
  8
0
 10
1225.247396
 20
938.308683
 42
-0.000754
  0
VERTEX
  8
0
 10
1222.151182
 20
946.500000
 42
0.000622
  0
VERTEX
  8
0
 10
1219.010789
 20
954.814829
 42
0.000808
  0
VERTEX
  8
0
 10
1216.111094
 20
962.426397
 42
0.000603
  0
VERTEX
  8
0
 10
1213.662461
 20
968.799812
 42
0.007337
  0
VERTEX
  8
0
 10
1212.684970
 20
971.228159
 42
-0.022762
  0
VERTEX
  8
0
 10
1212.120828
 20
972.764816
 42
-0.040605
  0
VERTEX
  8
0
 10
1211.820370
 20
974.076580
 42
-0.051113
  0
VERTEX
  8
0
 10
1211.778900
 20
975.066643
 42
-0.243908
  0
VERTEX
  8
0
 10
1212.060152
 20
975.537176
 42
-0.073392
  0
VERTEX
  8
0
 10
1212.419686
 20
975.692183
 42
-0.149702
  0
VERTEX
  8
0
 10
1212.723920
 20
975.681024
 42
-0.188240
  0
VERTEX
  8
0
 10
1212.924961
 20
975.509621
 42
-0.123798
  0
VERTEX
  8
0
 10
1213.000000
 20
975.211197
 42
0.253900
  0
VERTEX
  8
0
 10
1213.192307
 20
974.856903
 42
0.059254
  0
VERTEX
  8
0
 10
1213.820360
 20
974.547419
 42
0.047069
  0
VERTEX
  8
0
 10
1214.722888
 20
974.321375
 42
0.030738
  0
VERTEX
  8
0
 10
1215.792716
 20
974.224957
 42
-0.078539
  0
VERTEX
  8
0
 10
1220.807872
 20
973.285478
 42
-0.010991
  0
VERTEX
  8
0
 10
1230.696877
 20
969.518905
 42
-0.013504
  0
VERTEX
  8
0
 10
1241.035678
 20
964.989545
 42
-0.023700
  0
VERTEX
  8
0
 10
1249.284746
 20
960.618092
 42
-0.007592
  0
VERTEX
  8
0
 10
1253.522749
 20
958.020443
 42
-0.004039
  0
VERTEX
  8
0
 10
1258.692532
 20
954.683796
 42
-0.004019
  0
VERTEX
  8
0
 10
1263.921377
 20
951.188386
 42
-0.006235
  0
VERTEX
  8
0
 10
1268.370682
 20
948.080207
 42
0.008508
  0
VERTEX
  8
0
 10
1272.290890
 20
945.368066
 42
0.011771
  0
VERTEX
  8
0
 10
1275.903120
 20
943.079811
 42
0.008443
  0
VERTEX
  8
0
 10
1278.970121
 20
941.306437
 42
0.127524
  0
VERTEX
  8
0
 10
1280.152066
 20
941.000000
 42
0.143323
  0
VERTEX
  8
0
 10
1281.781764
 20
941.476944
 42
0.203936
  0
VERTEX
  8
0
 10
1282.621797
 20
942.707384
 42
0.155321
  0
VERTEX
  8
0
 10
1282.425494
 20
944.460561
 42
0.082526
  0
VERTEX
  8
0
 10
1281.208263
 20
946.300881
 42
-0.039244
  0
VERTEX
  8
0
 10
1280.017612
 20
947.801911
 42
-0.003504
  0
VERTEX
  8
0
 10
1277.355722
 20
951.819634
 42
-0.004551
  0
VERTEX
  8
0
 10
1274.253891
 20
956.669281
 42
-0.003535
  0
VERTEX
  8
0
 10
1270.964600
 20
962.000000
 42
0.007060
  0
VERTEX
  8
0
 10
1262.389696
 20
975.679953
 42
0.007588
  0
VERTEX
  8
0
 10
1253.630749
 20
988.784236
 42
0.008074
  0
VERTEX
  8
0
 10
1245.159001
 20
1000.637741
 42
0.012725
  0
VERTEX
  8
0
 10
1237.471246
 20
1010.500000
 42
0.018335
  0
VERTEX
  8
0
 10
1228.713423
 20
1020.400383
 42
0.008290
  0
VERTEX
  8
0
 10
1216.559647
 20
1032.748084
 42
0.007614
  0
VERTEX
  8
0
 10
1204.466730
 20
1044.276528
 42
0.033110
  0
VERTEX
  8
0
 10
1196.772004
 20
1050.500000
 42
-0.012798
  0
VERTEX
  8
0
 10
1194.594123
 20
1052.119768
 42
-0.018137
  0
VERTEX
  8
0
 10
1192.749214
 20
1053.677960
 42
-0.014380
  0
VERTEX
  8
0
 10
1191.333401
 20
1055.040901
 42
-0.186040
  0
VERTEX
  8
0
 10
1191.047990
 20
1055.701564
 42
-0.095235
  0
VERTEX
  8
0
 10
1191.167644
 20
1056.493382
 42
-0.005112
  0
VERTEX
  8
0
 10
1192.042222
 20
1058.888548
 42
-0.007848
  0
VERTEX
  8
0
 10
1193.162718
 20
1061.726645
 42
-0.005630
  0
VERTEX
  8
0
 10
1194.500000
 20
1064.863566
 42
0.008225
  0
VERTEX
  8
0
 10
1195.840255
 20
1068.053250
 42
0.010327
  0
VERTEX
  8
0
 10
1196.971875
 20
1071.053447
 42
0.008664
  0
VERTEX
  8
0
 10
1197.820705
 20
1073.591886
 42
0.076492
  0
VERTEX
  8
0
 10
1198.000000
 20
1074.757014
 42
0.253339
  0
VERTEX
  8
0
 10
1196.191108
 20
1078.097981
 42
0.117356
  0
VERTEX
  8
0
 10
1191.401276
 20
1079.817562
 42
0.063471
  0
VERTEX
  8
0
 10
1183.490601
 20
1079.693034
 42
0.023725
  0
VERTEX
  8
0
 10
1172.566427
 20
1077.592611
 42
-0.007876
  0
VERTEX
  8
0
 10
1167.747888
 20
1076.506764
 42
-0.022047
  0
VERTEX
  8
0
 10
1164.332220
 20
1075.949207
 42
-0.031040
  0
VERTEX
  8
0
 10
1161.853375
 20
1075.811085
 42
-0.089469
  0
VERTEX
  8
0
 10
1160.167929
 20
1076.126253
 42
-0.072965
  0
VERTEX
  8
0
 10
1158.761774
 20
1076.910939
 42
-0.008270
  0
VERTEX
  8
0
 10
1155.900384
 20
1079.183502
 42
-0.009870
  0
VERTEX
  8
0
 10
1152.575573
 20
1082.026756
 42
-0.007876
  0
VERTEX
  8
0
 10
1149.101502
 20
1085.217893
 42
0.018331
  0
VERTEX
  8
0
 10
1139.972517
 20
1093.258081
 42
0.010416
  0
VERTEX
  8
0
 10
1128.384429
 20
1102.336952
 42
0.010396
  0
VERTEX
  8
0
 10
1116.683932
 20
1110.742367
 42
0.022685
  0
VERTEX
  8
0
 10
1107.309150
 20
1116.578202
 42
-0.006249
  0
VERTEX
  8
0
 10
1104.124201
 20
1118.418472
 42
-0.009828
  0
VERTEX
  8
0
 10
1101.440813
 20
1120.086245
 42
-0.004326
  0
VERTEX
  8
0
 10
1099.222373
 20
1121.553683
 42
-0.249424
  0
VERTEX
  8
0
 10
1099.000000
 20
1121.971723
 42
-0.147368
  0
VERTEX
  8
0
 10
1099.146445
 20
1122.457800
 42
-0.003453
  0
VERTEX
  8
0
 10
1100.492883
 20
1124.459348
 42
-0.007345
  0
VERTEX
  8
0
 10
1102.134585
 20
1126.789549
 42
-0.004882
  0
VERTEX
  8
0
 10
1104.082153
 20
1129.415108
 42
0.008471
  0
VERTEX
  8
0
 10
1112.878878
 20
1141.453804
 42
0.012280
  0
VERTEX
  8
0
 10
1120.198603
 20
1152.396982
 42
0.013935
  0
VERTEX
  8
0
 10
1126.126795
 20
1162.351816
 42
0.020902
  0
VERTEX
  8
0
 10
1130.683348
 20
1171.379039
 42
0.007948
  0
VERTEX
  8
0
 10
1143.993181
 20
1202.023024
 42
0.013379
  0
VERTEX
  8
0
 10
1154.055423
 20
1228.190589
 42
0.013993
  0
VERTEX
  8
0
 10
1162.394124
 20
1254.012608
 42
0.009822
  0
VERTEX
  8
0
 10
1170.387970
 20
1283.500000
 42
0.004895
  0
VERTEX
  8
0
 10
1176.904986
 20
1310.683720
 42
0.011457
  0
VERTEX
  8
0
 10
1181.110819
 20
1331.158592
 42
0.014819
  0
VERTEX
  8
0
 10
1183.457419
 20
1346.680046
 42
0.042743
  0
VERTEX
  8
0
 10
1183.837610
 20
1357.544700
 42
0.012920
  0
VERTEX
  8
0
 10
1183.519124
 20
1361.711126
 42
0.049754
  0
VERTEX
  8
0
 10
1182.999912
 20
1364.252173
 42
0.063653
  0
VERTEX
  8
0
 10
1182.059312
 20
1366.313346
 42
0.030983
  0
VERTEX
  8
0
 10
1180.382141
 20
1368.676610
 42
0.024689
  0
VERTEX
  8
0
 10
1179.061167
 20
1370.157129
 42
0.027482
  0
VERTEX
  8
0
 10
1177.644868
 20
1371.445073
 42
0.028346
  0
VERTEX
  8
0
 10
1176.329932
 20
1372.396464
 42
0.112458
  0
VERTEX
  8
0
 10
1175.397868
 20
1372.732149
 42
0.093932
  0
VERTEX
  8
0
 10
1174.226620
 20
1372.655205
 42
0.009659
  0
VERTEX
  8
0
 10
1171.544835
 20
1371.906552
 42
0.011766
  0
VERTEX
  8
0
 10
1168.360665
 20
1370.868707
 42
0.009140
  0
SEQEND
  0
POLYLINE
  8
0
 66
1
 70
1
  0
VERTEX
  8
0
 10
1080.008107
 20
1277.952973
 42
0.008131
  0
VERTEX
  8
0
 10
1079.156733
 20
1274.910275
 42
0.004094
  0
VERTEX
  8
0
 10
1078.176566
 20
1271.045561
 42
0.004064
  0
VERTEX
  8
0
 10
1077.228392
 20
1267.033403
 42
0.006018
  0
VERTEX
  8
0
 10
1076.468235
 20
1263.500000
 42
-0.020066
  0
VERTEX
  8
0
 10
1073.925998
 20
1253.111303
 42
-0.020528
  0
VERTEX
  8
0
 10
1070.575309
 20
1243.039823
 42
-0.015088
  0
VERTEX
  8
0
 10
1065.571614
 20
1230.949493
 42
-0.005075
  0
VERTEX
  8
0
 10
1057.565639
 20
1213.617502
 42
0.003258
  0
VERTEX
  8
0
 10
1054.104163
 20
1206.194809
 42
0.037615
  0
VERTEX
  8
0
 10
1052.988720
 20
1203.182567
 42
0.112743
  0
VERTEX
  8
0
 10
1052.889104
 20
1201.370423
 42
0.142437
  0
VERTEX
  8
0
 10
1053.619909
 20
1199.867502
 42
0.029826
  0
VERTEX
  8
0
 10
1054.347402
 20
1199.154129
 42
0.032470
  0
VERTEX
  8
0
 10
1055.135178
 20
1198.553954
 42
0.034377
  0
VERTEX
  8
0
 10
1055.870209
 20
1198.135632
 42
0.116875
  0
VERTEX
  8
0
 10
1056.404988
 20
1198.018298
 42
0.099625
  0
VERTEX
  8
0
 10
1059.709024
 20
1198.740872
 42
0.005957
  0
VERTEX
  8
0
 10
1069.043466
 20
1202.974628
 42
0.008883
  0
VERTEX
  8
0
 10
1079.956016
 20
1208.320100
 42
0.006844
  0
VERTEX
  8
0
 10
1091.673329
 20
1214.524065
 42
0.005471
  0
VERTEX
  8
0
 10
1105.032071
 20
1222.024008
 42
0.012622
  0
VERTEX
  8
0
 10
1114.861827
 20
1228.020394
 42
0.015858
  0
VERTEX
  8
0
 10
1122.853257
 20
1233.543116
 42
0.016780
  0
VERTEX
  8
0
 10
1130.325320
 20
1239.462710
 42
0.000000
  0
VERTEX
  8
0
 10
1136.855795
 20
1245.002909
 42
0.000000
  0
VERTEX
  8
0
 10
1136.453322
 20
1239.751455
 42
0.005305
  0
VERTEX
  8
0
 10
1136.267085
 20
1236.928648
 42
0.001368
  0
VERTEX
  8
0
 10
1136.027420
 20
1232.370740
 42
0.001392
  0
VERTEX
  8
0
 10
1135.782778
 20
1227.170810
 42
0.001417
  0
VERTEX
  8
0
 10
1135.568617
 20
1222.000000
 42
-0.010509
  0
VERTEX
  8
0
 10
1134.958458
 20
1211.770661
 42
-0.024267
  0
VERTEX
  8
0
 10
1133.967229
 20
1204.136586
 42
-0.028735
  0
VERTEX
  8
0
 10
1132.369438
 20
1197.466011
 42
-0.022082
  0
VERTEX
  8
0
 10
1129.894329
 20
1190.395072
 42
-0.008600
  0
VERTEX
  8
0
 10
1126.055109
 20
1181.265293
 42
-0.008169
  0
VERTEX
  8
0
 10
1121.840289
 20
1172.113820
 42
-0.007246
  0
VERTEX
  8
0
 10
1117.908749
 20
1164.226757
 42
-0.043698
  0
VERTEX
  8
0
 10
1115.463660
 20
1160.363469
 42
0.032309
  0
VERTEX
  8
0
 10
1114.520714
 20
1158.945997
 42
0.028485
  0
VERTEX
  8
0
 10
1113.723700
 20
1157.359160
 42
0.029566
  0
VERTEX
  8
0
 10
1113.171108
 20
1155.842456
 42
0.072697
  0
VERTEX
  8
0
 10
1113.000000
 20
1154.671815
 42
-0.162005
  0
VERTEX
  8
0
 10
1110.935192
 20
1148.466418
 42
-0.008227
  0
VERTEX
  8
0
 10
1097.735014
 20
1131.419300
 42
-0.013520
  0
VERTEX
  8
0
 10
1082.057005
 20
1112.895659
 42
-0.013937
  0
VERTEX
  8
0
 10
1065.554071
 20
1095.438243
 42
-0.007041
  0
VERTEX
  8
0
 10
1052.436468
 20
1082.679207
 42
-0.015336
  0
VERTEX
  8
0
 10
1041.946255
 20
1073.351775
 42
-0.017207
  0
VERTEX
  8
0
 10
1031.697316
 20
1065.369390
 42
-0.011618
  0
VERTEX
  8
0
 10
1019.500000
 20
1056.951779
 42
0.000770
  0
VERTEX
  8
0
 10
1007.197529
 20
1048.849896
 42
0.038758
  0
VERTEX
  8
0
 10
1004.916248
 20
1047.074323
 42
0.276437
  0
VERTEX
  8
0
 10
1004.521896
 20
1045.764941
 42
0.122411
  0
VERTEX
  8
0
 10
1005.404988
 20
1044.111228
 42
0.038980
  0
VERTEX
  8
0
 10
1006.257035
 20
1043.303367
 42
0.036785
  0
VERTEX
  8
0
 10
1007.240121
 20
1042.620173
 42
0.038992
  0
VERTEX
  8
0
 10
1008.203140
 20
1042.148018
 42
0.094758
  0
VERTEX
  8
0
 10
1008.977160
 20
1042.000000
 42
0.125997
  0
VERTEX
  8
0
 10
1010.066787
 20
1042.279009
 42
0.005057
  0
VERTEX
  8
0
 10
1013.658409
 20
1044.294911
 42
0.008611
  0
VERTEX
  8
0
 10
1017.881075
 20
1046.819209
 42
0.005962
  0
VERTEX
  8
0
 10
1022.572173
 20
1049.812462
 42
0.017596
  0
VERTEX
  8
0
 10
1038.579647
 20
1061.121249
 42
0.016512
  0
VERTEX
  8
0
 10
1054.104950
 20
1073.759989
 42
0.016649
  0
VERTEX
  8
0
 10
1068.626625
 20
1087.276970
 42
0.018771
  0
VERTEX
  8
0
 10
1081.624187
 20
1101.218225
 42
-0.000972
  0
VERTEX
  8
0
 10
1091.468003
 20
1112.560510
 42
-0.038958
  0
VERTEX
  8
0
 10
1093.816769
 20
1114.866411
 42
-0.177354
  0
VERTEX
  8
0
 10
1095.628525
 20
1115.522126
 42
-0.078907
  0
VERTEX
  8
0
 10
1098.171694
 20
1115.108351
 42
-0.043808
  0
VERTEX
  8
0
 10
1103.491173
 20
1112.819484
 42
-0.013952
  0
VERTEX
  8
0
 10
1110.973107
 20
1108.517734
 42
-0.013182
  0
VERTEX
  8
0
 10
1119.452357
 20
1103.009995
 42
-0.011052
  0
VERTEX
  8
0
 10
1128.151885
 20
1096.739679
 42
-0.009505
  0
VERTEX
  8
0
 10
1137.399701
 20
1089.478482
 42
-0.011102
  0
VERTEX
  8
0
 10
1145.888904
 20
1082.228145
 42
-0.005280
  0
VERTEX
  8
0
 10
1153.151866
 20
1075.601567
 42
-0.208083
  0
VERTEX
  8
0
 10
1154.000000
 20
1073.651841
 42
-0.270625
  0
VERTEX
  8
0
 10
1153.654953
 20
1073.061030
 42
-0.013269
  0
VERTEX
  8
0
 10
1151.576562
 20
1071.960217
 42
-0.018476
  0
VERTEX
  8
0
 10
1148.911781
 20
1070.758678
 42
-0.011971
  0
VERTEX
  8
0
 10
1145.750000
 20
1069.558782
 42
0.055995
  0
VERTEX
  8
0
 10
1116.416296
 20
1055.365769
 42
0.048986
  0
VERTEX
  8
0
 10
1089.496005
 20
1034.455223
 42
0.045174
  0
VERTEX
  8
0
 10
1065.278330
 20
1006.965906
 42
0.034962
  0
VERTEX
  8
0
 10
1044.000000
 20
973.178959
 42
-0.003545
  0
VERTEX
  8
0
 10
1039.805208
 20
965.486274
 42
-0.043415
  0
VERTEX
  8
0
 10
1037.934979
 20
962.711623
 42
-0.121374
  0
VERTEX
  8
0
 10
1036.310056
 20
961.477978
 42
-0.100211
  0
VERTEX
  8
0
 10
1034.176317
 20
961.027550
 42
0.076141
  0
VERTEX
  8
0
 10
1027.905956
 20
960.013853
 42
0.017497
  0
VERTEX
  8
0
 10
1017.795631
 20
956.354693
 42
0.018727
  0
VERTEX
  8
0
 10
1007.061269
 20
951.564926
 42
0.026494
  0
VERTEX
  8
0
 10
997.929970
 20
946.455792
 42
0.000000
  0
VERTEX
  8
0
 10
994.253364
 20
944.134853
 42
0.000000
  0
VERTEX
  8
0
 10
993.671510
 20
948.379941
 42
0.023331
  0
VERTEX
  8
0
 10
993.311803
 20
950.324984
 42
0.012617
  0
VERTEX
  8
0
 10
992.698125
 20
952.681547
 42
0.012543
  0
VERTEX
  8
0
 10
991.950843
 20
955.054619
 42
0.019302
  0
VERTEX
  8
0
 10
991.174930
 20
957.062515
 42
0.041706
  0
VERTEX
  8
0
 10
988.588820
 20
961.902601
 42
0.018710
  0
VERTEX
  8
0
 10
984.445338
 20
967.812151
 42
0.018519
  0
VERTEX
  8
0
 10
979.936978
 20
973.319933
 42
0.049131
  0
VERTEX
  8
0
 10
976.217697
 20
976.782255
 42
0.043018
  0
VERTEX
  8
0
 10
973.742399
 20
978.353060
 42
0.077731
  0
VERTEX
  8
0
 10
971.471930
 20
979.116411
 42
0.038989
  0
VERTEX
  8
0
 10
968.176739
 20
979.417928
 42
0.004279
  0
VERTEX
  8
0
 10
960.576708
 20
979.454044
 42
0.026941
  0
VERTEX
  8
0
 10
946.087601
 20
978.617474
 42
0.040695
  0
VERTEX
  8
0
 10
933.690291
 20
976.196073
 42
0.042873
  0
VERTEX
  8
0
 10
922.332218
 20
971.921805
 42
0.034751
  0
VERTEX
  8
0
 10
911.000000
 20
965.507026
 42
0.032877
  0
VERTEX
  8
0
 10
903.000653
 20
959.422130
 42
0.017404
  0
VERTEX
  8
0
 10
893.885091
 20
950.915920
 42
0.014209
  0
VERTEX
  8
0
 10
885.811112
 20
942.365449
 42
0.102748
  0
VERTEX
  8
0
 10
882.996863
 20
937.490494
 42
0.068033
  0
VERTEX
  8
0
 10
882.247796
 20
933.441150
 42
0.029923
  0
VERTEX
  8
0
 10
882.317527
 20
927.980186
 42
0.029235
  0
VERTEX
  8
0
 10
883.081332
 20
922.185178
 42
0.037886
  0
VERTEX
  8
0
 10
884.485973
 20
917.014172
 42
0.046457
  0
VERTEX
  8
0
 10
886.233375
 20
913.242161
 42
0.050599
  0
VERTEX
  8
0
 10
888.605976
 20
909.972863
 42
0.057742
  0
VERTEX
  8
0
 10
891.062321
 20
907.789865
 42
0.233754
  0
VERTEX
  8
0
 10
892.985523
 20
907.495405
 42
-0.230881
  0
VERTEX
  8
0
 10
893.920519
 20
907.357460
 42
-0.077956
  0
VERTEX
  8
0
 10
894.950219
 20
906.386814
 42
-0.041932
  0
VERTEX
  8
0
 10
896.183881
 20
904.485230
 42
-0.011081
  0
VERTEX
  8
0
 10
897.824552
 20
901.251545
 42
0.032355
  0
VERTEX
  8
0
 10
901.429599
 20
894.837509
 42
0.023791
  0
VERTEX
  8
0
 10
906.197603
 20
888.219317
 42
0.017670
  0
VERTEX
  8
0
 10
910.982208
 20
882.621386
 42
0.210070
  0
VERTEX
  8
0
 10
913.533496
 20
881.500000
 42
0.210938
  0
VERTEX
  8
0
 10
915.114473
 20
882.198035
 42
0.197518
  0
VERTEX
  8
0
 10
915.720994
 20
883.863642
 42
0.087332
  0
VERTEX
  8
0
 10
915.093752
 20
886.735719
 42
0.025119
  0
VERTEX
  8
0
 10
913.151119
 20
890.867850
 42
-0.032762
  0
VERTEX
  8
0
 10
909.907269
 20
898.050703
 42
-0.023436
  0
VERTEX
  8
0
 10
907.201570
 20
906.444520
 42
-0.023725
  0
VERTEX
  8
0
 10
905.345791
 20
914.840890
 42
-0.040330
  0
VERTEX
  8
0
 10
904.703571
 20
922.000000
 42
0.000000
  0
VERTEX
  8
0
 10
904.637192
 20
929.500000
 42
0.000000
  0
VERTEX
  8
0
 10
910.429360
 20
938.000000
 42
-0.019110
  0
VERTEX
  8
0
 10
914.978082
 20
944.155929
 42
-0.018594
  0
VERTEX
  8
0
 10
920.023484
 20
950.004927
 42
-0.019568
  0
VERTEX
  8
0
 10
924.998882
 20
954.953674
 42
-0.041753
  0
VERTEX
  8
0
 10
929.279365
 20
958.276624
 42
-0.055604
  0
VERTEX
  8
0
 10
936.325541
 20
961.816679
 42
-0.019131
  0
VERTEX
  8
0
 10
947.184449
 20
965.369728
 42
-0.019378
  0
VERTEX
  8
0
 10
958.405446
 20
968.106329
 42
-0.048253
  0
VERTEX
  8
0
 10
966.797749
 20
968.982541
 42
-0.161109
  0
VERTEX
  8
0
 10
969.461826
 20
968.123654
 42
-0.082085
  0
VERTEX
  8
0
 10
971.951903
 20
965.584538
 42
-0.053234
  0
VERTEX
  8
0
 10
974.361379
 20
961.230881
 42
-0.020339
  0
VERTEX
  8
0
 10
976.794949
 20
954.734806
 42
-0.033811
  0
VERTEX
  8
0
 10
979.844052
 20
942.801985
 42
-0.057070
  0
VERTEX
  8
0
 10
980.550590
 20
932.512056
 42
-0.065016
  0
VERTEX
  8
0
 10
978.921308
 20
923.313780
 42
-0.062039
  0
VERTEX
  8
0
 10
974.972908
 20
914.683554
 42
0.008150
  0
VERTEX
  8
0
 10
972.722888
 20
910.901716
 42
0.100995
  0
VERTEX
  8
0
 10
972.200750
 20
909.321325
 42
0.194697
  0
VERTEX
  8
0
 10
972.536473
 20
908.092971
 42
0.045996
  0
VERTEX
  8
0
 10
974.004062
 20
906.496324
 42
0.039086
  0
VERTEX
  8
0
 10
975.136904
 20
905.621772
 42
0.104219
  0
VERTEX
  8
0
 10
976.083322
 20
905.252937
 42
0.106453
  0
VERTEX
  8
0
 10
977.085737
 20
905.301276
 42
0.041833
  0
VERTEX
  8
0
 10
978.394730
 20
905.770082
 42
0.113856
  0
VERTEX
  8
0
 10
983.089391
 20
909.370664
 42
0.040979
  0
VERTEX
  8
0
 10
987.927764
 20
916.324590
 42
0.040549
  0
VERTEX
  8
0
 10
991.826696
 20
924.501786
 42
0.061573
  0
VERTEX
  8
0
 10
993.702979
 20
932.139937
 42
-0.025328
  0
VERTEX
  8
0
 10
994.127243
 20
934.633462
 42
-0.053053
  0
VERTEX
  8
0
 10
994.755060
 20
936.495573
 42
-0.061790
  0
VERTEX
  8
0
 10
995.686382
 20
937.998986
 42
-0.048351
  0
VERTEX
  8
0
 10
997.030145
 20
939.371912
 42
-0.053082
  0
VERTEX
  8
0
 10
1002.945977
 20
943.362454
 42
-0.011908
  0
VERTEX
  8
0
 10
1013.837091
 20
948.806869
 42
-0.012661
  0
VERTEX
  8
0
 10
1025.143960
 20
953.780819
 42
-0.038807
  0
VERTEX
  8
0
 10
1033.106544
 20
956.344902
 42
-0.023130
  0
VERTEX
  8
0
 10
1034.751663
 20
956.657378
 42
-0.328049
  0
VERTEX
  8
0
 10
1035.249106
 20
956.390436
 42
-0.170964
  0
VERTEX
  8
0
 10
1035.326354
 20
955.661984
 42
-0.006958
  0
VERTEX
  8
0
 10
1034.670430
 20
953.059765
 42
0.056913
  0
VERTEX
  8
0
 10
1034.237583
 20
950.139116
 42
0.119088
  0
VERTEX
  8
0
 10
1034.699350
 20
947.902895
 42
0.157871
  0
VERTEX
  8
0
 10
1036.003406
 20
946.513846
 42
0.126618
  0
VERTEX
  8
0
 10
1038.000000
 20
946.000000
 42
0.148335
  0
VERTEX
  8
0
 10
1039.705244
 20
946.517277
 42
0.105148
  0
VERTEX
  8
0
 10
1041.109271
 20
947.958792
 42
0.043036
  0
VERTEX
  8
0
 10
1042.655468
 20
950.952982
 42
0.005781
  0
VERTEX
  8
0
 10
1045.281364
 20
957.544593
 42
-0.026341
  0
VERTEX
  8
0
 10
1053.486150
 20
975.907107
 42
-0.027480
  0
VERTEX
  8
0
 10
1063.473573
 20
993.038225
 42
-0.027144
  0
VERTEX
  8
0
 10
1075.402327
 20
1009.159005
 42
-0.024416
  0
VERTEX
  8
0
 10
1089.414057
 20
1024.500000
 42
-0.016045
  0
VERTEX
  8
0
 10
1100.267918
 20
1034.606192
 42
-0.022536
  0
VERTEX
  8
0
 10
1110.620087
 20
1042.851467
 42
-0.023301
  0
VERTEX
  8
0
 10
1121.391756
 20
1049.923060
 42
-0.019112
  0
VERTEX
  8
0
 10
1133.500000
 20
1056.476892
 42
-0.022302
  0
VERTEX
  8
0
 10
1147.310321
 20
1062.533538
 42
-0.014621
  0
VERTEX
  8
0
 10
1163.696418
 20
1068.320003
 42
-0.013248
  0
VERTEX
  8
0
 10
1179.100135
 20
1072.811674
 42
-0.063731
  0
VERTEX
  8
0
 10
1188.139846
 20
1073.992994
 42
0.000000
  0
VERTEX
  8
0
 10
1190.779691
 20
1074.000000
 42
0.000000
  0
VERTEX
  8
0
 10
1187.552522
 20
1066.250000
 42
0.001985
  0
VERTEX
  8
0
 10
1186.038351
 20
1062.572676
 42
0.000955
  0
VERTEX
  8
0
 10
1184.125184
 20
1057.847625
 42
0.000947
  0
VERTEX
  8
0
 10
1182.148718
 20
1052.912335
 42
0.001357
  0
VERTEX
  8
0
 10
1180.416758
 20
1048.529151
 42
-0.018041
  0
VERTEX
  8
0
 10
1176.517074
 20
1039.548686
 42
-0.016435
  0
VERTEX
  8
0
 10
1171.865391
 20
1030.583377
 42
-0.016662
  0
VERTEX
  8
0
 10
1166.714246
 20
1022.082826
 42
-0.020278
  0
VERTEX
  8
0
 10
1161.315963
 20
1014.500000
 42
-0.014250
  0
VERTEX
  8
0
 10
1154.120235
 20
1005.740903
 42
-0.006356
  0
VERTEX
  8
0
 10
1144.175766
 20
994.604848
 42
-0.006148
  0
VERTEX
  8
0
 10
1134.199837
 20
983.980638
 42
-0.019773
  0
VERTEX
  8
0
 10
1127.203846
 20
977.264101
 42
-0.010103
  0
VERTEX
  8
0
 10
1119.655446
 20
970.837803
 42
-0.006115
  0
VERTEX
  8
0
 10
1110.475761
 20
963.522640
 42
-0.005251
  0
VERTEX
  8
0
 10
1101.760869
 20
956.896070
 42
-0.030213
  0
VERTEX
  8
0
 10
1096.911637
 20
953.724571
 42
0.044467
  0
VERTEX
  8
0
 10
1094.328958
 20
951.928453
 42
0.149120
  0
VERTEX
  8
0
 10
1093.215074
 20
950.221600
 42
0.196598
  0
VERTEX
  8
0
 10
1093.399708
 20
948.488049
 42
0.085427
  0
VERTEX
  8
0
 10
1094.855382
 20
946.630877
 42
0.100766
  0
VERTEX
  8
0
 10
1096.406943
 20
945.711949
 42
0.125414
  0
VERTEX
  8
0
 10
1098.071842
 20
945.571216
 42
0.081639
  0
VERTEX
  8
0
 10
1100.129123
 20
946.271552
 42
0.024012
  0
VERTEX
  8
0
 10
1103.000000
 20
947.988716
 42
-0.069753
  0
VERTEX
  8
0
 10
1104.554980
 20
948.735602
 42
-0.011572
  0
VERTEX
  8
0
 10
1107.749737
 20
949.672815
 42
-0.012506
  0
VERTEX
  8
0
 10
1111.586063
 20
950.600247
 42
-0.010777
  0
VERTEX
  8
0
 10
1115.658679
 20
951.386170
 42
-0.025520
  0
VERTEX
  8
0
 10
1123.712296
 20
952.341345
 42
-0.034214
  0
VERTEX
  8
0
 10
1131.062914
 20
952.331192
 42
-0.027107
  0
VERTEX
  8
0
 10
1139.541053
 20
951.274624
 42
-0.009681
  0
VERTEX
  8
0
 10
1151.500000
 20
948.880975
 42
-0.025616
  0
VERTEX
  8
0
 10
1167.651370
 20
944.443489
 42
-0.016803
  0
VERTEX
  8
0
 10
1185.761053
 20
937.772314
 42
-0.016912
  0
VERTEX
  8
0
 10
1202.801511
 20
930.154883
 42
-0.034665
  0
VERTEX
  8
0
 10
1215.465672
 20
922.844959
 42
-0.036785
  0
VERTEX
  8
0
 10
1219.239142
 20
919.877852
 42
-0.043926
  0
VERTEX
  8
0
 10
1222.299300
 20
916.547400
 42
-0.049590
  0
VERTEX
  8
0
 10
1224.344866
 20
913.257195
 42
-0.114783
  0
VERTEX
  8
0
 10
1225.000000
 20
910.441010
 42
-0.156717
  0
VERTEX
  8
0
 10
1224.328050
 20
908.349834
 42
-0.048640
  0
VERTEX
  8
0
 10
1222.126053
 20
905.834208
 42
-0.044943
  0
VERTEX
  8
0
 10
1219.057403
 20
903.429165
 42
-0.044817
  0
VERTEX
  8
0
 10
1215.605597
 20
901.608568
 42
-0.036801
  0
VERTEX
  8
0
 10
1210.111104
 20
899.774262
 42
-0.005048
  0
VERTEX
  8
0
 10
1198.367382
 20
896.918460
 42
-0.006282
  0
VERTEX
  8
0
 10
1186.060152
 20
894.219419
 42
-0.013504
  0
VERTEX
  8
0
 10
1176.500000
 20
892.516106
 42
-0.023134
  0
VERTEX
  8
0
 10
1163.281689
 20
891.149092
 42
-0.031836
  0
VERTEX
  8
0
 10
1151.342703
 20
891.230973
 42
-0.026743
  0
VERTEX
  8
0
 10
1138.039771
 20
892.888789
 42
-0.010996
  0
VERTEX
  8
0
 10
1120.218925
 20
896.490965
 42
-0.010024
  0
VERTEX
  8
0
 10
1106.466118
 20
899.878134
 42
-0.018096
  0
VERTEX
  8
0
 10
1095.374585
 20
903.281440
 42
-0.020182
  0
VERTEX
  8
0
 10
1085.423940
 20
907.189831
 42
-0.017067
  0
VERTEX
  8
0
 10
1075.237024
 20
912.095019
 42
0.006828
  0
VERTEX
  8
0
 10
1070.775759
 20
914.356866
 42
0.009304
  0
VERTEX
  8
0
 10
1066.689639
 20
916.265412
 42
0.006615
  0
VERTEX
  8
0
 10
1063.238879
 20
917.745280
 42
0.098290
  0
VERTEX
  8
0
 10
1061.955639
 20
918.000000
 42
0.138488
  0
VERTEX
  8
0
 10
1060.158707
 20
917.492562
 42
0.237859
  0
VERTEX
  8
0
 10
1059.359391
 20
916.198467
 42
0.153460
  0
VERTEX
  8
0
 10
1059.787948
 20
914.266392
 42
0.060363
  0
VERTEX
  8
0
 10
1061.441988
 20
912.060551
 42
0.066532
  0
VERTEX
  8
0
 10
1065.568571
 20
908.764660
 42
0.011037
  0
VERTEX
  8
0
 10
1074.417646
 20
903.709684
 42
0.012961
  0
VERTEX
  8
0
 10
1083.969586
 20
898.845435
 42
0.025991
  0
VERTEX
  8
0
 10
1091.787891
 20
895.603106
 42
0.020792
  0
VERTEX
  8
0
 10
1104.855746
 20
891.566845
 42
0.012749
  0
VERTEX
  8
0
 10
1120.545988
 20
887.851702
 42
0.012775
  0
VERTEX
  8
0
 10
1136.290641
 20
884.963021
 42
0.022167
  0
VERTEX
  8
0
 10
1149.500000
 20
883.483004
 42
0.021971
  0
VERTEX
  8
0
 10
1156.837564
 20
883.311890
 42
0.007665
  0
VERTEX
  8
0
 10
1167.397667
 20
883.691683
 42
0.007387
  0
VERTEX
  8
0
 10
1177.808897
 20
884.380369
 42
0.027572
  0
VERTEX
  8
0
 10
1184.308560
 20
885.269520
 42
-0.374961
  0
VERTEX
  8
0
 10
1188.017056
 20
883.114610
 42
-0.005815
  0
VERTEX
  8
0
 10
1196.264138
 20
857.831313
 42
-0.013567
  0
VERTEX
  8
0
 10
1204.329430
 20
829.413696
 42
-0.013093
  0
VERTEX
  8
0
 10
1210.946833
 20
800.262846
 42
-0.011549
  0
VERTEX
  8
0
 10
1215.329581
 20
775.320558
 42
-0.005638
  0
VERTEX
  8
0
 10
1219.823471
 20
743.330813
 42
-0.005634
  0
VERTEX
  8
0
 10
1223.674115
 20
710.575508
 42
-0.009481
  0
VERTEX
  8
0
 10
1226.073433
 20
683.000000
 42
-0.013426
  0
VERTEX
  8
0
 10
1226.748305
 20
666.539707
 42
-0.008963
  0
VERTEX
  8
0
 10
1226.676622
 20
647.673864
 42
-0.009023
  0
VERTEX
  8
0
 10
1225.941324
 20
629.194894
 42
-0.015960
  0
VERTEX
  8
0
 10
1224.574178
 20
614.000000
 42
-0.010405
  0
VERTEX
  8
0
 10
1222.248904
 20
597.788148
 42
-0.002207
  0
VERTEX
  8
0
 10
1217.486285
 20
569.652110
 42
-0.001778
  0
VERTEX
  8
0
 10
1212.480833
 20
541.449233
 42
-0.017637
  0
VERTEX
  8
0
 10
1209.921906
 20
529.701754
 42
-0.007076
  0
VERTEX
  8
0
 10
1209.016482
 20
526.350826
 42
-0.005488
  0
VERTEX
  8
0
 10
1207.939460
 20
522.728790
 42
-0.005552
  0
VERTEX
  8
0
 10
1206.859895
 20
519.371371
 42
-0.013315
  0
VERTEX
  8
0
 10
1205.966391
 20
516.914733
 42
0.009776
  0
VERTEX
  8
0
 10
1205.213559
 20
514.889603
 42
0.011274
  0
VERTEX
  8
0
 10
1204.577627
 20
512.930113
 42
0.010410
  0
VERTEX
  8
0
 10
1204.112538
 20
511.252541
 42
0.062488
  0
VERTEX
  8
0
 10
1204.000000
 20
510.355582
 42
-0.129975
  0
VERTEX
  8
0
 10
1203.455272
 20
508.295477
 42
-0.001447
  0
VERTEX
  8
0
 10
1196.239798
 20
495.690369
 42
-0.005030
  0
VERTEX
  8
0
 10
1188.762545
 20
483.011729
 42
-0.007216
  0
VERTEX
  8
0
 10
1181.863337
 20
471.942036
 42
0.008572
  0
VERTEX
  8
0
 10
1180.000547
 20
468.935070
 42
0.011611
  0
VERTEX
  8
0
 10
1178.428605
 20
466.152716
 42
0.008693
  0
VERTEX
  8
0
 10
1177.220092
 20
463.794975
 42
0.114565
  0
VERTEX
  8
0
 10
1177.000000
 20
462.847024
 42
0.141361
  0
VERTEX
  8
0
 10
1177.381433
 20
461.524840
 42
0.054772
  0
VERTEX
  8
0
 10
1178.578181
 20
460.017864
 42
0.051474
  0
VERTEX
  8
0
 10
1180.231222
 20
458.660901
 42
0.061928
  0
VERTEX
  8
0
 10
1182.030993
 20
457.767425
 42
-0.251170
  0
VERTEX
  8
0
 10
1185.194273
 20
454.313745
 42
-0.003081
  0
VERTEX
  8
0
 10
1192.703371
 20
424.050952
 42
-0.009403
  0
VERTEX
  8
0
 10
1199.748508
 20
392.285218
 42
-0.011692
  0
VERTEX
  8
0
 10
1205.047465
 20
362.500000
 42
-0.021870
  0
VERTEX
  8
0
 10
1206.905742
 20
345.510801
 42
-0.011399
  0
VERTEX
  8
0
 10
1207.809424
 20
324.218923
 42
-0.011398
  0
VERTEX
  8
0
 10
1207.741886
 20
302.938976
 42
-0.022183
  0
VERTEX
  8
0
 10
1206.548657
 20
286.000000
 42
-0.014676
  0
VERTEX
  8
0
 10
1203.822295
 20
267.202690
 42
-0.018838
  0
VERTEX
  8
0
 10
1200.161858
 20
250.117758
 42
-0.019651
  0
VERTEX
  8
0
 10
1195.378003
 20
233.970605
 42
-0.018785
  0
VERTEX
  8
0
 10
1189.277299
 20
218.000000
 42
-0.019708
  0
VERTEX
  8
0
 10
1183.732292
 20
206.278482
 42
-0.037867
  0
VERTEX
  8
0
 10
1178.240059
 20
197.459062
 42
-0.047360
  0
VERTEX
  8
0
 10
1172.518559
 20
191.031166
 42
-0.067999
  0
VERTEX
  8
0
 10
1166.291527
 20
186.650754
 42
0.019876
  0
VERTEX
  8
0
 10
1165.076142
 20
185.959709
 42
0.017016
  0
VERTEX
  8
0
 10
1163.853162
 20
185.139484
 42
0.017352
  0
VERTEX
  8
0
 10
1162.792555
 20
184.317183
 42
0.045999
  0
VERTEX
  8
0
 10
1162.115279
 20
183.638903
 42
-0.125736
  0
VERTEX
  8
0
 10
1161.221644
 20
182.990192
 42
-0.025187
  0
VERTEX
  8
0
 10
1159.342367
 20
182.351968
 42
-0.024092
  0
VERTEX
  8
0
 10
1156.939635
 20
181.792290
 42
-0.016846
  0
VERTEX
  8
0
 10
1154.188112
 20
181.384906
 42
-0.009883
  0
VERTEX
  8
0
 10
1148.994407
 20
180.897686
 42
-0.040283
  0
VERTEX
  8
0
 10
1145.826010
 20
180.919079
 42
-0.046014
  0
VERTEX
  8
0
 10
1142.909674
 20
181.447467
 42
-0.015640
  0
VERTEX
  8
0
 10
1138.793677
 20
182.731876
 42
-0.078595
  0
VERTEX
  8
0
 10
1132.400452
 20
186.147062
 42
-0.101206
  0
VERTEX
  8
0
 10
1128.010497
 20
191.136405
 42
-0.082453
  0
VERTEX
  8
0
 10
1125.362503
 20
198.272553
 42
-0.036891
  0
VERTEX
  8
0
 10
1124.189813
 20
208.246724
 42
-0.009878
  0
VERTEX
  8
0
 10
1124.072813
 20
213.218113
 42
-0.022079
  0
VERTEX
  8
0
 10
1124.225372
 20
216.994483
 42
-0.027678
  0
VERTEX
  8
0
 10
1124.669601
 20
220.149794
 42
-0.030235
  0
VERTEX
  8
0
 10
1125.451945
 20
223.142889
 42
0.009807
  0
VERTEX
  8
0
 10
1126.356876
 20
226.104951
 42
0.061292
  0
VERTEX
  8
0
 10
1126.600217
 20
227.667859
 42
0.118674
  0
VERTEX
  8
0
 10
1126.375493
 20
228.752937
 42
0.086449
  0
VERTEX
  8
0
 10
1125.664082
 20
229.764489
 42
0.055499
  0
VERTEX
  8
0
 10
1125.021501
 20
230.278315
 42
0.063801
  0
VERTEX
  8
0
 10
1124.310063
 20
230.609950
 42
0.073891
  0
VERTEX
  8
0
 10
1123.640581
 20
230.718855
 42
0.142788
  0
VERTEX
  8
0
 10
1123.121945
 20
230.575366
 42
0.182852
  0
VERTEX
  8
0
 10
1121.476777
 20
228.435846
 42
0.027742
  0
VERTEX
  8
0
 10
1120.180891
 20
223.101979
 42
0.027304
  0
VERTEX
  8
0
 10
1119.292061
 20
216.210780
 42
0.018422
  0
VERTEX
  8
0
 10
1119.000000
 20
208.286380
 42
0.015558
  0
VERTEX
  8
0
 10
1119.247980
 20
200.318899
 42
0.045311
  0
VERTEX
  8
0
 10
1120.085082
 20
194.882792
 42
0.063381
  0
VERTEX
  8
0
 10
1121.669016
 20
190.798341
 42
0.064503
  0
VERTEX
  8
0
 10
1124.218338
 20
187.267590
 42
-0.016692
  0
VERTEX
  8
0
 10
1125.001885
 20
186.375675
 42
-0.027606
  0
VERTEX
  8
0
 10
1125.594069
 20
185.567274
 42
-0.026779
  0
VERTEX
  8
0
 10
1125.972906
 20
184.910942
 42
-0.347889
  0
VERTEX
  8
0
 10
1125.920610
 20
184.652483
 42
-0.064253
  0
VERTEX
  8
0
 10
1125.571164
 20
184.426899
 42
-0.000675
  0
VERTEX
  8
0
 10
1122.952854
 20
183.182846
 42
-0.002143
  0
VERTEX
  8
0
 10
1119.923272
 20
181.764253
 42
-0.001390
  0
VERTEX
  8
0
 10
1116.408257
 20
180.148540
 42
-0.010514
  0
VERTEX
  8
0
 10
1111.682122
 20
178.110963
 42
-0.026186
  0
VERTEX
  8
0
 10
1108.127100
 20
176.878713
 42
-0.034058
  0
VERTEX
  8
0
 10
1105.087800
 20
176.220694
 42
-0.036297
  0
VERTEX
  8
0
 10
1102.051677
 20
176.000000
 42
-0.032025
  0
VERTEX
  8
0
 10
1098.682067
 20
176.216045
 42
-0.096941
  0
VERTEX
  8
0
 10
1096.510799
 20
176.938796
 42
-0.057622
  0
VERTEX
  8
0
 10
1094.203598
 20
178.620052
 42
-0.006286
  0
VERTEX
  8
0
 10
1089.422270
 20
183.141025
 42
-0.026675
  0
VERTEX
  8
0
 10
1083.637943
 20
189.381654
 42
-0.072324
  0
VERTEX
  8
0
 10
1080.493402
 20
194.513573
 42
-0.073879
  0
VERTEX
  8
0
 10
1078.976950
 20
200.263811
 42
-0.028728
  0
VERTEX
  8
0
 10
1078.540696
 20
208.500000
 42
-0.015428
  0
VERTEX
  8
0
 10
1078.712890
 20
213.365482
 42
-0.021542
  0
VERTEX
  8
0
 10
1079.187798
 20
217.692849
 42
-0.020378
  0
VERTEX
  8
0
 10
1080.057772
 20
222.141164
 42
-0.011890
  0
VERTEX
  8
0
 10
1081.442824
 20
227.397051
 42
0.011764
  0
VERTEX
  8
0
 10
1083.123257
 20
233.767321
 42
0.061911
  0
VERTEX
  8
0
 10
1083.522240
 20
237.355892
 42
0.139394
  0
VERTEX
  8
0
 10
1082.888528
 20
239.479973
 42
0.172198
  0
VERTEX
  8
0
 10
1081.270161
 20
240.743280
 42
0.424680
  0
VERTEX
  8
0
 10
1078.744823
 20
239.423908
 42
0.012551
  0
VERTEX
  8
0
 10
1075.323723
 20
226.617657
 42
0.021346
  0
VERTEX
  8
0
 10
1072.702135
 20
213.221920
 42
0.052976
  0
VERTEX
  8
0
 10
1072.255873
 20
203.250000
 42
-0.009194
  0
VERTEX
  8
0
 10
1072.374770
 20
200.470071
 42
-0.015369
  0
VERTEX
  8
0
 10
1072.359839
 20
198.129688
 42
-0.009154
  0
VERTEX
  8
0
 10
1072.255540
 20
196.249756
 42
-0.392780
  0
VERTEX
  8
0
 10
1071.986655
 20
196.000000
 42
-0.207644
  0
VERTEX
  8
0
 10
1070.670536
 20
196.571198
 42
-0.006039
  0
VERTEX
  8
0
 10
1066.482321
 20
201.160099
 42
-0.011970
  0
VERTEX
  8
0
 10
1062.594433
 20
205.740867
 42
-0.050687
  0
VERTEX
  8
0
 10
1060.629473
 20
208.749626
 42
-0.042260
  0
VERTEX
  8
0
 10
1058.344421
 20
214.264978
 42
-0.024384
  0
VERTEX
  8
0
 10
1056.499103
 20
221.214275
 42
-0.024431
  0
VERTEX
  8
0
 10
1055.351593
 20
228.238276
 42
-0.046355
  0
VERTEX
  8
0
 10
1055.234538
 20
233.963102
 42
-0.029820
  0
VERTEX
  8
0
 10
1055.777610
 20
238.058992
 42
-0.050906
  0
VERTEX
  8
0
 10
1056.773876
 20
241.359353
 42
-0.031697
  0
VERTEX
  8
0
 10
1058.725975
 20
245.316666
 42
-0.005508
  0
VERTEX
  8
0
 10
1062.960449
 20
252.500000
 42
0.013922
  0
VERTEX
  8
0
 10
1072.169570
 20
268.740902
 42
0.018027
  0
VERTEX
  8
0
 10
1079.647933
 20
284.146212
 42
0.018275
  0
VERTEX
  8
0
 10
1085.918408
 20
299.875723
 42
0.014995
  0
VERTEX
  8
0
 10
1091.485258
 20
317.088057
 42
0.012245
  0
VERTEX
  8
0
 10
1093.647470
 20
325.271061
 42
0.018048
  0
VERTEX
  8
0
 10
1095.107405
 20
332.557399
 42
0.012533
  0
VERTEX
  8
0
 10
1096.355891
 20
341.640798
 42
0.002988
  0
VERTEX
  8
0
 10
1097.962879
 20
356.809012
 42
-0.007842
  0
VERTEX
  8
0
 10
1098.437189
 20
360.905956
 42
-0.009813
  0
VERTEX
  8
0
 10
1099.011201
 20
364.689438
 42
-0.008236
  0
VERTEX
  8
0
 10
1099.604507
 20
367.830922
 42
-0.072191
  0
VERTEX
  8
0
 10
1100.085366
 20
369.159507
 42
-0.063592
  0
VERTEX
  8
0
 10
1101.025330
 20
370.480587
 42
-0.002282
  0
VERTEX
  8
0
 10
1105.266783
 20
375.033574
 42
-0.004169
  0
VERTEX
  8
0
 10
1110.359031
 20
380.360354
 42
-0.002906
  0
VERTEX
  8
0
 10
1116.189988
 20
386.289567
 42
0.009135
  0
VERTEX
  8
0
 10
1128.663263
 20
399.293135
 42
0.010036
  0
VERTEX
  8
0
 10
1140.259286
 20
412.349089
 42
0.010769
  0
VERTEX
  8
0
 10
1150.293352
 20
424.640305
 42
0.018978
  0
VERTEX
  8
0
 10
1157.962934
 20
435.267221
 42
0.009216
  0
VERTEX
  8
0
 10
1161.925842
 20
441.466717
 42
0.056866
  0
VERTEX
  8
0
 10
1163.524151
 20
444.890778
 42
0.135723
  0
VERTEX
  8
0
 10
1163.645238
 20
447.159561
 42
0.166924
  0
VERTEX
  8
0
 10
1162.548039
 20
448.960131
 42
0.184031
  0
VERTEX
  8
0
 10
1160.620260
 20
449.617718
 42
0.169932
  0
VERTEX
  8
0
 10
1158.665631
 20
448.855303
 42
0.059184
  0
VERTEX
  8
0
 10
1156.108980
 20
446.077765
 42
0.007787
  0
VERTEX
  8
0
 10
1151.509606
 20
439.500000
 42
-0.007670
  0
VERTEX
  8
0
 10
1148.305708
 20
434.915692
 42
-0.004117
  0
VERTEX
  8
0
 10
1144.219635
 20
429.353125
 42
-0.004098
  0
VERTEX
  8
0
 10
1139.958013
 20
423.746999
 42
-0.006406
  0
VERTEX
  8
0
 10
1136.189542
 20
419.000000
 42
-0.017570
  0
VERTEX
  8
0
 10
1126.281484
 20
407.678965
 42
-0.006278
  0
VERTEX
  8
0
 10
1111.388878
 20
392.216616
 42
-0.001627
  0
VERTEX
  8
0
 10
1095.351733
 20
376.084363
 42
-0.198835
  0
VERTEX
  8
0
 10
1092.732744
 20
375.000000
 42
0.082370
  0
VERTEX
  8
0
 10
1092.102394
 20
374.895447
 42
0.075245
  0
VERTEX
  8
0
 10
1091.517588
 20
374.591776
 42
0.077983
  0
VERTEX
  8
0
 10
1091.066456
 20
374.141184
 42
0.100778
  0
VERTEX
  8
0
 10
1090.823324
 20
373.610303
 42
-0.172483
  0
VERTEX
  8
0
 10
1088.170733
 20
369.473683
 42
-0.002146
  0
VERTEX
  8
0
 10
1062.852477
 20
350.038122
 42
-0.006911
  0
VERTEX
  8
0
 10
1038.243024
 20
331.845523
 42
-0.017980
  0
VERTEX
  8
0
 10
1019.901509
 20
319.649445
 42
-0.015489
  0
VERTEX
  8
0
 10
1014.237183
 20
316.407188
 42
-0.027439
  0
VERTEX
  8
0
 10
1009.355783
 20
314.144567
 42
-0.026047
  0
VERTEX
  8
0
 10
1004.085333
 20
312.356409
 42
-0.012466
  0
VERTEX
  8
0
 10
997.156918
 20
310.586710
 42
0.000000
  0
VERTEX
  8
0
 10
990.813836
 20
309.133946
 42
0.000000
  0
VERTEX
  8
0
 10
987.813392
 20
315.751282
 42
-0.028055
  0
VERTEX
  8
0
 10
981.336101
 20
332.471026
 42
-0.011164
  0
VERTEX
  8
0
 10
974.271697
 20
356.042823
 42
-0.011106
  0
VERTEX
  8
0
 10
968.290988
 20
379.797636
 42
-0.029750
  0
VERTEX
  8
0
 10
965.427469
 20
397.000000
 42
0.016412
  0
VERTEX
  8
0
 10
964.806098
 20
401.464670
 42
0.066419
  0
VERTEX
  8
0
 10
963.986027
 20
404.080934
 42
0.127544
  0
VERTEX
  8
0
 10
962.829947
 20
405.481352
 42
0.158038
  0
VERTEX
  8
0
 10
961.230028
 20
406.000000
 42
0.457290
  0
VERTEX
  8
0
 10
958.861656
 20
403.261218
 42
0.007024
  0
VERTEX
  8
0
 10
962.583754
 20
380.027229
 42
0.015455
  0
VERTEX
  8
0
 10
967.691721
 20
355.312418
 42
0.020286
  0
VERTEX
  8
0
 10
973.954865
 20
333.138118
 42
0.022331
  0
VERTEX
  8
0
 10
980.269763
 20
316.386595
 42
0.018070
  0
VERTEX
  8
0
 10
988.476942
 20
299.011712
 42
0.018081
  0
VERTEX
  8
0
 10
997.909824
 20
282.288952
 42
0.022471
  0
VERTEX
  8
0
 10
1007.912342
 20
267.500000
 42
0.029817
  0
VERTEX
  8
0
 10
1013.424924
 20
260.944967
 42
0.003923
  0
VERTEX
  8
0
 10
1026.041386
 20
247.847397
 42
0.003249
  0
VERTEX
  8
0
 10
1038.991506
 20
234.783748
 42
0.042608
  0
VERTEX
  8
0
 10
1044.209515
 20
230.405598
 42
-0.079240
  0
VERTEX
  8
0
 10
1045.705788
 20
228.951553
 42
-0.053622
  0
VERTEX
  8
0
 10
1046.919416
 20
226.901051
 42
-0.032420
  0
VERTEX
  8
0
 10
1048.112658
 20
223.754440
 42
-0.008216
  0
VERTEX
  8
0
 10
1049.630494
 20
218.500000
 42
-0.008529
  0
VERTEX
  8
0
 10
1050.660730
 20
214.426582
 42
-0.009447
  0
VERTEX
  8
0
 10
1051.514285
 20
210.456439
 42
-0.008902
  0
VERTEX
  8
0
 10
1052.117210
 20
207.047840
 42
-0.047295
  0
VERTEX
  8
0
 10
1052.235811
 20
205.160218
 42
-0.047618
  0
VERTEX
  8
0
 10
1051.751504
 20
201.365343
 42
-0.022209
  0
VERTEX
  8
0
 10
1050.444217
 20
196.576792
 42
-0.021845
  0
VERTEX
  8
0
 10
1048.759059
 20
192.025421
 42
-0.062070
  0
VERTEX
  8
0
 10
1047.074699
 20
189.099030
 42
0.000000
  0
VERTEX
  8
0
 10
1045.267528
 20
186.703210
 42
0.000000
  0
VERTEX
  8
0
 10
1044.564427
 20
192.330637
 42
0.052955
  0
VERTEX
  8
0
 10
1043.062643
 20
198.741436
 42
0.044942
  0
VERTEX
  8
0
 10
1040.189031
 20
205.078235
 42
0.040134
  0
VERTEX
  8
0
 10
1035.879679
 20
211.434418
 42
0.027729
  0
VERTEX
  8
0
 10
1030.071094
 20
217.906007
 42
0.024245
  0
VERTEX
  8
0
 10
1023.341900
 20
223.993978
 42
0.048362
  0
VERTEX
  8
0
 10
1017.382094
 20
227.986827
 42
0.059404
  0
VERTEX
  8
0
 10
1011.668799
 20
230.235491
 42
0.064162
  0
VERTEX
  8
0
 10
1005.735647
 20
231.000000
 42
0.037027
  0
VERTEX
  8
0
 10
1000.900612
 20
230.641454
 42
0.464580
  0
VERTEX
  8
0
 10
1000.054670
 20
229.270721
 42
0.238393
  0
VERTEX
  8
0
 10
1001.742847
 20
227.581006
 42
0.024340
  0
VERTEX
  8
0
 10
1007.365484
 20
226.030146
 42
-0.035467
  0
VERTEX
  8
0
 10
1012.051209
 20
224.624886
 42
-0.026423
  0
VERTEX
  8
0
 10
1016.992266
 20
222.447285
 42
-0.026501
  0
VERTEX
  8
0
 10
1021.655393
 20
219.771594
 42
-0.036670
  0
VERTEX
  8
0
 10
1025.501307
 20
216.864708
 42
-0.068828
  0
VERTEX
  8
0
 10
1030.438876
 20
211.152902
 42
-0.046248
  0
VERTEX
  8
0
 10
1034.450917
 20
203.501747
 42
-0.044896
  0
VERTEX
  8
0
 10
1037.106172
 20
194.942037
 42
-0.052814
  0
VERTEX
  8
0
 10
1038.000000
 20
186.503575
 42
0.000000
  0
VERTEX
  8
0
 10
1038.000000
 20
180.185339
 42
0.000000
  0
VERTEX
  8
0
 10
1032.897262
 20
175.597538
 42
-0.043346
  0
VERTEX
  8
0
 10
1028.109554
 20
171.990483
 42
-0.012214
  0
VERTEX
  8
0
 10
1020.058623
 20
167.223330
 42
-0.008248
  0
VERTEX
  8
0
 10
1011.798667
 20
162.778388
 42
-0.119867
  0
VERTEX
  8
0
 10
1008.598426
 20
162.000000
 42
-0.273761
  0
VERTEX
  8
0
 10
1008.065331
 20
162.315528
 42
-0.027526
  0
VERTEX
  8
0
 10
1007.400396
 20
163.703003
 42
-0.028451
  0
VERTEX
  8
0
 10
1006.748438
 20
165.575934
 42
-0.018604
  0
VERTEX
  8
0
 10
1006.202708
 20
167.797456
 42
0.042110
  0
VERTEX
  8
0
 10
1003.908860
 20
175.544950
 42
0.034242
  0
VERTEX
  8
0
 10
1000.216249
 20
183.378753
 42
0.032757
  0
VERTEX
  8
0
 10
995.290804
 20
190.988718
 42
0.030677
  0
VERTEX
  8
0
 10
989.312619
 20
198.068211
 42
0.020392
  0
VERTEX
  8
0
 10
982.952662
 20
204.203583
 42
0.038349
  0
VERTEX
  8
0
 10
977.273575
 20
208.520737
 42
0.048760
  0
VERTEX
  8
0
 10
972.209272
 20
211.130830
 42
0.094262
  0
VERTEX
  8
0
 10
967.750000
 20
211.990616
 42
0.115117
  0
VERTEX
  8
0
 10
964.888995
 20
211.330613
 42
0.475576
  0
VERTEX
  8
0
 10
964.543970
 20
209.836962
 42
0.121208
  0
VERTEX
  8
0
 10
967.274244
 20
207.679507
 42
0.028209
  0
VERTEX
  8
0
 10
972.761541
 20
205.544278
 42
-0.089267
  0
VERTEX
  8
0
 10
980.594871
 20
201.338330
 42
-0.060476
  0
VERTEX
  8
0
 10
987.730887
 20
194.112988
 42
-0.053859
  0
VERTEX
  8
0
 10
993.666670
 20
184.447976
 42
-0.043231
  0
VERTEX
  8
0
 10
997.931740
 20
173.003765
 42
-0.009568
  0
VERTEX
  8
0
 10
999.514079
 20
166.837562
 42
-0.061596
  0
VERTEX
  8
0
 10
999.863479
 20
163.645426
 42
-0.132345
  0
VERTEX
  8
0
 10
999.287578
 20
161.621143
 42
-0.115364
  0
VERTEX
  8
0
 10
997.750000
 20
160.035611
 42
-0.120560
  0
VERTEX
  8
0
 10
994.063655
 20
158.768504
 42
-0.013327
  0
VERTEX
  8
0
 10
985.096939
 20
158.189683
 42
-0.017372
  0
VERTEX
  8
0
 10
975.743234
 20
158.160977
 42
-0.038812
  0
VERTEX
  8
0
 10
968.678618
 20
158.935912
 42
-0.046191
  0
VERTEX
  8
0
 10
949.665120
 20
164.385944
 42
-0.037549
  0
VERTEX
  8
0
 10
930.540284
 20
173.542678
 42
-0.038180
  0
VERTEX
  8
0
 10
913.391716
 20
185.222375
 42
-0.054229
  0
VERTEX
  8
0
 10
900.321192
 20
198.219871
 42
-0.043682
  0
VERTEX
  8
0
 10
883.357527
 20
223.417000
 42
-0.031428
  0
VERTEX
  8
0
 10
868.831492
 20
254.081488
 42
-0.030885
  0
VERTEX
  8
0
 10
857.985232
 20
287.052946
 42
-0.036906
  0
VERTEX
  8
0
 10
852.057763
 20
319.210586
 42
-0.030183
  0
VERTEX
  8
0
 10
850.908582
 20
343.056831
 42
-0.013832
  0
VERTEX
  8
0
 10
852.149784
 20
374.183753
 42
-0.011273
  0
VERTEX
  8
0
 10
854.834654
 20
403.914670
 42
-0.080742
  0
VERTEX
  8
0
 10
858.721304
 20
417.756519
 42
0.020589
  0
VERTEX
  8
0
 10
859.441661
 20
419.490686
 42
0.073899
  0
VERTEX
  8
0
 10
859.685069
 20
420.661358
 42
0.109150
  0
VERTEX
  8
0
 10
859.534258
 20
421.596058
 42
0.078993
  0
VERTEX
  8
0
 10
858.994590
 20
422.506519
 42
0.085802
  0
VERTEX
  8
0
 10
857.707600
 20
423.605774
 42
0.151597
  0
VERTEX
  8
0
 10
856.361096
 20
423.927872
 42
0.158625
  0
VERTEX
  8
0
 10
855.111825
 20
423.427835
 42
0.096305
  0
VERTEX
  8
0
 10
854.097582
 20
422.182334
 42
0.073210
  0
VERTEX
  8
0
 10
853.134499
 20
419.504440
 42
0.005332
  0
VERTEX
  8
0
 10
851.662070
 20
411.782379
 42
0.007038
  0
VERTEX
  8
0
 10
850.075140
 20
402.173544
 42
0.004419
  0
VERTEX
  8
0
 10
848.477471
 20
390.898414
 42
0.014522
  0
VERTEX
  8
0
 10
846.940089
 20
376.008018
 42
0.008919
  0
VERTEX
  8
0
 10
845.952875
 20
358.398775
 42
0.008926
  0
VERTEX
  8
0
 10
845.595588
 20
340.813542
 42
0.014872
  0
VERTEX
  8
0
 10
845.999586
 20
326.007260
 42
0.010102
  0
VERTEX
  8
0
 10
847.060092
 20
312.301662
 42
0.016440
  0
VERTEX
  8
0
 10
848.576369
 20
300.731177
 42
0.016811
  0
VERTEX
  8
0
 10
850.821597
 20
289.470149
 42
0.011213
  0
VERTEX
  8
0
 10
854.112118
 20
276.734585
 42
-0.001515
  0
VERTEX
  8
0
 10
855.602180
 20
271.397113
 42
-0.002321
  0
VERTEX
  8
0
 10
856.857935
 20
266.761935
 42
-0.000784
  0
VERTEX
  8
0
 10
857.917969
 20
262.750675
 42
-0.064286
  0
VERTEX
  8
0
 10
858.000000
 20
262.115297
 42
-0.288282
  0
VERTEX
  8
0
 10
857.438448
 20
261.222277
 42
-0.005103
  0
VERTEX
  8
0
 10
852.064001
 20
258.705845
 42
-0.009365
  0
VERTEX
  8
0
 10
846.857131
 20
256.449160
 42
-0.097871
  0
VERTEX
  8
0
 10
844.584451
 20
256.000000
 42
0.062112
  0
VERTEX
  8
0
 10
843.638591
 20
255.882046
 42
0.000944
  0
VERTEX
  8
0
 10
838.272715
 20
254.511804
 42
0.002526
  0
VERTEX
  8
0
 10
832.044979
 20
252.875352
 42
0.001666
  0
VERTEX
  8
0
 10
824.900365
 20
250.933801
 42
-0.003155
  0
VERTEX
  8
0
 10
793.317764
 20
242.452153
 42
-0.015624
  0
VERTEX
  8
0
 10
775.378755
 20
238.349981
 42
-0.022206
  0
VERTEX
  8
0
 10
760.230263
 20
236.073558
 42
-0.011243
  0
VERTEX
  8
0
 10
741.000000
 20
234.487954
 42
-0.007570
  0
VERTEX
  8
0
 10
718.301930
 20
233.473994
 42
-0.006515
  0
VERTEX
  8
0
 10
694.417837
 20
233.080531
 42
-0.006639
  0
VERTEX
  8
0
 10
671.139569
 20
233.309472
 42
-0.009213
  0
VERTEX
  8
0
 10
650.296764
 20
234.175722
 42
0.000000
  0
VERTEX
  8
0
 10
630.093529
 20
235.388622
 42
0.000000
  0
VERTEX
  8
0
 10
638.796764
 20
241.669609
 42
-0.000207
  0
VERTEX
  8
0
 10
642.275722
 20
244.178130
 42
-0.000253
  0
VERTEX
  8
0
 10
645.530925
 20
246.520765
 42
-0.000211
  0
VERTEX
  8
0
 10
648.270156
 20
248.488223
 42
-0.001804
  0
VERTEX
  8
0
 10
649.500000
 20
249.364071
 42
0.021280
  0
VERTEX
  8
0
 10
650.717264
 20
250.304484
 42
0.214059
  0
VERTEX
  8
0
 10
650.988983
 20
250.868854
 42
0.178066
  0
VERTEX
  8
0
 10
650.773934
 20
251.506055
 42
0.014042
  0
VERTEX
  8
0
 10
649.595012
 20
252.888772
 42
0.028795
  0
VERTEX
  8
0
 10
648.776801
 20
253.696790
 42
0.031489
  0
VERTEX
  8
0
 10
647.894165
 20
254.379827
 42
0.033190
  0
VERTEX
  8
0
 10
647.072828
 20
254.860273
 42
0.116252
  0
VERTEX
  8
0
 10
646.479983
 20
255.000000
 42
0.145466
  0
VERTEX
  8
0
 10
644.493904
 20
254.409693
 42
0.007740
  0
VERTEX
  8
0
 10
638.966825
 20
250.682597
 42
0.012851
  0
VERTEX
  8
0
 10
633.065395
 20
246.339217
 42
0.015405
  0
VERTEX
  8
0
 10
627.750274
 20
241.943681
 42
-0.040695
  0
VERTEX
  8
0
 10
621.955157
 20
237.624969
 42
-0.019754
  0
VERTEX
  8
0
 10
613.931387
 20
233.035180
 42
-0.014195
  0
VERTEX
  8
0
 10
602.820081
 20
227.644434
 42
-0.005277
  0
VERTEX
  8
0
 10
586.910751
 20
220.677427
 42
-0.008628
  0
VERTEX
  8
0
 10
575.822338
 20
216.184776
 42
-0.022451
  0
VERTEX
  8
0
 10
567.657412
 20
213.453595
 42
-0.022544
  0
VERTEX
  8
0
 10
559.299922
 20
211.471814
 42
-0.008765
  0
VERTEX
  8
0
 10
547.585718
 20
209.458386
 42
-0.018230
  0
VERTEX
  8
0
 10
539.427137
 20
208.505803
 42
-0.030354
  0
VERTEX
  8
0
 10
532.511616
 20
208.373789
 42
-0.032849
  0
VERTEX
  8
0
 10
526.032558
 20
209.071527
 42
-0.026744
  0
VERTEX
  8
0
 10
519.229772
 20
210.638748
 42
-0.034103
  0
VERTEX
  8
0
 10
510.645267
 20
213.753707
 42
-0.007901
  0
VERTEX
  8
0
 10
496.685239
 20
220.190983
 42
-0.006692
  0
VERTEX
  8
0
 10
482.949204
 20
227.017874
 42
-0.054464
  0
VERTEX
  8
0
 10
477.100433
 20
230.878746
 42
0.026777
  0
VERTEX
  8
0
 10
467.265709
 20
238.181804
 42
0.003706
  0
VERTEX
  8
0
 10
445.945127
 20
252.082876
 42
0.004589
  0
VERTEX
  8
0
 10
422.645734
 20
266.729125
 42
0.007023
  0
VERTEX
  8
0
 10
402.157109
 20
278.954117
 42
0.016103
  0
VERTEX
  8
0
 10
395.013865
 20
282.780041
 42
0.008721
  0
VERTEX
  8
0
 10
386.002673
 20
287.045196
 42
0.008693
  0
VERTEX
  8
0
 10
377.009204
 20
290.924641
 42
0.019277
  0
VERTEX
  8
0
 10
370.000000
 20
293.493632
 42
-0.014635
  0
VERTEX
  8
0
 10
358.690392
 20
297.520104
 42
-0.011415
  0
VERTEX
  8
0
 10
346.645928
 20
302.529240
 42
-0.010819
  0
VERTEX
  8
0
 10
335.945817
 20
307.548274
 42
-0.044130
  0
VERTEX
  8
0
 10
329.822616
 20
311.289267
 42
-0.051595
  0
VERTEX
  8
0
 10
327.125174
 20
313.750976
 42
-0.032601
  0
VERTEX
  8
0
 10
324.501168
 20
317.112632
 42
-0.028003
  0
VERTEX
  8
0
 10
321.948867
 20
321.355021
 42
-0.018309
  0
VERTEX
  8
0
 10
319.469882
 20
326.500000
 42
0.000000
  0
VERTEX
  8
0
 10
316.845038
 20
332.500000
 42
0.000000
  0
VERTEX
  8
0
 10
321.172519
 20
328.405363
 42
0.008457
  0
VERTEX
  8
0
 10
323.049165
 20
326.688908
 42
0.006933
  0
VERTEX
  8
0
 10
325.110052
 20
324.917283
 42
0.007012
  0
VERTEX
  8
0
 10
327.050346
 20
323.341249
 42
0.018330
  0
VERTEX
  8
0
 10
328.500000
 20
322.280962
 42
0.088030
  0
VERTEX
  8
0
 10
334.275983
 20
319.706884
 42
0.034766
  0
VERTEX
  8
0
 10
342.874380
 20
318.194405
 42
0.029181
  0
VERTEX
  8
0
 10
351.074887
 20
317.814678
 42
0.307233
  0
VERTEX
  8
0
 10
353.690532
 20
319.635923
 42
0.155878
  0
VERTEX
  8
0
 10
353.817967
 20
321.863668
 42
0.207091
  0
VERTEX
  8
0
 10
352.586998
 20
323.448010
 42
0.091661
  0
VERTEX
  8
0
 10
349.543912
 20
324.453229
 42
0.018842
  0
VERTEX
  8
0
 10
343.892989
 20
325.011963
 42
-0.051483
  0
VERTEX
  8
0
 10
333.446250
 20
326.738079
 42
-0.107450
  0
VERTEX
  8
0
 10
326.170522
 20
330.532415
 42
-0.106439
  0
VERTEX
  8
0
 10
321.084733
 20
337.032414
 42
-0.049902
  0
VERTEX
  8
0
 10
317.383496
 20
347.105177
 42
-0.055606
  0
VERTEX
  8
0
 10
315.914625
 20
357.429986
 42
-0.038105
  0
VERTEX
  8
0
 10
316.458864
 20
369.264977
 42
-0.038396
  0
VERTEX
  8
0
 10
318.769471
 20
380.729431
 42
-0.061575
  0
VERTEX
  8
0
 10
322.637744
 20
389.913830
 42
-0.073407
  0
VERTEX
  8
0
 10
329.483658
 20
398.587355
 42
-0.061040
  0
VERTEX
  8
0
 10
338.959286
 20
405.556453
 42
-0.055392
  0
VERTEX
  8
0
 10
350.748506
 20
410.562274
 42
-0.042680
  0
VERTEX
  8
0
 10
364.437706
 20
413.416547
 42
0.000000
  0
VERTEX
  8
0
 10
369.375413
 20
414.013195
 42
0.000000
  0
VERTEX
  8
0
 10
365.161484
 20
410.406229
 42
0.050289
  0
VERTEX
  8
0
 10
360.854963
 20
405.896540
 42
0.070629
  0
VERTEX
  8
0
 10
358.089324
 20
401.075658
 42
0.053478
  0
VERTEX
  8
0
 10
356.308804
 20
394.715563
 42
0.017349
  0
VERTEX
  8
0
 10
355.027247
 20
385.019932
 42
0.023308
  0
VERTEX
  8
0
 10
354.589295
 20
376.288311
 42
0.030670
  0
VERTEX
  8
0
 10
355.050073
 20
368.327171
 42
0.034694
  0
VERTEX
  8
0
 10
356.340559
 20
361.562166
 42
0.068164
  0
VERTEX
  8
0
 10
358.439573
 20
356.512899
 42
0.066144
  0
VERTEX
  8
0
 10
363.544255
 20
349.965189
 42
0.056949
  0
VERTEX
  8
0
 10
370.428597
 20
344.591928
 42
0.074185
  0
VERTEX
  8
0
 10
376.612984
 20
341.970901
 42
0.381307
  0
VERTEX
  8
0
 10
379.652666
 20
343.537245
 42
0.213178
  0
VERTEX
  8
0
 10
379.556014
 20
345.336673
 42
0.082968
  0
VERTEX
  8
0
 10
378.035607
 20
347.381783
 42
0.057489
  0
VERTEX
  8
0
 10
375.252602
 20
349.502281
 42
0.029716
  0
VERTEX
  8
0
 10
371.360766
 20
351.512794
 42
-0.022765
  0
VERTEX
  8
0
 10
368.350819
 20
353.015128
 42
-0.081274
  0
VERTEX
  8
0
 10
366.670227
 20
354.348391
 42
-0.075043
  0
VERTEX
  8
0
 10
365.433289
 20
356.203242
 42
-0.017608
  0
VERTEX
  8
0
 10
363.965026
 20
359.645985
 42
-0.049138
  0
VERTEX
  8
0
 10
362.238945
 20
365.889683
 42
-0.025953
  0
VERTEX
  8
0
 10
361.278678
 20
373.878719
 42
-0.025722
  0
VERTEX
  8
0
 10
361.143994
 20
382.142526
 42
-0.038989
  0
VERTEX
  8
0
 10
361.954728
 20
389.281838
 42
-0.057972
  0
VERTEX
  8
0
 10
364.510053
 20
397.347064
 42
-0.083017
  0
VERTEX
  8
0
 10
368.664819
 20
403.575267
 42
-0.080850
  0
VERTEX
  8
0
 10
374.711570
 20
408.224720
 42
-0.052104
  0
VERTEX
  8
0
 10
382.904894
 20
411.592973
 42
-0.059029
  0
VERTEX
  8
0
 10
389.432722
 20
412.700088
 42
-0.027969
  0
VERTEX
  8
0
 10
397.980092
 20
412.650142
 42
-0.026044
  0
VERTEX
  8
0
 10
407.477065
 20
411.564295
 42
-0.024564
  0
VERTEX
  8
0
 10
417.000000
 20
409.484362
 42
-0.025695
  0
VERTEX
  8
0
 10
427.587130
 20
406.028297
 42
-0.007725
  0
VERTEX
  8
0
 10
443.313875
 20
399.703704
 42
-0.007951
  0
VERTEX
  8
0
 10
459.067479
 20
392.787008
 42
-0.020503
  0
VERTEX
  8
0
 10
470.139436
 20
387.154241
 42
-0.019679
  0
VERTEX
  8
0
 10
480.000577
 20
381.095169
 42
-0.005440
  0
VERTEX
  8
0
 10
494.996401
 20
370.809496
 42
-0.005672
  0
VERTEX
  8
0
 10
511.054506
 20
359.262236
 42
-0.007782
  0
VERTEX
  8
0
 10
525.215198
 20
348.489818
 42
0.010334
  0
VERTEX
  8
0
 10
528.876366
 20
345.734055
 42
0.046611
  0
VERTEX
  8
0
 10
531.181540
 20
344.379057
 42
0.147068
  0
VERTEX
  8
0
 10
532.440382
 20
344.193678
 42
0.372118
  0
VERTEX
  8
0
 10
533.000000
 20
344.841493
 42
0.209203
  0
VERTEX
  8
0
 10
532.228327
 20
346.605092
 42
0.004932
  0
VERTEX
  8
0
 10
525.391073
 20
352.798361
 42
0.011089
  0
VERTEX
  8
0
 10
517.676294
 20
359.349033
 42
0.011408
  0
VERTEX
  8
0
 10
509.750000
 20
365.487772
 42
-0.003472
  0
VERTEX
  8
0
 10
505.628997
 20
368.576028
 42
-0.005553
  0
VERTEX
  8
0
 10
502.157812
 20
371.276512
 42
-0.001530
  0
VERTEX
  8
0
 10
499.184961
 20
373.657669
 42
-0.226878
  0
VERTEX
  8
0
 10
499.000000
 20
374.044310
 42
-0.343680
  0
VERTEX
  8
0
 10
499.232887
 20
374.343104
 42
-0.001373
  0
VERTEX
  8
0
 10
503.626562
 20
375.436573
 42
-0.005792
  0
VERTEX
  8
0
 10
508.711177
 20
376.624900
 42
-0.003517
  0
VERTEX
  8
0
 10
514.750000
 20
377.918176
 42
0.006997
  0
VERTEX
  8
0
 10
536.271139
 20
382.684056
 42
0.012186
  0
VERTEX
  8
0
 10
553.955984
 20
387.318593
 42
0.012222
  0
VERTEX
  8
0
 10
571.358960
 20
392.799608
 42
0.007088
  0
VERTEX
  8
0
 10
592.000000
 20
400.187835
 42
0.032472
  0
VERTEX
  8
0
 10
624.082601
 20
414.623902
 42
0.026443
  0
VERTEX
  8
0
 10
656.393447
 20
434.019232
 42
0.024867
  0
VERTEX
  8
0
 10
688.458315
 20
458.053675
 42
0.021202
  0
VERTEX
  8
0
 10
719.803010
 20
486.407354
 42
0.011124
  0
VERTEX
  8
0
 10
741.689899
 20
508.942171
 42
0.010669
  0
VERTEX
  8
0
 10
762.866948
 20
532.738308
 42
0.009510
  0
VERTEX
  8
0
 10
785.093384
 20
559.840867
 42
0.005873
  0
VERTEX
  8
0
 10
810.236987
 20
592.500000
 42
-0.000400
  0
VERTEX
  8
0
 10
818.663882
 20
603.697181
 42
-0.000485
  0
VERTEX
  8
0
 10
826.585558
 20
614.184375
 42
-0.000409
  0
VERTEX
  8
0
 10
833.268934
 20
622.999417
 42
-0.003349
  0
VERTEX
  8
0
 10
836.349718
 20
627.000000
 42
-0.014001
  0
VERTEX
  8
0
 10
847.787131
 20
640.831701
 42
-0.011472
  0
VERTEX
  8
0
 10
860.748179
 20
654.973177
 42
-0.011685
  0
VERTEX
  8
0
 10
873.326990
 20
667.482083
 42
-0.028226
  0
VERTEX
  8
0
 10
883.331922
 20
675.957225
 42
0.000927
  0
VERTEX
  8
0
 10
885.707151
 20
677.756235
 42
0.000515
  0
VERTEX
  8
0
 10
888.597502
 20
679.958537
 42
0.000513
  0
VERTEX
  8
0
 10
891.519105
 20
682.194158
 42
0.000830
  0
VERTEX
  8
0
 10
894.000000
 20
684.103133
 42
-0.014149
  0
VERTEX
  8
0
 10
903.701791
 20
691.165101
 42
-0.007632
  0
VERTEX
  8
0
 10
916.022381
 20
699.337012
 42
-0.007132
  0
VERTEX
  8
0
 10
929.878986
 20
707.949749
 42
-0.006587
  0
VERTEX
  8
0
 10
944.344878
 20
716.400054
 42
0.005159
  0
VERTEX
  8
0
 10
957.083067
 20
723.792397
 42
0.009171
  0
VERTEX
  8
0
 10
967.395087
 20
730.178621
 42
0.008783
  0
VERTEX
  8
0
 10
975.246756
 20
735.440259
 42
0.067653
  0
VERTEX
  8
0
 10
978.500000
 20
738.429081
 42
-0.056283
  0
VERTEX
  8
0
 10
979.231061
 20
739.131915
 42
-0.004346
  0
VERTEX
  8
0
 10
981.409375
 20
740.769313
 42
-0.005906
  0
VERTEX
  8
0
 10
984.054528
 20
742.674022
 42
-0.004473
  0
VERTEX
  8
0
 10
987.000000
 20
744.703494
 42
0.022592
  0
VERTEX
  8
0
 10
996.497752
 20
751.768282
 42
0.018832
  0
VERTEX
  8
0
 10
1005.935410
 20
760.085611
 42
0.018683
  0
VERTEX
  8
0
 10
1014.805372
 20
769.171175
 42
0.021110
  0
VERTEX
  8
0
 10
1022.600649
 20
778.543071
 42
-0.027594
  0
VERTEX
  8
0
 10
1023.730580
 20
779.866270
 42
-0.032298
  0
VERTEX
  8
0
 10
1024.944813
 20
780.984527
 42
-0.034108
  0
VERTEX
  8
0
 10
1026.073355
 20
781.775829
 42
-0.136672
  0
VERTEX
  8
0
 10
1026.878142
 20
782.000000
 42
0.146740
  0
VERTEX
  8
0
 10
1028.160921
 20
782.384754
 42
0.086735
  0
VERTEX
  8
0
 10
1029.333597
 20
783.490068
 42
0.035487
  0
VERTEX
  8
0
 10
1030.809283
 20
785.787384
 42
0.004562
  0
VERTEX
  8
0
 10
1033.570026
 20
790.951892
 42
0.027696
  0
VERTEX
  8
0
 10
1034.897530
 20
793.874093
 42
0.028235
  0
VERTEX
  8
0
 10
1035.884257
 20
796.906617
 42
0.025324
  0
VERTEX
  8
0
 10
1036.601401
 20
800.313230
 42
0.015588
  0
VERTEX
  8
0
 10
1037.115204
 20
804.379979
 42
-0.009702
  0
VERTEX
  8
0
 10
1037.525104
 20
807.962913
 42
-0.006592
  0
VERTEX
  8
0
 10
1038.124348
 20
812.024119
 42
-0.006644
  0
VERTEX
  8
0
 10
1038.806895
 20
815.930774
 42
-0.013228
  0
VERTEX
  8
0
 10
1039.469780
 20
819.000000
 42
0.026518
  0
VERTEX
  8
0
 10
1040.122108
 20
822.463919
 42
0.007464
  0
VERTEX
  8
0
 10
1040.770743
 20
827.926475
 42
0.007503
  0
VERTEX
  8
0
 10
1041.319888
 20
834.132551
 42
0.007847
  0
VERTEX
  8
0
 10
1041.672974
 20
840.260340
 42
0.003103
  0
VERTEX
  8
0
 10
1041.983356
 20
848.961332
 42
0.024985
  0
VERTEX
  8
0
 10
1041.901293
 20
852.961841
 42
0.058299
  0
VERTEX
  8
0
 10
1041.454245
 20
855.325358
 42
0.108462
  0
VERTEX
  8
0
 10
1040.490642
 20
857.010340
 42
0.097909
  0
VERTEX
  8
0
 10
1038.350851
 20
858.603634
 42
0.174072
  0
VERTEX
  8
0
 10
1036.190840
 20
858.820690
 42
0.131412
  0
VERTEX
  8
0
 10
1033.946609
 20
857.577513
 42
0.046910
  0
VERTEX
  8
0
 10
1031.540125
 20
854.776899
 42
-0.032521
  0
VERTEX
  8
0
 10
1026.661637
 20
848.757883
 42
-0.009042
  0
VERTEX
  8
0
 10
1018.254013
 20
839.986411
 42
-0.009520
  0
VERTEX
  8
0
 10
1009.221780
 20
831.237750
 42
-0.020172
  0
VERTEX
  8
0
 10
1001.836092
 20
824.888593
 42
0.001521
  0
VERTEX
  8
0
 10
998.371969
 20
822.128438
 42
0.001195
  0
VERTEX
  8
0
 10
994.633233
 20
819.116137
 42
0.001207
  0
VERTEX
  8
0
 10
991.170430
 20
816.298612
 42
0.002975
  0
VERTEX
  8
0
 10
988.645552
 20
814.208894
 42
-0.020009
  0
VERTEX
  8
0
 10
983.118747
 20
809.943265
 42
-0.006784
  0
VERTEX
  8
0
 10
974.756807
 20
804.176624
 42
-0.006963
  0
VERTEX
  8
0
 10
965.955849
 20
798.457724
 42
-0.013548
  0
VERTEX
  8
0
 10
958.750000
 20
794.185048
 42
0.000000
  0
VERTEX
  8
0
 10
953.000000
 20
790.982901
 42
0.000000
  0
VERTEX
  8
0
 10
953.000000
 20
796.023569
 42
0.042012
  0
VERTEX
  8
0
 10
952.639807
 20
800.302781
 42
0.048439
  0
VERTEX
  8
0
 10
951.568564
 20
804.253993
 42
0.045695
  0
VERTEX
  8
0
 10
949.693148
 20
808.107990
 42
0.031421
  0
VERTEX
  8
0
 10
946.919665
 20
812.101431
 42
0.049753
  0
VERTEX
  8
0
 10
943.015447
 20
816.133609
 42
0.059727
  0
VERTEX
  8
0
 10
938.609216
 20
819.037995
 42
0.057719
  0
VERTEX
  8
0
 10
933.514635
 20
820.887046
 42
0.042215
  0
VERTEX
  8
0
 10
927.558039
 20
821.777969
 42
0.000000
  0
VERTEX
  8
0
 10
920.327492
 20
822.241997
 42
0.000000
  0
VERTEX
  8
0
 10
917.063388
 20
816.458323
 42
-0.052748
  0
VERTEX
  8
0
 10
911.525617
 20
808.688275
 42
-0.053759
  0
VERTEX
  8
0
 10
904.516590
 20
802.304081
 42
-0.048349
  0
VERTEX
  8
0
 10
895.642838
 20
797.048131
 42
-0.031017
  0
VERTEX
  8
0
 10
884.500000
 20
792.647794
 42
-0.010280
  0
VERTEX
  8
0
 10
876.024186
 20
790.085860
 42
-0.017847
  0
VERTEX
  8
0
 10
868.878707
 20
788.357799
 42
-0.021157
  0
VERTEX
  8
0
 10
862.636051
 20
787.354933
 42
-0.028690
  0
VERTEX
  8
0
 10
856.937091
 20
787.014781
 42
0.012335
  0
VERTEX
  8
0
 10
853.028160
 20
786.909524
 42
0.066206
  0
VERTEX
  8
0
 10
850.938585
 20
786.521059
 42
0.090303
  0
VERTEX
  8
0
 10
849.332210
 20
785.651519
 42
0.033702
  0
VERTEX
  8
0
 10
847.437091
 20
783.908417
 42
-0.043578
  0
VERTEX
  8
0
 10
844.391909
 20
781.216409
 42
-0.039408
  0
VERTEX
  8
0
 10
840.825713
 20
778.990307
 42
-0.041531
  0
VERTEX
  8
0
 10
837.235647
 20
777.488292
 42
-0.078469
  0
VERTEX
  8
0
 10
834.143451
 20
777.000000
 42
-0.081752
  0
VERTEX
  8
0
 10
830.209053
 20
777.647615
 42
-0.017344
  0
VERTEX
  8
0
 10
823.688110
 20
780.109305
 42
-0.018944
  0
VERTEX
  8
0
 10
816.818093
 20
783.289466
 42
-0.028572
  0
VERTEX
  8
0
 10
811.123871
 20
786.614691
 42
-0.026086
  0
VERTEX
  8
0
 10
805.452273
 20
790.818387
 42
-0.019001
  0
VERTEX
  8
0
 10
799.591726
 20
796.041957
 42
-0.019012
  0
VERTEX
  8
0
 10
794.519125
 20
801.306997
 42
-0.051697
  0
VERTEX
  8
0
 10
791.490978
 20
805.500000
 42
-0.021356
  0
VERTEX
  8
0
 10
790.481798
 20
807.441026
 42
-0.010155
  0
VERTEX
  8
0
 10
789.342289
 20
810.017285
 42
-0.010045
  0
VERTEX
  8
0
 10
788.258228
 20
812.762918
 42
-0.014044
  0
VERTEX
  8
0
 10
787.408534
 20
815.260969
 42
0.000000
  0
VERTEX
  8
0
 10
785.627840
 20
821.021938
 42
0.000000
  0
VERTEX
  8
0
 10
793.885161
 20
837.332664
 42
0.017588
  0
VERTEX
  8
0
 10
800.936658
 20
852.568633
 42
0.088244
  0
VERTEX
  8
0
 10
803.000188
 20
861.699652
 42
0.116360
  0
VERTEX
  8
0
 10
801.495114
 20
869.722078
 42
0.041183
  0
VERTEX
  8
0
 10
795.861116
 20
880.048557
 42
-0.033490
  0
VERTEX
  8
0
 10
789.022039
 20
892.138249
 42
-0.045484
  0
VERTEX
  8
0
 10
784.643210
 20
903.879983
 42
-0.042657
  0
VERTEX
  8
0
 10
782.282890
 20
916.793329
 42
-0.025013
  0
VERTEX
  8
0
 10
781.567633
 20
932.500000
 42
-0.014733
  0
VERTEX
  8
0
 10
781.973421
 20
944.439845
 42
-0.026933
  0
VERTEX
  8
0
 10
783.113463
 20
954.115044
 42
-0.020924
  0
VERTEX
  8
0
 10
785.489687
 20
965.102564
 42
-0.005682
  0
VERTEX
  8
0
 10
790.167922
 20
982.260197
 42
0.003188
  0
VERTEX
  8
0
 10
792.783800
 20
991.668899
 42
0.017183
  0
VERTEX
  8
0
 10
793.996659
 20
996.838642
 42
0.027665
  0
VERTEX
  8
0
 10
794.450879
 20
1000.044193
 42
0.197034
  0
VERTEX
  8
0
 10
793.991537
 20
1001.510197
 42
0.087857
  0
VERTEX
  8
0
 10
792.645176
 20
1002.650700
 42
0.317144
  0
VERTEX
  8
0
 10
791.586090
 20
1002.558672
 42
0.115174
  0
VERTEX
  8
0
 10
790.541750
 20
1001.157662
 42
0.011418
  0
VERTEX
  8
0
 10
788.942835
 20
997.250000
 42
0.014382
  0
VERTEX
  8
0
 10
782.607890
 20
979.157015
 42
0.016980
  0
VERTEX
  8
0
 10
777.699310
 20
961.697996
 42
0.018149
  0
VERTEX
  8
0
 10
774.550491
 20
946.463635
 42
0.052801
  0
VERTEX
  8
0
 10
773.885154
 20
935.750000
 42
-0.010273
  0
VERTEX
  8
0
 10
773.918140
 20
934.312155
 42
-0.017111
  0
VERTEX
  8
0
 10
773.879599
 20
933.101562
 42
-0.011208
  0
VERTEX
  8
0
 10
773.794381
 20
932.140719
 42
-0.382099
  0
VERTEX
  8
0
 10
773.637126
 20
932.000000
 42
-0.287223
  0
VERTEX
  8
0
 10
772.801668
 20
932.523077
 42
-0.000218
  0
VERTEX
  8
0
 10
761.262543
 20
956.314445
 42
-0.002362
  0
VERTEX
  8
0
 10
751.108650
 20
977.527823
 42
-0.010803
  0
VERTEX
  8
0
 10
745.536283
 20
990.002641
 42
-0.018733
  0
VERTEX
  8
0
 10
737.374516
 20
1011.618573
 42
-0.019064
  0
VERTEX
  8
0
 10
730.906332
 20
1033.659640
 42
-0.017907
  0
VERTEX
  8
0
 10
725.817041
 20
1057.361241
 42
-0.013067
  0
VERTEX
  8
0
 10
721.802718
 20
1084.000000
 42
-0.017776
  0
VERTEX
  8
0
 10
721.249538
 20
1090.277895
 42
-0.005240
  0
VERTEX
  8
0
 10
720.845183
 20
1099.931915
 42
-0.004740
  0
VERTEX
  8
0
 10
720.585027
 20
1111.808955
 42
-0.003105
  0
VERTEX
  8
0
 10
720.500000
 20
1125.500000
 42
0.000000
  0
VERTEX
  8
0
 10
720.500000
 20
1156.500000
 42
0.000000
  0
VERTEX
  8
0
 10
723.880376
 20
1163.000000
 42
-0.008831
  0
VERTEX
  8
0
 10
725.731774
 20
1166.411418
 42
-0.002442
  0
VERTEX
  8
0
 10
728.759998
 20
1171.703125
 42
-0.002465
  0
VERTEX
  8
0
 10
732.248842
 20
1177.663290
 42
-0.002578
  0
VERTEX
  8
0
 10
735.744943
 20
1183.500000
 42
0.003573
  0
VERTEX
  8
0
 10
739.398784
 20
1189.627672
 42
0.002624
  0
VERTEX
  8
0
 10
743.365739
 20
1196.471875
 42
0.002651
  0
VERTEX
  8
0
 10
747.051872
 20
1202.989078
 42
0.005893
  0
VERTEX
  8
0
 10
749.774109
 20
1208.000000
 42
-0.003857
  0
VERTEX
  8
0
 10
752.005342
 20
1212.147277
 42
-0.004963
  0
VERTEX
  8
0
 10
754.123266
 20
1215.922761
 42
-0.003835
  0
VERTEX
  8
0
 10
755.951280
 20
1219.051127
 42
-0.042584
  0
VERTEX
  8
0
 10
756.793189
 20
1220.226419
 42
-0.075641
  0
VERTEX
  8
0
 10
757.979612
 20
1221.252548
 42
-0.222065
  0
VERTEX
  8
0
 10
759.024793
 20
1221.383928
 42
-0.235508
  0
VERTEX
  8
0
 10
759.752650
 20
1220.671652
 42
-0.083070
  0
VERTEX
  8
0
 10
760.003576
 20
1219.190983
 42
0.077358
  0
VERTEX
  8
0
 10
760.402801
 20
1216.661260
 42
0.000792
  0
VERTEX
  8
0
 10
765.964518
 20
1199.447805
 42
0.002782
  0
VERTEX
  8
0
 10
772.044149
 20
1181.081154
 42
0.002728
  0
VERTEX
  8
0
 10
778.367088
 20
1162.662280
 42
0.003761
  0
VERTEX
  8
0
 10
781.856946
 20
1152.910186
 42
0.020234
  0
VERTEX
  8
0
 10
784.008115
 20
1147.701238
 42
0.033865
  0
VERTEX
  8
0
 10
785.625461
 20
1144.739365
 42
0.256216
  0
VERTEX
  8
0
 10
786.973594
 20
1144.000000
 42
0.293150
  0
VERTEX
  8
0
 10
788.146836
 20
1144.752543
 42
0.002183
  0
VERTEX
  8
0
 10
793.109943
 20
1155.695747
 42
0.008318
  0
VERTEX
  8
0
 10
797.626109
 20
1166.236514
 42
0.020495
  0
VERTEX
  8
0
 10
800.489943
 20
1174.151543
 42
0.012065
  0
VERTEX
  8
0
 10
802.920818
 20
1182.540213
 42
0.016624
  0
VERTEX
  8
0
 10
804.668657
 20
1190.188081
 42
0.014424
  0
VERTEX
  8
0
 10
806.067383
 20
1198.714962
 42
0.006453
  0
VERTEX
  8
0
 10
807.437700
 20
1210.000000
 42
-0.002599
  0
VERTEX
  8
0
 10
808.843681
 20
1222.375084
 42
-0.031418
  0
VERTEX
  8
0
 10
809.706007
 20
1227.083367
 42
-0.079368
  0
VERTEX
  8
0
 10
810.918429
 20
1229.932229
 42
-0.061589
  0
VERTEX
  8
0
 10
813.050324
 20
1232.548213
 42
-0.009449
  0
VERTEX
  8
0
 10
814.974998
 20
1234.323647
 42
-0.132981
  0
VERTEX
  8
0
 10
815.808783
 20
1234.738593
 42
-0.243564
  0
VERTEX
  8
0
 10
816.510285
 20
1234.536526
 42
-0.038505
  0
VERTEX
  8
0
 10
817.503710
 20
1233.438755
 42
-0.031172
  0
VERTEX
  8
0
 10
818.291875
 20
1232.277364
 42
-0.005618
  0
VERTEX
  8
0
 10
819.596302
 20
1230.013259
 42
-0.006040
  0
VERTEX
  8
0
 10
821.064280
 20
1227.322117
 42
-0.005432
  0
VERTEX
  8
0
 10
822.520709
 20
1224.500000
 42
-0.030104
  0
VERTEX
  8
0
 10
824.555298
 20
1219.758907
 42
-0.022960
  0
VERTEX
  8
0
 10
826.220849
 20
1214.360665
 42
-0.013789
  0
VERTEX
  8
0
 10
827.987971
 20
1206.667369
 42
-0.003115
  0
VERTEX
  8
0
 10
830.547258
 20
1193.500000
 42
-0.001170
  0
VERTEX
  8
0
 10
835.346852
 20
1167.624165
 42
-0.006162
  0
VERTEX
  8
0
 10
837.773318
 20
1153.380710
 42
-0.009089
  0
VERTEX
  8
0
 10
839.400778
 20
1141.682643
 42
-0.004792
  0
VERTEX
  8
0
 10
841.017764
 20
1127.105357
 42
0.003050
  0
VERTEX
  8
0
 10
842.184988
 20
1116.237461
 42
0.015237
  0
VERTEX
  8
0
 10
843.061940
 20
1110.170990
 42
0.026166
  0
VERTEX
  8
0
 10
843.933213
 20
1106.387770
 42
0.097266
  0
VERTEX
  8
0
 10
845.041196
 20
1104.220498
 42
-0.092182
  0
VERTEX
  8
0
 10
846.612434
 20
1101.222020
 42
-0.107150
  0
VERTEX
  8
0
 10
846.886390
 20
1098.019716
 42
-0.085669
  0
VERTEX
  8
0
 10
845.784690
 20
1094.446394
 42
-0.040399
  0
VERTEX
  8
0
 10
843.250000
 20
1090.319079
 42
0.005247
  0
VERTEX
  8
0
 10
830.801261
 20
1072.918549
 42
0.013240
  0
VERTEX
  8
0
 10
822.215699
 20
1059.928681
 42
0.015596
  0
VERTEX
  8
0
 10
815.180686
 20
1047.821046
 42
0.010453
  0
VERTEX
  8
0
 10
807.867116
 20
1033.574131
 42
0.004500
  0
VERTEX
  8
0
 10
804.365130
 20
1026.218824
 42
0.018133
  0
VERTEX
  8
0
 10
802.432424
 20
1021.636007
 42
0.024455
  0
VERTEX
  8
0
 10
801.440851
 20
1018.581928
 42
0.209951
  0
VERTEX
  8
0
 10
801.648858
 20
1017.194898
 42
0.359944
  0
VERTEX
  8
0
 10
803.750398
 20
1016.505376
 42
0.143589
  0
VERTEX
  8
0
 10
806.324452
 20
1018.499829
 42
0.023143
  0
VERTEX
  8
0
 10
810.900591
 20
1025.483170
 42
0.001113
  0
VERTEX
  8
0
 10
825.023615
 20
1049.500000
 42
-0.015651
  0
VERTEX
  8
0
 10
834.151857
 20
1064.038542
 42
-0.015637
  0
VERTEX
  8
0
 10
844.174292
 20
1077.982007
 42
-0.016529
  0
VERTEX
  8
0
 10
854.173491
 20
1090.157907
 42
-0.030740
  0
VERTEX
  8
0
 10
863.173601
 20
1099.218186
 42
0.001820
  0
VERTEX
  8
0
 10
866.251080
 20
1101.977324
 42
0.001311
  0
VERTEX
  8
0
 10
869.666548
 20
1105.078283
 42
0.001323
  0
VERTEX
  8
0
 10
872.899730
 20
1108.044966
 42
0.002867
  0
VERTEX
  8
0
 10
875.365857
 20
1110.346182
 42
-0.043863
  0
VERTEX
  8
0
 10
880.085611
 20
1114.076857
 42
-0.023270
  0
VERTEX
  8
0
 10
886.504446
 20
1117.878248
 42
-0.018262
  0
VERTEX
  8
0
 10
894.934426
 20
1121.967371
 42
-0.008829
  0
VERTEX
  8
0
 10
905.993123
 20
1126.609754
 42
-0.000689
  0
VERTEX
  8
0
 10
909.262323
 20
1127.909521
 42
-0.001117
  0
VERTEX
  8
0
 10
912.044700
 20
1129.004115
 42
-0.000136
  0
VERTEX
  8
0
 10
914.527175
 20
1129.973551
 42
-0.093276
  0
VERTEX
  8
0
 10
914.667722
 20
1130.000000
 42
-0.522302
  0
VERTEX
  8
0
 10
914.715389
 20
1129.931527
 42
-0.000272
  0
VERTEX
  8
0
 10
913.661336
 20
1127.088738
 42
-0.002509
  0
VERTEX
  8
0
 10
912.454951
 20
1123.889803
 42
-0.001490
  0
VERTEX
  8
0
 10
910.986889
 20
1120.089321
 42
0.013436
  0
VERTEX
  8
0
 10
904.870446
 20
1103.055368
 42
0.016484
  0
VERTEX
  8
0
 10
900.119435
 20
1086.832907
 42
0.018009
  0
VERTEX
  8
0
 10
896.997643
 20
1072.600204
 42
0.044289
  0
VERTEX
  8
0
 10
896.021642
 20
1061.950000
 42
0.017974
  0
VERTEX
  8
0
 10
896.189975
 20
1056.862828
 42
0.084335
  0
VERTEX
  8
0
 10
896.875549
 20
1054.028107
 42
0.164226
  0
VERTEX
  8
0
 10
898.201163
 20
1052.550138
 42
0.129248
  0
VERTEX
  8
0
 10
900.293838
 20
1052.000000
 42
0.107137
  0
VERTEX
  8
0
 10
901.273853
 20
1052.212430
 42
0.224478
  0
VERTEX
  8
0
 10
901.766142
 20
1052.794245
 42
0.088308
  0
VERTEX
  8
0
 10
901.868293
 20
1054.001022
 42
0.009890
  0
VERTEX
  8
0
 10
901.560525
 20
1056.750000
 42
-0.092579
  0
VERTEX
  8
0
 10
902.087974
 20
1066.625550
 42
-0.013981
  0
VERTEX
  8
0
 10
907.314962
 20
1085.813957
 42
-0.016104
  0
VERTEX
  8
0
 10
914.559642
 20
1107.235786
 42
-0.017950
  0
VERTEX
  8
0
 10
922.936201
 20
1127.371983
 42
-0.008942
  0
VERTEX
  8
0
 10
930.377707
 20
1142.856075
 42
-0.012564
  0
VERTEX
  8
0
 10
937.606310
 20
1156.375424
 42
-0.012297
  0
VERTEX
  8
0
 10
945.626094
 20
1169.732384
 42
-0.008051
  0
VERTEX
  8
0
 10
955.489598
 20
1184.740666
 42
-0.001259
  0
VERTEX
  8
0
 10
975.248229
 20
1213.619124
 42
-0.015453
  0
VERTEX
  8
0
 10
983.156212
 20
1224.386567
 42
-0.027597
  0
VERTEX
  8
0
 10
990.227654
 20
1232.456492
 42
-0.008258
  0
VERTEX
  8
0
 10
1001.864169
 20
1243.957705
 42
-0.007210
  0
VERTEX
  8
0
 10
1013.720948
 20
1254.972796
 42
-0.036411
  0
VERTEX
  8
0
 10
1020.847212
 20
1260.519576
 42
-0.038973
  0
VERTEX
  8
0
 10
1028.493464
 20
1264.803674
 42
-0.009027
  0
VERTEX
  8
0
 10
1042.000000
 20
1270.750399
 42
-0.012643
  0
VERTEX
  8
0
 10
1050.213599
 20
1273.949457
 42
-0.002680
  0
VERTEX
  8
0
 10
1064.693271
 20
1279.083909
 42
-0.000293
  0
VERTEX
  8
0
 10
1080.955792
 20
1284.741928
 42
-0.270019
  0
VERTEX
  8
0
 10
1081.713694
 20
1284.593630
 42
-0.280942
  0
VERTEX
  8
0
 10
1081.769709
 20
1284.414040
 42
-0.001496
  0
VERTEX
  8
0
 10
1081.300827
 20
1282.565517
 42
-0.005829
  0
VERTEX
  8
0
 10
1080.728533
 20
1280.440445
 42
-0.003593
  0
SEQEND
  0
POLYLINE
  8
0
 66
1
 70
1
  0
VERTEX
  8
0
 10
547.539901
 20
1065.448430
 42
-0.012798
  0
VERTEX
  8
0
 10
552.180270
 20
1064.112724
 42
-0.106154
  0
VERTEX
  8
0
 10
554.073901
 20
1063.035083
 42
-0.167511
  0
VERTEX
  8
0
 10
554.943742
 20
1061.479870
 42
-0.044534
  0
VERTEX
  8
0
 10
555.200000
 20
1058.608495
 42
-0.121718
  0
VERTEX
  8
0
 10
553.897531
 20
1053.337387
 42
-0.047171
  0
VERTEX
  8
0
 10
549.755047
 20
1046.997457
 42
-0.024485
  0
VERTEX
  8
0
 10
541.756209
 20
1037.914014
 42
-0.004483
  0
VERTEX
  8
0
 10
526.015748
 20
1022.000000
 42
0.006123
  0
VERTEX
  8
0
 10
506.116367
 20
1001.748778
 42
0.009786
  0
VERTEX
  8
0
 10
489.677165
 20
983.918136
 42
0.011319
  0
VERTEX
  8
0
 10
475.989394
 20
967.753236
 42
0.015620
  0
VERTEX
  8
0
 10
464.500000
 20
952.599934
 42
-0.005784
  0
VERTEX
  8
0
 10
459.514077
 20
945.748189
 42
-0.003134
  0
VERTEX
  8
0
 10
453.231719
 20
937.430820
 42
-0.003133
  0
VERTEX
  8
0
 10
446.830124
 20
929.172877
 42
-0.005654
  0
VERTEX
  8
0
 10
441.466915
 20
922.500000
 42
0.041155
  0
VERTEX
  8
0
 10
418.972790
 20
890.044053
 42
0.028673
  0
VERTEX
  8
0
 10
398.918747
 20
850.216623
 42
0.028045
  0
VERTEX
  8
0
 10
383.036936
 20
807.117494
 42
0.032957
  0
VERTEX
  8
0
 10
373.069834
 20
764.757168
 42
0.006656
  0
VERTEX
  8
0
 10
370.753362
 20
749.623508
 42
0.021494
  0
VERTEX
  8
0
 10
369.782411
 20
739.497557
 42
0.023696
  0
VERTEX
  8
0
 10
369.731963
 20
729.853115
 42
0.009520
  0
VERTEX
  8
0
 10
370.538494
 20
716.689132
 42
0.013030
  0
VERTEX
  8
0
 10
372.606361
 20
697.307419
 42
0.023342
  0
VERTEX
  8
0
 10
375.456815
 20
681.555529
 42
0.025342
  0
VERTEX
  8
0
 10
379.571159
 20
667.049410
 42
0.019159
  0
VERTEX
  8
0
 10
385.487267
 20
651.583701
 42
-0.001482
  0
VERTEX
  8
0
 10
387.217092
 20
647.500322
 42
-0.002338
  0
VERTEX
  8
0
 10
388.674385
 20
643.985752
 42
-0.000557
  0
VERTEX
  8
0
 10
389.932070
 20
640.902228
 42
-0.096841
  0
VERTEX
  8
0
 10
390.000000
 20
640.554785
 42
0.138362
  0
VERTEX
  8
0
 10
390.094597
 20
640.219483
 42
0.000688
  0
VERTEX
  8
0
 10
391.949525
 20
637.203055
 42
0.003050
  0
VERTEX
  8
0
 10
394.092590
 20
633.775744
 42
0.001918
  0
VERTEX
  8
0
 10
396.636680
 20
629.795608
 42
0.006833
  0
VERTEX
  8
0
 10
401.620965
 20
622.290611
 42
0.012255
  0
VERTEX
  8
0
 10
405.945363
 20
616.289497
 42
0.007375
  0
VERTEX
  8
0
 10
409.596797
 20
611.620231
 42
0.226868
  0
VERTEX
  8
0
 10
410.893382
 20
611.000000
 42
-0.193022
  0
VERTEX
  8
0
 10
411.405706
 20
610.794566
 42
-0.000824
  0
VERTEX
  8
0
 10
415.813565
 20
606.568399
 42
-0.003823
  0
VERTEX
  8
0
 10
420.800600
 20
601.697170
 42
-0.002381
  0
VERTEX
  8
0
 10
426.576433
 20
595.913700
 42
0.011773
  0
VERTEX
  8
0
 10
444.678799
 20
578.455815
 42
0.030994
  0
VERTEX
  8
0
 10
458.668382
 20
567.102084
 42
0.037033
  0
VERTEX
  8
0
 10
472.418099
 20
558.751949
 42
0.024333
  0
VERTEX
  8
0
 10
489.312879
 20
551.144745
 42
0.010972
  0
VERTEX
  8
0
 10
502.957431
 20
546.125747
 42
0.031329
  0
VERTEX
  8
0
 10
512.706971
 20
543.449536
 42
0.038368
  0
VERTEX
  8
0
 10
521.546647
 20
542.306790
 42
0.024666
  0
VERTEX
  8
0
 10
531.889904
 20
542.280506
 42
0.029924
  0
VERTEX
  8
0
 10
551.724775
 20
544.403141
 42
0.032336
  0
VERTEX
  8
0
 10
570.645566
 20
548.855035
 42
0.030393
  0
VERTEX
  8
0
 10
589.814262
 20
555.993788
 42
0.021435
  0
VERTEX
  8
0
 10
610.420201
 20
566.206430
 42
0.011458
  0
VERTEX
  8
0
 10
616.340300
 20
569.642678
 42
0.002835
  0
VERTEX
  8
0
 10
625.882809
 20
575.552415
 42
0.002898
  0
VERTEX
  8
0
 10
636.733201
 20
582.445496
 42
0.002901
  0
VERTEX
  8
0
 10
647.500000
 20
589.462052
 42
-0.002069
  0
VERTEX
  8
0
 10
667.077984
 20
602.267151
 42
-0.009573
  0
VERTEX
  8
0
 10
678.569016
 20
609.406567
 42
-0.011405
  0
VERTEX
  8
0
 10
689.392498
 20
615.517492
 42
-0.003803
  0
VERTEX
  8
0
 10
705.500000
 20
623.976423
 42
0.002127
  0
VERTEX
  8
0
 10
719.047690
 20
631.033239
 42
0.003421
  0
VERTEX
  8
0
 10
730.528645
 20
637.176444
 42
0.003152
  0
VERTEX
  8
0
 10
742.565938
 20
643.822355
 42
0.001494
  0
VERTEX
  8
0
 10
758.000000
 20
652.531789
 42
-0.011632
  0
VERTEX
  8
0
 10
785.235194
 20
667.180724
 42
-0.016964
  0
VERTEX
  8
0
 10
809.932105
 20
678.695886
 42
-0.017721
  0
VERTEX
  8
0
 10
834.500627
 20
688.138379
 42
-0.014605
  0
VERTEX
  8
0
 10
861.304847
 20
696.496903
 42
0.000405
  0
VERTEX
  8
0
 10
867.726252
 20
698.300945
 42
0.000522
  0
VERTEX
  8
0
 10
873.623924
 20
699.969656
 42
0.000397
  0
VERTEX
  8
0
 10
878.565567
 20
701.377675
 42
0.004576
  0
VERTEX
  8
0
 10
880.500000
 20
701.949710
 42
-0.027318
  0
VERTEX
  8
0
 10
886.633113
 20
703.463892
 42
-0.004406
  0
VERTEX
  8
0
 10
898.746926
 20
705.650856
 42
-0.002553
  0
VERTEX
  8
0
 10
911.340978
 20
707.743968
 42
-0.069582
  0
VERTEX
  8
0
 10
914.700370
 20
707.813343
 42
-0.233912
  0
VERTEX
  8
0
 10
915.468053
 20
707.312735
 42
-0.343864
  0
VERTEX
  8
0
 10
915.369060
 20
706.549677
 42
-0.045227
  0
VERTEX
  8
0
 10
913.552679
 20
705.053617
 42
-0.003665
  0
VERTEX
  8
0
 10
908.418460
 20
701.606491
 42
0.009099
  0
VERTEX
  8
0
 10
900.215329
 20
695.968587
 42
0.005188
  0
VERTEX
  8
0
 10
890.499720
 20
688.874145
 42
0.005003
  0
VERTEX
  8
0
 10
881.380021
 20
681.925530
 42
0.016031
  0
VERTEX
  8
0
 10
875.502422
 20
677.043229
 42
0.014261
  0
VERTEX
  8
0
 10
860.448879
 20
662.913900
 42
0.016414
  0
VERTEX
  8
0
 10
846.939281
 20
648.577395
 42
0.013638
  0
VERTEX
  8
0
 10
832.538324
 20
631.326859
 42
0.006047
  0
VERTEX
  8
0
 10
814.442454
 20
607.828809
 42
-0.004940
  0
VERTEX
  8
0
 10
785.752524
 20
570.402924
 42
-0.009446
  0
VERTEX
  8
0
 10
761.858631
 20
541.023963
 42
-0.011051
  0
VERTEX
  8
0
 10
739.657794
 20
515.904060
 42
-0.011043
  0
VERTEX
  8
0
 10
716.363577
 20
491.783685
 42
-0.018163
  0
VERTEX
  8
0
 10
691.788425
 20
469.144703
 42
-0.018681
  0
VERTEX
  8
0
 10
665.858005
 20
448.570290
 42
-0.019290
  0
VERTEX
  8
0
 10
639.367303
 20
430.648600
 42
-0.023183
  0
VERTEX
  8
0
 10
613.115294
 20
415.968962
 42
-0.019755
  0
VERTEX
  8
0
 10
597.728312
 20
409.023556
 42
-0.009783
  0
VERTEX
  8
0
 10
577.710242
 20
401.375785
 42
-0.009728
  0
VERTEX
  8
0
 10
556.760729
 20
394.295670
 42
-0.014838
  0
VERTEX
  8
0
 10
538.299413
 20
389.051343
 42
-0.007381
  0
VERTEX
  8
0
 10
527.482655
 20
386.491905
 42
-0.003002
  0
VERTEX
  8
0
 10
512.689833
 20
383.314482
 42
-0.001419
  0
VERTEX
  8
0
 10
497.741450
 20
380.241631
 42
-0.041695
  0
VERTEX
  8
0
 10
493.886597
 20
379.790258
 42
-0.112846
  0
VERTEX
  8
0
 10
492.194536
 20
380.118343
 42
-0.018145
  0
VERTEX
  8
0
 10
489.151315
 20
381.597956
 42
-0.016799
  0
VERTEX
  8
0
 10
485.260921
 20
383.838003
 42
-0.008345
  0
VERTEX
  8
0
 10
480.476996
 20
386.922678
 42
0.013429
  0
VERTEX
  8
0
 10
471.628678
 20
392.501528
 42
0.012650
  0
VERTEX
  8
0
 10
462.317876
 20
397.714355
 42
0.011543
  0
VERTEX
  8
0
 10
451.976802
 20
402.863673
 42
0.007869
  0
VERTEX
  8
0
 10
440.000000
 20
408.257973
 42
0.015939
  0
VERTEX
  8
0
 10
424.303012
 20
414.447082
 42
0.044542
  0
VERTEX
  8
0
 10
412.862963
 20
417.425212
 42
0.038036
  0
VERTEX
  8
0
 10
400.109859
 20
418.571130
 42
0.009212
  0
VERTEX
  8
0
 10
378.925184
 20
418.468469
 42
0.000132
  0
VERTEX
  8
0
 10
369.002064
 20
418.234892
 42
0.000191
  0
VERTEX
  8
0
 10
360.234273
 20
418.022843
 42
0.000096
  0
VERTEX
  8
0
 10
352.791560
 20
417.838561
 42
0.003186
  0
VERTEX
  8
0
 10
351.000000
 20
417.782430
 42
-0.076340
  0
VERTEX
  8
0
 10
345.978235
 20
418.360918
 42
-0.009800
  0
VERTEX
  8
0
 10
335.547983
 20
421.435691
 42
-0.010793
  0
VERTEX
  8
0
 10
322.811217
 20
425.767898
 42
-0.007332
  0
VERTEX
  8
0
 10
308.500000
 20
431.221910
 42
-0.006563
  0
VERTEX
  8
0
 10
291.692344
 20
438.168095
 42
-0.018164
  0
VERTEX
  8
0
 10
280.121711
 20
443.634369
 42
-0.024486
  0
VERTEX
  8
0
 10
271.170638
 20
448.838532
 42
-0.026405
  0
VERTEX
  8
0
 10
263.003032
 20
454.773537
 42
-0.013958
  0
VERTEX
  8
0
 10
257.471363
 20
459.519520
 42
-0.018572
  0
VERTEX
  8
0
 10
252.734926
 20
464.150617
 42
-0.011721
  0
VERTEX
  8
0
 10
249.047682
 20
468.220893
 42
-0.393055
  0
VERTEX
  8
0
 10
249.091511
 20
469.424844
 42
-0.216404
  0
VERTEX
  8
0
 10
249.446005
 20
469.557938
 42
-0.010237
  0
VERTEX
  8
0
 10
250.745624
 20
469.443869
 42
-0.015283
  0
VERTEX
  8
0
 10
252.323771
 20
469.223754
 42
-0.010247
  0
VERTEX
  8
0
 10
254.113206
 20
468.880282
 42
0.026431
  0
VERTEX
  8
0
 10
256.354640
 20
468.524811
 42
0.011327
  0
VERTEX
  8
0
 10
259.377018
 20
468.277092
 42
0.011171
  0
VERTEX
  8
0
 10
262.616624
 20
468.157867
 42
0.014459
  0
VERTEX
  8
0
 10
265.590154
 20
468.200902
 42
0.031409
  0
VERTEX
  8
0
 10
271.194189
 20
468.798219
 42
0.335168
  0
VERTEX
  8
0
 10
272.668949
 20
470.365446
 42
0.195614
  0
VERTEX
  8
0
 10
271.913395
 20
473.011471
 42
0.013055
  0
VERTEX
  8
0
 10
266.786699
 20
479.215537
 42
-0.009675
  0
VERTEX
  8
0
 10
252.728378
 20
495.995898
 42
-0.016975
  0
VERTEX
  8
0
 10
241.854405
 20
510.477550
 42
-0.020437
  0
VERTEX
  8
0
 10
233.675141
 20
523.259429
 42
-0.033275
  0
VERTEX
  8
0
 10
227.937414
 20
534.786421
 42
-0.006951
  0
VERTEX
  8
0
 10
222.713208
 20
547.811964
 42
-0.004469
  0
VERTEX
  8
0
 10
217.000389
 20
563.054371
 42
-0.004287
  0
VERTEX
  8
0
 10
211.899065
 20
577.426149
 42
-0.014650
  0
VERTEX
  8
0
 10
208.937031
 20
586.893840
 42
-0.021155
  0
VERTEX
  8
0
 10
207.118121
 20
594.606260
 42
-0.020886
  0
VERTEX
  8
0
 10
205.948281
 20
602.477665
 42
-0.015212
  0
VERTEX
  8
0
 10
205.428560
 20
609.362010
 42
-0.210059
  0
VERTEX
  8
0
 10
206.309808
 20
611.639681
 42
-0.366841
  0
VERTEX
  8
0
 10
206.867449
 20
611.686821
 42
-0.020294
  0
VERTEX
  8
0
 10
208.357251
 20
610.531900
 42
-0.023552
  0
VERTEX
  8
0
 10
210.158504
 20
608.863514
 42
-0.014133
  0
VERTEX
  8
0
 10
212.142647
 20
606.726475
 42
0.026492
  0
VERTEX
  8
0
 10
215.652757
 20
603.128402
 42
0.083005
  0
VERTEX
  8
0
 10
218.470905
 20
601.285385
 42
0.243334
  0
VERTEX
  8
0
 10
220.182845
 20
601.394845
 42
0.263227
  0
VERTEX
  8
0
 10
221.000000
 20
602.839480
 42
0.033849
  0
VERTEX
  8
0
 10
220.823854
 20
605.438450
 42
0.000515
  0
VERTEX
  8
0
 10
218.769321
 20
620.410470
 42
0.001575
  0
VERTEX
  8
0
 10
216.598139
 20
635.755986
 42
0.002183
  0
VERTEX
  8
0
 10
214.548061
 20
649.500000
 42
-0.029170
  0
VERTEX
  8
0
 10
213.085245
 20
664.997510
 42
-0.015981
  0
VERTEX
  8
0
 10
213.012208
 20
684.077180
 42
-0.015532
  0
VERTEX
  8
0
 10
214.204532
 20
704.196297
 42
-0.018656
  0
VERTEX
  8
0
 10
216.616293
 20
723.000000
 42
-0.034696
  0
VERTEX
  8
0
 10
224.889787
 20
757.673027
 42
-0.019090
  0
VERTEX
  8
0
 10
239.513916
 20
798.782704
 42
-0.019081
  0
VERTEX
  8
0
 10
257.280943
 20
838.771222
 42
-0.033807
  0
VERTEX
  8
0
 10
275.321401
 20
870.000000
 42
-0.018795
  0
VERTEX
  8
0
 10
292.774637
 20
893.986669
 42
-0.012209
  0
VERTEX
  8
0
 10
314.628641
 20
920.410302
 42
-0.012280
  0
VERTEX
  8
0
 10
337.145237
 20
945.070036
 42
-0.023850
  0
VERTEX
  8
0
 10
356.500000
 20
963.412263
 42
-0.006678
  0
VERTEX
  8
0
 10
376.774824
 20
980.402949
 42
-0.007596
  0
VERTEX
  8
0
 10
396.653574
 20
996.117978
 42
-0.007616
  0
VERTEX
  8
0
 10
416.955202
 20
1011.186950
 42
-0.006781
  0
VERTEX
  8
0
 10
438.500000
 20
1026.236427
 42
-0.021488
  0
VERTEX
  8
0
 10
462.325784
 20
1040.949242
 42
-0.025304
  0
VERTEX
  8
0
 10
486.087585
 20
1052.711145
 42
-0.027173
  0
VERTEX
  8
0
 10
509.182275
 20
1061.264690
 42
-0.036055
  0
VERTEX
  8
0
 10
531.000000
 20
1066.333893
 42
-0.025559
  0
VERTEX
  8
0
 10
535.136851
 20
1066.770317
 42
-0.026878
  0
VERTEX
  8
0
 10
539.227291
 20
1066.771376
 42
-0.026558
  0
VERTEX
  8
0
 10
543.339068
 20
1066.331442
 42
-0.023750
  0
SEQEND
  0
POLYLINE
  8
0
 66
1
 70
1
  0
VERTEX
  8
0
 10
1187.274554
 20
1016.750000
 42
-0.006902
  0
VERTEX
  8
0
 10
1197.112514
 20
994.018684
 42
-0.005435
  0
VERTEX
  8
0
 10
1207.157233
 20
969.143270
 42
-0.005000
  0
VERTEX
  8
0
 10
1215.756863
 20
946.496425
 42
-0.023327
  0
VERTEX
  8
0
 10
1219.965314
 20
933.187454
 42
0.003020
  0
VERTEX
  8
0
 10
1220.448221
 20
931.412635
 42
0.003032
  0
VERTEX
  8
0
 10
1220.951937
 20
929.646029
 42
0.002961
  0
VERTEX
  8
0
 10
1221.409703
 20
928.110605
 42
0.012113
  0
VERTEX
  8
0
 10
1221.715515
 20
927.187454
 42
-0.053569
  0
VERTEX
  8
0
 10
1221.889136
 20
926.468900
 42
-0.533552
  0
VERTEX
  8
0
 10
1221.695449
 20
926.298823
 42
-0.110590
  0
VERTEX
  8
0
 10
1221.164230
 20
926.575349
 42
-0.008028
  0
VERTEX
  8
0
 10
1219.910129
 20
927.667082
 42
0.050706
  0
VERTEX
  8
0
 10
1213.045364
 20
932.683047
 42
0.015888
  0
VERTEX
  8
0
 10
1201.841399
 20
938.773619
 42
0.015918
  0
VERTEX
  8
0
 10
1189.024883
 20
944.718625
 42
0.018771
  0
VERTEX
  8
0
 10
1176.534286
 20
949.490778
 42
0.016263
  0
VERTEX
  8
0
 10
1164.586398
 20
953.119821
 42
0.022860
  0
VERTEX
  8
0
 10
1153.706568
 20
955.514497
 42
0.023240
  0
VERTEX
  8
0
 10
1142.794139
 20
956.879762
 42
0.017688
  0
VERTEX
  8
0
 10
1130.755441
 20
957.393155
 42
-0.001223
  0
VERTEX
  8
0
 10
1125.101270
 20
957.447954
 42
-0.002038
  0
VERTEX
  8
0
 10
1120.340497
 20
957.525145
 42
-0.000168
  0
VERTEX
  8
0
 10
1116.085560
 20
957.612907
 42
-0.399869
  0
VERTEX
  8
0
 10
1116.005441
 20
957.692444
 42
-0.231036
  0
VERTEX
  8
0
 10
1116.063055
 20
957.819460
 42
-0.000197
  0
VERTEX
  8
0
 10
1118.738398
 20
960.029577
 42
-0.001974
  0
VERTEX
  8
0
 10
1121.744974
 20
962.491432
 42
-0.001201
  0
VERTEX
  8
0
 10
1125.316767
 20
965.378400
 42
0.026174
  0
VERTEX
  8
0
 10
1137.199196
 20
976.005696
 42
0.013768
  0
VERTEX
  8
0
 10
1150.868787
 20
990.352532
 42
0.013761
  0
VERTEX
  8
0
 10
1163.807312
 20
1005.522583
 42
0.024709
  0
VERTEX
  8
0
 10
1173.436349
 20
1018.750000
 42
-0.005177
  0
VERTEX
  8
0
 10
1176.068109
 20
1022.678976
 42
-0.008164
  0
VERTEX
  8
0
 10
1178.415621
 20
1025.989063
 42
-0.003138
  0
VERTEX
  8
0
 10
1180.475068
 20
1028.758141
 42
-0.235474
  0
VERTEX
  8
0
 10
1180.960150
 20
1029.000000
 42
-0.277565
  0
VERTEX
  8
0
 10
1181.408506
 20
1028.730328
 42
-0.002965
  0
VERTEX
  8
0
 10
1183.149418
 20
1025.401562
 42
-0.008267
  0
VERTEX
  8
0
 10
1185.106241
 20
1021.446070
 42
-0.005154
  0
SEQEND
  0
POLYLINE
  8
0
 66
1
 70
1
  0
VERTEX
  8
0
 10
1232.333150
 20
897.270809
 42
-0.010203
  0
VERTEX
  8
0
 10
1237.853868
 20
868.550092
 42
-0.013800
  0
VERTEX
  8
0
 10
1241.592479
 20
842.380485
 42
-0.011648
  0
VERTEX
  8
0
 10
1244.285050
 20
812.875878
 42
-0.004866
  0
VERTEX
  8
0
 10
1246.599715
 20
773.000000
 42
-0.004875
  0
VERTEX
  8
0
 10
1248.101742
 20
734.006688
 42
-0.011476
  0
VERTEX
  8
0
 10
1248.270670
 20
704.888130
 42
-0.012233
  0
VERTEX
  8
0
 10
1247.106367
 20
676.925910
 42
-0.006312
  0
VERTEX
  8
0
 10
1244.353305
 20
642.017941
 42
-0.012363
  0
VERTEX
  8
0
 10
1242.299452
 20
624.399840
 42
-0.013925
  0
VERTEX
  8
0
 10
1239.438457
 20
607.594504
 42
-0.013652
  0
VERTEX
  8
0
 10
1235.590197
 20
590.685683
 42
-0.011025
  0
VERTEX
  8
0
 10
1230.566293
 20
572.751401
 42
-0.009894
  0
VERTEX
  8
0
 10
1227.380082
 20
562.972060
 42
-0.006358
  0
VERTEX
  8
0
 10
1223.317067
 20
551.753311
 42
-0.001285
  0
VERTEX
  8
0
 10
1219.031084
 20
540.461059
 42
-0.543343
  0
VERTEX
  8
0
 10
1218.350661
 20
540.316006
 42
-0.223220
  0
VERTEX
  8
0
 10
1218.238376
 20
540.627319
 42
-0.005622
  0
VERTEX
  8
0
 10
1218.398872
 20
542.160188
 42
-0.010996
  0
VERTEX
  8
0
 10
1218.651890
 20
543.987949
 42
-0.007147
  0
VERTEX
  8
0
 10
1219.020711
 20
546.088144
 42
0.014662
  0
VERTEX
  8
0
 10
1228.247281
 20
603.697107
 42
0.028414
  0
VERTEX
  8
0
 10
1231.632352
 20
650.194135
 42
0.027094
  0
VERTEX
  8
0
 10
1229.792500
 20
698.190164
 42
0.012103
  0
VERTEX
  8
0
 10
1222.429547
 20
761.000000
 42
0.011079
  0
VERTEX
  8
0
 10
1216.723701
 20
795.682686
 42
0.012321
  0
VERTEX
  8
0
 10
1209.656536
 20
828.863617
 42
0.013235
  0
VERTEX
  8
0
 10
1201.893102
 20
857.934498
 42
0.028957
  0
VERTEX
  8
0
 10
1194.094155
 20
879.613701
 42
0.000000
  0
VERTEX
  8
0
 10
1191.182849
 20
886.438127
 42
0.000000
  0
VERTEX
  8
0
 10
1204.102519
 20
889.710269
 42
0.015547
  0
VERTEX
  8
0
 10
1212.764770
 20
892.193101
 42
0.018639
  0
VERTEX
  8
0
 10
1220.738920
 20
895.081394
 42
0.015773
  0
VERTEX
  8
0
 10
1227.221618
 20
897.947871
 42
0.143307
  0
VERTEX
  8
0
 10
1229.496251
 20
899.993934
 42
-0.182102
  0
VERTEX
  8
0
 10
1230.243689
 20
900.570399
 42
-0.271825
  0
VERTEX
  8
0
 10
1231.025653
 20
900.383910
 42
-0.114575
  0
VERTEX
  8
0
 10
1231.763659
 20
899.251808
 42
-0.034823
  0
SEQEND
  0
POLYLINE
  8
0
 66
1
 70
1
  0
VERTEX
  8
0
 10
927.045240
 20
812.426800
 42
-0.040775
  0
VERTEX
  8
0
 10
928.429635
 20
809.715345
 42
-0.247191
  0
VERTEX
  8
0
 10
928.286219
 20
808.195784
 42
-0.187251
  0
VERTEX
  8
0
 10
926.874108
 20
807.183794
 42
-0.023297
  0
VERTEX
  8
0
 10
923.107677
 20
806.400619
 42
0.000000
  0
VERTEX
  8
0
 10
918.715353
 20
805.698867
 42
0.000000
  0
VERTEX
  8
0
 10
921.607677
 20
810.848417
 42
-0.002320
  0
VERTEX
  8
0
 10
922.728712
 20
812.822814
 42
-0.003787
  0
VERTEX
  8
0
 10
923.699859
 20
814.485585
 42
-0.000664
  0
VERTEX
  8
0
 10
924.567592
 20
815.941376
 42
-0.262256
  0
VERTEX
  8
0
 10
924.668441
 20
815.998983
 42
-0.251273
  0
VERTEX
  8
0
 10
924.770482
 20
815.945037
 42
-0.001256
  0
VERTEX
  8
0
 10
925.436107
 20
814.950074
 42
-0.005177
  0
VERTEX
  8
0
 10
926.186481
 20
813.796591
 42
-0.003205
  0
SEQEND
  0
POLYLINE
  8
0
 66
1
 70
1
  0
VERTEX
  8
0
 10
939.490094
 20
812.094823
 42
-0.106129
  0
VERTEX
  8
0
 10
941.880604
 20
809.967280
 42
-0.051448
  0
VERTEX
  8
0
 10
943.956658
 20
806.418043
 42
-0.048371
  0
VERTEX
  8
0
 10
945.411660
 20
802.167309
 42
-0.054574
  0
VERTEX
  8
0
 10
945.945616
 20
797.886364
 42
-0.042044
  0
VERTEX
  8
0
 10
945.818274
 20
796.043483
 42
-0.061173
  0
VERTEX
  8
0
 10
945.376016
 20
794.477351
 42
-0.059584
  0
VERTEX
  8
0
 10
944.557174
 20
793.035345
 42
-0.037499
  0
VERTEX
  8
0
 10
943.292177
 20
791.564904
 42
-0.026240
  0
VERTEX
  8
0
 10
939.733658
 20
788.361498
 42
-0.010578
  0
VERTEX
  8
0
 10
934.564410
 20
784.355365
 42
-0.005272
  0
VERTEX
  8
0
 10
929.253500
 20
780.502543
 42
-0.147549
  0
VERTEX
  8
0
 10
927.650916
 20
779.964201
 42
-0.002308
  0
VERTEX
  8
0
 10
926.789951
 20
779.941398
 42
-0.000036
  0
VERTEX
  8
0
 10
921.844332
 20
779.833603
 42
-0.000095
  0
VERTEX
  8
0
 10
916.098228
 20
779.709869
 42
-0.000063
  0
VERTEX
  8
0
 10
909.500000
 20
779.569881
 42
0.008149
  0
VERTEX
  8
0
 10
901.084312
 20
779.255122
 42
0.007308
  0
VERTEX
  8
0
 10
892.371579
 20
778.659135
 42
0.007246
  0
VERTEX
  8
0
 10
883.598169
 20
777.801849
 42
0.007621
  0
VERTEX
  8
0
 10
875.000000
 20
776.702778
 42
-0.001515
  0
VERTEX
  8
0
 10
861.265601
 20
774.776425
 42
-0.006615
  0
VERTEX
  8
0
 10
853.122471
 20
773.768997
 42
-0.003509
  0
VERTEX
  8
0
 10
847.471636
 20
773.185792
 42
-0.442567
  0
VERTEX
  8
0
 10
847.000000
 20
773.614267
 42
-0.181418
  0
VERTEX
  8
0
 10
847.120400
 20
773.935176
 42
-0.006103
  0
VERTEX
  8
0
 10
848.038733
 20
774.961195
 42
-0.010836
  0
VERTEX
  8
0
 10
849.181088
 20
776.153639
 42
-0.007261
  0
VERTEX
  8
0
 10
850.536112
 20
777.469287
 42
-0.031866
  0
VERTEX
  8
0
 10
852.747030
 20
779.303065
 42
-0.067986
  0
VERTEX
  8
0
 10
854.698709
 20
780.351474
 42
-0.052798
  0
VERTEX
  8
0
 10
857.158249
 20
780.983921
 42
-0.013160
  0
VERTEX
  8
0
 10
861.286112
 20
781.481115
 42
0.007284
  0
VERTEX
  8
0
 10
864.267992
 20
781.804774
 42
0.007118
  0
VERTEX
  8
0
 10
867.262170
 20
782.217326
 42
0.007040
  0
VERTEX
  8
0
 10
869.879736
 20
782.653831
 42
0.026427
  0
VERTEX
  8
0
 10
871.500000
 20
783.036902
 42
-0.008442
  0
VERTEX
  8
0
 10
873.194272
 20
783.502382
 42
-0.001711
  0
VERTEX
  8
0
 10
876.216655
 20
784.267102
 42
-0.001804
  0
VERTEX
  8
0
 10
879.738038
 20
785.131785
 42
-0.001689
  0
VERTEX
  8
0
 10
883.343933
 20
785.990558
 42
0.021149
  0
VERTEX
  8
0
 10
890.912642
 20
788.107408
 42
0.023239
  0
VERTEX
  8
0
 10
898.036101
 20
790.800717
 42
0.024529
  0
VERTEX
  8
0
 10
904.487502
 20
793.972945
 42
0.031806
  0
VERTEX
  8
0
 10
910.036764
 20
797.526987
 42
-0.015023
  0
VERTEX
  8
0
 10
912.795487
 20
799.427248
 42
-0.058565
  0
VERTEX
  8
0
 10
914.652389
 20
800.338344
 42
-0.081917
  0
VERTEX
  8
0
 10
916.333721
 20
800.636791
 42
-0.049453
  0
VERTEX
  8
0
 10
918.354548
 20
800.461309
 42
0.068723
  0
VERTEX
  8
0
 10
922.357312
 20
800.268164
 42
0.031131
  0
VERTEX
  8
0
 10
927.556609
 20
801.060642
 42
0.029811
  0
VERTEX
  8
0
 10
932.430189
 20
802.425741
 42
0.113658
  0
VERTEX
  8
0
 10
935.089472
 20
804.089472
 42
0.111596
  0
VERTEX
  8
0
 10
936.397123
 20
806.160791
 42
0.066024
  0
VERTEX
  8
0
 10
937.006355
 20
809.033257
 42
0.100413
  0
VERTEX
  8
0
 10
936.737560
 20
811.207269
 42
0.426935
  0
VERTEX
  8
0
 10
935.678234
 20
811.706768
 42
-0.146372
  0
VERTEX
  8
0
 10
935.080177
 20
811.661393
 42
-0.077361
  0
VERTEX
  8
0
 10
934.380107
 20
811.932415
 42
-0.066113
  0
VERTEX
  8
0
 10
933.688202
 20
812.464783
 42
-0.056234
  0
VERTEX
  8
0
 10
933.115177
 20
813.187181
 42
-0.012148
  0
VERTEX
  8
0
 10
932.403776
 20
814.390420
 42
-0.309582
  0
VERTEX
  8
0
 10
932.436563
 20
814.750551
 42
-0.289177
  0
VERTEX
  8
0
 10
932.791181
 20
814.866716
 42
-0.011097
  0
VERTEX
  8
0
 10
934.186943
 20
814.482489
 42
-0.022953
  0
VERTEX
  8
0
 10
935.284007
 20
814.098463
 42
-0.010109
  0
VERTEX
  8
0
 10
936.698880
 20
813.495533
 42
-0.009980
  0
VERTEX
  8
0
 10
938.176068
 20
812.794664
 42
-0.013207
  0
SEQEND
  0
POLYLINE
  8
0
 66
1
 70
1
  0
VERTEX
  8
0
 10
230.472177
 20
790.500073
 42
0.016817
  0
VERTEX
  8
0
 10
221.448446
 20
765.028071
 42
0.020579
  0
VERTEX
  8
0
 10
214.815950
 20
740.654265
 42
0.021396
  0
VERTEX
  8
0
 10
210.407710
 20
716.666916
 42
0.021314
  0
VERTEX
  8
0
 10
208.058721
 20
692.359818
 42
0.012756
  0
VERTEX
  8
0
 10
207.642284
 20
677.599721
 42
0.014791
  0
VERTEX
  8
0
 10
208.020078
 20
663.550553
 42
0.014144
  0
VERTEX
  8
0
 10
209.253943
 20
649.026652
 42
0.010023
  0
VERTEX
  8
0
 10
211.424551
 20
632.812935
 42
-0.002316
  0
VERTEX
  8
0
 10
212.410973
 20
626.219167
 42
-0.003075
  0
VERTEX
  8
0
 10
213.243462
 20
620.212438
 42
-0.002188
  0
VERTEX
  8
0
 10
213.887991
 20
615.172302
 42
-0.030713
  0
VERTEX
  8
0
 10
214.000000
 20
613.350526
 42
-0.042373
  0
VERTEX
  8
0
 10
213.867185
 20
611.786112
 42
-0.478779
  0
VERTEX
  8
0
 10
213.394542
 20
611.522756
 42
-0.095556
  0
VERTEX
  8
0
 10
212.464998
 20
612.125455
 42
-0.003013
  0
VERTEX
  8
0
 10
209.215651
 20
615.287592
 42
0.024014
  0
VERTEX
  8
0
 10
204.398666
 20
619.596700
 42
0.369504
  0
VERTEX
  8
0
 10
202.335929
 20
619.542849
 42
0.202018
  0
VERTEX
  8
0
 10
201.181642
 20
617.079104
 42
0.009868
  0
VERTEX
  8
0
 10
201.000000
 20
607.876054
 42
0.037501
  0
VERTEX
  8
0
 10
201.868885
 20
596.307635
 42
0.029327
  0
VERTEX
  8
0
 10
204.477459
 20
583.982760
 42
0.020203
  0
VERTEX
  8
0
 10
209.454100
 20
568.317958
 42
0.006416
  0
VERTEX
  8
0
 10
218.105197
 20
545.393090
 42
0.018120
  0
VERTEX
  8
0
 10
224.661028
 20
530.305836
 42
0.030208
  0
VERTEX
  8
0
 10
231.378749
 20
518.198202
 42
0.024054
  0
VERTEX
  8
0
 10
240.529627
 20
505.244939
 42
0.007456
  0
VERTEX
  8
0
 10
255.497318
 20
486.661960
 42
-0.004808
  0
VERTEX
  8
0
 10
259.540859
 20
481.695815
 42
-0.007948
  0
VERTEX
  8
0
 10
262.847286
 20
477.416483
 42
-0.002529
  0
VERTEX
  8
0
 10
265.587400
 20
473.712210
 42
-0.369917
  0
VERTEX
  8
0
 10
265.549215
 20
473.215882
 42
-0.209396
  0
VERTEX
  8
0
 10
265.030561
 20
473.013180
 42
-0.006466
  0
VERTEX
  8
0
 10
262.689745
 20
473.137803
 42
-0.011673
  0
VERTEX
  8
0
 10
259.882958
 20
473.389583
 42
-0.007696
  0
VERTEX
  8
0
 10
256.668690
 20
473.803922
 42
0.007685
  0
VERTEX
  8
0
 10
248.734616
 20
474.826843
 42
0.038797
  0
VERTEX
  8
0
 10
244.273483
 20
474.984363
 42
0.090506
  0
VERTEX
  8
0
 10
241.855563
 20
474.436604
 42
0.300455
  0
VERTEX
  8
0
 10
241.000000
 20
473.141352
 42
0.199850
  0
VERTEX
  8
0
 10
242.243693
 20
470.154057
 42
0.004286
  0
VERTEX
  8
0
 10
253.838630
 20
458.838137
 42
0.010030
  0
VERTEX
  8
0
 10
265.268081
 20
448.305423
 42
0.037603
  0
VERTEX
  8
0
 10
273.035613
 20
442.408341
 42
0.011583
  0
VERTEX
  8
0
 10
276.293110
 20
440.406549
 42
0.006779
  0
VERTEX
  8
0
 10
280.280187
 20
438.153758
 42
0.006777
  0
VERTEX
  8
0
 10
284.332743
 20
436.006764
 42
0.011434
  0
VERTEX
  8
0
 10
287.794168
 20
434.331404
 42
0.008723
  0
VERTEX
  8
0
 10
299.613066
 20
429.188050
 42
0.004592
  0
VERTEX
  8
0
 10
314.461582
 20
423.191282
 42
0.003290
  0
VERTEX
  8
0
 10
328.706364
 20
417.697898
 42
0.033712
  0
VERTEX
  8
0
 10
334.750000
 20
415.867449
 42
-0.014041
  0
VERTEX
  8
0
 10
336.762109
 20
415.343433
 42
-0.021911
  0
VERTEX
  8
0
 10
338.457812
 20
414.768920
 42
-0.017672
  0
VERTEX
  8
0
 10
339.757899
 20
414.210307
 42
-0.290164
  0
VERTEX
  8
0
 10
340.000000
 20
413.828252
 42
-0.133667
  0
VERTEX
  8
0
 10
339.914027
 20
413.512403
 42
-0.100488
  0
VERTEX
  8
0
 10
339.672317
 20
413.243299
 42
-0.087412
  0
VERTEX
  8
0
 10
339.310754
 20
413.062226
 42
-0.072605
  0
VERTEX
  8
0
 10
338.884483
 20
413.000000
 42
0.124174
  0
VERTEX
  8
0
 10
338.171550
 20
412.820171
 42
0.006371
  0
VERTEX
  8
0
 10
336.074357
 20
411.655583
 42
0.009822
  0
VERTEX
  8
0
 10
333.603108
 20
410.176610
 42
0.006942
  0
VERTEX
  8
0
 10
330.884567
 20
408.423260
 42
0.063933
  0
VERTEX
  8
0
 10
322.725257
 20
401.347438
 42
0.063945
  0
VERTEX
  8
0
 10
316.618667
 20
392.440363
 42
0.056608
  0
VERTEX
  8
0
 10
312.432273
 20
381.324222
 42
0.035538
  0
VERTEX
  8
0
 10
309.997250
 20
367.634815
 42
0.019112
  0
VERTEX
  8
0
 10
309.068482
 20
353.745589
 42
0.028251
  0
VERTEX
  8
0
 10
309.409471
 20
341.542268
 42
0.032801
  0
VERTEX
  8
0
 10
310.965408
 20
331.247270
 42
0.059371
  0
VERTEX
  8
0
 10
313.756819
 20
323.207543
 42
0.048007
  0
VERTEX
  8
0
 10
317.196944
 20
317.580443
 42
0.024986
  0
VERTEX
  8
0
 10
322.467605
 20
311.254199
 42
0.024780
  0
VERTEX
  8
0
 10
328.502324
 20
305.324035
 42
0.037883
  0
VERTEX
  8
0
 10
334.334925
 20
300.877337
 42
0.035095
  0
VERTEX
  8
0
 10
340.078308
 20
297.698639
 42
0.009207
  0
VERTEX
  8
0
 10
349.704091
 20
293.435594
 42
0.008783
  0
VERTEX
  8
0
 10
361.453998
 20
288.729793
 42
0.006654
  0
VERTEX
  8
0
 10
374.500000
 20
283.966743
 42
-0.014107
  0
VERTEX
  8
0
 10
378.793650
 20
282.326221
 42
-0.006213
  0
VERTEX
  8
0
 10
384.381250
 20
279.926841
 42
-0.006143
  0
VERTEX
  8
0
 10
390.247367
 20
277.234300
 42
-0.008205
  0
VERTEX
  8
0
 10
395.500000
 20
274.638383
 42
-0.015360
  0
VERTEX
  8
0
 10
407.503315
 20
267.985008
 42
-0.002746
  0
VERTEX
  8
0
 10
429.450492
 20
254.759158
 42
-0.000637
  0
VERTEX
  8
0
 10
453.418581
 20
240.093513
 42
-0.117242
  0
VERTEX
  8
0
 10
455.469859
 20
238.048768
 42
-0.681526
  0
VERTEX
  8
0
 10
455.139497
 20
237.607701
 42
-0.004172
  0
VERTEX
  8
0
 10
448.541753
 20
239.482435
 42
-0.008370
  0
VERTEX
  8
0
 10
440.520490
 20
241.980695
 42
-0.005159
  0
VERTEX
  8
0
 10
431.165036
 20
245.174601
 42
-0.020883
  0
VERTEX
  8
0
 10
407.866522
 20
254.509123
 42
-0.015680
  0
VERTEX
  8
0
 10
383.042048
 20
266.629048
 42
-0.015808
  0
VERTEX
  8
0
 10
359.346690
 20
280.106701
 42
-0.023199
  0
VERTEX
  8
0
 10
339.500000
 20
293.543891
 42
-0.025810
  0
VERTEX
  8
0
 10
322.154578
 20
307.951941
 42
-0.019316
  0
VERTEX
  8
0
 10
304.549255
 20
325.486715
 42
-0.019161
  0
VERTEX
  8
0
 10
288.164373
 20
344.531502
 42
-0.023743
  0
VERTEX
  8
0
 10
274.488438
 20
363.500000
 42
-0.025541
  0
VERTEX
  8
0
 10
248.297092
 20
408.601756
 42
-0.027294
  0
VERTEX
  8
0
 10
227.474783
 20
455.169458
 42
-0.027644
  0
VERTEX
  8
0
 10
212.070224
 20
503.156304
 42
-0.027730
  0
VERTEX
  8
0
 10
202.072684
 20
552.500000
 42
-0.017896
  0
VERTEX
  8
0
 10
198.331169
 20
586.794586
 42
-0.017051
  0
VERTEX
  8
0
 10
196.971859
 20
621.827317
 42
-0.017545
  0
VERTEX
  8
0
 10
198.002163
 20
655.703373
 42
-0.022928
  0
VERTEX
  8
0
 10
201.445288
 20
686.500000
 42
-0.014391
  0
VERTEX
  8
0
 10
206.755809
 20
714.726124
 42
-0.011156
  0
VERTEX
  8
0
 10
214.100233
 20
745.125038
 42
-0.011104
  0
VERTEX
  8
0
 10
222.096591
 20
772.768957
 42
-0.032503
  0
VERTEX
  8
0
 10
229.244231
 20
791.264770
 42
-0.004210
  0
VERTEX
  8
0
 10
230.824521
 20
794.602699
 42
-0.007191
  0
VERTEX
  8
0
 10
232.207221
 20
797.358964
 42
-0.002206
  0
VERTEX
  8
0
 10
233.422436
 20
799.671863
 42
-0.504203
  0
VERTEX
  8
0
 10
233.630343
 20
799.702990
 42
-0.284339
  0
VERTEX
  8
0
 10
233.699438
 20
799.409668
 42
-0.001967
  0
VERTEX
  8
0
 10
232.837333
 20
796.864932
 42
-0.006724
  0
VERTEX
  8
0
 10
231.784601
 20
793.926573
 42
-0.004156
  0
SEQEND
  0
POLYLINE
  8
0
 66
1
 70
1
  0
VERTEX
  8
0
 10
1091.695869
 20
352.750000
 42
-0.046474
  0
VERTEX
  8
0
 10
1088.646750
 20
332.055022
 42
-0.027298
  0
VERTEX
  8
0
 10
1081.395779
 20
308.084883
 42
-0.025668
  0
VERTEX
  8
0
 10
1070.818718
 20
283.043773
 42
-0.025075
  0
VERTEX
  8
0
 10
1057.657382
 20
259.016096
 42
0.007708
  0
VERTEX
  8
0
 10
1054.018900
 20
252.888579
 42
0.017045
  0
VERTEX
  8
0
 10
1051.477522
 20
248.081715
 42
0.022173
  0
VERTEX
  8
0
 10
1049.774633
 20
244.141258
 42
0.039995
  0
VERTEX
  8
0
 10
1048.790815
 20
240.766096
 42
-0.013466
  0
VERTEX
  8
0
 10
1048.271921
 20
238.556069
 42
-0.021189
  0
VERTEX
  8
0
 10
1047.696023
 20
236.693791
 42
-0.016617
  0
VERTEX
  8
0
 10
1047.130278
 20
235.258707
 42
-0.298970
  0
VERTEX
  8
0
 10
1046.736287
 20
235.000000
 42
-0.204337
  0
VERTEX
  8
0
 10
1044.356802
 20
236.014808
 42
-0.002028
  0
VERTEX
  8
0
 10
1031.331448
 20
249.705768
 42
-0.006601
  0
VERTEX
  8
0
 10
1019.424797
 20
262.661423
 42
-0.029377
  0
VERTEX
  8
0
 10
1012.999917
 20
270.749578
 42
-0.010418
  0
VERTEX
  8
0
 10
1007.679996
 20
278.665565
 42
-0.008667
  0
VERTEX
  8
0
 10
1002.348468
 20
287.292622
 42
-0.004162
  0
VERTEX
  8
0
 10
997.604172
 20
295.429116
 42
-0.129515
  0
VERTEX
  8
0
 10
997.005088
 20
297.663402
 42
-0.249549
  0
VERTEX
  8
0
 10
997.345099
 20
298.309019
 42
-0.006843
  0
VERTEX
  8
0
 10
1000.086017
 20
300.117602
 42
-0.012586
  0
VERTEX
  8
0
 10
1003.476320
 20
302.170221
 42
-0.008112
  0
VERTEX
  8
0
 10
1007.500501
 20
304.384411
 42
0.006401
  0
VERTEX
  8
0
 10
1015.199319
 20
308.586211
 42
0.013298
  0
VERTEX
  8
0
 10
1021.071014
 20
312.097810
 42
0.008439
  0
VERTEX
  8
0
 10
1028.194080
 20
316.789701
 42
0.001295
  0
VERTEX
  8
0
 10
1042.175998
 20
326.394837
 42
0.006682
  0
VERTEX
  8
0
 10
1053.472434
 20
334.423379
 42
0.003549
  0
VERTEX
  8
0
 10
1067.258166
 20
344.652001
 42
0.003298
  0
VERTEX
  8
0
 10
1080.249333
 20
354.569753
 42
0.013190
  0
VERTEX
  8
0
 10
1088.000000
 20
360.901909
 42
-0.004632
  0
VERTEX
  8
0
 10
1089.370122
 20
362.060932
 42
-0.006951
  0
VERTEX
  8
0
 10
1090.588965
 20
363.044469
 42
-0.003258
  0
VERTEX
  8
0
 10
1091.638132
 20
363.856284
 42
-0.138480
  0
VERTEX
  8
0
 10
1091.898605
 20
363.959359
 42
-0.448225
  0
VERTEX
  8
0
 10
1092.052371
 20
363.818634
 42
-0.001245
  0
VERTEX
  8
0
 10
1092.003475
 20
360.683374
 42
-0.005536
  0
VERTEX
  8
0
 10
1091.897836
 20
357.061086
 42
-0.003294
  0
SEQEND
  0
POLYLINE
  8
0
 66
1
 70
1
  0
VERTEX
  8
0
 10
878.615480
 20
988.527699
 42
0.118006
  0
VERTEX
  8
0
 10
870.793925
 20
983.433319
 42
0.062141
  0
VERTEX
  8
0
 10
863.881886
 20
974.041186
 42
0.066022
  0
VERTEX
  8
0
 10
859.966612
 20
964.194747
 42
0.250601
  0
VERTEX
  8
0
 10
861.516556
 20
957.981706
 42
0.033493
  0
VERTEX
  8
0
 10
863.238478
 20
956.317775
 42
0.297304
  0
VERTEX
  8
0
 10
864.236106
 20
956.194092
 42
0.257227
  0
VERTEX
  8
0
 10
864.857708
 20
957.078483
 42
0.027283
  0
VERTEX
  8
0
 10
865.000000
 20
959.684276
 42
-0.069388
  0
VERTEX
  8
0
 10
865.511466
 20
963.352076
 42
-0.043451
  0
VERTEX
  8
0
 10
867.056779
 20
967.408818
 42
-0.037899
  0
VERTEX
  8
0
 10
869.557691
 20
971.711031
 42
-0.027140
  0
VERTEX
  8
0
 10
872.955813
 20
976.120420
 42
-0.075046
  0
VERTEX
  8
0
 10
879.998838
 20
982.175666
 42
-0.182527
  0
VERTEX
  8
0
 10
886.608562
 20
983.510281
 42
-0.238696
  0
VERTEX
  8
0
 10
891.251959
 20
980.121414
 42
-0.118477
  0
VERTEX
  8
0
 10
893.000000
 20
972.847843
 42
-0.139050
  0
VERTEX
  8
0
 10
890.748635
 20
964.908836
 42
-0.071949
  0
VERTEX
  8
0
 10
884.080051
 20
956.931996
 42
-0.071881
  0
VERTEX
  8
0
 10
875.415047
 20
951.163816
 42
-0.137918
  0
VERTEX
  8
0
 10
867.250000
 20
949.764735
 42
0.042950
  0
VERTEX
  8
0
 10
864.207803
 20
949.821196
 42
0.283357
  0
VERTEX
  8
0
 10
863.022033
 20
948.975508
 42
0.269955
  0
VERTEX
  8
0
 10
863.213242
 20
947.493490
 42
0.040261
  0
VERTEX
  8
0
 10
865.314451
 20
945.174314
 42
0.158001
  0
VERTEX
  8
0
 10
869.591606
 20
943.156644
 42
0.095334
  0
VERTEX
  8
0
 10
875.237409
 20
943.511246
 42
0.072605
  0
VERTEX
  8
0
 10
881.731695
 20
946.239973
 42
0.044794
  0
VERTEX
  8
0
 10
888.428154
 20
951.145674
 42
0.036723
  0
VERTEX
  8
0
 10
892.847415
 20
955.652438
 42
0.055077
  0
VERTEX
  8
0
 10
895.919754
 20
960.219898
 42
0.057593
  0
VERTEX
  8
0
 10
897.829903
 20
965.188321
 42
0.045168
  0
VERTEX
  8
0
 10
898.760031
 20
970.890196
 42
0.033916
  0
VERTEX
  8
0
 10
898.779032
 20
976.136760
 42
0.077327
  0
VERTEX
  8
0
 10
897.922738
 20
979.992583
 42
0.080437
  0
VERTEX
  8
0
 10
895.962129
 20
983.312820
 42
0.039102
  0
VERTEX
  8
0
 10
892.516287
 20
986.851556
 42
0.060085
  0
VERTEX
  8
0
 10
889.494428
 20
988.921169
 42
0.090365
  0
VERTEX
  8
0
 10
886.450951
 20
989.863426
 42
0.079146
  0
VERTEX
  8
0
 10
882.979785
 20
989.731584
 42
0.036630
  0
SEQEND
  0
POLYLINE
  8
0
 66
1
 70
1
  0
VERTEX
  8
0
 10
928.000000
 20
955.593217
 42
-0.081519
  0
VERTEX
  8
0
 10
927.856842
 20
954.720985
 42
-0.007406
  0
VERTEX
  8
0
 10
927.118750
 20
952.635537
 42
-0.009443
  0
VERTEX
  8
0
 10
926.148929
 20
950.163487
 42
-0.007250
  0
VERTEX
  8
0
 10
925.000000
 20
947.500000
 42
0.004413
  0
VERTEX
  8
0
 10
923.850629
 20
944.876514
 42
0.006312
  0
VERTEX
  8
0
 10
922.881250
 20
942.528071
 42
0.003642
  0
VERTEX
  8
0
 10
922.105742
 20
940.537867
 42
0.091323
  0
VERTEX
  8
0
 10
922.000000
 20
939.963747
 42
0.177640
  0
VERTEX
  8
0
 10
922.502718
 20
938.593404
 42
0.002692
  0
VERTEX
  8
0
 10
928.109955
 20
932.051369
 42
0.002357
  0
VERTEX
  8
0
 10
933.830287
 20
925.512196
 42
0.215071
  0
VERTEX
  8
0
 10
934.965967
 20
925.000000
 42
0.234368
  0
VERTEX
  8
0
 10
935.940854
 20
925.483525
 42
0.002271
  0
VERTEX
  8
0
 10
940.813051
 20
931.954139
 42
0.002978
  0
VERTEX
  8
0
 10
945.535243
 20
938.364480
 42
0.158546
  0
VERTEX
  8
0
 10
946.000000
 20
939.793322
 42
0.198006
  0
VERTEX
  8
0
 10
945.523320
 20
940.949832
 42
0.001338
  0
VERTEX
  8
0
 10
937.727545
 20
948.758301
 42
0.001343
  0
VERTEX
  8
0
 10
929.891420
 20
956.523474
 42
0.197033
  0
VERTEX
  8
0
 10
928.729112
 20
957.000000
 42
0.185488
  0
VERTEX
  8
0
 10
928.450760
 20
956.893059
 42
0.089996
  0
VERTEX
  8
0
 10
928.214177
 20
956.586758
 42
0.069841
  0
VERTEX
  8
0
 10
928.053810
 20
956.131544
 42
0.049855
  0
SEQEND
  0
POLYLINE
  8
0
 66
1
 70
1
  0
VERTEX
  8
0
 10
949.000000
 20
929.091521
 42
0.049550
  0
VERTEX
  8
0
 10
944.083742
 20
928.042251
 42
0.046212
  0
VERTEX
  8
0
 10
939.347111
 20
926.030416
 42
0.046705
  0
VERTEX
  8
0
 10
935.109313
 20
923.209215
 42
0.053315
  0
VERTEX
  8
0
 10
931.672481
 20
919.759838
 42
0.032088
  0
VERTEX
  8
0
 10
930.193573
 20
917.656826
 42
0.047840
  0
VERTEX
  8
0
 10
929.209789
 20
915.636415
 42
0.044729
  0
VERTEX
  8
0
 10
928.586125
 20
913.366426
 42
0.024002
  0
VERTEX
  8
0
 10
928.207088
 20
910.483664
 42
0.000000
  0
VERTEX
  8
0
 10
927.747999
 20
904.947653
 42
0.000000
  0
VERTEX
  8
0
 10
933.354579
 20
899.341073
 42
0.000000
  0
VERTEX
  8
0
 10
938.961159
 20
893.734493
 42
0.000000
  0
VERTEX
  8
0
 10
946.230580
 20
894.209160
 42
0.062154
  0
VERTEX
  8
0
 10
955.438162
 20
895.973770
 42
0.102061
  0
VERTEX
  8
0
 10
962.310913
 20
899.880761
 42
0.115919
  0
VERTEX
  8
0
 10
966.515029
 20
905.773952
 42
0.097519
  0
VERTEX
  8
0
 10
968.000000
 20
913.315328
 42
0.100208
  0
VERTEX
  8
0
 10
967.303390
 20
916.756236
 42
0.042390
  0
VERTEX
  8
0
 10
965.100022
 20
920.945156
 42
0.041917
  0
VERTEX
  8
0
 10
962.095952
 20
924.874385
 42
0.067896
  0
VERTEX
  8
0
 10
958.880724
 20
927.575296
 42
0.005528
  0
VERTEX
  8
0
 10
957.388907
 20
928.494132
 42
0.008757
  0
VERTEX
  8
0
 10
956.088757
 20
929.244556
 42
0.003455
  0
VERTEX
  8
0
 10
954.971290
 20
929.853652
 42
0.252938
  0
VERTEX
  8
0
 10
954.769872
 20
929.852979
 42
-0.091192
  0
VERTEX
  8
0
 10
954.551321
 20
929.781293
 42
-0.000963
  0
VERTEX
  8
0
 10
952.963650
 20
929.568654
 42
-0.003029
  0
VERTEX
  8
0
 10
951.127525
 20
929.337648
 42
-0.001960
  0
SEQEND
  0
POLYLINE
  8
0
 66
1
 70
1
  0
VERTEX
  8
0
 10
903.679802
 20
875.819219
 42
-0.078005
  0
VERTEX
  8
0
 10
896.197612
 20
863.780523
 42
-0.022719
  0
VERTEX
  8
0
 10
881.158899
 20
847.869203
 42
-0.023432
  0
VERTEX
  8
0
 10
863.525297
 20
832.362767
 42
-0.036287
  0
VERTEX
  8
0
 10
846.820040
 20
820.887400
 42
-0.032279
  0
VERTEX
  8
0
 10
835.474957
 20
815.198175
 42
-0.029133
  0
VERTEX
  8
0
 10
823.101300
 20
810.792765
 42
-0.029894
  0
VERTEX
  8
0
 10
810.691638
 20
807.965324
 42
-0.040631
  0
VERTEX
  8
0
 10
799.250000
 20
807.013137
 42
0.010355
  0
VERTEX
  8
0
 10
796.470302
 20
806.950526
 42
0.017117
  0
VERTEX
  8
0
 10
794.129688
 20
806.768859
 42
0.011178
  0
VERTEX
  8
0
 10
792.272089
 20
806.518356
 42
0.369113
  0
VERTEX
  8
0
 10
792.000000
 20
806.200000
 42
0.398955
  0
VERTEX
  8
0
 10
795.037535
 20
802.999053
 42
0.034005
  0
VERTEX
  8
0
 10
807.445242
 20
803.192724
 42
0.035564
  0
VERTEX
  8
0
 10
822.423080
 20
805.528298
 42
0.038789
  0
VERTEX
  8
0
 10
836.475254
 20
809.926436
 42
0.032647
  0
VERTEX
  8
0
 10
848.462188
 20
815.659816
 42
0.024843
  0
VERTEX
  8
0
 10
860.791144
 20
823.408129
 42
0.023330
  0
VERTEX
  8
0
 10
873.106213
 20
832.914980
 42
0.020467
  0
VERTEX
  8
0
 10
885.053817
 20
843.934098
 42
0.012539
  0
VERTEX
  8
0
 10
896.354008
 20
855.828185
 42
0.029133
  0
VERTEX
  8
0
 10
904.052044
 20
865.416649
 42
0.035335
  0
VERTEX
  8
0
 10
908.558491
 20
872.806877
 42
0.265939
  0
VERTEX
  8
0
 10
908.389460
 20
876.744354
 42
0.065473
  0
VERTEX
  8
0
 10
907.105161
 20
878.289376
 42
0.239554
  0
VERTEX
  8
0
 10
905.916714
 20
878.626342
 42
0.199933
  0
VERTEX
  8
0
 10
904.784290
 20
877.870370
 42
0.046812
  0
SEQEND
  0
POLYLINE
  8
0
 66
1
 70
1
  0
VERTEX
  8
0
 10
1103.519741
 20
534.750000
 42
-0.005189
  0
VERTEX
  8
0
 10
1096.525199
 20
524.418437
 42
-0.008981
  0
VERTEX
  8
0
 10
1090.470406
 20
515.999106
 42
-0.008921
  0
VERTEX
  8
0
 10
1084.089246
 20
507.764651
 42
-0.005039
  0
VERTEX
  8
0
 10
1076.076178
 20
498.000000
 42
0.020407
  0
VERTEX
  8
0
 10
1062.892213
 20
480.887840
 42
0.023215
  0
VERTEX
  8
0
 10
1051.740085
 20
463.459344
 42
0.024618
  0
VERTEX
  8
0
 10
1042.859564
 20
446.130683
 42
0.031261
  0
VERTEX
  8
0
 10
1036.496441
 20
429.320029
 42
-0.001818
  0
VERTEX
  8
0
 10
1031.177412
 20
412.305140
 42
-0.007552
  0
VERTEX
  8
0
 10
1027.776206
 20
402.100637
 42
-0.011536
  0
VERTEX
  8
0
 10
1025.276646
 20
395.457960
 42
-0.047031
  0
VERTEX
  8
0
 10
1023.298301
 20
391.629588
 42
0.011774
  0
VERTEX
  8
0
 10
1021.895105
 20
389.327566
 42
0.088558
  0
VERTEX
  8
0
 10
1021.462675
 20
388.132574
 42
0.168166
  0
VERTEX
  8
0
 10
1021.613354
 20
387.214422
 42
0.072508
  0
VERTEX
  8
0
 10
1022.364395
 20
386.207034
 42
0.196091
  0
VERTEX
  8
0
 10
1023.542691
 20
385.711454
 42
0.143956
  0
VERTEX
  8
0
 10
1024.921533
 20
386.100622
 42
0.045405
  0
VERTEX
  8
0
 10
1027.061665
 20
387.733591
 42
0.004672
  0
VERTEX
  8
0
 10
1031.708268
 20
392.078657
 42
-0.004062
  0
VERTEX
  8
0
 10
1035.488890
 20
395.622589
 42
-0.001805
  0
VERTEX
  8
0
 10
1040.529038
 20
400.237287
 42
-0.001786
  0
VERTEX
  8
0
 10
1045.900600
 20
405.084967
 42
-0.002413
  0
VERTEX
  8
0
 10
1050.794839
 20
409.427857
 42
0.022057
  0
VERTEX
  8
0
 10
1063.345522
 20
421.478191
 42
0.026348
  0
VERTEX
  8
0
 10
1074.019263
 20
433.922939
 42
0.026244
  0
VERTEX
  8
0
 10
1083.359081
 20
447.464715
 42
0.021574
  0
VERTEX
  8
0
 10
1091.905491
 20
462.809623
 42
0.015350
  0
VERTEX
  8
0
 10
1095.991530
 20
471.618223
 42
0.016443
  0
VERTEX
  8
0
 10
1099.429798
 20
480.463297
 42
0.011524
  0
VERTEX
  8
0
 10
1103.129127
 20
491.823342
 42
0.003346
  0
VERTEX
  8
0
 10
1108.309366
 20
509.500000
 42
0.004146
  0
VERTEX
  8
0
 10
1112.621283
 20
525.074703
 42
0.016941
  0
VERTEX
  8
0
 10
1114.838497
 20
534.633814
 42
0.022441
  0
VERTEX
  8
0
 10
1115.781135
 20
540.906368
 42
0.201933
  0
VERTEX
  8
0
 10
1114.992493
 20
543.509045
 42
0.178316
  0
VERTEX
  8
0
 10
1112.974086
 20
544.678550
 42
0.209040
  0
VERTEX
  8
0
 10
1110.840982
 20
544.156729
 42
0.072870
  0
VERTEX
  8
0
 10
1108.082005
 20
541.329892
 42
0.010755
  0
SEQEND
  0
POLYLINE
  8
0
 66
1
 70
1
  0
VERTEX
  8
0
 10
1005.501854
 20
502.250000
 42
0.023321
  0
VERTEX
  8
0
 10
1001.708239
 20
491.519845
 42
0.004648
  0
VERTEX
  8
0
 10
996.012469
 20
471.999302
 42
0.005191
  0
VERTEX
  8
0
 10
990.546519
 20
451.796065
 42
0.012958
  0
VERTEX
  8
0
 10
987.091096
 20
436.899270
 42
0.019028
  0
VERTEX
  8
0
 10
985.424194
 20
426.824178
 42
0.009929
  0
VERTEX
  8
0
 10
984.076841
 20
414.167583
 42
0.009928
  0
VERTEX
  8
0
 10
983.229245
 20
401.410503
 42
0.018231
  0
VERTEX
  8
0
 10
983.124823
 20
391.000000
 42
-0.007998
  0
VERTEX
  8
0
 10
983.164527
 20
387.194240
 42
-0.009610
  0
VERTEX
  8
0
 10
983.075821
 20
383.615591
 42
-0.008466
  0
VERTEX
  8
0
 10
982.892730
 20
380.614527
 42
-0.061499
  0
VERTEX
  8
0
 10
982.605358
 20
379.202012
 42
0.103225
  0
VERTEX
  8
0
 10
982.406159
 20
377.519259
 42
0.086063
  0
VERTEX
  8
0
 10
982.869191
 20
375.775851
 42
0.097651
  0
VERTEX
  8
0
 10
983.816406
 20
374.465705
 42
0.189761
  0
VERTEX
  8
0
 10
984.999301
 20
374.000000
 42
0.252214
  0
VERTEX
  8
0
 10
985.387430
 20
374.209084
 42
0.013473
  0
VERTEX
  8
0
 10
986.151437
 20
375.439679
 42
0.018456
  0
VERTEX
  8
0
 10
986.999472
 20
377.022894
 42
0.012148
  0
VERTEX
  8
0
 10
987.862081
 20
378.901036
 42
-0.027749
  0
VERTEX
  8
0
 10
988.975758
 20
381.139052
 42
-0.013884
  0
VERTEX
  8
0
 10
990.615091
 20
383.843177
 42
-0.013740
  0
VERTEX
  8
0
 10
992.471570
 20
386.555409
 42
-0.019717
  0
VERTEX
  8
0
 10
994.273342
 20
388.843040
 42
0.053394
  0
VERTEX
  8
0
 10
997.895891
 20
394.139424
 42
0.010434
  0
VERTEX
  8
0
 10
1003.159984
 20
404.443007
 42
0.011783
  0
VERTEX
  8
0
 10
1008.254223
 20
415.612656
 42
0.021390
  0
VERTEX
  8
0
 10
1011.804368
 20
425.000000
 42
0.080530
  0
VERTEX
  8
0
 10
1013.644021
 20
436.540932
 42
0.007348
  0
VERTEX
  8
0
 10
1013.137985
 20
465.725743
 42
0.004523
  0
VERTEX
  8
0
 10
1011.893503
 20
496.002766
 42
0.173057
  0
VERTEX
  8
0
 10
1009.330923
 20
502.186828
 42
0.031519
  0
VERTEX
  8
0
 10
1007.942882
 20
503.538748
 42
0.174928
  0
VERTEX
  8
0
 10
1006.985020
 20
503.902408
 42
0.243354
  0
VERTEX
  8
0
 10
1006.209918
 20
503.517485
 42
0.061571
  0
SEQEND
  0
POLYLINE
  8
0
 66
1
 70
1
  0
VERTEX
  8
0
 10
1115.000000
 20
432.458387
 42
0.008458
  0
VERTEX
  8
0
 10
1101.911153
 20
427.277374
 42
0.014934
  0
VERTEX
  8
0
 10
1091.318498
 20
422.500014
 42
0.017622
  0
VERTEX
  8
0
 10
1083.185741
 20
418.174661
 42
0.052718
  0
VERTEX
  8
0
 10
1078.100360
 20
414.471704
 42
0.031118
  0
VERTEX
  8
0
 10
1073.857442
 20
410.129797
 42
0.017994
  0
VERTEX
  8
0
 10
1069.289472
 20
404.430665
 42
0.017812
  0
VERTEX
  8
0
 10
1065.040539
 20
398.273847
 42
0.025455
  0
VERTEX
  8
0
 10
1061.757241
 20
392.506647
 42
-0.022812
  0
VERTEX
  8
0
 10
1060.335519
 20
389.978378
 42
-0.017473
  0
VERTEX
  8
0
 10
1058.563702
 20
387.348185
 42
-0.017777
  0
VERTEX
  8
0
 10
1056.728254
 20
384.999334
 42
-0.039398
  0
VERTEX
  8
0
 10
1055.134700
 20
383.380790
 42
0.012758
  0
VERTEX
  8
0
 10
1053.150770
 20
381.569519
 42
0.091286
  0
VERTEX
  8
0
 10
1052.395981
 20
380.519556
 42
0.191083
  0
VERTEX
  8
0
 10
1052.339525
 20
379.633047
 42
0.094961
  0
VERTEX
  8
0
 10
1052.891454
 20
378.630790
 42
0.029599
  0
VERTEX
  8
0
 10
1053.475127
 20
378.006648
 42
0.032890
  0
VERTEX
  8
0
 10
1054.109258
 20
377.479045
 42
0.034892
  0
VERTEX
  8
0
 10
1054.702936
 20
377.108124
 42
0.122783
  0
VERTEX
  8
0
 10
1055.136603
 20
377.000000
 42
0.106084
  0
VERTEX
  8
0
 10
1055.780957
 20
377.138268
 42
0.001288
  0
VERTEX
  8
0
 10
1059.690846
 20
378.909375
 42
0.003775
  0
VERTEX
  8
0
 10
1064.203325
 20
381.008764
 42
0.002452
  0
VERTEX
  8
0
 10
1069.388218
 20
383.500000
 42
-0.003184
  0
VERTEX
  8
0
 10
1074.591946
 20
385.990922
 42
-0.004788
  0
VERTEX
  8
0
 10
1079.164159
 20
388.090625
 42
-0.002040
  0
VERTEX
  8
0
 10
1083.089612
 20
389.828804
 42
-0.103560
  0
VERTEX
  8
0
 10
1083.907304
 20
390.000000
 42
0.146331
  0
VERTEX
  8
0
 10
1089.380023
 20
391.636706
 42
0.016265
  0
VERTEX
  8
0
 10
1100.157930
 20
399.229527
 42
0.018847
  0
VERTEX
  8
0
 10
1112.542559
 20
409.325495
 42
0.014723
  0
VERTEX
  8
0
 10
1125.227318
 20
421.168049
 42
0.008315
  0
VERTEX
  8
0
 10
1131.926104
 20
428.026132
 42
0.051933
  0
VERTEX
  8
0
 10
1134.904168
 20
431.917308
 42
0.133011
  0
VERTEX
  8
0
 10
1135.687939
 20
434.592493
 42
0.204254
  0
VERTEX
  8
0
 10
1134.800000
 20
436.800000
 42
0.177768
  0
VERTEX
  8
0
 10
1132.830651
 20
437.711631
 42
0.074521
  0
VERTEX
  8
0
 10
1129.871714
 20
437.512818
 42
0.031609
  0
VERTEX
  8
0
 10
1124.943915
 20
436.100855
 42
0.004436
  0
SEQEND
  0
POLYLINE
  8
0
 66
1
 70
1
  0
VERTEX
  8
0
 10
313.500000
 20
880.503329
 42
0.009261
  0
VERTEX
  8
0
 10
301.669487
 20
867.888803
 42
0.033626
  0
VERTEX
  8
0
 10
294.867259
 20
859.260209
 42
0.049771
  0
VERTEX
  8
0
 10
290.753016
 20
851.745245
 42
0.046095
  0
VERTEX
  8
0
 10
288.076901
 20
843.371256
 42
-0.016643
  0
VERTEX
  8
0
 10
287.345645
 20
840.513096
 42
-0.006709
  0
VERTEX
  8
0
 10
286.165863
 20
836.660693
 42
-0.006630
  0
VERTEX
  8
0
 10
284.783784
 20
832.543345
 42
-0.008351
  0
VERTEX
  8
0
 10
283.390636
 20
828.771530
 42
0.004607
  0
VERTEX
  8
0
 10
282.092122
 20
825.335309
 42
0.006408
  0
VERTEX
  8
0
 10
280.997452
 20
822.233536
 42
0.004103
  0
VERTEX
  8
0
 10
280.135341
 20
819.616697
 42
0.078645
  0
VERTEX
  8
0
 10
280.004946
 20
818.771530
 42
-0.061123
  0
VERTEX
  8
0
 10
279.915782
 20
818.020727
 42
-0.008430
  0
VERTEX
  8
0
 10
279.515002
 20
816.496745
 42
-0.009565
  0
VERTEX
  8
0
 10
278.972909
 20
814.700817
 42
-0.007966
  0
VERTEX
  8
0
 10
278.330104
 20
812.813134
 42
0.012833
  0
VERTEX
  8
0
 10
277.482862
 20
810.243401
 42
0.059168
  0
VERTEX
  8
0
 10
277.211132
 20
808.703081
 42
0.101372
  0
VERTEX
  8
0
 10
277.376616
 20
807.574850
 42
0.086473
  0
VERTEX
  8
0
 10
277.975244
 20
806.529829
 42
0.032974
  0
VERTEX
  8
0
 10
278.534844
 20
805.939461
 42
0.043521
  0
VERTEX
  8
0
 10
279.120606
 20
805.485565
 42
0.050118
  0
VERTEX
  8
0
 10
279.649304
 20
805.215609
 42
0.189689
  0
VERTEX
  8
0
 10
280.013815
 20
805.216695
 42
0.120041
  0
VERTEX
  8
0
 10
281.218076
 20
806.070697
 42
0.000952
  0
VERTEX
  8
0
 10
288.988189
 20
815.053935
 42
0.003937
  0
VERTEX
  8
0
 10
296.609806
 20
824.041630
 42
0.006188
  0
VERTEX
  8
0
 10
303.000000
 20
831.894141
 42
0.001770
  0
VERTEX
  8
0
 10
313.216285
 20
844.864626
 42
0.015776
  0
VERTEX
  8
0
 10
317.507867
 20
850.725010
 42
0.035756
  0
VERTEX
  8
0
 10
319.864030
 20
854.755113
 42
0.042178
  0
VERTEX
  8
0
 10
321.474606
 20
858.867707
 42
-0.011882
  0
VERTEX
  8
0
 10
322.324009
 20
861.494777
 42
-0.005937
  0
VERTEX
  8
0
 10
323.516482
 20
864.778317
 42
-0.005891
  0
VERTEX
  8
0
 10
324.832017
 20
868.149932
 42
-0.008646
  0
VERTEX
  8
0
 10
326.074473
 20
871.079756
 42
0.008821
  0
VERTEX
  8
0
 10
327.194690
 20
873.723903
 42
0.010896
  0
VERTEX
  8
0
 10
328.140626
 20
876.227109
 42
0.009383
  0
VERTEX
  8
0
 10
328.845862
 20
878.349926
 42
0.075639
  0
VERTEX
  8
0
 10
329.000000
 20
879.363000
 42
-0.076491
  0
VERTEX
  8
0
 10
329.146378
 20
880.314231
 42
-0.013718
  0
VERTEX
  8
0
 10
329.734375
 20
882.015307
 42
-0.014525
  0
VERTEX
  8
0
 10
330.542909
 20
883.986273
 42
-0.012673
  0
VERTEX
  8
0
 10
331.500000
 20
886.000000
 42
0.017074
  0
VERTEX
  8
0
 10
332.456945
 20
888.059987
 42
0.017348
  0
VERTEX
  8
0
 10
333.265625
 20
890.169684
 42
0.017408
  0
VERTEX
  8
0
 10
333.839639
 20
892.048339
 42
0.065525
  0
VERTEX
  8
0
 10
334.000000
 20
893.266756
 42
0.077482
  0
VERTEX
  8
0
 10
333.750901
 20
894.864570
 42
0.062445
  0
VERTEX
  8
0
 10
333.019177
 20
896.443205
 42
0.068763
  0
VERTEX
  8
0
 10
332.036501
 20
897.619217
 42
0.193525
  0
VERTEX
  8
0
 10
331.050000
 20
897.985016
 42
0.190993
  0
VERTEX
  8
0
 10
330.674537
 20
897.824198
 42
0.000332
  0
VERTEX
  8
0
 10
325.667813
 20
892.843589
 42
0.002399
  0
VERTEX
  8
0
 10
320.057257
 20
887.200992
 42
0.001474
  0
SEQEND
  0
POLYLINE
  8
0
 66
1
 70
1
  0
VERTEX
  8
0
 10
259.182975
 20
744.636689
 42
0.003582
  0
VERTEX
  8
0
 10
253.143982
 20
727.006830
 42
0.022028
  0
VERTEX
  8
0
 10
250.502858
 20
717.780544
 42
0.035876
  0
VERTEX
  8
0
 10
249.288036
 20
710.395370
 42
0.020458
  0
VERTEX
  8
0
 10
248.832128
 20
701.357732
 42
0.012169
  0
VERTEX
  8
0
 10
248.943604
 20
693.848339
 42
0.029148
  0
VERTEX
  8
0
 10
249.485366
 20
688.307119
 42
0.020229
  0
VERTEX
  8
0
 10
250.779537
 20
681.795499
 42
0.003430
  0
VERTEX
  8
0
 10
253.834144
 20
669.500000
 42
0.008314
  0
VERTEX
  8
0
 10
258.558358
 20
652.228167
 42
0.021600
  0
VERTEX
  8
0
 10
262.697402
 20
640.017399
 42
0.022931
  0
VERTEX
  8
0
 10
266.355527
 20
631.733903
 42
0.284601
  0
VERTEX
  8
0
 10
269.154988
 20
630.000000
 42
0.397991
  0
VERTEX
  8
0
 10
269.497838
 20
630.324265
 42
0.002088
  0
VERTEX
  8
0
 10
269.757596
 20
635.360937
 42
0.007227
  0
VERTEX
  8
0
 10
269.951475
 20
641.252166
 42
0.004340
  0
VERTEX
  8
0
 10
270.019809
 20
648.250000
 42
-0.006441
  0
VERTEX
  8
0
 10
270.195289
 20
660.812180
 42
-0.015541
  0
VERTEX
  8
0
 10
270.733287
 20
670.088884
 42
-0.017464
  0
VERTEX
  8
0
 10
271.799598
 20
678.648710
 42
-0.010435
  0
VERTEX
  8
0
 10
273.633581
 20
688.742920
 42
0.016303
  0
VERTEX
  8
0
 10
274.529562
 20
694.026140
 42
0.034444
  0
VERTEX
  8
0
 10
274.805683
 20
698.170452
 42
0.022364
  0
VERTEX
  8
0
 10
274.564331
 20
703.296090
 42
0.003609
  0
VERTEX
  8
0
 10
273.576457
 20
713.242920
 42
0.001996
  0
VERTEX
  8
0
 10
272.808753
 20
720.181112
 42
0.001638
  0
VERTEX
  8
0
 10
271.934807
 20
727.586612
 42
0.001654
  0
VERTEX
  8
0
 10
271.086774
 20
734.387492
 42
0.004381
  0
VERTEX
  8
0
 10
270.421651
 20
739.243418
 42
-0.004988
  0
VERTEX
  8
0
 10
269.877428
 20
743.252865
 42
-0.005100
  0
VERTEX
  8
0
 10
269.417610
 20
747.242890
 42
-0.004956
  0
VERTEX
  8
0
 10
269.088098
 20
750.714775
 42
-0.021182
  0
VERTEX
  8
0
 10
269.000000
 20
752.793418
 42
0.046178
  0
VERTEX
  8
0
 10
268.761863
 20
755.366408
 42
0.085186
  0
VERTEX
  8
0
 10
268.034520
 20
757.331227
 42
0.115560
  0
VERTEX
  8
0
 10
266.883872
 20
758.555021
 42
0.147581
  0
VERTEX
  8
0
 10
265.409138
 20
759.000000
 42
0.293397
  0
VERTEX
  8
0
 10
264.792350
 20
758.603982
 42
0.005054
  0
VERTEX
  8
0
 10
263.088972
 20
754.780777
 42
0.011050
  0
VERTEX
  8
0
 10
261.199109
 20
750.142732
 42
0.006913
  0
SEQEND
  0
POLYLINE
  8
0
 66
1
 70
1
  0
VERTEX
  8
0
 10
292.000000
 20
574.790244
 42
0.065010
  0
VERTEX
  8
0
 10
292.188750
 20
573.344683
 42
0.004215
  0
VERTEX
  8
0
 10
293.313040
 20
569.252158
 42
0.006085
  0
VERTEX
  8
0
 10
294.757788
 20
564.387690
 42
0.004496
  0
VERTEX
  8
0
 10
296.469922
 20
559.040244
 42
-0.001374
  0
VERTEX
  8
0
 10
298.410807
 20
553.106189
 42
-0.000985
  0
VERTEX
  8
0
 10
300.549378
 20
546.461785
 42
-0.000994
  0
VERTEX
  8
0
 10
302.561100
 20
540.125610
 42
-0.002139
  0
VERTEX
  8
0
 10
304.080521
 20
535.233919
 42
0.035155
  0
VERTEX
  8
0
 10
308.278334
 20
524.319376
 42
0.046238
  0
VERTEX
  8
0
 10
313.668576
 20
515.116692
 42
0.045337
  0
VERTEX
  8
0
 10
320.749488
 20
506.926357
 42
0.031970
  0
VERTEX
  8
0
 10
330.036490
 20
499.050072
 42
0.027241
  0
VERTEX
  8
0
 10
340.992469
 20
491.793475
 42
0.027496
  0
VERTEX
  8
0
 10
352.639193
 20
485.795699
 42
0.027620
  0
VERTEX
  8
0
 10
364.821164
 20
481.135778
 42
0.028077
  0
VERTEX
  8
0
 10
377.376430
 20
477.876519
 42
-0.003010
  0
VERTEX
  8
0
 10
381.279207
 20
477.069665
 42
-0.004421
  0
VERTEX
  8
0
 10
384.699133
 20
476.309468
 42
-0.002154
  0
VERTEX
  8
0
 10
387.592332
 20
475.626307
 42
-0.079514
  0
VERTEX
  8
0
 10
388.216620
 20
475.366121
 42
0.125360
  0
VERTEX
  8
0
 10
389.765419
 20
474.879960
 42
0.000662
  0
VERTEX
  8
0
 10
405.728308
 20
474.026514
 42
0.000432
  0
VERTEX
  8
0
 10
421.947855
 20
473.194920
 42
0.212035
  0
VERTEX
  8
0
 10
422.891608
 20
473.558275
 42
0.477793
  0
VERTEX
  8
0
 10
422.694033
 20
475.414302
 42
0.012866
  0
VERTEX
  8
0
 10
414.697323
 20
480.290370
 42
0.019056
  0
VERTEX
  8
0
 10
404.571104
 20
485.610244
 42
0.014596
  0
VERTEX
  8
0
 10
393.134148
 20
490.668776
 42
-0.014369
  0
VERTEX
  8
0
 10
382.002764
 20
495.586118
 42
-0.051754
  0
VERTEX
  8
0
 10
375.388769
 20
499.624174
 42
-0.053908
  0
VERTEX
  8
0
 10
369.882526
 20
504.849795
 42
-0.016518
  0
VERTEX
  8
0
 10
362.743744
 20
513.845790
 42
0.015833
  0
VERTEX
  8
0
 10
354.770494
 20
523.921662
 42
0.030886
  0
VERTEX
  8
0
 10
347.692899
 20
531.325984
 42
0.028485
  0
VERTEX
  8
0
 10
339.387277
 20
538.170429
 42
0.011504
  0
VERTEX
  8
0
 10
327.339520
 20
546.578045
 42
-0.007871
  0
VERTEX
  8
0
 10
321.070010
 20
550.885878
 42
-0.011835
  0
VERTEX
  8
0
 10
315.754385
 20
554.855437
 42
-0.013424
  0
VERTEX
  8
0
 10
311.545685
 20
558.342821
 42
-0.036877
  0
VERTEX
  8
0
 10
308.839520
 20
561.087774
 42
0.005514
  0
VERTEX
  8
0
 10
300.054605
 20
571.193585
 42
0.040306
  0
VERTEX
  8
0
 10
295.424597
 20
575.626125
 42
0.218977
  0
VERTEX
  8
0
 10
293.180361
 20
576.203706
 42
0.362634
  0
SEQEND
  0
POLYLINE
  8
0
 66
1
 70
1
  0
VERTEX
  8
0
 10
614.000000
 20
555.625959
 42
0.018153
  0
VERTEX
  8
0
 10
595.981264
 20
546.402646
 42
0.025164
  0
VERTEX
  8
0
 10
580.606402
 20
536.769356
 42
0.022573
  0
VERTEX
  8
0
 10
565.089294
 20
524.845934
 42
0.011159
  0
VERTEX
  8
0
 10
546.444937
 20
508.406553
 42
-0.000733
  0
VERTEX
  8
0
 10
540.651715
 20
503.079709
 42
-0.000724
  0
VERTEX
  8
0
 10
534.818174
 20
497.747082
 42
-0.000710
  0
VERTEX
  8
0
 10
529.696175
 20
493.091797
 42
-0.002790
  0
VERTEX
  8
0
 10
526.517444
 20
490.243087
 42
0.006027
  0
VERTEX
  8
0
 10
522.984704
 20
487.035644
 42
0.065040
  0
VERTEX
  8
0
 10
521.756414
 20
485.552477
 42
0.202325
  0
VERTEX
  8
0
 10
521.579592
 20
484.474053
 42
0.138031
  0
VERTEX
  8
0
 10
522.195232
 20
483.376197
 42
0.111435
  0
VERTEX
  8
0
 10
523.464150
 20
482.574547
 42
0.096313
  0
VERTEX
  8
0
 10
525.025145
 20
482.339494
 42
0.039052
  0
VERTEX
  8
0
 10
527.579118
 20
482.649115
 42
0.004443
  0
VERTEX
  8
0
 10
533.271466
 20
483.848079
 42
0.015466
  0
VERTEX
  8
0
 10
542.552790
 20
486.192387
 42
0.031451
  0
VERTEX
  8
0
 10
549.640129
 20
488.709174
 42
0.028790
  0
VERTEX
  8
0
 10
556.739265
 20
492.241176
 42
0.010978
  0
VERTEX
  8
0
 10
566.211743
 20
497.934538
 42
-0.004635
  0
VERTEX
  8
0
 10
571.546287
 20
501.233656
 42
-0.003984
  0
VERTEX
  8
0
 10
577.216111
 20
504.606429
 42
-0.004014
  0
VERTEX
  8
0
 10
582.412038
 20
507.585835
 42
-0.011524
  0
VERTEX
  8
0
 10
586.081875
 20
509.541231
 42
0.045390
  0
VERTEX
  8
0
 10
592.417453
 20
513.488963
 42
0.025343
  0
VERTEX
  8
0
 10
599.381061
 20
519.338038
 42
0.018837
  0
VERTEX
  8
0
 10
607.671164
 20
527.654316
 42
0.007769
  0
VERTEX
  8
0
 10
618.285217
 20
539.500000
 42
0.006305
  0
VERTEX
  8
0
 10
626.345262
 20
549.021430
 42
0.024942
  0
VERTEX
  8
0
 10
630.925601
 20
555.173511
 42
0.038063
  0
VERTEX
  8
0
 10
633.284184
 20
559.350592
 42
0.290440
  0
VERTEX
  8
0
 10
633.010484
 20
561.487368
 42
0.041981
  0
VERTEX
  8
0
 10
632.446789
 20
562.061027
 42
0.041392
  0
VERTEX
  8
0
 10
631.792657
 20
562.535474
 42
0.044555
  0
VERTEX
  8
0
 10
631.149103
 20
562.850899
 42
0.107297
  0
VERTEX
  8
0
 10
630.627555
 20
562.931267
 42
0.087217
  0
VERTEX
  8
0
 10
629.816658
 20
562.737226
 42
0.001273
  0
VERTEX
  8
0
 10
625.278094
 20
560.756981
 42
0.003447
  0
VERTEX
  8
0
 10
620.021901
 20
558.404317
 42
0.002263
  0
SEQEND
  0
ENDSEC
  0
EOF
