  0
SECTION
  2
HEADER
  9
$ACADVER
  1
AC1006
  9
$EXTMIN
 10
0.000000
 20
0.000000
 30
0.000000
  9
$EXTMAX
 10
1500.000000
 20
1500.000000
 30
0.000000
  0
ENDSEC
  0
SECTION
  2
ENTITIES
  0
POLYLINE
  8
0
 66
1
 70
1
  0
VERTEX
  8
0
 10
1157.946251
 20
1376.594724
 42
0.029730
  0
VERTEX
  8
0
 10
1133.891986
 20
1365.430892
 42
0.015070
  0
VERTEX
  8
0
 10
1104.979040
 20
1348.718391
 42
0.014590
  0
VERTEX
  8
0
 10
1075.158771
 20
1329.034860
 42
0.016990
  0
VERTEX
  8
0
 10
1048.054276
 20
1308.575837
 42
0.013039
  0
VERTEX
  8
0
 10
1027.564135
 20
1291.083562
 42
0.007029
  0
VERTEX
  8
0
 10
1003.199507
 20
1268.532199
 42
0.006800
  0
VERTEX
  8
0
 10
980.416237
 20
1246.243545
 42
0.021225
  0
VERTEX
  8
0
 10
965.948296
 20
1230.408981
 42
0.021051
  0
VERTEX
  8
0
 10
955.705706
 20
1217.096202
 42
0.008120
  0
VERTEX
  8
0
 10
942.592950
 20
1197.824215
 42
0.008058
  0
VERTEX
  8
0
 10
929.111419
 20
1176.562524
 42
0.010248
  0
VERTEX
  8
0
 10
917.397107
 20
1156.500000
 42
-0.032263
  0
VERTEX
  8
0
 10
914.212148
 20
1151.558255
 42
-0.088706
  0
VERTEX
  8
0
 10
911.208134
 20
1148.721086
 42
-0.031036
  0
VERTEX
  8
0
 10
906.054950
 20
1145.785333
 42
-0.001219
  0
VERTEX
  8
0
 10
886.478374
 20
1136.247766
 42
0.008460
  0
VERTEX
  8
0
 10
879.619253
 20
1132.782257
 42
0.011491
  0
VERTEX
  8
0
 10
873.557740
 20
1129.409728
 42
0.012923
  0
VERTEX
  8
0
 10
868.441770
 20
1126.226755
 42
0.024094
  0
VERTEX
  8
0
 10
864.500000
 20
1123.349240
 42
-0.009474
  0
VERTEX
  8
0
 10
861.463544
 20
1120.993541
 42
-0.027468
  0
VERTEX
  8
0
 10
859.249124
 20
1119.523837
 42
-0.042692
  0
VERTEX
  8
0
 10
857.764839
 20
1118.814720
 42
-0.472671
  0
VERTEX
  8
0
 10
857.267172
 20
1119.101475
 42
-0.009775
  0
VERTEX
  8
0
 10
857.113408
 20
1120.151405
 42
-0.000149
  0
VERTEX
  8
0
 10
856.344158
 20
1126.245275
 42
-0.000401
  0
VERTEX
  8
0
 10
855.458459
 20
1133.324319
 42
-0.000265
  0
VERTEX
  8
0
 10
854.451949
 20
1141.456909
 42
0.003273
  0
VERTEX
  8
0
 10
853.318995
 20
1150.180277
 42
0.003086
  0
VERTEX
  8
0
 10
852.050542
 20
1159.061008
 42
0.003068
  0
VERTEX
  8
0
 10
850.829945
 20
1166.914832
 42
0.010721
  0
VERTEX
  8
0
 10
849.903286
 20
1171.956909
 42
-0.002356
  0
VERTEX
  8
0
 10
848.836980
 20
1177.258364
 42
-0.000512
  0
VERTEX
  8
0
 10
847.049365
 20
1186.417432
 42
-0.000534
  0
VERTEX
  8
0
 10
845.002844
 20
1197.020881
 42
-0.000511
  0
VERTEX
  8
0
 10
842.948952
 20
1207.783284
 42
0.005203
  0
VERTEX
  8
0
 10
838.287838
 20
1231.020982
 42
0.012206
  0
VERTEX
  8
0
 10
834.202961
 20
1248.251568
 42
0.013469
  0
VERTEX
  8
0
 10
829.541547
 20
1264.214155
 42
0.007825
  0
VERTEX
  8
0
 10
823.132888
 20
1283.127129
 42
0.004313
  0
VERTEX
  8
0
 10
815.448804
 20
1304.113667
 42
0.012819
  0
VERTEX
  8
0
 10
809.691862
 20
1318.310506
 42
0.017096
  0
VERTEX
  8
0
 10
805.064193
 20
1328.012344
 42
0.073692
  0
VERTEX
  8
0
 10
801.327117
 20
1333.177048
 42
0.000000
  0
VERTEX
  8
0
 10
797.594104
 20
1337.000000
 42
0.000000
  0
VERTEX
  8
0
 10
788.247392
 20
1337.000000
 42
0.018465
  0
VERTEX
  8
0
 10
781.436375
 20
1336.748379
 42
0.064844
  0
VERTEX
  8
0
 10
777.147572
 20
1335.863987
 42
0.082760
  0
VERTEX
  8
0
 10
773.798282
 20
1334.042913
 42
0.043379
  0
VERTEX
  8
0
 10
770.317414
 20
1330.801083
 42
-0.014071
  0
VERTEX
  8
0
 10
769.035896
 20
1329.459155
 42
-0.013061
  0
VERTEX
  8
0
 10
767.649463
 20
1328.156742
 42
-0.013172
  0
VERTEX
  8
0
 10
766.355906
 20
1327.063433
 42
-0.042162
  0
VERTEX
  8
0
 10
765.418970
 20
1326.434633
 42
0.144327
  0
VERTEX
  8
0
 10
763.279570
 20
1324.260356
 42
0.001818
  0
VERTEX
  8
0
 10
754.105954
 20
1306.936735
 42
0.005976
  0
VERTEX
  8
0
 10
745.264574
 20
1289.592015
 42
0.010465
  0
VERTEX
  8
0
 10
738.421117
 20
1275.000000
 42
0.019758
  0
VERTEX
  8
0
 10
728.670994
 20
1250.452787
 42
0.015334
  0
VERTEX
  8
0
 10
719.957784
 20
1223.055114
 42
0.015494
  0
VERTEX
  8
0
 10
713.062110
 20
1195.621935
 42
0.022436
  0
VERTEX
  8
0
 10
708.825198
 20
1171.000000
 42
0.027443
  0
VERTEX
  8
0
 10
707.645372
 20
1154.333578
 42
0.005230
  0
VERTEX
  8
0
 10
707.483060
 20
1123.932980
 42
0.005605
  0
VERTEX
  8
0
 10
707.983064
 20
1093.318554
 42
0.021158
  0
VERTEX
  8
0
 10
709.321018
 20
1074.195128
 42
0.012066
  0
VERTEX
  8
0
 10
712.226506
 20
1053.009197
 42
0.014062
  0
VERTEX
  8
0
 10
716.034898
 20
1033.050392
 42
0.014946
  0
VERTEX
  8
0
 10
720.691742
 20
1014.547308
 42
0.018808
  0
VERTEX
  8
0
 10
726.150070
 20
997.742655
 42
0.012841
  0
VERTEX
  8
0
 10
730.008862
 20
988.006782
 42
0.004074
  0
VERTEX
  8
0
 10
736.250701
 20
973.691943
 42
0.002750
  0
VERTEX
  8
0
 10
742.672244
 20
959.496949
 42
0.036457
  0
VERTEX
  8
0
 10
745.441292
 20
954.466716
 42
-0.032434
  0
VERTEX
  8
0
 10
746.202613
 20
953.109633
 42
-0.002798
  0
VERTEX
  8
0
 10
747.898215
 20
949.515486
 42
-0.003680
  0
VERTEX
  8
0
 10
749.867024
 20
945.198160
 42
-0.002847
  0
VERTEX
  8
0
 10
751.950518
 20
940.466716
 42
0.004319
  0
VERTEX
  8
0
 10
754.189506
 20
935.422486
 42
0.003725
  0
VERTEX
  8
0
 10
756.626727
 20
930.161576
 42
0.003752
  0
VERTEX
  8
0
 10
758.908523
 20
925.423248
 42
0.010849
  0
VERTEX
  8
0
 10
760.583679
 20
922.189713
 42
-0.027892
  0
VERTEX
  8
0
 10
762.202959
 20
918.784811
 42
-0.008024
  0
VERTEX
  8
0
 10
764.324603
 20
913.348572
 42
-0.008046
  0
VERTEX
  8
0
 10
766.523785
 20
907.130723
 42
-0.008483
  0
VERTEX
  8
0
 10
768.481424
 20
900.953467
 42
0.005408
  0
VERTEX
  8
0
 10
771.870119
 20
890.027660
 42
0.027592
  0
VERTEX
  8
0
 10
774.150002
 20
884.092139
 42
0.033420
  0
VERTEX
  8
0
 10
776.879587
 20
878.958846
 42
0.010365
  0
VERTEX
  8
0
 10
781.646253
 20
871.623690
 42
-0.010442
  0
VERTEX
  8
0
 10
783.696618
 20
868.467424
 42
-0.013708
  0
VERTEX
  8
0
 10
785.427337
 20
865.498658
 42
-0.011200
  0
VERTEX
  8
0
 10
786.735612
 20
862.973344
 42
-0.114394
  0
VERTEX
  8
0
 10
787.000000
 20
861.832866
 42
-0.110743
  0
VERTEX
  8
0
 10
786.496982
 20
859.589617
 42
-0.006976
  0
VERTEX
  8
0
 10
783.503416
 20
853.472731
 42
-0.010143
  0
VERTEX
  8
0
 10
779.697658
 20
846.326702
 42
-0.007808
  0
VERTEX
  8
0
 10
775.266887
 20
838.681795
 42
0.000000
  0
VERTEX
  8
0
 10
771.772328
 20
832.863590
 42
0.000000
  0
VERTEX
  8
0
 10
772.176036
 20
819.681795
 42
0.005563
  0
VERTEX
  8
0
 10
772.492776
 20
812.098256
 42
0.026687
  0
VERTEX
  8
0
 10
772.951338
 20
807.797760
 42
0.041445
  0
VERTEX
  8
0
 10
773.761694
 20
804.520896
 42
0.029209
  0
VERTEX
  8
0
 10
775.183018
 20
801.000000
 42
0.025183
  0
VERTEX
  8
0
 10
776.516625
 20
798.514339
 42
0.013316
  0
VERTEX
  8
0
 10
778.403673
 20
795.566522
 42
0.013218
  0
VERTEX
  8
0
 10
780.499633
 20
792.645999
 42
0.019894
  0
VERTEX
  8
0
 10
782.491287
 20
790.226459
 42
0.049490
  0
VERTEX
  8
0
 10
788.711736
 20
784.507564
 42
0.012991
  0
VERTEX
  8
0
 10
799.756966
 20
776.646682
 42
0.013771
  0
VERTEX
  8
0
 10
811.605263
 20
769.135359
 42
0.030112
  0
VERTEX
  8
0
 10
821.147978
 20
764.200394
 42
0.000000
  0
VERTEX
  8
0
 10
829.500000
 20
760.500000
 42
0.000000
  0
VERTEX
  8
0
 10
844.500000
 20
760.604730
 42
0.008529
  0
VERTEX
  8
0
 10
851.873579
 20
760.782022
 42
0.009405
  0
VERTEX
  8
0
 10
858.999809
 20
761.209445
 42
0.009718
  0
VERTEX
  8
0
 10
865.876241
 20
761.886564
 42
0.010715
  0
VERTEX
  8
0
 10
872.500000
 20
762.813367
 42
-0.005281
  0
VERTEX
  8
0
 10
887.194602
 20
765.032518
 42
-0.012832
  0
VERTEX
  8
0
 10
898.088251
 20
766.276062
 42
-0.014577
  0
VERTEX
  8
0
 10
906.053945
 20
766.745356
 42
-0.091535
  0
VERTEX
  8
0
 10
910.064028
 20
766.127524
 42
0.050188
  0
VERTEX
  8
0
 10
911.888358
 20
765.690474
 42
0.011232
  0
VERTEX
  8
0
 10
915.071721
 20
765.331210
 42
0.011546
  0
VERTEX
  8
0
 10
918.782935
 20
765.082824
 42
0.010935
  0
VERTEX
  8
0
 10
922.569545
 20
765.000000
 42
0.038678
  0
VERTEX
  8
0
 10
930.964903
 20
765.650409
 42
0.036955
  0
VERTEX
  8
0
 10
939.292675
 20
767.587241
 42
0.027674
  0
VERTEX
  8
0
 10
949.115786
 20
771.259173
 42
0.010293
  0
VERTEX
  8
0
 10
962.500000
 20
777.456555
 42
0.020321
  0
VERTEX
  8
0
 10
972.918042
 20
783.078668
 42
0.007127
  0
VERTEX
  8
0
 10
987.421059
 20
791.965634
 42
0.007284
  0
VERTEX
  8
0
 10
1002.043987
 20
801.516372
 42
0.014804
  0
VERTEX
  8
0
 10
1013.195608
 20
809.523960
 42
0.000000
  0
VERTEX
  8
0
 10
1017.891217
 20
813.111044
 42
0.000000
  0
VERTEX
  8
0
 10
1019.445608
 20
810.105182
 42
-0.018957
  0
VERTEX
  8
0
 10
1020.040587
 20
808.839203
 42
-0.018486
  0
VERTEX
  8
0
 10
1020.543397
 20
807.521242
 42
-0.018746
  0
VERTEX
  8
0
 10
1020.898081
 20
806.332706
 42
-0.063214
  0
VERTEX
  8
0
 10
1021.000000
 20
805.529788
 42
-0.154101
  0
VERTEX
  8
0
 10
1019.622831
 20
801.167496
 42
-0.015066
  0
VERTEX
  8
0
 10
1012.929245
 20
792.209568
 42
-0.018403
  0
VERTEX
  8
0
 10
1004.216452
 20
782.045242
 42
-0.015161
  0
VERTEX
  8
0
 10
994.214444
 20
771.848907
 42
-0.029723
  0
VERTEX
  8
0
 10
981.823436
 20
761.299978
 42
-0.019400
  0
VERTEX
  8
0
 10
966.396093
 20
750.585216
 42
-0.016735
  0
VERTEX
  8
0
 10
947.714999
 20
739.519285
 42
-0.010765
  0
VERTEX
  8
0
 10
925.376907
 20
727.895921
 42
-0.019658
  0
VERTEX
  8
0
 10
918.023998
 20
724.621613
 42
-0.032679
  0
VERTEX
  8
0
 10
911.574903
 20
722.525175
 42
-0.018543
  0
VERTEX
  8
0
 10
902.779817
 20
720.633250
 42
-0.002613
  0
VERTEX
  8
0
 10
884.500000
 20
717.503403
 42
0.009559
  0
VERTEX
  8
0
 10
870.902907
 20
714.980438
 42
0.014034
  0
VERTEX
  8
0
 10
859.066366
 20
712.200877
 42
0.011443
  0
VERTEX
  8
0
 10
845.770255
 20
708.354467
 42
0.004101
  0
VERTEX
  8
0
 10
827.000000
 20
702.286162
 42
0.016111
  0
VERTEX
  8
0
 10
809.255782
 20
695.746423
 42
0.011254
  0
VERTEX
  8
0
 10
789.678110
 20
687.287705
 42
0.010793
  0
VERTEX
  8
0
 10
769.464356
 20
677.475243
 42
0.010925
  0
VERTEX
  8
0
 10
749.775451
 20
666.837398
 42
-0.001610
  0
VERTEX
  8
0
 10
732.741627
 20
657.219893
 42
-0.002830
  0
VERTEX
  8
0
 10
718.589446
 20
649.394304
 42
-0.003398
  0
VERTEX
  8
0
 10
706.666816
 20
642.994164
 42
-0.005685
  0
VERTEX
  8
0
 10
696.544399
 20
637.794982
 42
0.007521
  0
VERTEX
  8
0
 10
682.719191
 20
630.629640
 42
0.010518
  0
VERTEX
  8
0
 10
670.601133
 20
623.783657
 42
0.008851
  0
VERTEX
  8
0
 10
657.325127
 20
615.589588
 42
0.003579
  0
VERTEX
  8
0
 10
639.500000
 20
603.966171
 42
-0.002200
  0
VERTEX
  8
0
 10
618.680518
 20
590.308189
 42
-0.008986
  0
VERTEX
  8
0
 10
605.853605
 20
582.298050
 42
-0.013228
  0
VERTEX
  8
0
 10
595.399316
 20
576.398097
 42
-0.010312
  0
VERTEX
  8
0
 10
583.748571
 20
570.527899
 42
-0.022271
  0
VERTEX
  8
0
 10
567.659066
 20
563.695709
 42
-0.024654
  0
VERTEX
  8
0
 10
551.556450
 20
558.577857
 42
-0.026486
  0
VERTEX
  8
0
 10
537.114380
 20
555.567912
 42
-0.067479
  0
VERTEX
  8
0
 10
526.438478
 20
555.378285
 42
-0.048795
  0
VERTEX
  8
0
 10
515.143632
 20
557.838953
 42
-0.014834
  0
VERTEX
  8
0
 10
498.621602
 20
563.714710
 42
-0.015329
  0
VERTEX
  8
0
 10
482.100949
 20
570.738586
 42
-0.035405
  0
VERTEX
  8
0
 10
470.292879
 20
577.242213
 42
-0.030332
  0
VERTEX
  8
0
 10
458.224977
 20
586.131378
 42
-0.015660
  0
VERTEX
  8
0
 10
444.209866
 20
598.593984
 42
-0.014822
  0
VERTEX
  8
0
 10
429.735621
 20
613.137668
 42
-0.014864
  0
VERTEX
  8
0
 10
416.162649
 20
628.500000
 42
-0.029777
  0
VERTEX
  8
0
 10
409.903440
 20
637.006269
 42
-0.027669
  0
VERTEX
  8
0
 10
404.530054
 20
646.401698
 42
-0.023076
  0
VERTEX
  8
0
 10
399.466292
 20
657.800647
 42
-0.011738
  0
VERTEX
  8
0
 10
394.110631
 20
672.544426
 42
-0.022227
  0
VERTEX
  8
0
 10
388.093607
 20
693.429316
 42
-0.027265
  0
VERTEX
  8
0
 10
384.428705
 20
713.394412
 42
-0.029636
  0
VERTEX
  8
0
 10
383.166203
 20
731.993940
 42
-0.040262
  0
VERTEX
  8
0
 10
384.375470
 20
748.769706
 42
-0.033954
  0
VERTEX
  8
0
 10
392.484500
 20
784.977676
 42
-0.021591
  0
VERTEX
  8
0
 10
406.544023
 20
825.840468
 42
-0.021693
  0
VERTEX
  8
0
 10
423.841940
 20
864.791231
 42
-0.038271
  0
VERTEX
  8
0
 10
441.860465
 20
895.000000
 42
-0.014136
  0
VERTEX
  8
0
 10
451.570440
 20
907.971210
 42
-0.001661
  0
VERTEX
  8
0
 10
474.109838
 20
936.177789
 42
-0.001849
  0
VERTEX
  8
0
 10
496.781130
 20
964.144636
 42
-0.010989
  0
VERTEX
  8
0
 10
508.996314
 20
978.446308
 42
-0.004325
  0
VERTEX
  8
0
 10
514.771132
 20
984.802630
 42
-0.001750
  0
VERTEX
  8
0
 10
522.749720
 20
993.373066
 42
-0.001732
  0
VERTEX
  8
0
 10
531.399023
 20
1002.535188
 42
-0.002200
  0
VERTEX
  8
0
 10
539.449836
 20
1010.930087
 42
0.002931
  0
VERTEX
  8
0
 10
552.949471
 20
1025.047949
 42
0.018495
  0
VERTEX
  8
0
 10
559.514060
 20
1032.530111
 42
0.033998
  0
VERTEX
  8
0
 10
563.616647
 20
1038.335332
 42
0.029952
  0
VERTEX
  8
0
 10
567.089717
 20
1044.888315
 42
0.019009
  0
VERTEX
  8
0
 10
568.661582
 20
1048.718196
 42
0.041842
  0
VERTEX
  8
0
 10
569.498260
 20
1051.767290
 42
0.035569
  0
VERTEX
  8
0
 10
569.888675
 20
1055.205495
 42
0.010490
  0
VERTEX
  8
0
 10
570.000000
 20
1060.510955
 42
0.000000
  0
VERTEX
  8
0
 10
570.000000
 20
1069.745280
 42
0.000000
  0
VERTEX
  8
0
 10
565.606073
 20
1073.795460
 42
0.062998
  0
VERTEX
  8
0
 10
561.312774
 20
1076.853248
 42
0.074560
  0
VERTEX
  8
0
 10
556.626522
 20
1078.533167
 42
0.041979
  0
VERTEX
  8
0
 10
549.779202
 20
1079.299502
 42
0.007641
  0
VERTEX
  8
0
 10
537.000000
 20
1079.456217
 42
0.020547
  0
VERTEX
  8
0
 10
522.348532
 20
1078.809557
 42
0.033136
  0
VERTEX
  8
0
 10
510.006595
 20
1076.926033
 42
0.030109
  0
VERTEX
  8
0
 10
497.221296
 20
1073.278745
 42
0.013751
  0
VERTEX
  8
0
 10
481.000000
 20
1067.069242
 42
-0.000752
  0
VERTEX
  8
0
 10
476.230470
 20
1065.099847
 42
-0.000731
  0
VERTEX
  8
0
 10
471.409375
 20
1063.125878
 42
-0.000720
  0
VERTEX
  8
0
 10
467.165728
 20
1061.402706
 42
-0.002718
  0
VERTEX
  8
0
 10
464.500000
 20
1060.341556
 42
0.037248
  0
VERTEX
  8
0
 10
458.728636
 20
1057.568826
 42
0.008444
  0
VERTEX
  8
0
 10
449.399058
 20
1051.986328
 42
0.007045
  0
VERTEX
  8
0
 10
437.056600
 20
1044.071831
 42
0.003053
  0
VERTEX
  8
0
 10
420.850389
 20
1033.211759
 42
0.006624
  0
VERTEX
  8
0
 10
400.728688
 20
1019.156052
 42
0.007996
  0
VERTEX
  8
0
 10
382.225987
 20
1005.409256
 42
0.008164
  0
VERTEX
  8
0
 10
364.506212
 20
991.333181
 42
0.007502
  0
VERTEX
  8
0
 10
346.742079
 20
976.290644
 42
0.008886
  0
VERTEX
  8
0
 10
334.765654
 20
965.455637
 42
0.004846
  0
VERTEX
  8
0
 10
320.437912
 20
951.759462
 42
0.000965
  0
VERTEX
  8
0
 10
305.772647
 20
937.410765
 42
0.192143
  0
VERTEX
  8
0
 10
304.962453
 20
935.570476
 42
-0.131793
  0
VERTEX
  8
0
 10
304.772903
 20
934.951433
 42
-0.012950
  0
VERTEX
  8
0
 10
303.903720
 20
933.639452
 42
-0.015659
  0
VERTEX
  8
0
 10
302.759515
 20
932.110101
 42
-0.011790
  0
VERTEX
  8
0
 10
301.410981
 20
930.500000
 42
0.014205
  0
VERTEX
  8
0
 10
279.696325
 20
904.317681
 42
0.016082
  0
VERTEX
  8
0
 10
260.421769
 20
877.983017
 42
0.016373
  0
VERTEX
  8
0
 10
243.183957
 20
850.906225
 42
0.015904
  0
VERTEX
  8
0
 10
227.578142
 20
822.500000
 42
0.004754
  0
VERTEX
  8
0
 10
219.968866
 20
807.182257
 42
0.009625
  0
VERTEX
  8
0
 10
214.328563
 20
794.958048
 42
0.010770
  0
VERTEX
  8
0
 10
210.429619
 20
785.513383
 42
0.054123
  0
VERTEX
  8
0
 10
208.952135
 20
780.000000
 42
-0.022100
  0
VERTEX
  8
0
 10
208.426356
 20
777.377739
 42
-0.003466
  0
VERTEX
  8
0
 10
207.127216
 20
772.268750
 42
-0.003848
  0
VERTEX
  8
0
 10
205.506495
 20
766.264264
 42
-0.003348
  0
VERTEX
  8
0
 10
203.718546
 20
760.000000
 42
0.010966
  0
VERTEX
  8
0
 10
198.009749
 20
738.778933
 42
0.010483
  0
VERTEX
  8
0
 10
193.143742
 20
717.008237
 42
0.010536
  0
VERTEX
  8
0
 10
189.218069
 20
695.169759
 42
0.011392
  0
VERTEX
  8
0
 10
186.329838
 20
673.745689
 42
0.020908
  0
VERTEX
  8
0
 10
185.028525
 20
655.027640
 42
0.005623
  0
VERTEX
  8
0
 10
184.541345
 20
625.238443
 42
0.005646
  0
VERTEX
  8
0
 10
184.725793
 20
595.419571
 42
0.020499
  0
VERTEX
  8
0
 10
185.833280
 20
576.500000
 42
0.005392
  0
VERTEX
  8
0
 10
187.156694
 20
564.544439
 42
0.002118
  0
VERTEX
  8
0
 10
189.227966
 20
548.095900
 42
0.002072
  0
VERTEX
  8
0
 10
191.408920
 20
531.874183
 42
0.006495
  0
VERTEX
  8
0
 10
193.061062
 20
521.000000
 42
0.019986
  0
VERTEX
  8
0
 10
195.111868
 20
511.073715
 42
0.005245
  0
VERTEX
  8
0
 10
199.197495
 20
495.348478
 42
0.005535
  0
VERTEX
  8
0
 10
203.991079
 20
478.407691
 42
0.007916
  0
VERTEX
  8
0
 10
208.645956
 20
463.500000
 42
0.022925
  0
VERTEX
  8
0
 10
221.334306
 20
430.227954
 42
0.020472
  0
VERTEX
  8
0
 10
237.456750
 20
396.946053
 42
0.019823
  0
VERTEX
  8
0
 10
256.821177
 20
364.023520
 42
0.018307
  0
VERTEX
  8
0
 10
279.224215
 20
331.828245
 42
0.023937
  0
VERTEX
  8
0
 10
287.366272
 20
322.011370
 42
0.011125
  0
VERTEX
  8
0
 10
298.802764
 20
310.039298
 42
0.010796
  0
VERTEX
  8
0
 10
311.696314
 20
297.675333
 42
0.012529
  0
VERTEX
  8
0
 10
324.500000
 20
286.495691
 42
0.020737
  0
VERTEX
  8
0
 10
337.058983
 20
276.923277
 42
0.008843
  0
VERTEX
  8
0
 10
354.596507
 20
265.127278
 42
0.008377
  0
VERTEX
  8
0
 10
372.050736
 20
254.240880
 42
0.031407
  0
VERTEX
  8
0
 10
383.512974
 20
248.300794
 42
0.004788
  0
VERTEX
  8
0
 10
396.542132
 20
242.703543
 42
0.004561
  0
VERTEX
  8
0
 10
409.888193
 20
237.263442
 42
0.004681
  0
VERTEX
  8
0
 10
421.923605
 20
232.615096
 42
0.012968
  0
VERTEX
  8
0
 10
430.500000
 20
229.646021
 42
0.000219
  0
VERTEX
  8
0
 10
435.658289
 20
228.011262
 42
0.000111
  0
VERTEX
  8
0
 10
442.155148
 20
225.957006
 42
0.000110
  0
VERTEX
  8
0
 10
448.863244
 20
223.839226
 42
0.000165
  0
VERTEX
  8
0
 10
454.730289
 20
221.990515
 42
-0.008149
  0
VERTEX
  8
0
 10
463.171334
 20
219.181790
 42
-0.038792
  0
VERTEX
  8
0
 10
467.822448
 20
217.132194
 42
-0.035856
  0
VERTEX
  8
0
 10
472.260881
 20
214.322906
 42
-0.006304
  0
VERTEX
  8
0
 10
480.134810
 20
208.354706
 42
0.024293
  0
VERTEX
  8
0
 10
495.288187
 20
197.704644
 42
0.066221
  0
VERTEX
  8
0
 10
507.167844
 20
192.230629
 42
0.058794
  0
VERTEX
  8
0
 10
520.860322
 20
189.709465
 42
0.016160
  0
VERTEX
  8
0
 10
542.805322
 20
189.000000
 42
0.010148
  0
VERTEX
  8
0
 10
558.921029
 20
189.327117
 42
0.019903
  0
VERTEX
  8
0
 10
571.708050
 20
190.357310
 42
0.023757
  0
VERTEX
  8
0
 10
582.725299
 20
192.222410
 42
0.025165
  0
VERTEX
  8
0
 10
593.302323
 20
195.098795
 42
0.021578
  0
VERTEX
  8
0
 10
600.758730
 20
197.896857
 42
0.036176
  0
VERTEX
  8
0
 10
606.709529
 20
200.953163
 42
0.039591
  0
VERTEX
  8
0
 10
611.773289
 20
204.613716
 42
0.033368
  0
VERTEX
  8
0
 10
616.515447
 20
209.228404
 42
-0.016593
  0
VERTEX
  8
0
 10
619.494685
 20
212.328677
 42
-0.080365
  0
VERTEX
  8
0
 10
621.486792
 20
213.726157
 42
-0.069548
  0
VERTEX
  8
0
 10
623.944332
 20
214.520103
 42
-0.010586
  0
VERTEX
  8
0
 10
629.050816
 20
215.304611
 42
-0.017349
  0
VERTEX
  8
0
 10
633.453402
 20
215.731106
 42
-0.016889
  0
VERTEX
  8
0
 10
637.914667
 20
215.856515
 42
-0.014840
  0
VERTEX
  8
0
 10
642.867337
 20
215.681370
 42
-0.008666
  0
VERTEX
  8
0
 10
648.787867
 20
215.192668
 42
0.002858
  0
VERTEX
  8
0
 10
654.000295
 20
214.701396
 42
0.001886
  0
VERTEX
  8
0
 10
659.997061
 20
214.193553
 42
0.001898
  0
VERTEX
  8
0
 10
665.831776
 20
213.743884
 42
0.003677
  0
VERTEX
  8
0
 10
670.500000
 20
213.436427
 42
0.020615
  0
VERTEX
  8
0
 10
683.107757
 20
213.219690
 42
0.005450
  0
VERTEX
  8
0
 10
703.250008
 20
213.923663
 42
0.005760
  0
VERTEX
  8
0
 10
723.895199
 20
215.109086
 42
0.013758
  0
VERTEX
  8
0
 10
739.174425
 20
216.586417
 42
0.000000
  0
VERTEX
  8
0
 10
752.637916
 20
218.263175
 42
0.000000
  0
VERTEX
  8
0
 10
757.263623
 20
214.732293
 42
0.027976
  0
VERTEX
  8
0
 10
759.847896
 20
212.979312
 42
0.037068
  0
VERTEX
  8
0
 10
762.386351
 20
211.702642
 42
0.034283
  0
VERTEX
  8
0
 10
765.237828
 20
210.747088
 42
0.019494
  0
VERTEX
  8
0
 10
768.792896
 20
209.967676
 42
0.039570
  0
VERTEX
  8
0
 10
777.313766
 20
209.132152
 42
0.014001
  0
VERTEX
  8
0
 10
789.582067
 20
209.246939
 42
0.013420
  0
VERTEX
  8
0
 10
801.642078
 20
210.022187
 42
0.051698
  0
VERTEX
  8
0
 10
809.000000
 20
211.470366
 42
0.043508
  0
VERTEX
  8
0
 10
816.867761
 20
214.654893
 42
0.012167
  0
VERTEX
  8
0
 10
828.554469
 20
220.977207
 42
0.012759
  0
VERTEX
  8
0
 10
840.254231
 20
228.082028
 42
0.028512
  0
VERTEX
  8
0
 10
848.670249
 20
234.195960
 42
0.000000
  0
VERTEX
  8
0
 10
856.987292
 20
240.994519
 42
0.000000
  0
VERTEX
  8
0
 10
861.421493
 20
231.505589
 42
0.027617
  0
VERTEX
  8
0
 10
871.769232
 20
212.215766
 42
0.029049
  0
VERTEX
  8
0
 10
884.022694
 20
194.521086
 42
0.030137
  0
VERTEX
  8
0
 10
897.748960
 20
178.996850
 42
0.035976
  0
VERTEX
  8
0
 10
912.500000
 20
166.199093
 42
0.032165
  0
VERTEX
  8
0
 10
920.537207
 20
160.951895
 42
0.012756
  0
VERTEX
  8
0
 10
932.184368
 20
154.760871
 42
0.012390
  0
VERTEX
  8
0
 10
943.931464
 20
149.255271
 42
0.041036
  0
VERTEX
  8
0
 10
952.000000
 20
146.478314
 42
0.045239
  0
VERTEX
  8
0
 10
961.077812
 20
145.022367
 42
0.009833
  0
VERTEX
  8
0
 10
976.937878
 20
144.245400
 42
0.010527
  0
VERTEX
  8
0
 10
993.049520
 20
144.112781
 42
0.032414
  0
VERTEX
  8
0
 10
1003.911694
 20
144.957684
 42
0.036050
  0
VERTEX
  8
0
 10
1015.921292
 20
147.574010
 42
0.035034
  0
VERTEX
  8
0
 10
1027.549948
 20
151.906116
 42
0.036023
  0
VERTEX
  8
0
 10
1038.126773
 20
157.665925
 42
0.044472
  0
VERTEX
  8
0
 10
1046.994304
 20
164.541851
 42
-0.005723
  0
VERTEX
  8
0
 10
1049.672455
 20
166.972556
 42
-0.006172
  0
VERTEX
  8
0
 10
1052.339702
 20
169.280061
 42
-0.005856
  0
VERTEX
  8
0
 10
1054.674529
 20
171.203759
 42
-0.029257
  0
VERTEX
  8
0
 10
1056.055746
 20
172.187624
 42
0.058777
  0
VERTEX
  8
0
 10
1057.200488
 20
173.109300
 42
0.023182
  0
VERTEX
  8
0
 10
1058.550236
 20
174.620104
 42
0.022561
  0
VERTEX
  8
0
 10
1059.872417
 20
176.404539
 42
0.026212
  0
VERTEX
  8
0
 10
1060.958708
 20
178.216091
 42
0.000000
  0
VERTEX
  8
0
 10
1063.305923
 20
182.640636
 42
0.000000
  0
VERTEX
  8
0
 10
1069.377007
 20
179.070318
 42
-0.022321
  0
VERTEX
  8
0
 10
1072.105234
 20
177.297469
 42
-0.012040
  0
VERTEX
  8
0
 10
1075.308891
 20
174.887416
 42
-0.011970
  0
VERTEX
  8
0
 10
1078.460803
 20
172.270202
 42
-0.018422
  0
VERTEX
  8
0
 10
1081.045301
 20
169.844289
 42
0.012099
  0
VERTEX
  8
0
 10
1084.471196
 20
166.546157
 42
0.057724
  0
VERTEX
  8
0
 10
1086.667539
 20
164.955233
 42
0.071878
  0
VERTEX
  8
0
 10
1088.939735
 20
164.079013
 42
0.025067
  0
VERTEX
  8
0
 10
1092.400871
 20
163.469118
 42
0.030472
  0
VERTEX
  8
0
 10
1100.144273
 20
162.977734
 42
0.016573
  0
VERTEX
  8
0
 10
1109.674313
 20
163.270340
 42
0.014873
  0
VERTEX
  8
0
 10
1118.625275
 20
164.110434
 42
0.073234
  0
VERTEX
  8
0
 10
1123.500000
 20
165.457095
 42
-0.056062
  0
VERTEX
  8
0
 10
1126.439130
 20
166.378304
 42
-0.027332
  0
VERTEX
  8
0
 10
1130.338137
 20
166.916132
 42
-0.015528
  0
VERTEX
  8
0
 10
1136.231070
 20
167.219119
 42
-0.003261
  0
VERTEX
  8
0
 10
1146.552316
 20
167.361487
 42
0.000000
  0
VERTEX
  8
0
 10
1165.604633
 20
167.500000
 42
0.000000
  0
VERTEX
  8
0
 10
1173.552316
 20
171.425044
 42
0.037881
  0
VERTEX
  8
0
 10
1181.323916
 20
176.025128
 42
0.051038
  0
VERTEX
  8
0
 10
1187.507237
 20
181.363154
 42
0.047969
  0
VERTEX
  8
0
 10
1192.751290
 20
188.109134
 42
0.028627
  0
VERTEX
  8
0
 10
1197.697418
 20
197.000000
 42
0.029720
  0
VERTEX
  8
0
 10
1208.579897
 20
223.398057
 42
0.033792
  0
VERTEX
  8
0
 10
1215.718293
 20
249.802453
 42
0.030677
  0
VERTEX
  8
0
 10
1219.688488
 20
279.001101
 42
0.018380
  0
VERTEX
  8
0
 10
1220.985877
 20
314.000000
 42
0.005761
  0
VERTEX
  8
0
 10
1220.785014
 20
331.894228
 42
0.011074
  0
VERTEX
  8
0
 10
1220.141267
 20
346.223819
 42
0.012216
  0
VERTEX
  8
0
 10
1218.919533
 20
359.542790
 42
0.009071
  0
VERTEX
  8
0
 10
1216.944874
 20
374.185695
 42
0.010081
  0
VERTEX
  8
0
 10
1213.537358
 20
393.760748
 42
0.006735
  0
VERTEX
  8
0
 10
1208.885063
 20
416.026780
 42
0.006784
  0
VERTEX
  8
0
 10
1203.769937
 20
437.579900
 42
0.012747
  0
VERTEX
  8
0
 10
1198.960619
 20
454.818008
 42
0.000000
  0
VERTEX
  8
0
 10
1197.023058
 20
461.136017
 42
0.000000
  0
VERTEX
  8
0
 10
1205.638220
 20
477.318008
 42
-0.001004
  0
VERTEX
  8
0
 10
1208.994540
 20
483.591827
 42
-0.001517
  0
VERTEX
  8
0
 10
1211.944749
 20
489.040290
 42
-0.000574
  0
VERTEX
  8
0
 10
1214.501738
 20
493.715754
 42
-0.036445
  0
VERTEX
  8
0
 10
1215.009366
 20
494.500000
 42
0.047442
  0
VERTEX
  8
0
 10
1217.427846
 20
498.422533
 42
0.002161
  0
VERTEX
  8
0
 10
1224.342495
 20
512.614526
 42
0.003488
  0
VERTEX
  8
0
 10
1230.902308
 20
526.473765
 42
0.019841
  0
VERTEX
  8
0
 10
1234.043814
 20
534.000000
 42
0.017241
  0
VERTEX
  8
0
 10
1243.795538
 20
563.302340
 42
0.020899
  0
VERTEX
  8
0
 10
1250.819738
 20
591.396837
 42
0.020953
  0
VERTEX
  8
0
 10
1255.460679
 20
619.917628
 42
0.017494
  0
VERTEX
  8
0
 10
1258.048738
 20
650.500000
 42
-0.001985
  0
VERTEX
  8
0
 10
1258.516547
 20
659.250379
 42
-0.002502
  0
VERTEX
  8
0
 10
1259.022219
 20
667.345739
 42
-0.001990
  0
VERTEX
  8
0
 10
1259.507301
 20
674.131320
 42
-0.019962
  0
VERTEX
  8
0
 10
1259.834055
 20
676.953580
 42
0.000000
  0
VERTEX
  8
0
 10
1260.530780
 20
681.407160
 42
0.000000
  0
VERTEX
  8
0
 10
1264.150777
 20
676.453580
 42
-0.016950
  0
VERTEX
  8
0
 10
1268.086770
 20
670.665548
 42
-0.005038
  0
VERTEX
  8
0
 10
1273.707518
 20
661.563758
 42
-0.001501
  0
VERTEX
  8
0
 10
1279.557851
 20
651.807050
 42
-0.135098
  0
VERTEX
  8
0
 10
1280.000000
 20
650.200515
 42
0.128671
  0
VERTEX
  8
0
 10
1280.118175
 20
649.748903
 42
0.028827
  0
VERTEX
  8
0
 10
1280.550972
 20
649.072949
 42
0.028081
  0
VERTEX
  8
0
 10
1281.157661
 20
648.327745
 42
0.023952
  0
VERTEX
  8
0
 10
1281.875649
 20
647.612536
 42
0.091508
  0
VERTEX
  8
0
 10
1283.234264
 20
646.773840
 42
0.058648
  0
VERTEX
  8
0
 10
1285.033893
 20
646.307825
 42
0.034412
  0
VERTEX
  8
0
 10
1287.706100
 20
646.127374
 42
0.008385
  0
VERTEX
  8
0
 10
1292.125649
 20
646.207548
 42
0.000000
  0
VERTEX
  8
0
 10
1300.500000
 20
646.500000
 42
0.000000
  0
VERTEX
  8
0
 10
1300.798660
 20
671.000000
 42
0.013141
  0
VERTEX
  8
0
 10
1300.425664
 20
697.469677
 42
0.022461
  0
VERTEX
  8
0
 10
1298.543533
 20
719.484831
 42
0.020595
  0
VERTEX
  8
0
 10
1294.558407
 20
742.509389
 42
0.009160
  0
VERTEX
  8
0
 10
1287.508209
 20
772.500000
 42
0.009331
  0
VERTEX
  8
0
 10
1279.559254
 20
801.461549
 42
0.015204
  0
VERTEX
  8
0
 10
1271.617037
 20
825.676077
 42
0.017563
  0
VERTEX
  8
0
 10
1263.249954
 20
846.475423
 42
0.022307
  0
VERTEX
  8
0
 10
1254.021222
 20
865.000000
 42
-0.057337
  0
VERTEX
  8
0
 10
1253.081007
 20
867.272728
 42
-0.006466
  0
VERTEX
  8
0
 10
1251.618818
 20
872.665458
 42
-0.007771
  0
VERTEX
  8
0
 10
1250.056386
 20
879.153998
 42
-0.006240
  0
VERTEX
  8
0
 10
1248.571431
 20
886.180281
 42
0.004714
  0
VERTEX
  8
0
 10
1245.633753
 20
900.293038
 42
0.004847
  0
VERTEX
  8
0
 10
1242.456172
 20
914.218190
 42
0.003179
  0
VERTEX
  8
0
 10
1239.467639
 20
926.409291
 42
0.048337
  0
VERTEX
  8
0
 10
1238.005139
 20
930.500000
 42
-0.018240
  0
VERTEX
  8
0
 10
1236.942923
 20
932.988221
 42
-0.000725
  0
VERTEX
  8
0
 10
1233.413166
 20
942.210244
 42
-0.001435
  0
VERTEX
  8
0
 10
1229.937800
 20
951.408982
 42
-0.003562
  0
VERTEX
  8
0
 10
1227.460938
 20
958.168411
 42
0.000000
  0
VERTEX
  8
0
 10
1226.146290
 20
961.836823
 42
0.000000
  0
VERTEX
  8
0
 10
1229.823145
 20
960.314083
 42
-0.030557
  0
VERTEX
  8
0
 10
1235.361378
 20
957.613267
 42
-0.008199
  0
VERTEX
  8
0
 10
1243.806514
 20
952.651197
 42
-0.008466
  0
VERTEX
  8
0
 10
1252.993159
 20
946.833151
 42
-0.010185
  0
VERTEX
  8
0
 10
1261.420126
 20
941.044933
 42
0.000000
  0
VERTEX
  8
0
 10
1271.340253
 20
933.929451
 42
0.000000
  0
VERTEX
  8
0
 10
1280.420126
 20
934.214725
 42
0.000000
  0
VERTEX
  8
0
 10
1289.500000
 20
934.500000
 42
0.000000
  0
VERTEX
  8
0
 10
1289.792706
 20
942.890090
 42
0.007805
  0
VERTEX
  8
0
 10
1289.883011
 20
947.577272
 42
0.040327
  0
VERTEX
  8
0
 10
1289.683789
 20
950.160995
 42
0.072800
  0
VERTEX
  8
0
 10
1289.139982
 20
951.901034
 42
0.075285
  0
VERTEX
  8
0
 10
1288.124455
 20
953.390090
 42
-0.039659
  0
VERTEX
  8
0
 10
1286.974267
 20
954.843234
 42
-0.003323
  0
VERTEX
  8
0
 10
1284.331103
 20
958.845839
 42
-0.004407
  0
VERTEX
  8
0
 10
1281.247811
 20
963.675695
 42
-0.003390
  0
VERTEX
  8
0
 10
1277.964600
 20
969.000000
 42
0.006875
  0
VERTEX
  8
0
 10
1270.077051
 20
981.593768
 42
0.006103
  0
VERTEX
  8
0
 10
1261.532837
 20
994.480035
 42
0.006312
  0
VERTEX
  8
0
 10
1253.343685
 20
1006.188845
 42
0.013383
  0
VERTEX
  8
0
 10
1246.649396
 20
1015.000000
 42
0.017709
  0
VERTEX
  8
0
 10
1239.210196
 20
1023.621932
 42
0.006954
  0
VERTEX
  8
0
 10
1228.380325
 20
1034.988755
 42
0.006867
  0
VERTEX
  8
0
 10
1217.336356
 20
1045.956682
 42
0.019952
  0
VERTEX
  8
0
 10
1209.308048
 20
1053.116986
 42
0.000000
  0
VERTEX
  8
0
 10
1202.116095
 20
1059.033607
 42
0.000000
  0
VERTEX
  8
0
 10
1203.558048
 20
1062.484685
 42
0.051228
  0
VERTEX
  8
0
 10
1204.160032
 20
1064.477134
 42
0.018655
  0
VERTEX
  8
0
 10
1204.612201
 20
1067.395046
 42
0.016794
  0
VERTEX
  8
0
 10
1204.903741
 20
1070.905881
 42
0.012317
  0
VERTEX
  8
0
 10
1205.000000
 20
1074.812894
 42
0.025451
  0
VERTEX
  8
0
 10
1204.605033
 20
1082.567260
 42
0.216533
  0
VERTEX
  8
0
 10
1202.891586
 20
1085.503321
 42
0.146750
  0
VERTEX
  8
0
 10
1199.164810
 20
1086.757512
 42
0.010091
  0
VERTEX
  8
0
 10
1187.921259
 20
1086.904003
 42
0.007778
  0
VERTEX
  8
0
 10
1182.416251
 20
1086.778969
 42
0.008020
  0
VERTEX
  8
0
 10
1176.973745
 20
1086.483123
 42
0.007806
  0
VERTEX
  8
0
 10
1172.268599
 20
1086.077691
 42
0.033601
  0
VERTEX
  8
0
 10
1169.500000
 20
1085.606024
 42
0.000000
  0
VERTEX
  8
0
 10
1164.500000
 20
1084.404042
 42
0.000000
  0
VERTEX
  8
0
 10
1156.110742
 20
1092.270940
 42
0.013985
  0
VERTEX
  8
0
 10
1148.375283
 20
1099.128456
 42
0.009414
  0
VERTEX
  8
0
 10
1139.185109
 20
1106.537624
 42
0.009380
  0
VERTEX
  8
0
 10
1129.659992
 20
1113.643209
 42
0.013252
  0
VERTEX
  8
0
 10
1120.898260
 20
1119.581805
 42
-0.000531
  0
VERTEX
  8
0
 10
1118.035937
 20
1121.417355
 42
-0.000818
  0
VERTEX
  8
0
 10
1115.564389
 20
1123.011734
 42
-0.000252
  0
VERTEX
  8
0
 10
1113.422630
 20
1124.399869
 42
-0.024759
  0
VERTEX
  8
0
 10
1113.129448
 20
1124.611427
 42
-0.370643
  0
VERTEX
  8
0
 10
1113.082591
 20
1124.859985
 42
-0.009057
  0
VERTEX
  8
0
 10
1113.729944
 20
1125.935829
 42
-0.015324
  0
VERTEX
  8
0
 10
1114.595341
 20
1127.227093
 42
-0.009274
  0
VERTEX
  8
0
 10
1115.694040
 20
1128.703886
 42
0.013884
  0
VERTEX
  8
0
 10
1122.034936
 20
1137.392965
 42
0.012586
  0
VERTEX
  8
0
 10
1128.102695
 20
1146.705397
 42
0.012960
  0
VERTEX
  8
0
 10
1133.471309
 20
1155.944358
 42
0.018709
  0
VERTEX
  8
0
 10
1137.691634
 20
1164.397356
 42
0.007953
  0
VERTEX
  8
0
 10
1150.996126
 20
1195.029801
 42
0.013378
  0
VERTEX
  8
0
 10
1161.056654
 20
1221.194220
 42
0.013990
  0
VERTEX
  8
0
 10
1169.394962
 20
1247.015670
 42
0.009822
  0
VERTEX
  8
0
 10
1177.387970
 20
1276.500000
 42
0.004679
  0
VERTEX
  8
0
 10
1184.578084
 20
1306.434404
 42
0.015420
  0
VERTEX
  8
0
 10
1188.522525
 20
1326.349359
 42
0.022268
  0
VERTEX
  8
0
 10
1190.417681
 20
1342.044529
 42
0.024523
  0
VERTEX
  8
0
 10
1190.824819
 20
1357.347034
 42
0.000000
  0
VERTEX
  8
0
 10
1190.500000
 20
1371.821607
 42
0.000000
  0
VERTEX
  8
0
 10
1187.393393
 20
1375.660803
 42
0.000000
  0
VERTEX
  8
0
 10
1184.286786
 20
1379.500000
 42
0.000000
  0
VERTEX
  8
0
 10
1175.393393
 20
1379.731261
 42
0.012275
  0
VERTEX
  8
0
 10
1170.090157
 20
1379.738942
 42
0.038712
  0
VERTEX
  8
0
 10
1166.554739
 20
1379.382476
 42
0.037913
  0
VERTEX
  8
0
 10
1163.077823
 20
1378.481093
 42
0.011408
  0
SEQEND
  0
POLYLINE
  8
0
 66
1
 70
1
  0
VERTEX
  8
0
 10
1175.359758
 20
1358.654294
 42
-0.053301
  0
VERTEX
  8
0
 10
1176.179532
 20
1356.311254
 42
-0.063238
  0
VERTEX
  8
0
 10
1176.422212
 20
1353.980700
 42
-0.030945
  0
VERTEX
  8
0
 10
1176.134709
 20
1350.583234
 42
-0.004017
  0
VERTEX
  8
0
 10
1175.015428
 20
1343.388160
 42
-0.012585
  0
VERTEX
  8
0
 10
1171.743183
 20
1326.143811
 42
-0.005408
  0
VERTEX
  8
0
 10
1166.550808
 20
1303.301224
 42
-0.005417
  0
VERTEX
  8
0
 10
1160.633792
 20
1279.651678
 42
-0.008534
  0
VERTEX
  8
0
 10
1154.990120
 20
1259.500000
 42
-0.005018
  0
VERTEX
  8
0
 10
1151.749910
 20
1249.031488
 42
-0.003777
  0
VERTEX
  8
0
 10
1147.985012
 20
1237.584670
 42
-0.000960
  0
VERTEX
  8
0
 10
1144.174377
 20
1226.358324
 42
-0.111261
  0
VERTEX
  8
0
 10
1143.369512
 20
1225.047806
 42
-0.677453
  0
VERTEX
  8
0
 10
1143.203688
 20
1225.116443
 42
-0.001533
  0
VERTEX
  8
0
 10
1143.260360
 20
1228.753463
 42
-0.005020
  0
VERTEX
  8
0
 10
1143.384337
 20
1233.074189
 42
-0.002855
  0
VERTEX
  8
0
 10
1143.616599
 20
1238.297806
 42
0.000000
  0
VERTEX
  8
0
 10
1144.304254
 20
1252.000000
 42
0.000000
  0
VERTEX
  8
0
 10
1137.078310
 20
1252.000000
 42
0.000000
  0
VERTEX
  8
0
 10
1129.852365
 20
1252.000000
 42
0.000000
  0
VERTEX
  8
0
 10
1123.323606
 20
1246.461256
 42
-0.017824
  0
VERTEX
  8
0
 10
1114.927444
 20
1239.838047
 42
-0.018308
  0
VERTEX
  8
0
 10
1106.153856
 20
1233.891686
 42
-0.012101
  0
VERTEX
  8
0
 10
1094.298928
 20
1226.868562
 42
-0.003100
  0
VERTEX
  8
0
 10
1074.784265
 20
1216.095145
 42
0.000000
  0
VERTEX
  8
0
 10
1067.068530
 20
1211.897738
 42
0.000000
  0
VERTEX
  8
0
 10
1071.454116
 20
1221.346750
 42
0.013077
  0
VERTEX
  8
0
 10
1075.345306
 20
1230.339153
 42
0.013161
  0
VERTEX
  8
0
 10
1078.752231
 20
1239.503703
 42
0.013726
  0
VERTEX
  8
0
 10
1081.519189
 20
1248.380951
 42
0.018911
  0
VERTEX
  8
0
 10
1083.479214
 20
1256.500000
 42
-0.006077
  0
VERTEX
  8
0
 10
1084.239166
 20
1260.044369
 42
-0.004038
  0
VERTEX
  8
0
 10
1085.192827
 20
1264.091045
 42
-0.004064
  0
VERTEX
  8
0
 10
1086.182382
 20
1268.004847
 42
-0.007917
  0
VERTEX
  8
0
 10
1087.046532
 20
1271.107813
 42
0.021831
  0
VERTEX
  8
0
 10
1087.825406
 20
1274.239154
 42
0.014753
  0
VERTEX
  8
0
 10
1088.450327
 20
1277.865990
 42
0.014693
  0
VERTEX
  8
0
 10
1088.863708
 20
1281.549984
 42
0.020593
  0
VERTEX
  8
0
 10
1089.000000
 20
1284.857813
 42
0.000000
  0
VERTEX
  8
0
 10
1089.000000
 20
1292.000000
 42
0.000000
  0
VERTEX
  8
0
 10
1082.146337
 20
1292.000000
 42
0.027361
  0
VERTEX
  8
0
 10
1078.080359
 20
1291.777332
 42
0.026489
  0
VERTEX
  8
0
 10
1074.018092
 20
1291.111828
 42
0.019600
  0
VERTEX
  8
0
 10
1069.103976
 20
1289.833245
 42
0.006920
  0
VERTEX
  8
0
 10
1062.167570
 20
1287.629848
 42
-0.003955
  0
VERTEX
  8
0
 10
1057.166212
 20
1286.008416
 42
-0.007128
  0
VERTEX
  8
0
 10
1053.038353
 20
1284.770579
 42
-0.003185
  0
VERTEX
  8
0
 10
1049.667892
 20
1283.835179
 42
-0.680004
  0
VERTEX
  8
0
 10
1049.520381
 20
1284.032977
 42
-0.079138
  0
VERTEX
  8
0
 10
1049.965090
 20
1284.548774
 42
-0.000902
  0
VERTEX
  8
0
 10
1053.456596
 20
1287.486779
 42
-0.002747
  0
VERTEX
  8
0
 10
1057.519245
 20
1290.855048
 42
-0.001785
  0
VERTEX
  8
0
 10
1062.249148
 20
1294.704715
 42
-0.011258
  0
VERTEX
  8
0
 10
1082.595662
 20
1310.400578
 42
-0.012919
  0
VERTEX
  8
0
 10
1102.730275
 20
1324.434804
 42
-0.012475
  0
VERTEX
  8
0
 10
1124.167589
 20
1337.813421
 42
-0.009274
  0
VERTEX
  8
0
 10
1148.460471
 20
1351.543928
 42
-0.009471
  0
VERTEX
  8
0
 10
1156.431018
 20
1355.662676
 42
-0.010095
  0
VERTEX
  8
0
 10
1164.385647
 20
1359.386423
 42
-0.003892
  0
VERTEX
  8
0
 10
1171.700626
 20
1362.564424
 42
-0.243561
  0
VERTEX
  8
0
 10
1173.063082
 20
1362.461013
 42
-0.107132
  0
VERTEX
  8
0
 10
1173.417070
 20
1362.119801
 42
-0.011867
  0
VERTEX
  8
0
 10
1174.023891
 20
1361.165933
 42
-0.014026
  0
VERTEX
  8
0
 10
1174.695198
 20
1359.979226
 42
-0.010924
  0
SEQEND
  0
POLYLINE
  8
0
 66
1
 70
1
  0
VERTEX
  8
0
 10
789.815303
 20
1316.507675
 42
-0.050254
  0
VERTEX
  8
0
 10
790.854608
 20
1314.872186
 42
-0.005951
  0
VERTEX
  8
0
 10
792.743162
 20
1310.999904
 42
-0.007066
  0
VERTEX
  8
0
 10
794.874288
 20
1306.325174
 42
-0.005740
  0
VERTEX
  8
0
 10
797.029493
 20
1301.257675
 42
-0.008939
  0
VERTEX
  8
0
 10
801.992310
 20
1288.566660
 42
-0.002326
  0
VERTEX
  8
0
 10
809.510931
 20
1267.984468
 42
-0.000517
  0
VERTEX
  8
0
 10
817.557613
 20
1245.562046
 42
-0.086092
  0
VERTEX
  8
0
 10
818.000000
 20
1243.011812
 42
-0.316937
  0
VERTEX
  8
0
 10
817.722513
 20
1242.618022
 42
-0.033987
  0
VERTEX
  8
0
 10
816.586208
 20
1242.297220
 42
-0.032013
  0
VERTEX
  8
0
 10
815.031863
 20
1242.073093
 42
-0.019803
  0
VERTEX
  8
0
 10
813.187091
 20
1242.000000
 42
0.023237
  0
VERTEX
  8
0
 10
810.575948
 20
1241.878583
 42
0.065950
  0
VERTEX
  8
0
 10
808.802759
 20
1241.473413
 42
0.076318
  0
VERTEX
  8
0
 10
807.345588
 20
1240.660831
 42
0.039337
  0
VERTEX
  8
0
 10
805.799436
 20
1239.250000
 42
0.054190
  0
VERTEX
  8
0
 10
803.770309
 20
1236.548561
 42
0.074159
  0
VERTEX
  8
0
 10
802.621334
 20
1233.736598
 42
0.030595
  0
VERTEX
  8
0
 10
801.804265
 20
1229.212577
 42
0.002630
  0
VERTEX
  8
0
 10
800.487187
 20
1217.528365
 42
-0.006565
  0
VERTEX
  8
0
 10
799.048367
 20
1205.607767
 42
-0.015626
  0
VERTEX
  8
0
 10
797.586951
 20
1196.804067
 42
-0.017967
  0
VERTEX
  8
0
 10
795.716832
 20
1188.877023
 42
-0.011866
  0
VERTEX
  8
0
 10
793.027831
 20
1179.909883
 42
-0.007026
  0
VERTEX
  8
0
 10
790.548857
 20
1172.651745
 42
-0.029918
  0
VERTEX
  8
0
 10
788.752212
 20
1168.437474
 42
-0.094741
  0
VERTEX
  8
0
 10
787.485972
 20
1166.777773
 42
-0.528480
  0
VERTEX
  8
0
 10
786.586415
 20
1167.000000
 42
-0.004726
  0
VERTEX
  8
0
 10
780.887902
 20
1182.767056
 42
-0.004179
  0
VERTEX
  8
0
 10
775.244457
 20
1199.296917
 42
-0.004327
  0
VERTEX
  8
0
 10
770.210654
 20
1214.904522
 42
-0.007877
  0
VERTEX
  8
0
 10
766.411182
 20
1227.750000
 42
0.248417
  0
VERTEX
  8
0
 10
765.870793
 20
1228.319919
 42
0.041170
  0
VERTEX
  8
0
 10
764.352590
 20
1228.695827
 42
0.029737
  0
VERTEX
  8
0
 10
762.036837
 20
1228.930445
 42
0.010379
  0
VERTEX
  8
0
 10
758.686372
 20
1229.000000
 42
0.024229
  0
VERTEX
  8
0
 10
753.238674
 20
1228.735858
 42
0.131475
  0
VERTEX
  8
0
 10
750.493417
 20
1227.707711
 42
0.108255
  0
VERTEX
  8
0
 10
748.365371
 20
1225.355137
 42
0.013962
  0
VERTEX
  8
0
 10
745.139884
 20
1219.333181
 42
-0.009810
  0
VERTEX
  8
0
 10
741.719541
 20
1212.818044
 42
-0.003599
  0
VERTEX
  8
0
 10
736.641307
 20
1203.744771
 42
-0.001553
  0
VERTEX
  8
0
 10
731.346954
 20
1194.509942
 42
-0.057300
  0
VERTEX
  8
0
 10
729.901855
 20
1192.561462
 42
-0.715483
  0
VERTEX
  8
0
 10
729.688488
 20
1192.657746
 42
-0.021044
  0
VERTEX
  8
0
 10
729.885467
 20
1194.083690
 42
-0.015367
  0
VERTEX
  8
0
 10
730.351610
 20
1196.269783
 42
-0.007255
  0
VERTEX
  8
0
 10
731.080308
 20
1199.061462
 42
-0.006531
  0
VERTEX
  8
0
 10
736.298371
 20
1217.011625
 42
-0.008962
  0
VERTEX
  8
0
 10
741.490129
 20
1233.005081
 42
-0.009807
  0
VERTEX
  8
0
 10
746.811999
 20
1247.520208
 42
-0.011641
  0
VERTEX
  8
0
 10
752.421117
 20
1261.000000
 42
-0.010467
  0
VERTEX
  8
0
 10
759.287964
 20
1275.641773
 42
-0.006046
  0
VERTEX
  8
0
 10
768.127155
 20
1292.975976
 42
-0.001850
  0
VERTEX
  8
0
 10
777.286727
 20
1310.258496
 42
-0.145268
  0
VERTEX
  8
0
 10
779.437640
 20
1312.434633
 42
0.039411
  0
VERTEX
  8
0
 10
780.347590
 20
1313.032747
 42
0.015253
  0
VERTEX
  8
0
 10
781.511466
 20
1313.994861
 42
0.014990
  0
VERTEX
  8
0
 10
782.715121
 20
1315.119022
 42
0.017941
  0
VERTEX
  8
0
 10
783.776533
 20
1316.250000
 42
-0.023776
  0
VERTEX
  8
0
 10
785.755553
 20
1318.310033
 42
-0.180747
  0
VERTEX
  8
0
 10
786.973875
 20
1318.825529
 42
-0.207305
  0
VERTEX
  8
0
 10
788.135870
 20
1318.379939
 42
-0.032332
  0
SEQEND
  0
POLYLINE
  8
0
 66
1
 70
1
  0
VERTEX
  8
0
 10
1067.919864
 20
1263.677541
 42
-0.016544
  0
VERTEX
  8
0
 10
1065.421239
 20
1255.113193
 42
-0.016868
  0
VERTEX
  8
0
 10
1062.376132
 20
1246.788857
 42
-0.011293
  0
VERTEX
  8
0
 10
1057.839481
 20
1236.264831
 42
-0.002991
  0
VERTEX
  8
0
 10
1050.117827
 20
1219.672800
 42
0.006924
  0
VERTEX
  8
0
 10
1047.172201
 20
1213.210973
 42
0.033936
  0
VERTEX
  8
0
 10
1045.811915
 20
1209.437841
 42
0.047285
  0
VERTEX
  8
0
 10
1045.194681
 20
1206.115152
 42
0.022296
  0
VERTEX
  8
0
 10
1045.000000
 20
1201.751540
 42
0.028933
  0
VERTEX
  8
0
 10
1045.361107
 20
1195.516363
 42
0.176817
  0
VERTEX
  8
0
 10
1046.785950
 20
1192.681351
 42
0.166029
  0
VERTEX
  8
0
 10
1049.756509
 20
1191.333314
 42
0.024808
  0
VERTEX
  8
0
 10
1056.404988
 20
1191.018298
 42
0.015520
  0
VERTEX
  8
0
 10
1061.040901
 20
1191.172718
 42
0.035223
  0
VERTEX
  8
0
 10
1064.514196
 20
1191.643597
 42
0.033534
  0
VERTEX
  8
0
 10
1067.988562
 20
1192.613426
 42
0.012880
  0
VERTEX
  8
0
 10
1072.673329
 20
1194.403638
 42
0.021543
  0
VERTEX
  8
0
 10
1081.922360
 20
1198.688607
 42
0.004514
  0
VERTEX
  8
0
 10
1097.705634
 20
1207.025447
 42
0.004564
  0
VERTEX
  8
0
 10
1113.348856
 20
1215.655144
 42
0.020724
  0
VERTEX
  8
0
 10
1122.195131
 20
1221.136036
 42
-0.003747
  0
VERTEX
  8
0
 10
1124.413383
 20
1222.616896
 42
-0.005722
  0
VERTEX
  8
0
 10
1126.361841
 20
1223.864961
 42
-0.002284
  0
VERTEX
  8
0
 10
1128.043640
 20
1224.904621
 42
-0.138147
  0
VERTEX
  8
0
 10
1128.382260
 20
1225.000000
 42
-0.435897
  0
VERTEX
  8
0
 10
1128.688841
 20
1224.670028
 42
-0.008218
  0
VERTEX
  8
0
 10
1128.453857
 20
1222.063130
 42
-0.009908
  0
VERTEX
  8
0
 10
1127.952281
 20
1218.108147
 42
-0.002112
  0
VERTEX
  8
0
 10
1126.915116
 20
1211.254348
 42
-0.048838
  0
VERTEX
  8
0
 10
1124.644891
 20
1202.437398
 42
-0.012089
  0
VERTEX
  8
0
 10
1119.188592
 20
1188.526230
 42
-0.011938
  0
VERTEX
  8
0
 10
1113.081686
 20
1174.918394
 42
-0.051518
  0
VERTEX
  8
0
 10
1108.463660
 20
1167.363469
 42
0.032309
  0
VERTEX
  8
0
 10
1107.520714
 20
1165.945997
 42
0.028485
  0
VERTEX
  8
0
 10
1106.723700
 20
1164.359160
 42
0.029566
  0
VERTEX
  8
0
 10
1106.171108
 20
1162.842456
 42
0.072697
  0
VERTEX
  8
0
 10
1106.000000
 20
1161.671815
 42
-0.162005
  0
VERTEX
  8
0
 10
1103.935192
 20
1155.466418
 42
-0.008227
  0
VERTEX
  8
0
 10
1090.735014
 20
1138.419300
 42
-0.013520
  0
VERTEX
  8
0
 10
1075.057005
 20
1119.895659
 42
-0.013937
  0
VERTEX
  8
0
 10
1058.554071
 20
1102.438243
 42
-0.010414
  0
VERTEX
  8
0
 10
1043.441458
 20
1087.935854
 42
-0.017957
  0
VERTEX
  8
0
 10
1030.200405
 20
1076.599423
 42
-0.018452
  0
VERTEX
  8
0
 10
1016.436179
 20
1066.452674
 42
-0.011785
  0
VERTEX
  8
0
 10
999.750000
 20
1055.644517
 42
0.057686
  0
VERTEX
  8
0
 10
998.175286
 20
1054.406004
 42
0.126346
  0
VERTEX
  8
0
 10
997.395152
 20
1053.097838
 42
0.064450
  0
VERTEX
  8
0
 10
997.068540
 20
1051.043325
 42
0.007233
  0
VERTEX
  8
0
 10
997.000000
 20
1046.305688
 42
0.026029
  0
VERTEX
  8
0
 10
997.349553
 20
1039.595538
 42
0.179423
  0
VERTEX
  8
0
 10
998.787435
 20
1036.687226
 42
0.168393
  0
VERTEX
  8
0
 10
1001.826770
 20
1035.319317
 42
0.022318
  0
VERTEX
  8
0
 10
1008.977160
 20
1035.000000
 42
0.000000
  0
VERTEX
  8
0
 10
1017.644346
 20
1035.000000
 42
0.000000
  0
VERTEX
  8
0
 10
1029.572173
 20
1042.815893
 42
0.019160
  0
VERTEX
  8
0
 10
1047.412463
 20
1055.508730
 42
0.018848
  0
VERTEX
  8
0
 10
1064.329903
 20
1069.596577
 42
0.018672
  0
VERTEX
  8
0
 10
1080.289247
 20
1085.053883
 42
0.017983
  0
VERTEX
  8
0
 10
1095.260311
 20
1101.847838
 42
0.000000
  0
VERTEX
  8
0
 10
1098.020622
 20
1105.177958
 42
0.000000
  0
VERTEX
  8
0
 10
1102.760311
 20
1102.444320
 42
-0.020851
  0
VERTEX
  8
0
 10
1108.502386
 20
1098.805432
 42
-0.005370
  0
VERTEX
  8
0
 10
1117.452787
 20
1092.452285
 42
-0.005658
  0
VERTEX
  8
0
 10
1126.430233
 20
1085.777391
 42
-0.014973
  0
VERTEX
  8
0
 10
1132.649392
 20
1080.742046
 42
0.000000
  0
VERTEX
  8
0
 10
1137.798784
 20
1076.311153
 42
0.000000
  0
VERTEX
  8
0
 10
1130.149392
 20
1073.176933
 42
0.054422
  0
VERTEX
  8
0
 10
1103.903335
 20
1058.920099
 42
0.044465
  0
VERTEX
  8
0
 10
1079.352832
 20
1038.441537
 42
0.040815
  0
VERTEX
  8
0
 10
1056.919336
 20
1012.083012
 42
0.032060
  0
VERTEX
  8
0
 10
1037.000000
 20
980.271870
 42
0.000000
  0
VERTEX
  8
0
 10
1030.500000
 20
968.240922
 42
0.000000
  0
VERTEX
  8
0
 10
1025.309276
 20
967.698832
 42
0.045837
  0
VERTEX
  8
0
 10
1021.354265
 20
966.914936
 42
0.011636
  0
VERTEX
  8
0
 10
1015.115613
 20
964.912754
 42
0.011879
  0
VERTEX
  8
0
 10
1008.136083
 20
962.304933
 42
0.012479
  0
VERTEX
  8
0
 10
1001.403335
 20
959.408313
 42
-0.313048
  0
VERTEX
  8
0
 10
1000.855092
 20
959.505542
 42
-0.040416
  0
VERTEX
  8
0
 10
1000.037300
 20
960.461388
 42
-0.035536
  0
VERTEX
  8
0
 10
999.144062
 20
961.899231
 42
-0.021877
  0
VERTEX
  8
0
 10
998.293002
 20
963.701851
 42
0.041903
  0
VERTEX
  8
0
 10
995.693495
 20
968.681534
 42
0.019696
  0
VERTEX
  8
0
 10
991.564808
 20
974.661666
 42
0.019540
  0
VERTEX
  8
0
 10
987.046908
 20
980.217611
 42
0.049390
  0
VERTEX
  8
0
 10
983.240955
 20
983.765381
 42
0.048649
  0
VERTEX
  8
0
 10
980.724158
 20
985.323656
 42
0.070452
  0
VERTEX
  8
0
 10
978.242831
 20
986.136281
 42
0.033410
  0
VERTEX
  8
0
 10
974.505844
 20
986.545314
 42
0.003693
  0
VERTEX
  8
0
 10
965.905174
 20
986.845092
 42
0.020787
  0
VERTEX
  8
0
 10
949.133358
 20
986.608403
 42
0.030960
  0
VERTEX
  8
0
 10
934.562720
 20
984.887262
 42
0.035361
  0
VERTEX
  8
0
 10
921.987693
 20
981.674028
 42
0.047659
  0
VERTEX
  8
0
 10
911.250000
 20
976.928885
 42
0.000000
  0
VERTEX
  8
0
 10
906.000000
 20
973.982901
 42
0.000000
  0
VERTEX
  8
0
 10
906.000000
 20
979.541111
 42
0.038679
  0
VERTEX
  8
0
 10
905.655131
 20
983.992581
 42
0.067796
  0
VERTEX
  8
0
 10
904.600231
 20
987.527325
 42
0.067754
  0
VERTEX
  8
0
 10
902.637754
 20
990.652591
 42
0.038582
  0
VERTEX
  8
0
 10
899.516287
 20
993.851556
 42
0.032992
  0
VERTEX
  8
0
 10
897.089363
 20
995.714092
 42
0.089383
  0
VERTEX
  8
0
 10
895.107166
 20
996.576378
 42
0.052245
  0
VERTEX
  8
0
 10
892.395538
 20
996.924372
 42
0.005954
  0
VERTEX
  8
0
 10
886.215204
 20
996.994423
 42
0.009802
  0
VERTEX
  8
0
 10
882.213025
 20
996.913655
 42
0.009835
  0
VERTEX
  8
0
 10
878.221523
 20
996.676073
 42
0.009700
  0
VERTEX
  8
0
 10
874.750864
 20
996.333031
 42
0.038250
  0
VERTEX
  8
0
 10
872.645301
 20
995.918510
 42
0.078512
  0
VERTEX
  8
0
 10
868.785928
 20
994.159949
 42
0.041148
  0
VERTEX
  8
0
 10
864.627735
 20
990.889200
 42
0.037320
  0
VERTEX
  8
0
 10
860.570695
 20
986.511821
 42
0.032488
  0
VERTEX
  8
0
 10
857.000000
 20
981.379767
 42
0.020810
  0
VERTEX
  8
0
 10
854.924375
 20
977.592161
 42
0.060524
  0
VERTEX
  8
0
 10
853.934204
 20
974.782231
 42
0.041129
  0
VERTEX
  8
0
 10
853.455216
 20
971.273755
 42
0.005833
  0
VERTEX
  8
0
 10
853.150720
 20
963.994539
 42
0.004774
  0
VERTEX
  8
0
 10
853.020823
 20
957.687241
 42
0.026894
  0
VERTEX
  8
0
 10
853.164714
 20
954.322020
 42
0.053424
  0
VERTEX
  8
0
 10
853.582826
 20
952.293339
 42
0.142980
  0
VERTEX
  8
0
 10
854.400720
 20
951.082395
 42
-0.101932
  0
VERTEX
  8
0
 10
855.088535
 20
950.222925
 42
-0.051704
  0
VERTEX
  8
0
 10
855.589662
 20
948.924874
 42
-0.041737
  0
VERTEX
  8
0
 10
855.899330
 20
947.239301
 42
-0.024571
  0
VERTEX
  8
0
 10
856.000000
 20
945.192007
 42
0.064727
  0
VERTEX
  8
0
 10
856.588599
 20
940.664259
 42
0.161347
  0
VERTEX
  8
0
 10
858.391231
 20
937.903730
 42
0.131575
  0
VERTEX
  8
0
 10
861.772628
 20
936.431138
 42
0.037288
  0
VERTEX
  8
0
 10
867.545863
 20
936.000000
 42
0.000000
  0
VERTEX
  8
0
 10
874.743098
 20
936.000000
 42
0.000000
  0
VERTEX
  8
0
 10
875.252768
 20
925.250000
 42
0.010918
  0
VERTEX
  8
0
 10
875.572544
 20
920.637045
 42
0.012565
  0
VERTEX
  8
0
 10
876.083976
 20
916.254568
 42
0.013262
  0
VERTEX
  8
0
 10
876.718719
 20
912.507968
 42
0.039925
  0
VERTEX
  8
0
 10
877.420065
 20
910.014172
 42
0.045017
  0
VERTEX
  8
0
 10
879.166045
 20
906.343033
 42
0.045935
  0
VERTEX
  8
0
 10
881.530842
 20
903.070263
 42
0.050061
  0
VERTEX
  8
0
 10
884.039406
 20
900.718062
 42
0.164768
  0
VERTEX
  8
0
 10
886.159263
 20
900.000000
 42
-0.179627
  0
VERTEX
  8
0
 10
887.128435
 20
899.640212
 42
-0.049145
  0
VERTEX
  8
0
 10
888.272489
 20
898.440509
 42
-0.035738
  0
VERTEX
  8
0
 10
889.570179
 20
896.510737
 42
-0.015023
  0
VERTEX
  8
0
 10
891.044536
 20
893.750000
 42
0.008299
  0
VERTEX
  8
0
 10
892.347816
 20
891.228593
 42
0.009010
  0
VERTEX
  8
0
 10
893.700022
 20
888.820682
 42
0.008579
  0
VERTEX
  8
0
 10
894.929505
 20
886.801130
 42
0.042827
  0
VERTEX
  8
0
 10
895.731028
 20
885.745938
 42
-0.153036
  0
VERTEX
  8
0
 10
896.562755
 20
883.939566
 42
-0.131906
  0
VERTEX
  8
0
 10
896.281518
 20
881.861388
 42
-0.053743
  0
VERTEX
  8
0
 10
894.596157
 20
878.806858
 42
-0.007652
  0
VERTEX
  8
0
 10
890.389994
 20
873.000000
 42
-0.023062
  0
VERTEX
  8
0
 10
883.628495
 20
864.779133
 42
-0.012899
  0
VERTEX
  8
0
 10
874.703515
 20
855.392860
 42
-0.012882
  0
VERTEX
  8
0
 10
865.246238
 20
846.421692
 42
-0.021768
  0
VERTEX
  8
0
 10
856.820040
 20
839.470996
 42
-0.018451
  0
VERTEX
  8
0
 10
843.959414
 20
830.495699
 42
-0.029608
  0
VERTEX
  8
0
 10
832.307903
 20
823.929093
 42
-0.032535
  0
VERTEX
  8
0
 10
820.821469
 20
819.221405
 42
-0.029939
  0
VERTEX
  8
0
 10
808.500000
 20
815.890028
 42
-0.003161
  0
VERTEX
  8
0
 10
800.849398
 20
814.356091
 42
-0.064243
  0
VERTEX
  8
0
 10
798.494950
 20
814.206991
 42
-0.216169
  0
VERTEX
  8
0
 10
797.227795
 20
814.884267
 42
-0.083293
  0
VERTEX
  8
0
 10
796.271046
 20
816.686861
 42
-0.120968
  0
VERTEX
  8
0
 10
796.106415
 20
818.715308
 42
-0.048579
  0
VERTEX
  8
0
 10
796.818211
 20
821.425195
 42
-0.024220
  0
VERTEX
  8
0
 10
798.594164
 20
825.598044
 42
-0.004083
  0
VERTEX
  8
0
 10
802.437713
 20
833.375808
 42
0.000000
  0
VERTEX
  8
0
 10
809.500000
 20
847.377894
 42
0.000000
  0
VERTEX
  8
0
 10
809.842246
 20
858.330971
 42
0.012229
  0
VERTEX
  8
0
 10
809.912456
 20
868.686977
 42
0.054887
  0
VERTEX
  8
0
 10
809.143826
 20
874.690312
 42
0.064883
  0
VERTEX
  8
0
 10
807.145436
 20
879.895204
 42
0.021402
  0
VERTEX
  8
0
 10
802.931544
 20
886.941474
 42
-0.014993
  0
VERTEX
  8
0
 10
798.487247
 20
894.161370
 42
-0.028276
  0
VERTEX
  8
0
 10
795.418870
 20
900.273432
 42
-0.028136
  0
VERTEX
  8
0
 10
793.050261
 20
906.712900
 42
-0.014685
  0
VERTEX
  8
0
 10
790.795048
 20
914.962840
 42
-0.045069
  0
VERTEX
  8
0
 10
788.951467
 20
927.379665
 42
-0.041455
  0
VERTEX
  8
0
 10
789.281175
 20
940.285416
 42
-0.031499
  0
VERTEX
  8
0
 10
791.966862
 20
955.802544
 42
-0.012499
  0
VERTEX
  8
0
 10
797.515601
 20
976.715139
 42
0.005669
  0
VERTEX
  8
0
 10
799.836725
 20
985.004737
 42
0.017914
  0
VERTEX
  8
0
 10
801.128110
 20
990.625049
 42
0.024719
  0
VERTEX
  8
0
 10
801.781654
 20
995.242691
 42
0.022796
  0
VERTEX
  8
0
 10
802.000000
 20
1000.029240
 42
0.000000
  0
VERTEX
  8
0
 10
802.000000
 20
1008.000000
 42
0.000000
  0
VERTEX
  8
0
 10
806.816204
 20
1008.000000
 42
0.000000
  0
VERTEX
  8
0
 10
811.632408
 20
1008.000000
 42
0.000000
  0
VERTEX
  8
0
 10
819.195262
 20
1020.750000
 42
0.000356
  0
VERTEX
  8
0
 10
822.475970
 20
1026.289825
 42
0.000266
  0
VERTEX
  8
0
 10
826.083268
 20
1032.398438
 42
0.000269
  0
VERTEX
  8
0
 10
829.474439
 20
1038.155113
 42
0.000615
  0
VERTEX
  8
0
 10
832.023615
 20
1042.500000
 42
-0.015651
  0
VERTEX
  8
0
 10
841.151857
 20
1057.038542
 42
-0.015637
  0
VERTEX
  8
0
 10
851.174292
 20
1070.982007
 42
-0.016529
  0
VERTEX
  8
0
 10
861.173491
 20
1083.157907
 42
-0.030740
  0
VERTEX
  8
0
 10
870.173601
 20
1092.218186
 42
0.001991
  0
VERTEX
  8
0
 10
873.251065
 20
1094.979213
 42
0.001432
  0
VERTEX
  8
0
 10
876.666548
 20
1098.085966
 42
0.001446
  0
VERTEX
  8
0
 10
879.899628
 20
1101.060984
 42
0.003124
  0
VERTEX
  8
0
 10
882.365857
 20
1103.372337
 42
-0.036623
  0
VERTEX
  8
0
 10
886.009494
 20
1106.355305
 42
-0.018155
  0
VERTEX
  8
0
 10
891.020972
 20
1109.613704
 42
-0.014136
  0
VERTEX
  8
0
 10
895.973708
 20
1112.396621
 42
-0.121507
  0
VERTEX
  8
0
 10
898.419939
 20
1113.000000
 42
-0.491012
  0
VERTEX
  8
0
 10
898.524404
 20
1112.864823
 42
-0.001938
  0
VERTEX
  8
0
 10
897.957489
 20
1110.723438
 42
-0.006791
  0
VERTEX
  8
0
 10
897.248330
 20
1108.222092
 42
-0.003993
  0
VERTEX
  8
0
 10
896.336018
 20
1105.250000
 42
0.012236
  0
VERTEX
  8
0
 10
892.780447
 20
1092.947469
 42
0.022316
  0
VERTEX
  8
0
 10
890.578562
 20
1082.729707
 42
0.024146
  0
VERTEX
  8
0
 10
889.402498
 20
1072.922159
 42
0.017612
  0
VERTEX
  8
0
 10
889.009059
 20
1061.950000
 42
0.005018
  0
VERTEX
  8
0
 10
889.071684
 20
1055.297884
 42
0.014006
  0
VERTEX
  8
0
 10
889.293096
 20
1050.636266
 42
0.014105
  0
VERTEX
  8
0
 10
889.635804
 20
1047.342653
 42
0.164847
  0
VERTEX
  8
0
 10
890.200000
 20
1046.200000
 42
0.147006
  0
VERTEX
  8
0
 10
891.161055
 20
1045.683085
 42
0.020534
  0
VERTEX
  8
0
 10
893.415152
 20
1045.318182
 42
0.019692
  0
VERTEX
  8
0
 10
896.424280
 20
1045.076788
 42
0.010168
  0
VERTEX
  8
0
 10
900.200000
 20
1045.000000
 42
0.000000
  0
VERTEX
  8
0
 10
909.000000
 20
1045.000000
 42
0.000000
  0
VERTEX
  8
0
 10
909.000000
 20
1052.068780
 42
-0.039757
  0
VERTEX
  8
0
 10
909.571215
 20
1059.241178
 42
-0.019184
  0
VERTEX
  8
0
 10
911.378941
 20
1068.283861
 42
-0.016371
  0
VERTEX
  8
0
 10
914.313124
 20
1078.951744
 42
-0.010357
  0
VERTEX
  8
0
 10
918.395172
 20
1091.193292
 42
-0.013478
  0
VERTEX
  8
0
 10
927.626122
 20
1115.025979
 42
-0.018683
  0
VERTEX
  8
0
 10
937.256631
 20
1135.813529
 42
-0.018556
  0
VERTEX
  8
0
 10
948.465412
 20
1155.931751
 42
-0.013027
  0
VERTEX
  8
0
 10
962.489598
 20
1177.740666
 42
-0.001261
  0
VERTEX
  8
0
 10
982.259393
 20
1206.635150
 42
-0.015505
  0
VERTEX
  8
0
 10
990.167781
 20
1217.400614
 42
-0.027612
  0
VERTEX
  8
0
 10
997.251671
 20
1225.480761
 42
-0.008190
  0
VERTEX
  8
0
 10
1008.946080
 20
1237.036033
 42
-0.003199
  0
VERTEX
  8
0
 10
1019.715203
 20
1247.202838
 42
-0.024233
  0
VERTEX
  8
0
 10
1025.050799
 20
1251.713231
 42
-0.038703
  0
VERTEX
  8
0
 10
1029.791942
 20
1254.792166
 42
-0.015560
  0
VERTEX
  8
0
 10
1036.694410
 20
1258.276466
 42
-0.008707
  0
VERTEX
  8
0
 10
1045.665030
 20
1262.271114
 42
-0.005856
  0
VERTEX
  8
0
 10
1056.040546
 20
1266.533801
 42
-0.002696
  0
VERTEX
  8
0
 10
1066.063554
 20
1270.452683
 42
-0.085277
  0
VERTEX
  8
0
 10
1068.647852
 20
1270.968960
 42
-0.394648
  0
VERTEX
  8
0
 10
1069.072981
 20
1270.592518
 42
-0.048490
  0
VERTEX
  8
0
 10
1069.069437
 20
1269.233748
 42
-0.029317
  0
VERTEX
  8
0
 10
1068.717794
 20
1267.028533
 42
-0.008510
  0
SEQEND
  0
POLYLINE
  8
0
 66
1
 70
1
  0
VERTEX
  8
0
 10
823.632800
 20
1186.001474
 42
-0.001222
  0
VERTEX
  8
0
 10
828.356415
 20
1160.568144
 42
-0.006224
  0
VERTEX
  8
0
 10
830.773432
 20
1146.380570
 42
-0.009060
  0
VERTEX
  8
0
 10
832.402425
 20
1134.666260
 42
-0.004791
  0
VERTEX
  8
0
 10
834.019918
 20
1120.084366
 42
0.001340
  0
VERTEX
  8
0
 10
834.837781
 20
1112.216007
 42
0.002136
  0
VERTEX
  8
0
 10
835.583744
 20
1105.494167
 42
0.000426
  0
VERTEX
  8
0
 10
836.270665
 20
1099.580970
 42
0.107638
  0
VERTEX
  8
0
 10
836.441292
 20
1099.084366
 42
-0.271495
  0
VERTEX
  8
0
 10
836.447830
 20
1098.654072
 42
-0.005028
  0
VERTEX
  8
0
 10
835.266799
 20
1096.615408
 42
-0.010857
  0
VERTEX
  8
0
 10
833.778889
 20
1094.225414
 42
-0.006860
  0
VERTEX
  8
0
 10
831.945081
 20
1091.500000
 42
0.003487
  0
VERTEX
  8
0
 10
821.092238
 20
1075.603048
 42
0.009840
  0
VERTEX
  8
0
 10
813.808126
 20
1064.297837
 42
0.012632
  0
VERTEX
  8
0
 10
808.067014
 20
1054.441263
 42
0.010241
  0
VERTEX
  8
0
 10
802.399037
 20
1043.598683
 42
0.000000
  0
VERTEX
  8
0
 10
794.000000
 20
1026.697366
 42
0.000000
  0
VERTEX
  8
0
 10
794.000000
 20
1018.348683
 42
0.000000
  0
VERTEX
  8
0
 10
794.000000
 20
1010.000000
 42
0.000000
  0
VERTEX
  8
0
 10
789.087536
 20
1010.000000
 42
0.000000
  0
VERTEX
  8
0
 10
784.175073
 20
1010.000000
 42
0.000000
  0
VERTEX
  8
0
 10
781.026413
 20
1001.754496
 42
0.007946
  0
VERTEX
  8
0
 10
778.091763
 20
993.687000
 42
0.006093
  0
VERTEX
  8
0
 10
775.133383
 20
984.783804
 42
0.006168
  0
VERTEX
  8
0
 10
772.566476
 20
976.375150
 42
0.014346
  0
VERTEX
  8
0
 10
770.902873
 20
970.000000
 42
-0.007366
  0
VERTEX
  8
0
 10
770.370605
 20
967.837152
 42
-0.009798
  0
VERTEX
  8
0
 10
769.819579
 20
965.888860
 42
-0.007409
  0
VERTEX
  8
0
 10
769.305633
 20
964.284633
 42
-0.091991
  0
VERTEX
  8
0
 10
768.995520
 20
963.728034
 42
-0.553442
  0
VERTEX
  8
0
 10
767.283073
 20
963.955318
 42
-0.002364
  0
VERTEX
  8
0
 10
758.030174
 20
984.501000
 42
-0.008596
  0
VERTEX
  8
0
 10
749.443497
 20
1004.740852
 42
-0.017843
  0
VERTEX
  8
0
 10
743.587958
 20
1020.864361
 42
-0.019351
  0
VERTEX
  8
0
 10
736.417972
 20
1046.376254
 42
-0.020716
  0
VERTEX
  8
0
 10
731.427757
 20
1071.795018
 42
-0.020390
  0
VERTEX
  8
0
 10
728.500054
 20
1097.907018
 42
-0.017578
  0
VERTEX
  8
0
 10
727.513799
 20
1125.500000
 42
0.000000
  0
VERTEX
  8
0
 10
727.500000
 20
1149.500000
 42
0.000000
  0
VERTEX
  8
0
 10
730.881896
 20
1156.000000
 42
-0.008498
  0
VERTEX
  8
0
 10
732.745395
 20
1159.437671
 42
-0.002264
  0
VERTEX
  8
0
 10
735.831841
 20
1164.850000
 42
-0.002295
  0
VERTEX
  8
0
 10
739.397269
 20
1170.971877
 42
-0.002364
  0
VERTEX
  8
0
 10
742.983729
 20
1177.000000
 42
0.001028
  0
VERTEX
  8
0
 10
746.493241
 20
1182.863073
 42
0.001173
  0
VERTEX
  8
0
 10
749.827327
 20
1188.489110
 42
0.001060
  0
VERTEX
  8
0
 10
752.636340
 20
1193.277743
 42
0.006621
  0
VERTEX
  8
0
 10
754.036065
 20
1195.750163
 42
0.000000
  0
VERTEX
  8
0
 10
756.368465
 20
1200.000325
 42
0.000000
  0
VERTEX
  8
0
 10
761.104568
 20
1185.750163
 42
0.002139
  0
VERTEX
  8
0
 10
767.157965
 20
1167.793527
 42
0.003689
  0
VERTEX
  8
0
 10
772.369777
 20
1152.908799
 42
0.001568
  0
VERTEX
  8
0
 10
776.842288
 20
1140.553520
 42
0.085777
  0
VERTEX
  8
0
 10
778.072801
 20
1138.412280
 42
0.140985
  0
VERTEX
  8
0
 10
779.029129
 20
1137.760898
 42
0.040138
  0
VERTEX
  8
0
 10
780.793636
 20
1137.333596
 42
0.028714
  0
VERTEX
  8
0
 10
783.352148
 20
1137.077029
 42
0.010634
  0
VERTEX
  8
0
 10
786.973594
 20
1137.000000
 42
0.000000
  0
VERTEX
  8
0
 10
794.702299
 20
1137.000000
 42
0.000000
  0
VERTEX
  8
0
 10
799.776541
 20
1147.901543
 42
0.017526
  0
VERTEX
  8
0
 10
805.237432
 20
1160.796616
 42
0.023702
  0
VERTEX
  8
0
 10
809.196680
 20
1172.818648
 42
0.023718
  0
VERTEX
  8
0
 10
811.998435
 20
1185.154998
 42
0.017587
  0
VERTEX
  8
0
 10
813.959806
 20
1199.000000
 42
-0.001908
  0
VERTEX
  8
0
 10
814.429441
 20
1203.276587
 42
-0.002057
  0
VERTEX
  8
0
 10
814.920536
 20
1207.443750
 42
-0.001941
  0
VERTEX
  8
0
 10
815.370548
 20
1211.016317
 42
-0.009856
  0
VERTEX
  8
0
 10
815.668115
 20
1213.000000
 42
0.000000
  0
VERTEX
  8
0
 10
816.263903
 20
1216.500000
 42
0.000000
  0
VERTEX
  8
0
 10
817.736229
 20
1213.001474
 42
-0.042963
  0
VERTEX
  8
0
 10
818.506999
 20
1210.615582
 42
-0.002895
  0
VERTEX
  8
0
 10
820.075681
 20
1203.627082
 42
-0.004143
  0
VERTEX
  8
0
 10
821.830856
 20
1195.258165
 42
-0.003092
  0
SEQEND
  0
POLYLINE
  8
0
 66
1
 70
1
  0
VERTEX
  8
0
 10
1176.000000
 20
1062.050015
 42
-0.104694
  0
VERTEX
  8
0
 10
1175.495390
 20
1059.666497
 42
-0.003327
  0
VERTEX
  8
0
 10
1171.405325
 20
1050.603032
 42
-0.007129
  0
VERTEX
  8
0
 10
1167.180593
 20
1041.740269
 42
-0.018390
  0
VERTEX
  8
0
 10
1163.808138
 20
1035.505732
 42
-0.010393
  0
VERTEX
  8
0
 10
1161.839063
 20
1032.318568
 42
-0.005732
  0
VERTEX
  8
0
 10
1159.307347
 20
1028.501684
 42
-0.005712
  0
VERTEX
  8
0
 10
1156.650594
 20
1024.688695
 42
-0.009126
  0
VERTEX
  8
0
 10
1154.285254
 20
1021.500000
 42
-0.014757
  0
VERTEX
  8
0
 10
1147.170904
 20
1012.809291
 42
-0.006423
  0
VERTEX
  8
0
 10
1137.238819
 20
1001.674013
 42
-0.006231
  0
VERTEX
  8
0
 10
1127.245427
 20
991.025188
 42
-0.019802
  0
VERTEX
  8
0
 10
1120.203846
 20
984.264101
 42
-0.010103
  0
VERTEX
  8
0
 10
1112.655446
 20
977.837803
 42
-0.006115
  0
VERTEX
  8
0
 10
1103.475761
 20
970.522640
 42
-0.005251
  0
VERTEX
  8
0
 10
1094.760869
 20
963.896070
 42
-0.030213
  0
VERTEX
  8
0
 10
1089.911637
 20
960.724571
 42
0.000000
  0
VERTEX
  8
0
 10
1086.015404
 20
958.500000
 42
0.000000
  0
VERTEX
  8
0
 10
1086.007702
 20
949.904988
 42
0.023655
  0
VERTEX
  8
0
 10
1086.347209
 20
942.594037
 42
0.179265
  0
VERTEX
  8
0
 10
1087.819155
 20
939.534921
 42
0.180462
  0
VERTEX
  8
0
 10
1090.923206
 20
938.184012
 42
0.024032
  0
VERTEX
  8
0
 10
1098.194642
 20
938.145110
 42
0.011062
  0
VERTEX
  8
0
 10
1102.461983
 20
938.422138
 42
0.031932
  0
VERTEX
  8
0
 10
1105.390176
 20
938.867063
 42
0.045054
  0
VERTEX
  8
0
 10
1107.599042
 20
939.561692
 42
0.054589
  0
VERTEX
  8
0
 10
1109.500000
 20
940.609584
 42
-0.057523
  0
VERTEX
  8
0
 10
1111.248715
 20
941.560259
 42
-0.022208
  0
VERTEX
  8
0
 10
1113.856661
 20
942.478743
 42
-0.020090
  0
VERTEX
  8
0
 10
1117.009109
 20
943.297273
 42
-0.015528
  0
VERTEX
  8
0
 10
1120.500000
 20
943.942659
 42
-0.015551
  0
VERTEX
  8
0
 10
1125.476472
 20
944.546060
 42
-0.038524
  0
VERTEX
  8
0
 10
1129.146672
 20
944.592138
 42
-0.029057
  0
VERTEX
  8
0
 10
1133.338124
 20
944.075879
 42
-0.005827
  0
VERTEX
  8
0
 10
1140.727572
 20
942.637084
 42
-0.016281
  0
VERTEX
  8
0
 10
1153.036239
 20
939.670360
 42
-0.014331
  0
VERTEX
  8
0
 10
1165.666854
 20
935.794572
 42
-0.014364
  0
VERTEX
  8
0
 10
1178.021212
 20
931.213029
 42
-0.016602
  0
VERTEX
  8
0
 10
1189.500000
 20
926.127491
 42
-0.008808
  0
VERTEX
  8
0
 10
1197.828308
 20
921.919340
 42
-0.011052
  0
VERTEX
  8
0
 10
1205.387560
 20
917.714956
 42
-0.007785
  0
VERTEX
  8
0
 10
1211.630015
 20
913.928304
 42
-0.114597
  0
VERTEX
  8
0
 10
1213.426794
 20
912.118449
 42
-0.485906
  0
VERTEX
  8
0
 10
1212.646709
 20
909.988296
 42
-0.009336
  0
VERTEX
  8
0
 10
1199.772802
 20
906.055739
 42
-0.016780
  0
VERTEX
  8
0
 10
1184.682589
 20
902.295091
 42
-0.015589
  0
VERTEX
  8
0
 10
1169.000000
 20
899.449390
 42
-0.025271
  0
VERTEX
  8
0
 10
1160.157399
 20
898.581844
 42
-0.035870
  0
VERTEX
  8
0
 10
1152.260810
 20
898.774907
 42
-0.025195
  0
VERTEX
  8
0
 10
1142.638563
 20
900.195069
 42
-0.006408
  0
VERTEX
  8
0
 10
1127.202157
 20
903.480861
 42
-0.009913
  0
VERTEX
  8
0
 10
1113.406273
 20
906.891637
 42
-0.018071
  0
VERTEX
  8
0
 10
1102.316942
 20
910.301726
 42
-0.020179
  0
VERTEX
  8
0
 10
1092.374109
 20
914.213449
 42
-0.016933
  0
VERTEX
  8
0
 10
1082.167998
 20
919.131460
 42
0.000000
  0
VERTEX
  8
0
 10
1070.835996
 20
925.072881
 42
0.000000
  0
VERTEX
  8
0
 10
1061.667998
 20
924.786441
 42
0.000000
  0
VERTEX
  8
0
 10
1052.500000
 20
924.500000
 42
0.000000
  0
VERTEX
  8
0
 10
1052.213051
 20
915.886034
 42
0.000000
  0
VERTEX
  8
0
 10
1051.926102
 20
907.272067
 42
0.000000
  0
VERTEX
  8
0
 10
1055.351293
 20
904.264711
 42
0.046017
  0
VERTEX
  8
0
 10
1060.123171
 20
900.795946
 42
0.011970
  0
VERTEX
  8
0
 10
1068.399121
 20
896.137808
 42
0.012746
  0
VERTEX
  8
0
 10
1077.325512
 20
891.679301
 42
0.023880
  0
VERTEX
  8
0
 10
1084.787891
 20
888.611986
 42
0.014751
  0
VERTEX
  8
0
 10
1092.227398
 20
886.206459
 42
0.008253
  0
VERTEX
  8
0
 10
1101.403009
 20
883.699308
 42
0.007522
  0
VERTEX
  8
0
 10
1111.799898
 20
881.208042
 42
0.006131
  0
VERTEX
  8
0
 10
1123.000000
 20
878.845663
 42
0.013466
  0
VERTEX
  8
0
 10
1130.085879
 20
877.638909
 42
0.018600
  0
VERTEX
  8
0
 10
1136.501631
 20
876.965628
 42
0.013105
  0
VERTEX
  8
0
 10
1144.438743
 20
876.638799
 42
0.003369
  0
VERTEX
  8
0
 10
1157.272313
 20
876.533468
 42
0.000000
  0
VERTEX
  8
0
 10
1180.044626
 20
876.500000
 42
0.000000
  0
VERTEX
  8
0
 10
1184.035660
 20
866.167937
 42
-0.025166
  0
VERTEX
  8
0
 10
1193.588697
 20
837.175712
 42
-0.015808
  0
VERTEX
  8
0
 10
1201.947285
 20
802.473932
 42
-0.013729
  0
VERTEX
  8
0
 10
1209.214624
 20
761.914949
 42
-0.009087
  0
VERTEX
  8
0
 10
1215.427825
 20
715.000000
 42
-0.010329
  0
VERTEX
  8
0
 10
1219.074654
 20
675.831612
 42
-0.026982
  0
VERTEX
  8
0
 10
1219.589923
 20
647.571124
 42
-0.025611
  0
VERTEX
  8
0
 10
1217.064557
 20
618.594196
 42
-0.008529
  0
VERTEX
  8
0
 10
1210.478521
 20
576.500000
 42
-0.002333
  0
VERTEX
  8
0
 10
1206.586879
 20
554.734016
 42
-0.008483
  0
VERTEX
  8
0
 10
1203.816099
 20
540.963287
 42
-0.013209
  0
VERTEX
  8
0
 10
1201.437194
 20
531.323214
 42
-0.026784
  0
VERTEX
  8
0
 10
1198.966391
 20
523.914733
 42
0.009776
  0
VERTEX
  8
0
 10
1198.213559
 20
521.889603
 42
0.011274
  0
VERTEX
  8
0
 10
1197.577627
 20
519.930113
 42
0.010410
  0
VERTEX
  8
0
 10
1197.112538
 20
518.252541
 42
0.062488
  0
VERTEX
  8
0
 10
1197.000000
 20
517.355582
 42
-0.129975
  0
VERTEX
  8
0
 10
1196.455272
 20
515.295477
 42
-0.001447
  0
VERTEX
  8
0
 10
1189.239798
 20
502.690369
 42
-0.005030
  0
VERTEX
  8
0
 10
1181.762545
 20
490.011729
 42
-0.007216
  0
VERTEX
  8
0
 10
1174.863337
 20
478.942036
 42
0.009647
  0
VERTEX
  8
0
 10
1171.898551
 20
474.133146
 42
0.055004
  0
VERTEX
  8
0
 10
1170.667188
 20
471.399969
 42
0.063324
  0
VERTEX
  8
0
 10
1170.143217
 20
468.629412
 42
0.015185
  0
VERTEX
  8
0
 10
1170.002242
 20
463.942036
 42
0.000000
  0
VERTEX
  8
0
 10
1170.004485
 20
456.500000
 42
0.000000
  0
VERTEX
  8
0
 10
1160.703128
 20
456.813905
 42
0.000000
  0
VERTEX
  8
0
 10
1151.401770
 20
457.127810
 42
0.000000
  0
VERTEX
  8
0
 10
1146.981502
 20
450.083288
 42
-0.010946
  0
VERTEX
  8
0
 10
1144.996097
 20
447.067860
 42
-0.030878
  0
VERTEX
  8
0
 10
1143.438144
 20
445.084709
 42
-0.045435
  0
VERTEX
  8
0
 10
1142.255296
 20
443.977552
 42
-0.378388
  0
VERTEX
  8
0
 10
1141.580616
 20
444.019384
 42
0.161995
  0
VERTEX
  8
0
 10
1140.807491
 20
444.406478
 42
0.010742
  0
VERTEX
  8
0
 10
1138.306043
 20
444.711944
 42
0.014635
  0
VERTEX
  8
0
 10
1135.248774
 20
444.928647
 42
0.010374
  0
VERTEX
  8
0
 10
1131.810169
 20
445.000000
 42
0.017082
  0
VERTEX
  8
0
 10
1126.345710
 20
444.813255
 42
0.038700
  0
VERTEX
  8
0
 10
1122.255713
 20
444.213161
 42
0.027835
  0
VERTEX
  8
0
 10
1117.565469
 20
442.871061
 42
0.005381
  0
VERTEX
  8
0
 10
1109.260169
 20
439.885260
 42
0.002854
  0
VERTEX
  8
0
 10
1103.525356
 20
437.716260
 42
0.002651
  0
VERTEX
  8
0
 10
1097.672957
 20
435.428819
 42
0.002643
  0
VERTEX
  8
0
 10
1092.489838
 20
433.339440
 42
0.008936
  0
VERTEX
  8
0
 10
1089.137131
 20
431.896798
 42
-0.009966
  0
VERTEX
  8
0
 10
1086.756008
 20
430.878027
 42
-0.022925
  0
VERTEX
  8
0
 10
1084.918269
 20
430.231030
 42
-0.046174
  0
VERTEX
  8
0
 10
1083.850443
 20
430.014143
 42
-0.657323
  0
VERTEX
  8
0
 10
1083.710142
 20
430.261538
 42
0.027651
  0
VERTEX
  8
0
 10
1089.876051
 20
439.433964
 42
0.013858
  0
VERTEX
  8
0
 10
1096.683195
 20
451.636765
 42
0.013861
  0
VERTEX
  8
0
 10
1102.837274
 20
464.266740
 42
0.026217
  0
VERTEX
  8
0
 10
1106.966072
 20
474.809623
 42
0.006940
  0
VERTEX
  8
0
 10
1110.600432
 20
486.275236
 42
0.003473
  0
VERTEX
  8
0
 10
1114.893088
 20
500.865807
 42
0.003290
  0
VERTEX
  8
0
 10
1118.829471
 20
514.946132
 42
0.011836
  0
VERTEX
  8
0
 10
1121.067706
 20
524.000000
 42
0.027417
  0
VERTEX
  8
0
 10
1122.345442
 20
531.727750
 42
0.020433
  0
VERTEX
  8
0
 10
1122.934286
 20
540.351128
 42
0.014347
  0
VERTEX
  8
0
 10
1122.923501
 20
548.198929
 42
0.191110
  0
VERTEX
  8
0
 10
1121.800000
 20
550.800000
 42
0.146361
  0
VERTEX
  8
0
 10
1120.845333
 20
551.315035
 42
0.020708
  0
VERTEX
  8
0
 10
1118.617824
 20
551.680616
 42
0.019886
  0
VERTEX
  8
0
 10
1115.652761
 20
551.922787
 42
0.010432
  0
VERTEX
  8
0
 10
1111.952512
 20
552.000000
 42
0.000000
  0
VERTEX
  8
0
 10
1103.305025
 20
552.000000
 42
0.000000
  0
VERTEX
  8
0
 10
1096.519741
 20
541.750000
 42
-0.005189
  0
VERTEX
  8
0
 10
1089.525199
 20
531.418437
 42
-0.008981
  0
VERTEX
  8
0
 10
1083.470406
 20
522.999106
 42
-0.008921
  0
VERTEX
  8
0
 10
1077.089246
 20
514.764651
 42
-0.005039
  0
VERTEX
  8
0
 10
1069.076178
 20
505.000000
 42
0.020407
  0
VERTEX
  8
0
 10
1055.892213
 20
487.887840
 42
0.023215
  0
VERTEX
  8
0
 10
1044.740085
 20
470.459344
 42
0.024618
  0
VERTEX
  8
0
 10
1035.859564
 20
453.130683
 42
0.031261
  0
VERTEX
  8
0
 10
1029.496441
 20
436.320029
 42
-0.001791
  0
VERTEX
  8
0
 10
1024.207284
 20
419.397502
 42
-0.007317
  0
VERTEX
  8
0
 10
1020.808260
 20
409.179856
 42
-0.010950
  0
VERTEX
  8
0
 10
1018.316773
 20
402.513756
 42
-0.047750
  0
VERTEX
  8
0
 10
1016.392175
 20
398.771440
 42
0.036972
  0
VERTEX
  8
0
 10
1015.171267
 20
396.518002
 42
0.052402
  0
VERTEX
  8
0
 10
1014.459000
 20
394.353494
 42
0.040260
  0
VERTEX
  8
0
 10
1014.103760
 20
391.692628
 42
0.013062
  0
VERTEX
  8
0
 10
1014.000000
 20
387.721440
 42
0.013377
  0
VERTEX
  8
0
 10
1014.081520
 20
384.674959
 42
0.021602
  0
VERTEX
  8
0
 10
1014.331951
 20
382.093349
 42
0.022025
  0
VERTEX
  8
0
 10
1014.703986
 20
380.093678
 42
0.140261
  0
VERTEX
  8
0
 10
1015.200000
 20
379.200000
 42
0.141834
  0
VERTEX
  8
0
 10
1016.109557
 20
378.698835
 42
0.021747
  0
VERTEX
  8
0
 10
1018.164228
 20
378.328483
 42
0.021184
  0
VERTEX
  8
0
 10
1020.839443
 20
378.080356
 42
0.012532
  0
VERTEX
  8
0
 10
1024.045012
 20
378.000000
 42
0.009202
  0
VERTEX
  8
0
 10
1028.283820
 20
378.078021
 42
0.045277
  0
VERTEX
  8
0
 10
1030.654144
 20
378.381407
 42
0.079362
  0
VERTEX
  8
0
 10
1032.248027
 20
379.010985
 42
0.075808
  0
VERTEX
  8
0
 10
1033.595012
 20
380.113454
 42
-0.017219
  0
VERTEX
  8
0
 10
1034.832974
 20
381.395253
 42
-0.001797
  0
VERTEX
  8
0
 10
1037.849656
 20
384.289941
 42
-0.002229
  0
VERTEX
  8
0
 10
1041.471979
 20
387.710185
 42
-0.001783
  0
VERTEX
  8
0
 10
1045.403816
 20
391.363454
 42
-0.002725
  0
VERTEX
  8
0
 10
1050.863289
 20
396.345161
 42
-0.031897
  0
VERTEX
  8
0
 10
1053.121211
 20
398.135662
 42
-0.522817
  0
VERTEX
  8
0
 10
1053.630443
 20
397.945850
 42
-0.182340
  0
VERTEX
  8
0
 10
1053.525806
 20
397.000000
 42
-0.034302
  0
VERTEX
  8
0
 10
1052.601115
 20
395.455535
 42
-0.018962
  0
VERTEX
  8
0
 10
1051.276870
 20
393.698926
 42
-0.018832
  0
VERTEX
  8
0
 10
1049.793305
 20
392.012700
 42
-0.028660
  0
VERTEX
  8
0
 10
1048.371990
 20
390.677196
 42
0.032188
  0
VERTEX
  8
0
 10
1046.357698
 20
388.757606
 42
0.109372
  0
VERTEX
  8
0
 10
1045.450422
 20
387.199276
 42
0.069425
  0
VERTEX
  8
0
 10
1045.078936
 20
385.044594
 42
0.008026
  0
VERTEX
  8
0
 10
1045.000000
 20
380.127196
 42
0.012332
  0
VERTEX
  8
0
 10
1045.080073
 20
376.881172
 42
0.021077
  0
VERTEX
  8
0
 10
1045.327648
 20
374.182185
 42
0.021671
  0
VERTEX
  8
0
 10
1045.697585
 20
372.113479
 42
0.142224
  0
VERTEX
  8
0
 10
1046.200000
 20
371.200000
 42
0.142806
  0
VERTEX
  8
0
 10
1047.119309
 20
370.695744
 42
0.021553
  0
VERTEX
  8
0
 10
1049.209214
 20
370.326423
 42
0.020915
  0
VERTEX
  8
0
 10
1051.944027
 20
370.079655
 42
0.012042
  0
VERTEX
  8
0
 10
1055.251059
 20
370.000000
 42
0.017094
  0
VERTEX
  8
0
 10
1060.132362
 20
370.166934
 42
0.050392
  0
VERTEX
  8
0
 10
1063.438705
 20
370.731324
 42
0.039241
  0
VERTEX
  8
0
 10
1066.987741
 20
372.019630
 42
0.007359
  0
VERTEX
  8
0
 10
1073.242841
 20
374.974884
 42
-0.002627
  0
VERTEX
  8
0
 10
1077.147961
 20
376.865284
 42
-0.004317
  0
VERTEX
  8
0
 10
1080.474274
 20
378.418849
 42
-0.000792
  0
VERTEX
  8
0
 10
1083.406370
 20
379.751974
 42
-0.312226
  0
VERTEX
  8
0
 10
1083.620320
 20
379.713013
 42
-0.445864
  0
VERTEX
  8
0
 10
1083.587067
 20
379.091136
 42
-0.000502
  0
VERTEX
  8
0
 10
1072.156301
 20
369.893681
 42
-0.003955
  0
VERTEX
  8
0
 10
1060.282022
 20
360.512532
 42
-0.003963
  0
VERTEX
  8
0
 10
1048.268427
 20
351.326537
 42
-0.005288
  0
VERTEX
  8
0
 10
1035.140277
 20
341.667881
 42
-0.007709
  0
VERTEX
  8
0
 10
1023.352797
 20
333.459039
 42
-0.008642
  0
VERTEX
  8
0
 10
1013.364710
 20
326.977667
 42
-0.024073
  0
VERTEX
  8
0
 10
1006.071754
 20
322.896469
 42
-0.012597
  0
VERTEX
  8
0
 10
999.408608
 20
319.785106
 42
-0.213881
  0
VERTEX
  8
0
 10
997.044114
 20
319.808148
 42
-0.185685
  0
VERTEX
  8
0
 10
995.313449
 20
321.584216
 42
-0.009165
  0
VERTEX
  8
0
 10
992.173554
 20
329.289942
 42
-0.009333
  0
VERTEX
  8
0
 10
988.962134
 20
338.089341
 42
-0.003342
  0
VERTEX
  8
0
 10
984.702949
 20
350.747007
 42
-0.001037
  0
VERTEX
  8
0
 10
980.351009
 20
364.065045
 42
-0.078601
  0
VERTEX
  8
0
 10
980.000000
 20
366.284103
 42
-0.368660
  0
VERTEX
  8
0
 10
980.242589
 20
366.568401
 42
-0.011549
  0
VERTEX
  8
0
 10
981.873201
 20
366.789705
 42
-0.017416
  0
VERTEX
  8
0
 10
983.931933
 20
366.948477
 42
-0.010536
  0
VERTEX
  8
0
 10
986.376856
 20
367.000000
 42
0.000000
  0
VERTEX
  8
0
 10
992.753712
 20
367.000000
 42
0.000000
  0
VERTEX
  8
0
 10
994.862081
 20
371.901036
 42
-0.027749
  0
VERTEX
  8
0
 10
995.975758
 20
374.139052
 42
-0.013884
  0
VERTEX
  8
0
 10
997.615091
 20
376.843177
 42
-0.013740
  0
VERTEX
  8
0
 10
999.471570
 20
379.555409
 42
-0.019717
  0
VERTEX
  8
0
 10
1001.273342
 20
381.843040
 42
0.053224
  0
VERTEX
  8
0
 10
1004.871259
 20
387.099570
 42
0.010442
  0
VERTEX
  8
0
 10
1010.095422
 20
397.308221
 42
0.011766
  0
VERTEX
  8
0
 10
1015.185863
 20
408.449388
 42
0.020116
  0
VERTEX
  8
0
 10
1018.833420
 20
418.000000
 42
0.082429
  0
VERTEX
  8
0
 10
1020.837703
 20
430.411048
 42
0.005765
  0
VERTEX
  8
0
 10
1020.274609
 20
465.807183
 42
0.003434
  0
VERTEX
  8
0
 10
1019.010673
 20
502.637251
 42
0.175363
  0
VERTEX
  8
0
 10
1016.330923
 20
509.186828
 42
0.096925
  0
VERTEX
  8
0
 10
1015.118872
 20
510.092999
 42
0.064706
  0
VERTEX
  8
0
 10
1013.468797
 20
510.638910
 42
0.038097
  0
VERTEX
  8
0
 10
1010.993460
 20
510.922618
 42
0.009490
  0
VERTEX
  8
0
 10
1006.916861
 20
511.000000
 42
0.000000
  0
VERTEX
  8
0
 10
999.143698
 20
511.000000
 42
0.000000
  0
VERTEX
  8
0
 10
997.179843
 20
505.750000
 42
0.018195
  0
VERTEX
  8
0
 10
993.294801
 20
494.087727
 42
0.004501
  0
VERTEX
  8
0
 10
987.797944
 20
474.693029
 42
0.004703
  0
VERTEX
  8
0
 10
982.600778
 20
454.979486
 42
0.014426
  0
VERTEX
  8
0
 10
979.593390
 20
441.500000
 42
0.017858
  0
VERTEX
  8
0
 10
978.207228
 20
432.625907
 42
0.008918
  0
VERTEX
  8
0
 10
977.056513
 20
421.316899
 42
0.008631
  0
VERTEX
  8
0
 10
976.248204
 20
409.144149
 42
0.009912
  0
VERTEX
  8
0
 10
975.907847
 20
397.500000
 42
0.000000
  0
VERTEX
  8
0
 10
975.795059
 20
385.500000
 42
0.000000
  0
VERTEX
  8
0
 10
974.468198
 20
391.500000
 42
-0.009212
  0
VERTEX
  8
0
 10
973.909742
 20
394.266079
 42
-0.005164
  0
VERTEX
  8
0
 10
973.327790
 20
397.646875
 42
-0.005151
  0
VERTEX
  8
0
 10
972.810135
 20
401.075834
 42
-0.008363
  0
VERTEX
  8
0
 10
972.449212
 20
404.000000
 42
0.012138
  0
VERTEX
  8
0
 10
972.110920
 20
406.580407
 42
0.015115
  0
VERTEX
  8
0
 10
971.666358
 20
408.957812
 42
0.013407
  0
VERTEX
  8
0
 10
971.184529
 20
410.910669
 42
0.101979
  0
VERTEX
  8
0
 10
970.756099
 20
411.750000
 42
0.166147
  0
VERTEX
  8
0
 10
969.879073
 20
412.307563
 42
0.026619
  0
VERTEX
  8
0
 10
967.854127
 20
412.683945
 42
0.022781
  0
VERTEX
  8
0
 10
965.020823
 20
412.925346
 42
0.009861
  0
VERTEX
  8
0
 10
961.235714
 20
413.000000
 42
0.000000
  0
VERTEX
  8
0
 10
952.716317
 20
413.000000
 42
0.000000
  0
VERTEX
  8
0
 10
953.284222
 20
397.250000
 42
0.030278
  0
VERTEX
  8
0
 10
955.770822
 20
371.583167
 42
0.025281
  0
VERTEX
  8
0
 10
961.418228
 20
344.780546
 42
0.024940
  0
VERTEX
  8
0
 10
969.852214
 20
318.276773
 42
0.027130
  0
VERTEX
  8
0
 10
980.685922
 20
293.500000
 42
0.016035
  0
VERTEX
  8
0
 10
988.180444
 20
279.732872
 42
0.019804
  0
VERTEX
  8
0
 10
996.065096
 20
267.436729
 42
0.020369
  0
VERTEX
  8
0
 10
1004.695772
 20
256.095877
 42
0.018913
  0
VERTEX
  8
0
 10
1014.427857
 20
245.200765
 42
-0.004349
  0
VERTEX
  8
0
 10
1018.709780
 20
240.679334
 42
-0.026232
  0
VERTEX
  8
0
 10
1020.784907
 20
238.200848
 42
-0.168059
  0
VERTEX
  8
0
 10
1021.088008
 20
237.259780
 42
-0.518294
  0
VERTEX
  8
0
 10
1020.629497
 20
236.950765
 42
0.065534
  0
VERTEX
  8
0
 10
1018.895433
 20
237.361253
 42
0.008155
  0
VERTEX
  8
0
 10
1015.027709
 20
237.691787
 42
0.009500
  0
VERTEX
  8
0
 10
1010.398335
 20
237.923194
 42
0.007737
  0
VERTEX
  8
0
 10
1005.434900
 20
238.000000
 42
0.000000
  0
VERTEX
  8
0
 10
993.000000
 20
238.000000
 42
0.000000
  0
VERTEX
  8
0
 10
993.000000
 20
230.122445
 42
0.016915
  0
VERTEX
  8
0
 10
993.195594
 20
224.342542
 42
0.130359
  0
VERTEX
  8
0
 10
994.057809
 20
221.799709
 42
0.162244
  0
VERTEX
  8
0
 10
995.987094
 20
220.293255
 42
0.030209
  0
VERTEX
  8
0
 10
1000.365484
 20
219.030146
 42
-0.036246
  0
VERTEX
  8
0
 10
1005.215906
 20
217.567271
 42
-0.028109
  0
VERTEX
  8
0
 10
1010.249854
 20
215.309677
 42
-0.028101
  0
VERTEX
  8
0
 10
1015.000468
 20
212.500788
 42
-0.036153
  0
VERTEX
  8
0
 10
1018.999622
 20
209.381377
 42
-0.055437
  0
VERTEX
  8
0
 10
1022.190133
 20
205.782500
 42
-0.026717
  0
VERTEX
  8
0
 10
1025.473858
 20
200.558123
 42
-0.026722
  0
VERTEX
  8
0
 10
1028.189419
 20
194.997459
 42
-0.053904
  0
VERTEX
  8
0
 10
1029.597206
 20
190.333538
 42
-0.108805
  0
VERTEX
  8
0
 10
1029.503556
 20
187.343645
 42
-0.107513
  0
VERTEX
  8
0
 10
1028.163921
 20
184.655145
 42
-0.063127
  0
VERTEX
  8
0
 10
1025.157837
 20
181.750535
 42
-0.015874
  0
VERTEX
  8
0
 10
1019.565782
 20
177.838804
 42
0.000000
  0
VERTEX
  8
0
 10
1013.631563
 20
173.962277
 42
0.000000
  0
VERTEX
  8
0
 10
1011.980385
 20
179.231139
 42
0.029099
  0
VERTEX
  8
0
 10
1009.314840
 20
186.272773
 42
0.031545
  0
VERTEX
  8
0
 10
1005.910321
 20
192.762708
 42
0.030412
  0
VERTEX
  8
0
 10
1001.597838
 20
198.972572
 42
0.023702
  0
VERTEX
  8
0
 10
996.208255
 20
205.177449
 42
0.012824
  0
VERTEX
  8
0
 10
992.890639
 20
208.476279
 42
0.011584
  0
VERTEX
  8
0
 10
989.296117
 20
211.717401
 42
0.011693
  0
VERTEX
  8
0
 10
985.941050
 20
214.470660
 42
0.035770
  0
VERTEX
  8
0
 10
983.500507
 20
216.112879
 42
0.026841
  0
VERTEX
  8
0
 10
980.277696
 20
217.738301
 42
0.058250
  0
VERTEX
  8
0
 10
977.630315
 20
218.548776
 42
0.038494
  0
VERTEX
  8
0
 10
974.251929
 20
218.900597
 42
0.006486
  0
VERTEX
  8
0
 10
967.750000
 20
218.990616
 42
0.000000
  0
VERTEX
  8
0
 10
957.000000
 20
219.000000
 42
0.000000
  0
VERTEX
  8
0
 10
957.000000
 20
211.154988
 42
0.022720
  0
VERTEX
  8
0
 10
957.265181
 20
205.322044
 42
0.129808
  0
VERTEX
  8
0
 10
958.316287
 20
202.433875
 42
0.136807
  0
VERTEX
  8
0
 10
960.629159
 20
200.518505
 42
0.026267
  0
VERTEX
  8
0
 10
965.761541
 20
198.544278
 42
-0.065479
  0
VERTEX
  8
0
 10
971.549206
 20
195.780833
 42
-0.050418
  0
VERTEX
  8
0
 10
977.009975
 20
191.392090
 42
-0.046433
  0
VERTEX
  8
0
 10
981.894393
 20
185.596200
 42
-0.038759
  0
VERTEX
  8
0
 10
985.965614
 20
178.647513
 42
-0.006960
  0
VERTEX
  8
0
 10
989.340723
 20
171.451972
 42
-0.086435
  0
VERTEX
  8
0
 10
990.091264
 20
168.539678
 42
-0.254578
  0
VERTEX
  8
0
 10
989.350767
 20
166.876052
 42
-0.096875
  0
VERTEX
  8
0
 10
987.000000
 20
165.710477
 42
-0.103476
  0
VERTEX
  8
0
 10
979.934976
 20
165.279406
 42
-0.027811
  0
VERTEX
  8
0
 10
968.861770
 20
167.534291
 42
-0.026999
  0
VERTEX
  8
0
 10
956.313971
 20
171.560353
 42
-0.025356
  0
VERTEX
  8
0
 10
944.000000
 20
176.988223
 42
-0.042230
  0
VERTEX
  8
0
 10
925.699689
 20
188.215310
 42
-0.047799
  0
VERTEX
  8
0
 10
910.355705
 20
201.952878
 42
-0.044086
  0
VERTEX
  8
0
 10
896.962667
 20
219.319025
 42
-0.028367
  0
VERTEX
  8
0
 10
884.494108
 20
241.500000
 42
-0.025535
  0
VERTEX
  8
0
 10
873.152961
 20
268.003913
 42
-0.027065
  0
VERTEX
  8
0
 10
864.820545
 20
295.021531
 42
-0.028075
  0
VERTEX
  8
0
 10
859.707553
 20
321.766137
 42
-0.033203
  0
VERTEX
  8
0
 10
858.000000
 20
347.451459
 42
-0.020964
  0
VERTEX
  8
0
 10
858.702690
 20
364.203836
 42
-0.009989
  0
VERTEX
  8
0
 10
860.938520
 20
385.662023
 42
-0.004385
  0
VERTEX
  8
0
 10
863.786428
 20
407.018494
 42
-0.162421
  0
VERTEX
  8
0
 10
865.951344
 20
411.351344
 42
0.188981
  0
VERTEX
  8
0
 10
866.885619
 20
413.490145
 42
0.011622
  0
VERTEX
  8
0
 10
866.992059
 20
420.566514
 42
0.011756
  0
VERTEX
  8
0
 10
866.767826
 20
427.634580
 42
0.184598
  0
VERTEX
  8
0
 10
865.800000
 20
429.800000
 42
0.144693
  0
VERTEX
  8
0
 10
864.861884
 20
430.310070
 42
0.021129
  0
VERTEX
  8
0
 10
862.700760
 20
430.677403
 42
0.020377
  0
VERTEX
  8
0
 10
859.846302
 20
430.921663
 42
0.011154
  0
VERTEX
  8
0
 10
856.335184
 20
431.000000
 42
0.021370
  0
VERTEX
  8
0
 10
850.069324
 20
430.732078
 42
0.186203
  0
VERTEX
  8
0
 10
847.610210
 20
429.533081
 42
0.135548
  0
VERTEX
  8
0
 10
846.197297
 20
426.815785
 42
0.009563
  0
VERTEX
  8
0
 10
844.557386
 20
418.330748
 42
0.018946
  0
VERTEX
  8
0
 10
840.604677
 20
388.988901
 42
0.015612
  0
VERTEX
  8
0
 10
838.559502
 20
357.470723
 42
0.015931
  0
VERTEX
  8
0
 10
838.506915
 20
326.847944
 42
0.024108
  0
VERTEX
  8
0
 10
840.592374
 20
300.284749
 42
0.009999
  0
VERTEX
  8
0
 10
841.344999
 20
295.186040
 42
0.005812
  0
VERTEX
  8
0
 10
842.441665
 20
289.096256
 42
0.005808
  0
VERTEX
  8
0
 10
843.683008
 20
283.016662
 42
0.009753
  0
VERTEX
  8
0
 10
844.883989
 20
277.945336
 42
0.000000
  0
VERTEX
  8
0
 10
847.748624
 20
266.821173
 42
0.000000
  0
VERTEX
  8
0
 10
843.291407
 20
264.910587
 42
-0.009413
  0
VERTEX
  8
0
 10
841.492012
 20
264.179059
 42
-0.011287
  0
VERTEX
  8
0
 10
839.771395
 20
263.561235
 42
-0.010073
  0
VERTEX
  8
0
 10
838.306488
 20
263.104850
 42
-0.070584
  0
VERTEX
  8
0
 10
837.567459
 20
263.000000
 42
0.062186
  0
VERTEX
  8
0
 10
836.632952
 20
262.883321
 42
0.000923
  0
VERTEX
  8
0
 10
831.267724
 20
261.511804
 42
0.002495
  0
VERTEX
  8
0
 10
825.043788
 20
259.875365
 42
0.001644
  0
VERTEX
  8
0
 10
817.900365
 20
257.933801
 42
-0.003155
  0
VERTEX
  8
0
 10
786.317764
 20
249.452153
 42
-0.015624
  0
VERTEX
  8
0
 10
768.378755
 20
245.349981
 42
-0.022206
  0
VERTEX
  8
0
 10
753.230263
 20
243.073558
 42
-0.011243
  0
VERTEX
  8
0
 10
734.000000
 20
241.487954
 42
-0.008288
  0
VERTEX
  8
0
 10
706.697932
 20
240.307583
 42
-0.009465
  0
VERTEX
  8
0
 10
680.556187
 20
240.106234
 42
-0.004207
  0
VERTEX
  8
0
 10
657.668145
 20
240.555840
 42
-0.658081
  0
VERTEX
  8
0
 10
656.953074
 20
242.353074
 42
0.152285
  0
VERTEX
  8
0
 10
657.363846
 20
243.136061
 42
0.014654
  0
VERTEX
  8
0
 10
657.692465
 20
245.287148
 42
0.017580
  0
VERTEX
  8
0
 10
657.923627
 20
247.933323
 42
0.012996
  0
VERTEX
  8
0
 10
658.000000
 20
250.871259
 42
0.026741
  0
VERTEX
  8
0
 10
657.650615
 20
257.399349
 42
0.175709
  0
VERTEX
  8
0
 10
656.234783
 20
260.294738
 42
0.169223
  0
VERTEX
  8
0
 10
653.260956
 20
261.668883
 42
0.024401
  0
VERTEX
  8
0
 10
646.479983
 20
262.000000
 42
0.010666
  0
VERTEX
  8
0
 10
641.335438
 20
261.890243
 42
0.058322
  0
VERTEX
  8
0
 10
638.593389
 20
261.450055
 42
0.065076
  0
VERTEX
  8
0
 10
636.160832
 20
260.405332
 42
0.015167
  0
VERTEX
  8
0
 10
632.402164
 20
258.017534
 42
0.010531
  0
VERTEX
  8
0
 10
629.738319
 20
256.126428
 42
0.005808
  0
VERTEX
  8
0
 10
626.558964
 20
253.709322
 42
0.005788
  0
VERTEX
  8
0
 10
623.390794
 20
251.182668
 42
0.009248
  0
VERTEX
  8
0
 10
620.750274
 20
248.943681
 42
-0.040776
  0
VERTEX
  8
0
 10
614.935895
 20
244.612085
 42
-0.019812
  0
VERTEX
  8
0
 10
606.886956
 20
240.012596
 42
-0.014152
  0
VERTEX
  8
0
 10
595.705311
 20
234.594207
 42
-0.005178
  0
VERTEX
  8
0
 10
579.603593
 20
227.546496
 42
-0.020826
  0
VERTEX
  8
0
 10
563.268173
 20
221.387032
 42
-0.032647
  0
VERTEX
  8
0
 10
548.741663
 20
217.621096
 42
-0.038846
  0
VERTEX
  8
0
 10
536.378702
 20
216.246409
 42
-0.079575
  0
VERTEX
  8
0
 10
526.729772
 20
217.465993
 42
-0.032278
  0
VERTEX
  8
0
 10
517.787632
 20
220.720790
 42
-0.008242
  0
VERTEX
  8
0
 10
503.771496
 20
227.150500
 42
-0.006922
  0
VERTEX
  8
0
 10
490.030812
 20
233.965558
 42
-0.054556
  0
VERTEX
  8
0
 10
484.100433
 20
237.878746
 42
0.026774
  0
VERTEX
  8
0
 10
474.295645
 20
245.159671
 42
0.003677
  0
VERTEX
  8
0
 10
452.969839
 20
259.066331
 42
0.004568
  0
VERTEX
  8
0
 10
429.719983
 20
273.687061
 42
0.007116
  0
VERTEX
  8
0
 10
409.397003
 20
285.814011
 42
0.013351
  0
VERTEX
  8
0
 10
402.194701
 20
289.721250
 42
0.010886
  0
VERTEX
  8
0
 10
394.290588
 20
293.525685
 42
0.010731
  0
VERTEX
  8
0
 10
386.091427
 20
297.044193
 42
0.011789
  0
VERTEX
  8
0
 10
378.000000
 20
300.092844
 42
-0.003154
  0
VERTEX
  8
0
 10
374.063501
 20
301.498884
 42
-0.001679
  0
VERTEX
  8
0
 10
369.208922
 20
303.285936
 42
-0.001671
  0
VERTEX
  8
0
 10
364.261046
 20
305.145066
 42
-0.002599
  0
VERTEX
  8
0
 10
360.009095
 20
306.784280
 42
0.000000
  0
VERTEX
  8
0
 10
350.518191
 20
310.500000
 42
0.000000
  0
VERTEX
  8
0
 10
355.509095
 20
311.000000
 42
0.000000
  0
VERTEX
  8
0
 10
360.500000
 20
311.500000
 42
0.000000
  0
VERTEX
  8
0
 10
360.790375
 20
320.348888
 42
0.010245
  0
VERTEX
  8
0
 10
360.835755
 20
324.034235
 42
0.017344
  0
VERTEX
  8
0
 10
360.703496
 20
327.118082
 42
0.016367
  0
VERTEX
  8
0
 10
360.438064
 20
329.515266
 42
0.138301
  0
VERTEX
  8
0
 10
360.001779
 20
330.497857
 42
0.153237
  0
VERTEX
  8
0
 10
359.111162
 20
331.073708
 42
0.023497
  0
VERTEX
  8
0
 10
357.028047
 20
331.545819
 42
0.021877
  0
VERTEX
  8
0
 10
354.226373
 20
331.918202
 42
0.011418
  0
VERTEX
  8
0
 10
350.711404
 20
332.148969
 42
-0.014047
  0
VERTEX
  8
0
 10
346.321604
 20
332.460351
 42
-0.031023
  0
VERTEX
  8
0
 10
343.006749
 20
332.998470
 42
-0.034985
  0
VERTEX
  8
0
 10
340.039109
 20
333.893428
 42
-0.023413
  0
VERTEX
  8
0
 10
336.784848
 20
335.306499
 42
-0.021196
  0
VERTEX
  8
0
 10
333.498730
 20
337.096846
 42
-0.064687
  0
VERTEX
  8
0
 10
331.512430
 20
338.671919
 42
-0.061349
  0
VERTEX
  8
0
 10
329.938466
 20
340.748306
 42
-0.017701
  0
VERTEX
  8
0
 10
328.037471
 20
344.306499
 42
-0.028100
  0
VERTEX
  8
0
 10
325.071084
 20
351.340438
 42
-0.055196
  0
VERTEX
  8
0
 10
323.672736
 20
357.242711
 42
-0.058068
  0
VERTEX
  8
0
 10
323.635540
 20
363.108279
 42
-0.034519
  0
VERTEX
  8
0
 10
324.878984
 20
369.993302
 42
-0.021477
  0
VERTEX
  8
0
 10
326.638275
 20
375.875197
 42
-0.029391
  0
VERTEX
  8
0
 10
328.751357
 20
380.981743
 42
-0.031336
  0
VERTEX
  8
0
 10
331.323227
 20
385.539323
 42
-0.030784
  0
VERTEX
  8
0
 10
334.458456
 20
389.768258
 42
-0.047673
  0
VERTEX
  8
0
 10
337.197027
 20
392.455922
 42
-0.012155
  0
VERTEX
  8
0
 10
342.128649
 20
396.255283
 42
-0.004730
  0
VERTEX
  8
0
 10
347.422831
 20
400.056205
 42
-0.404443
  0
VERTEX
  8
0
 10
348.314906
 20
399.916401
 42
-0.175188
  0
VERTEX
  8
0
 10
348.427399
 20
399.552520
 42
-0.001021
  0
VERTEX
  8
0
 10
348.250868
 20
395.958033
 42
-0.004114
  0
VERTEX
  8
0
 10
348.006074
 20
391.837703
 42
-0.002585
  0
VERTEX
  8
0
 10
347.655441
 20
387.025840
 42
0.018564
  0
VERTEX
  8
0
 10
347.166471
 20
375.043854
 42
0.025789
  0
VERTEX
  8
0
 10
347.680817
 20
364.315367
 42
0.029138
  0
VERTEX
  8
0
 10
349.084734
 20
355.488678
 42
0.078686
  0
VERTEX
  8
0
 10
351.391046
 20
349.595703
 42
0.047661
  0
VERTEX
  8
0
 10
354.436291
 20
345.377937
 42
0.031965
  0
VERTEX
  8
0
 10
358.641158
 20
341.165524
 42
0.032286
  0
VERTEX
  8
0
 10
363.108618
 20
337.713769
 42
0.076922
  0
VERTEX
  8
0
 10
366.894304
 20
335.932720
 42
0.042845
  0
VERTEX
  8
0
 10
368.808695
 20
335.543525
 42
0.012666
  0
VERTEX
  8
0
 10
371.790827
 20
335.275614
 42
0.012612
  0
VERTEX
  8
0
 10
375.172694
 20
335.143502
 42
0.013270
  0
VERTEX
  8
0
 10
378.500000
 20
335.185813
 42
0.000000
  0
VERTEX
  8
0
 10
386.500000
 20
335.500000
 42
0.000000
  0
VERTEX
  8
0
 10
386.792706
 20
343.890090
 42
0.026716
  0
VERTEX
  8
0
 10
386.676162
 20
350.172960
 42
0.112891
  0
VERTEX
  8
0
 10
385.581761
 20
353.751406
 42
0.130783
  0
VERTEX
  8
0
 10
383.134652
 20
356.216596
 42
0.041068
  0
VERTEX
  8
0
 10
378.405903
 20
358.482786
 42
-0.056358
  0
VERTEX
  8
0
 10
375.235543
 20
360.122871
 42
-0.093660
  0
VERTEX
  8
0
 10
373.096520
 20
362.225330
 42
-0.065127
  0
VERTEX
  8
0
 10
371.404395
 20
365.498149
 42
-0.016050
  0
VERTEX
  8
0
 10
369.525852
 20
371.263075
 42
-0.017535
  0
VERTEX
  8
0
 10
368.699097
 20
374.530273
 42
-0.042233
  0
VERTEX
  8
0
 10
368.380033
 20
377.002235
 42
-0.042665
  0
VERTEX
  8
0
 10
368.482400
 20
379.477666
 42
-0.018223
  0
VERTEX
  8
0
 10
369.020707
 20
382.749878
 42
-0.054733
  0
VERTEX
  8
0
 10
371.441481
 20
390.337182
 42
-0.079713
  0
VERTEX
  8
0
 10
375.266305
 20
396.209734
 42
-0.078289
  0
VERTEX
  8
0
 10
380.793718
 20
400.662706
 42
-0.050853
  0
VERTEX
  8
0
 10
388.298522
 20
404.016651
 42
-0.053524
  0
VERTEX
  8
0
 10
392.991877
 20
405.025417
 42
-0.050700
  0
VERTEX
  8
0
 10
397.880734
 20
405.042314
 42
-0.035105
  0
VERTEX
  8
0
 10
404.052208
 20
403.995406
 42
-0.010962
  0
VERTEX
  8
0
 10
413.131207
 20
401.578833
 42
-0.023415
  0
VERTEX
  8
0
 10
422.691499
 20
398.316123
 42
-0.006721
  0
VERTEX
  8
0
 10
437.168143
 20
392.379890
 42
-0.006986
  0
VERTEX
  8
0
 10
451.757395
 20
385.924874
 42
-0.017395
  0
VERTEX
  8
0
 10
462.182956
 20
380.690351
 42
-0.021945
  0
VERTEX
  8
0
 10
471.956048
 20
374.779031
 42
-0.005649
  0
VERTEX
  8
0
 10
487.188465
 20
364.376665
 42
-0.005946
  0
VERTEX
  8
0
 10
503.600854
 20
352.601305
 42
-0.007913
  0
VERTEX
  8
0
 10
518.215198
 20
341.489818
 42
0.013312
  0
VERTEX
  8
0
 10
521.981363
 20
338.690005
 42
0.074395
  0
VERTEX
  8
0
 10
524.223601
 20
337.567525
 42
0.068642
  0
VERTEX
  8
0
 10
526.771357
 20
337.107733
 42
0.010370
  0
VERTEX
  8
0
 10
531.965198
 20
337.000000
 42
0.000000
  0
VERTEX
  8
0
 10
540.000000
 20
337.000000
 42
0.000000
  0
VERTEX
  8
0
 10
540.000000
 20
344.841493
 42
0.000000
  0
VERTEX
  8
0
 10
540.000000
 20
352.682985
 42
0.000000
  0
VERTEX
  8
0
 10
533.732041
 20
358.591493
 42
0.004637
  0
VERTEX
  8
0
 10
531.043818
 20
361.078871
 42
0.003892
  0
VERTEX
  8
0
 10
528.149194
 20
363.666986
 42
0.003928
  0
VERTEX
  8
0
 10
525.467768
 20
365.990049
 42
0.010793
  0
VERTEX
  8
0
 10
523.528421
 20
367.572714
 42
0.000000
  0
VERTEX
  8
0
 10
519.592762
 20
370.645429
 42
0.000000
  0
VERTEX
  8
0
 10
528.546381
 20
372.397633
 42
0.011926
  0
VERTEX
  8
0
 10
545.081974
 20
376.045114
 42
0.011498
  0
VERTEX
  8
0
 10
561.629409
 20
380.517195
 42
0.010537
  0
VERTEX
  8
0
 10
579.236313
 20
386.118772
 42
0.007202
  0
VERTEX
  8
0
 10
599.000000
 20
393.187835
 42
0.032472
  0
VERTEX
  8
0
 10
631.082601
 20
407.623902
 42
0.026443
  0
VERTEX
  8
0
 10
663.393447
 20
427.019232
 42
0.024867
  0
VERTEX
  8
0
 10
695.458315
 20
451.053675
 42
0.021202
  0
VERTEX
  8
0
 10
726.803010
 20
479.407354
 42
0.011124
  0
VERTEX
  8
0
 10
748.689899
 20
501.942171
 42
0.010669
  0
VERTEX
  8
0
 10
769.866948
 20
525.738308
 42
0.009510
  0
VERTEX
  8
0
 10
792.093384
 20
552.840867
 42
0.005873
  0
VERTEX
  8
0
 10
817.236987
 20
585.500000
 42
-0.000400
  0
VERTEX
  8
0
 10
825.663882
 20
596.697181
 42
-0.000485
  0
VERTEX
  8
0
 10
833.585558
 20
607.184375
 42
-0.000409
  0
VERTEX
  8
0
 10
840.268934
 20
615.999417
 42
-0.003349
  0
VERTEX
  8
0
 10
843.349718
 20
620.000000
 42
-0.014001
  0
VERTEX
  8
0
 10
854.787131
 20
633.831701
 42
-0.011472
  0
VERTEX
  8
0
 10
867.748179
 20
647.973177
 42
-0.011685
  0
VERTEX
  8
0
 10
880.326990
 20
660.482083
 42
-0.028226
  0
VERTEX
  8
0
 10
890.331922
 20
668.957225
 42
0.000927
  0
VERTEX
  8
0
 10
892.707151
 20
670.756235
 42
0.000515
  0
VERTEX
  8
0
 10
895.597502
 20
672.958537
 42
0.000513
  0
VERTEX
  8
0
 10
898.519105
 20
675.194158
 42
0.000830
  0
VERTEX
  8
0
 10
901.000000
 20
677.103133
 42
-0.014149
  0
VERTEX
  8
0
 10
910.701791
 20
684.165101
 42
-0.007632
  0
VERTEX
  8
0
 10
923.022381
 20
692.337012
 42
-0.007132
  0
VERTEX
  8
0
 10
936.878986
 20
700.949749
 42
-0.006587
  0
VERTEX
  8
0
 10
951.344878
 20
709.400054
 42
0.005159
  0
VERTEX
  8
0
 10
964.083067
 20
716.792397
 42
0.009171
  0
VERTEX
  8
0
 10
974.395087
 20
723.178621
 42
0.008783
  0
VERTEX
  8
0
 10
982.246756
 20
728.440259
 42
0.067653
  0
VERTEX
  8
0
 10
985.500000
 20
731.429081
 42
-0.056283
  0
VERTEX
  8
0
 10
986.231061
 20
732.131915
 42
-0.004346
  0
VERTEX
  8
0
 10
988.409375
 20
733.769313
 42
-0.005906
  0
VERTEX
  8
0
 10
991.054528
 20
735.674022
 42
-0.004473
  0
VERTEX
  8
0
 10
994.000000
 20
737.703494
 42
0.022592
  0
VERTEX
  8
0
 10
1003.497752
 20
744.768282
 42
0.018832
  0
VERTEX
  8
0
 10
1012.935410
 20
753.085611
 42
0.018683
  0
VERTEX
  8
0
 10
1021.805372
 20
762.171175
 42
0.021110
  0
VERTEX
  8
0
 10
1029.600649
 20
771.543071
 42
-0.027594
  0
VERTEX
  8
0
 10
1030.730580
 20
772.866270
 42
-0.032298
  0
VERTEX
  8
0
 10
1031.944813
 20
773.984527
 42
-0.034108
  0
VERTEX
  8
0
 10
1033.073355
 20
774.775829
 42
-0.136672
  0
VERTEX
  8
0
 10
1033.878142
 20
775.000000
 42
0.146740
  0
VERTEX
  8
0
 10
1035.160921
 20
775.384754
 42
0.086735
  0
VERTEX
  8
0
 10
1036.333597
 20
776.490068
 42
0.035487
  0
VERTEX
  8
0
 10
1037.809283
 20
778.787384
 42
0.004562
  0
VERTEX
  8
0
 10
1040.570026
 20
783.951892
 42
0.027696
  0
VERTEX
  8
0
 10
1041.897530
 20
786.874093
 42
0.028235
  0
VERTEX
  8
0
 10
1042.884257
 20
789.906617
 42
0.025324
  0
VERTEX
  8
0
 10
1043.601401
 20
793.313230
 42
0.015588
  0
VERTEX
  8
0
 10
1044.115204
 20
797.379979
 42
-0.010179
  0
VERTEX
  8
0
 10
1044.528564
 20
800.962908
 42
-0.006911
  0
VERTEX
  8
0
 10
1045.138370
 20
805.024119
 42
-0.006965
  0
VERTEX
  8
0
 10
1045.836299
 20
808.930680
 42
-0.013842
  0
VERTEX
  8
0
 10
1046.517512
 20
812.000000
 42
0.030915
  0
VERTEX
  8
0
 10
1047.295503
 20
816.174044
 42
0.011394
  0
VERTEX
  8
0
 10
1047.891790
 20
822.136537
 42
0.008933
  0
VERTEX
  8
0
 10
1048.355189
 20
829.978638
 42
0.004019
  0
VERTEX
  8
0
 10
1048.696718
 20
840.286846
 42
0.004670
  0
VERTEX
  8
0
 10
1048.980767
 20
858.329579
 42
0.112119
  0
VERTEX
  8
0
 10
1047.899711
 20
863.235234
 42
0.255368
  0
VERTEX
  8
0
 10
1044.868533
 20
865.447820
 42
0.033222
  0
VERTEX
  8
0
 10
1036.595012
 20
865.978649
 42
0.000000
  0
VERTEX
  8
0
 10
1027.500000
 20
865.957297
 42
0.000000
  0
VERTEX
  8
0
 10
1024.582720
 20
861.836156
 42
-0.042399
  0
VERTEX
  8
0
 10
1015.598628
 20
851.185954
 42
-0.013842
  0
VERTEX
  8
0
 10
1000.652967
 20
837.048313
 42
-0.014121
  0
VERTEX
  8
0
 10
983.835280
 20
822.834054
 42
-0.020806
  0
VERTEX
  8
0
 10
968.233093
 20
811.413969
 42
0.000000
  0
VERTEX
  8
0
 10
960.516738
 20
806.244706
 42
0.000000
  0
VERTEX
  8
0
 10
958.866624
 20
810.591764
 42
0.044825
  0
VERTEX
  8
0
 10
956.709234
 20
815.030887
 42
0.038874
  0
VERTEX
  8
0
 10
953.702440
 20
819.245483
 42
0.039056
  0
VERTEX
  8
0
 10
950.096864
 20
822.923456
 42
0.046489
  0
VERTEX
  8
0
 10
946.155490
 20
825.763233
 42
0.035598
  0
VERTEX
  8
0
 10
943.000954
 20
827.327233
 42
0.056688
  0
VERTEX
  8
0
 10
940.106479
 20
828.146583
 42
0.030546
  0
VERTEX
  8
0
 10
936.033131
 20
828.561572
 42
0.004077
  0
VERTEX
  8
0
 10
927.396615
 20
828.840643
 42
0.000000
  0
VERTEX
  8
0
 10
913.293229
 20
829.181287
 42
0.000000
  0
VERTEX
  8
0
 10
910.046257
 20
823.427968
 42
-0.052913
  0
VERTEX
  8
0
 10
904.517463
 20
815.675903
 42
-0.053684
  0
VERTEX
  8
0
 10
897.509150
 20
809.298857
 42
-0.048263
  0
VERTEX
  8
0
 10
888.635321
 20
804.045080
 42
-0.031013
  0
VERTEX
  8
0
 10
877.500000
 20
799.647794
 42
-0.010230
  0
VERTEX
  8
0
 10
869.065717
 20
797.097503
 42
-0.017584
  0
VERTEX
  8
0
 10
861.931632
 20
795.366726
 42
-0.020847
  0
VERTEX
  8
0
 10
855.717759
 20
794.356557
 42
-0.029297
  0
VERTEX
  8
0
 10
850.111831
 20
794.014781
 42
0.015143
  0
VERTEX
  8
0
 10
846.187183
 20
793.886804
 42
0.073942
  0
VERTEX
  8
0
 10
844.019898
 20
793.423742
 42
0.078507
  0
VERTEX
  8
0
 10
842.142371
 20
792.361665
 42
0.018307
  0
VERTEX
  8
0
 10
839.384174
 20
790.000000
 42
-0.013637
  0
VERTEX
  8
0
 10
837.629333
 20
788.468817
 42
-0.018020
  0
VERTEX
  8
0
 10
835.945660
 20
787.177870
 42
-0.015554
  0
VERTEX
  8
0
 10
834.495214
 20
786.213026
 42
-0.141830
  0
VERTEX
  8
0
 10
833.772343
 20
786.009769
 42
-0.100671
  0
VERTEX
  8
0
 10
831.768088
 20
786.433490
 42
-0.008998
  0
VERTEX
  8
0
 10
827.058976
 20
788.576140
 42
-0.012768
  0
VERTEX
  8
0
 10
822.235415
 20
791.029599
 42
-0.025199
  0
VERTEX
  8
0
 10
818.564096
 20
793.262655
 42
0.000000
  0
VERTEX
  8
0
 10
815.036117
 20
795.659979
 42
0.000000
  0
VERTEX
  8
0
 10
825.268058
 20
797.686717
 42
0.044003
  0
VERTEX
  8
0
 10
842.493257
 20
802.705202
 42
0.039984
  0
VERTEX
  8
0
 10
859.164940
 20
810.786784
 42
0.036733
  0
VERTEX
  8
0
 10
875.582760
 20
822.133189
 42
0.026946
  0
VERTEX
  8
0
 10
892.053817
 20
836.934098
 42
0.011162
  0
VERTEX
  8
0
 10
903.197752
 20
848.599207
 42
0.029750
  0
VERTEX
  8
0
 10
910.439433
 20
857.540689
 42
0.042205
  0
VERTEX
  8
0
 10
914.684424
 20
864.672398
 42
0.113621
  0
VERTEX
  8
0
 10
916.000000
 20
870.386982
 42
-0.024561
  0
VERTEX
  8
0
 10
916.100377
 20
872.429185
 42
-0.153530
  0
VERTEX
  8
0
 10
916.505526
 20
873.379743
 42
-0.164115
  0
VERTEX
  8
0
 10
917.367092
 20
873.893712
 42
-0.029116
  0
VERTEX
  8
0
 10
919.250000
 20
874.186642
 42
0.000000
  0
VERTEX
  8
0
 10
922.500000
 20
874.500000
 42
0.000000
  0
VERTEX
  8
0
 10
922.791607
 20
883.433339
 42
0.009138
  0
VERTEX
  8
0
 10
922.869041
 20
888.827004
 42
0.044820
  0
VERTEX
  8
0
 10
922.584804
 20
891.858087
 42
0.056595
  0
VERTEX
  8
0
 10
921.791858
 20
894.456857
 42
0.020121
  0
VERTEX
  8
0
 10
920.101884
 20
897.960225
 42
-0.033157
  0
VERTEX
  8
0
 10
917.878512
 20
902.893802
 42
-0.009182
  0
VERTEX
  8
0
 10
915.054021
 20
910.910381
 42
-0.006843
  0
VERTEX
  8
0
 10
912.494810
 20
918.991431
 42
-0.074482
  0
VERTEX
  8
0
 10
912.004967
 20
922.361867
 42
-0.112911
  0
VERTEX
  8
0
 10
912.149218
 20
922.980079
 42
-0.019460
  0
VERTEX
  8
0
 10
912.722403
 20
924.046923
 42
-0.020317
  0
VERTEX
  8
0
 10
913.509478
 20
925.267973
 42
-0.016926
  0
VERTEX
  8
0
 10
914.440326
 20
926.500000
 42
0.000000
  0
VERTEX
  8
0
 10
916.870718
 20
929.500000
 42
0.000000
  0
VERTEX
  8
0
 10
919.182393
 20
927.225189
 42
-0.079939
  0
VERTEX
  8
0
 10
920.494090
 20
925.440808
 42
-0.087920
  0
VERTEX
  8
0
 10
921.125520
 20
923.392077
 42
-0.034283
  0
VERTEX
  8
0
 10
921.313210
 20
919.985374
 42
-0.003076
  0
VERTEX
  8
0
 10
921.144944
 20
911.425105
 42
0.000000
  0
VERTEX
  8
0
 10
920.795821
 20
897.899831
 42
0.000000
  0
VERTEX
  8
0
 10
926.340718
 20
892.354934
 42
0.000000
  0
VERTEX
  8
0
 10
931.885616
 20
886.810036
 42
0.000000
  0
VERTEX
  8
0
 10
946.192808
 20
887.177683
 42
0.013859
  0
VERTEX
  8
0
 10
956.533599
 20
887.730476
 42
0.054855
  0
VERTEX
  8
0
 10
962.776058
 20
888.935706
 42
0.082180
  0
VERTEX
  8
0
 10
967.251604
 20
891.177217
 42
0.060821
  0
VERTEX
  8
0
 10
971.309649
 20
894.956150
 42
-0.035769
  0
VERTEX
  8
0
 10
972.951842
 20
896.646283
 42
-0.094853
  0
VERTEX
  8
0
 10
974.391318
 20
897.507461
 42
-0.072566
  0
VERTEX
  8
0
 10
976.269448
 20
897.898196
 42
-0.015061
  0
VERTEX
  8
0
 10
979.648374
 20
898.000000
 42
0.019783
  0
VERTEX
  8
0
 10
983.324570
 20
898.145512
 42
0.095722
  0
VERTEX
  8
0
 10
985.329299
 20
898.700305
 42
0.078470
  0
VERTEX
  8
0
 10
987.168164
 20
900.006065
 42
0.010812
  0
VERTEX
  8
0
 10
990.462934
 20
903.369479
 42
0.041060
  0
VERTEX
  8
0
 10
994.236325
 20
908.118726
 42
0.037719
  0
VERTEX
  8
0
 10
997.304236
 20
913.553350
 42
0.037878
  0
VERTEX
  8
0
 10
999.509353
 20
919.362456
 42
0.042323
  0
VERTEX
  8
0
 10
1000.713266
 20
925.226790
 42
-0.074972
  0
VERTEX
  8
0
 10
1001.804218
 20
929.206595
 42
-0.104726
  0
VERTEX
  8
0
 10
1003.959319
 20
932.187940
 42
-0.056288
  0
VERTEX
  8
0
 10
1008.129280
 20
935.188532
 42
-0.009191
  0
VERTEX
  8
0
 10
1016.914032
 20
939.907014
 42
-0.004132
  0
VERTEX
  8
0
 10
1022.545846
 20
942.741311
 42
-0.034635
  0
VERTEX
  8
0
 10
1025.180109
 20
943.820296
 42
-0.130202
  0
VERTEX
  8
0
 10
1026.464188
 20
943.898157
 42
-0.357231
  0
VERTEX
  8
0
 10
1027.000000
 20
943.243911
 42
0.055239
  0
VERTEX
  8
0
 10
1027.087982
 20
942.449968
 42
0.038717
  0
VERTEX
  8
0
 10
1027.352500
 20
941.589149
 42
0.039129
  0
VERTEX
  8
0
 10
1027.740315
 20
940.793918
 42
0.063445
  0
VERTEX
  8
0
 10
1028.200000
 20
940.200000
 42
0.186336
  0
VERTEX
  8
0
 10
1030.583280
 20
939.144396
 42
0.012765
  0
VERTEX
  8
0
 10
1038.100217
 20
938.971663
 42
0.012032
  0
VERTEX
  8
0
 10
1045.645718
 20
939.172543
 42
0.211781
  0
VERTEX
  8
0
 10
1047.777003
 20
940.250000
 42
0.063673
  0
VERTEX
  8
0
 10
1048.333636
 20
941.141491
 42
0.004633
  0
VERTEX
  8
0
 10
1049.521690
 20
943.789662
 42
0.006417
  0
VERTEX
  8
0
 10
1050.872995
 20
946.989220
 42
0.004811
  0
VERTEX
  8
0
 10
1052.281364
 20
950.544593
 42
-0.019468
  0
VERTEX
  8
0
 10
1057.372475
 20
962.372318
 42
-0.015906
  0
VERTEX
  8
0
 10
1063.699988
 20
974.609611
 42
-0.015616
  0
VERTEX
  8
0
 10
1070.937936
 20
986.677556
 42
-0.016686
  0
VERTEX
  8
0
 10
1078.764839
 20
998.000000
 42
-0.028009
  0
VERTEX
  8
0
 10
1086.221751
 20
1006.957781
 42
-0.011899
  0
VERTEX
  8
0
 10
1097.142813
 20
1018.130279
 42
-0.011933
  0
VERTEX
  8
0
 10
1108.640743
 20
1028.822743
 42
-0.026483
  0
VERTEX
  8
0
 10
1118.000000
 20
1036.272702
 42
-0.022390
  0
VERTEX
  8
0
 10
1127.802960
 20
1042.619472
 42
-0.015657
  0
VERTEX
  8
0
 10
1139.366870
 20
1048.914128
 42
-0.015496
  0
VERTEX
  8
0
 10
1151.490512
 20
1054.565281
 42
-0.019796
  0
VERTEX
  8
0
 10
1163.000000
 20
1058.971319
 42
-0.001133
  0
VERTEX
  8
0
 10
1171.648322
 20
1061.873342
 42
-0.022240
  0
VERTEX
  8
0
 10
1174.350039
 20
1062.641500
 42
-0.116520
  0
VERTEX
  8
0
 10
1175.531198
 20
1062.642144
 42
-0.347938
  0
SEQEND
  0
POLYLINE
  8
0
 66
1
 70
1
  0
VERTEX
  8
0
 10
542.475142
 20
1058.009451
 42
-0.026006
  0
VERTEX
  8
0
 10
543.923067
 20
1057.370956
 42
-0.174869
  0
VERTEX
  8
0
 10
544.453898
 20
1056.809355
 42
-0.193358
  0
VERTEX
  8
0
 10
544.475310
 20
1056.071221
 42
-0.032858
  0
VERTEX
  8
0
 10
543.891563
 20
1054.759451
 42
-0.069608
  0
VERTEX
  8
0
 10
542.801755
 20
1053.243769
 42
-0.001338
  0
VERTEX
  8
0
 10
536.097185
 20
1046.260589
 42
-0.003208
  0
VERTEX
  8
0
 10
528.185977
 20
1038.169189
 42
-0.002141
  0
VERTEX
  8
0
 10
519.027059
 20
1029.000000
 42
0.006140
  0
VERTEX
  8
0
 10
499.130655
 20
1008.760084
 42
0.009806
  0
VERTEX
  8
0
 10
482.690457
 20
990.933032
 42
0.011338
  0
VERTEX
  8
0
 10
468.998110
 20
974.764482
 42
0.015624
  0
VERTEX
  8
0
 10
457.500000
 20
959.599934
 42
-0.005784
  0
VERTEX
  8
0
 10
452.514077
 20
952.748189
 42
-0.003134
  0
VERTEX
  8
0
 10
446.231719
 20
944.430820
 42
-0.003133
  0
VERTEX
  8
0
 10
439.830124
 20
936.172877
 42
-0.005654
  0
VERTEX
  8
0
 10
434.466915
 20
929.500000
 42
0.041040
  0
VERTEX
  8
0
 10
411.990006
 20
897.084867
 42
0.028795
  0
VERTEX
  8
0
 10
391.997000
 20
857.400306
 42
0.028076
  0
VERTEX
  8
0
 10
376.122700
 20
814.310229
 42
0.032130
  0
VERTEX
  8
0
 10
366.004775
 20
771.597138
 42
0.009513
  0
VERTEX
  8
0
 10
363.683279
 20
756.166779
 42
0.018228
  0
VERTEX
  8
0
 10
362.509936
 20
743.701503
 42
0.019319
  0
VERTEX
  8
0
 10
362.284135
 20
731.671780
 42
0.012294
  0
VERTEX
  8
0
 10
362.906495
 20
717.680033
 42
0.011882
  0
VERTEX
  8
0
 10
365.018107
 20
694.990961
 42
0.023231
  0
VERTEX
  8
0
 10
367.964416
 20
677.077532
 42
0.026509
  0
VERTEX
  8
0
 10
372.242698
 20
661.153752
 42
0.022126
  0
VERTEX
  8
0
 10
378.408510
 20
644.759177
 42
-0.001459
  0
VERTEX
  8
0
 10
380.168534
 20
640.608515
 42
-0.002304
  0
VERTEX
  8
0
 10
381.651250
 20
637.037298
 42
-0.000541
  0
VERTEX
  8
0
 10
382.931903
 20
633.902527
 42
-0.096992
  0
VERTEX
  8
0
 10
383.000000
 20
633.554785
 42
0.138362
  0
VERTEX
  8
0
 10
383.094597
 20
633.219483
 42
0.000688
  0
VERTEX
  8
0
 10
384.949525
 20
630.203055
 42
0.003050
  0
VERTEX
  8
0
 10
387.092590
 20
626.775744
 42
0.001918
  0
VERTEX
  8
0
 10
389.636680
 20
622.795608
 42
0.006833
  0
VERTEX
  8
0
 10
394.620965
 20
615.290611
 42
0.012255
  0
VERTEX
  8
0
 10
398.945363
 20
609.289497
 42
0.007375
  0
VERTEX
  8
0
 10
402.596797
 20
604.620231
 42
0.226868
  0
VERTEX
  8
0
 10
403.893382
 20
604.000000
 42
-0.193022
  0
VERTEX
  8
0
 10
404.405706
 20
603.794566
 42
-0.000824
  0
VERTEX
  8
0
 10
408.813565
 20
599.568399
 42
-0.003823
  0
VERTEX
  8
0
 10
413.800600
 20
594.697170
 42
-0.002381
  0
VERTEX
  8
0
 10
419.576433
 20
588.913700
 42
0.011773
  0
VERTEX
  8
0
 10
437.678799
 20
571.455815
 42
0.030994
  0
VERTEX
  8
0
 10
451.668382
 20
560.102084
 42
0.037033
  0
VERTEX
  8
0
 10
465.418099
 20
551.751949
 42
0.024333
  0
VERTEX
  8
0
 10
482.312879
 20
544.144745
 42
0.011541
  0
VERTEX
  8
0
 10
496.947578
 20
538.780429
 42
0.038370
  0
VERTEX
  8
0
 10
506.863800
 20
536.231961
 42
0.038810
  0
VERTEX
  8
0
 10
516.994355
 20
535.243428
 42
0.012011
  0
VERTEX
  8
0
 10
532.324658
 20
535.309823
 42
0.005504
  0
VERTEX
  8
0
 10
540.198700
 20
535.619911
 42
0.005638
  0
VERTEX
  8
0
 10
548.001182
 20
536.101509
 42
0.005479
  0
VERTEX
  8
0
 10
554.762035
 20
536.669939
 42
0.023482
  0
VERTEX
  8
0
 10
558.764471
 20
537.241285
 42
-0.006703
  0
VERTEX
  8
0
 10
561.499972
 20
537.725907
 42
-0.013506
  0
VERTEX
  8
0
 10
563.670440
 20
538.020550
 42
-0.014420
  0
VERTEX
  8
0
 10
565.184328
 20
538.140516
 42
-0.707258
  0
VERTEX
  8
0
 10
565.264471
 20
537.945478
 42
-0.007457
  0
VERTEX
  8
0
 10
564.720024
 20
537.473141
 42
-0.000285
  0
VERTEX
  8
0
 10
562.668313
 20
535.748115
 42
-0.000511
  0
VERTEX
  8
0
 10
560.237368
 20
533.710831
 42
-0.000360
  0
VERTEX
  8
0
 10
557.500000
 20
531.424850
 42
0.006967
  0
VERTEX
  8
0
 10
553.772788
 20
528.227711
 42
0.001768
  0
VERTEX
  8
0
 10
547.813086
 20
522.932085
 42
0.001803
  0
VERTEX
  8
0
 10
541.048372
 20
516.834141
 42
0.001823
  0
VERTEX
  8
0
 10
534.353057
 20
510.710178
 42
-0.001445
  0
VERTEX
  8
0
 10
528.014158
 20
504.903416
 42
-0.002042
  0
VERTEX
  8
0
 10
522.331506
 20
499.770233
 42
-0.001171
  0
VERTEX
  8
0
 10
517.508751
 20
495.469740
 42
-0.028723
  0
VERTEX
  8
0
 10
516.103057
 20
494.359631
 42
0.090778
  0
VERTEX
  8
0
 10
514.991270
 20
493.232901
 42
0.093601
  0
VERTEX
  8
0
 10
514.365458
 20
491.796981
 42
0.047967
  0
VERTEX
  8
0
 10
514.071419
 20
489.521097
 42
0.008156
  0
VERTEX
  8
0
 10
514.000000
 20
485.143296
 42
0.012294
  0
VERTEX
  8
0
 10
514.080018
 20
481.889344
 42
0.021056
  0
VERTEX
  8
0
 10
514.327486
 20
479.185700
 42
0.021656
  0
VERTEX
  8
0
 10
514.697343
 20
477.114242
 42
0.142300
  0
VERTEX
  8
0
 10
515.200000
 20
476.200000
 42
0.189469
  0
VERTEX
  8
0
 10
517.776779
 20
475.077294
 42
0.016728
  0
VERTEX
  8
0
 10
525.012677
 20
475.055951
 42
0.021996
  0
VERTEX
  8
0
 10
533.198694
 20
475.666841
 42
0.025179
  0
VERTEX
  8
0
 10
540.933461
 20
476.985179
 42
0.016064
  0
VERTEX
  8
0
 10
549.877382
 20
479.281263
 42
0.031135
  0
VERTEX
  8
0
 10
556.818638
 20
481.781002
 42
0.028084
  0
VERTEX
  8
0
 10
563.840498
 20
485.295666
 42
0.010729
  0
VERTEX
  8
0
 10
573.211743
 20
490.934538
 42
-0.004337
  0
VERTEX
  8
0
 10
578.512495
 20
494.217125
 42
-0.003856
  0
VERTEX
  8
0
 10
584.080296
 20
497.540125
 42
-0.003872
  0
VERTEX
  8
0
 10
589.135488
 20
500.452188
 42
-0.011886
  0
VERTEX
  8
0
 10
592.619528
 20
502.315515
 42
0.017325
  0
VERTEX
  8
0
 10
595.605813
 20
503.954652
 42
0.011729
  0
VERTEX
  8
0
 10
598.895310
 20
506.017432
 42
0.011827
  0
VERTEX
  8
0
 10
601.983406
 20
508.162938
 42
0.023030
  0
VERTEX
  8
0
 10
604.321953
 20
510.042114
 42
0.024325
  0
VERTEX
  8
0
 10
610.100262
 20
515.663164
 42
0.005652
  0
VERTEX
  8
0
 10
619.229918
 20
525.676882
 42
0.006153
  0
VERTEX
  8
0
 10
628.472860
 20
536.308454
 42
0.013157
  0
VERTEX
  8
0
 10
635.287305
 20
544.786760
 42
0.000000
  0
VERTEX
  8
0
 10
641.074610
 20
552.388363
 42
0.000000
  0
VERTEX
  8
0
 10
640.787305
 20
560.444182
 42
0.007183
  0
VERTEX
  8
0
 10
640.557129
 20
565.042430
 42
0.048910
  0
VERTEX
  8
0
 10
640.190704
 20
567.282743
 42
0.108278
  0
VERTEX
  8
0
 10
639.526824
 20
568.571809
 42
0.116922
  0
VERTEX
  8
0
 10
638.400164
 20
569.422471
 42
-0.506871
  0
VERTEX
  8
0
 10
638.157730
 20
570.513716
 42
-0.047464
  0
VERTEX
  8
0
 10
640.508081
 20
572.731081
 42
-0.017129
  0
VERTEX
  8
0
 10
645.870554
 20
576.617827
 42
-0.001918
  0
VERTEX
  8
0
 10
658.400164
 20
584.990597
 42
-0.002668
  0
VERTEX
  8
0
 10
675.282954
 20
596.049713
 42
-0.010158
  0
VERTEX
  8
0
 10
685.993505
 20
602.679460
 42
-0.010984
  0
VERTEX
  8
0
 10
696.553157
 20
608.613630
 42
-0.003514
  0
VERTEX
  8
0
 10
712.500000
 20
616.976423
 42
0.002127
  0
VERTEX
  8
0
 10
726.047690
 20
624.033239
 42
0.003421
  0
VERTEX
  8
0
 10
737.528645
 20
630.176444
 42
0.003152
  0
VERTEX
  8
0
 10
749.565938
 20
636.822355
 42
0.001494
  0
VERTEX
  8
0
 10
765.000000
 20
645.531789
 42
-0.010100
  0
VERTEX
  8
0
 10
785.978864
 20
656.898654
 42
-0.010696
  0
VERTEX
  8
0
 10
807.006329
 20
667.184885
 42
-0.011348
  0
VERTEX
  8
0
 10
826.923179
 20
675.861972
 42
-0.017644
  0
VERTEX
  8
0
 10
844.500000
 20
682.335658
 42
-0.004863
  0
VERTEX
  8
0
 10
857.435557
 20
686.449059
 42
-0.007538
  0
VERTEX
  8
0
 10
868.685665
 20
689.721593
 42
-0.006333
  0
VERTEX
  8
0
 10
877.239255
 20
691.954367
 42
-0.821496
  0
VERTEX
  8
0
 10
877.500000
 20
691.397687
 42
0.024401
  0
VERTEX
  8
0
 10
869.028061
 20
684.515734
 42
0.009070
  0
VERTEX
  8
0
 10
857.784885
 20
674.059658
 42
0.009128
  0
VERTEX
  8
0
 10
846.230782
 20
662.502402
 42
0.013142
  0
VERTEX
  8
0
 10
836.470648
 20
651.828809
 42
0.009733
  0
VERTEX
  8
0
 10
831.633773
 20
646.027362
 42
0.002566
  0
VERTEX
  8
0
 10
824.125956
 20
636.558193
 42
0.002604
  0
VERTEX
  8
0
 10
815.691562
 20
625.691472
 42
0.002671
  0
VERTEX
  8
0
 10
807.442454
 20
614.828809
 42
-0.004940
  0
VERTEX
  8
0
 10
778.752524
 20
577.402924
 42
-0.009446
  0
VERTEX
  8
0
 10
754.858631
 20
548.023963
 42
-0.011051
  0
VERTEX
  8
0
 10
732.657794
 20
522.904060
 42
-0.011043
  0
VERTEX
  8
0
 10
709.363577
 20
498.783685
 42
-0.008344
  0
VERTEX
  8
0
 10
696.037382
 20
486.014738
 42
-0.011162
  0
VERTEX
  8
0
 10
683.504152
 20
474.910067
 42
-0.011243
  0
VERTEX
  8
0
 10
670.561322
 20
464.438781
 42
-0.008669
  0
VERTEX
  8
0
 10
656.000000
 20
453.588009
 42
-0.013075
  0
VERTEX
  8
0
 10
635.608478
 20
439.729368
 42
-0.018321
  0
VERTEX
  8
0
 10
616.655369
 20
428.518866
 42
-0.019152
  0
VERTEX
  8
0
 10
597.618881
 20
419.106254
 42
-0.016607
  0
VERTEX
  8
0
 10
577.000000
 20
410.686442
 42
-0.005912
  0
VERTEX
  8
0
 10
558.953331
 20
404.248790
 42
-0.011729
  0
VERTEX
  8
0
 10
544.475116
 20
399.652978
 42
-0.011768
  0
VERTEX
  8
0
 10
529.828773
 20
395.750824
 42
-0.005996
  0
VERTEX
  8
0
 10
511.260373
 20
391.503925
 42
0.000000
  0
VERTEX
  8
0
 10
496.020746
 20
388.210167
 42
0.000000
  0
VERTEX
  8
0
 10
486.353281
 20
394.673944
 42
0.013653
  0
VERTEX
  8
0
 10
478.510059
 20
399.613611
 42
0.011381
  0
VERTEX
  8
0
 10
469.923117
 20
404.439138
 42
0.010719
  0
VERTEX
  8
0
 10
460.589559
 20
409.154254
 42
0.008984
  0
VERTEX
  8
0
 10
450.500000
 20
413.761729
 42
0.013853
  0
VERTEX
  8
0
 10
432.656084
 20
420.944829
 42
0.045162
  0
VERTEX
  8
0
 10
420.374005
 20
424.274507
 42
0.037027
  0
VERTEX
  8
0
 10
406.487827
 20
425.674137
 42
0.007110
  0
VERTEX
  8
0
 10
381.163694
 20
425.983442
 42
0.000000
  0
VERTEX
  8
0
 10
350.500000
 20
425.921927
 42
0.000000
  0
VERTEX
  8
0
 10
341.000000
 20
428.805719
 42
-0.016527
  0
VERTEX
  8
0
 10
330.245359
 20
432.462652
 42
-0.004983
  0
VERTEX
  8
0
 10
314.151103
 20
438.719554
 42
-0.004955
  0
VERTEX
  8
0
 10
298.211253
 20
445.283995
 42
-0.017069
  0
VERTEX
  8
0
 10
288.072460
 20
449.991701
 42
-0.009149
  0
VERTEX
  8
0
 10
284.814327
 20
451.717579
 42
-0.006826
  0
VERTEX
  8
0
 10
281.283490
 20
453.734905
 42
-0.006904
  0
VERTEX
  8
0
 10
278.007036
 20
455.728160
 42
-0.015568
  0
VERTEX
  8
0
 10
275.594740
 20
457.348512
 42
0.000000
  0
VERTEX
  8
0
 10
270.689480
 20
460.869831
 42
0.000000
  0
VERTEX
  8
0
 10
275.094740
 20
461.184916
 42
0.000000
  0
VERTEX
  8
0
 10
279.500000
 20
461.500000
 42
0.000000
  0
VERTEX
  8
0
 10
279.789526
 20
470.290634
 42
0.000000
  0
VERTEX
  8
0
 10
280.079051
 20
479.081269
 42
0.000000
  0
VERTEX
  8
0
 10
274.172264
 20
485.790634
 42
-0.008976
  0
VERTEX
  8
0
 10
262.298651
 20
499.775917
 42
-0.012317
  0
VERTEX
  8
0
 10
252.163517
 20
512.798978
 42
-0.013886
  0
VERTEX
  8
0
 10
244.048031
 20
524.436946
 42
-0.028041
  0
VERTEX
  8
0
 10
238.445927
 20
534.106708
 42
-0.022681
  0
VERTEX
  8
0
 10
234.177122
 20
543.572317
 42
-0.003393
  0
VERTEX
  8
0
 10
226.597534
 20
563.025934
 42
-0.003037
  0
VERTEX
  8
0
 10
219.235013
 20
582.665304
 42
-0.028836
  0
VERTEX
  8
0
 10
216.626962
 20
591.250000
 42
0.000000
  0
VERTEX
  8
0
 10
215.961896
 20
594.000000
 42
0.000000
  0
VERTEX
  8
0
 10
221.980948
 20
594.000000
 42
0.000000
  0
VERTEX
  8
0
 10
228.000000
 20
594.000000
 42
0.000000
  0
VERTEX
  8
0
 10
228.000000
 20
602.839480
 42
0.023117
  0
VERTEX
  8
0
 10
227.650888
 20
610.386528
 42
0.006803
  0
VERTEX
  8
0
 10
226.423816
 20
621.913149
 42
0.005574
  0
VERTEX
  8
0
 10
224.436587
 20
637.018236
 42
0.002620
  0
VERTEX
  8
0
 10
221.548061
 20
656.500000
 42
-0.049275
  0
VERTEX
  8
0
 10
220.030450
 20
684.595358
 42
-0.034568
  0
VERTEX
  8
0
 10
223.624831
 20
716.095485
 42
-0.029674
  0
VERTEX
  8
0
 10
232.376054
 20
751.540532
 42
-0.018882
  0
VERTEX
  8
0
 10
246.517296
 20
791.626090
 42
-0.015853
  0
VERTEX
  8
0
 10
260.487254
 20
823.890733
 42
-0.024538
  0
VERTEX
  8
0
 10
274.758063
 20
850.685733
 42
-0.024243
  0
VERTEX
  8
0
 10
291.716666
 20
876.183259
 42
-0.014996
  0
VERTEX
  8
0
 10
313.938976
 20
904.500000
 42
-0.014517
  0
VERTEX
  8
0
 10
335.983496
 20
929.411813
 42
-0.017789
  0
VERTEX
  8
0
 10
358.040587
 20
951.309838
 42
-0.016552
  0
VERTEX
  8
0
 10
382.880339
 20
972.794754
 42
-0.010133
  0
VERTEX
  8
0
 10
413.489072
 20
996.537467
 42
-0.012079
  0
VERTEX
  8
0
 10
446.487160
 20
1019.862545
 42
-0.023791
  0
VERTEX
  8
0
 10
473.968862
 20
1036.470183
 42
-0.028715
  0
VERTEX
  8
0
 10
499.029109
 20
1048.225193
 42
-0.032062
  0
VERTEX
  8
0
 10
524.377259
 20
1056.543276
 42
-0.010734
  0
VERTEX
  8
0
 10
531.097769
 20
1058.127565
 42
-0.032314
  0
VERTEX
  8
0
 10
535.756390
 20
1058.809941
 42
-0.047115
  0
VERTEX
  8
0
 10
539.336542
 20
1058.762240
 42
-0.064047
  0
SEQEND
  0
POLYLINE
  8
0
 66
1
 70
1
  0
VERTEX
  8
0
 10
1195.358207
 20
1039.084721
 42
-0.024063
  0
VERTEX
  8
0
 10
1202.757300
 20
1032.555295
 42
-0.006187
  0
VERTEX
  8
0
 10
1214.052829
 20
1021.301833
 42
-0.006484
  0
VERTEX
  8
0
 10
1225.231232
 20
1009.585839
 42
-0.018149
  0
VERTEX
  8
0
 10
1232.650791
 20
1001.000000
 42
-0.008362
  0
VERTEX
  8
0
 10
1235.562976
 20
997.244906
 42
-0.003270
  0
VERTEX
  8
0
 10
1239.461877
 20
991.968468
 42
-0.003236
  0
VERTEX
  8
0
 10
1243.606996
 20
986.203358
 42
-0.004021
  0
VERTEX
  8
0
 10
1247.383845
 20
980.786275
 42
0.000000
  0
VERTEX
  8
0
 10
1256.096898
 20
968.072549
 42
0.000000
  0
VERTEX
  8
0
 10
1248.298449
 20
971.963757
 42
0.019642
  0
VERTEX
  8
0
 10
1240.502625
 20
975.478359
 42
0.013264
  0
VERTEX
  8
0
 10
1231.364609
 20
978.894375
 42
0.013027
  0
VERTEX
  8
0
 10
1222.652695
 20
981.638644
 42
0.038993
  0
VERTEX
  8
0
 10
1216.538286
 20
982.885511
 42
0.000000
  0
VERTEX
  8
0
 10
1211.576572
 20
983.500000
 42
0.000000
  0
VERTEX
  8
0
 10
1204.809526
 20
999.500000
 42
0.002203
  0
VERTEX
  8
0
 10
1196.715929
 20
1018.403853
 42
0.011616
  0
VERTEX
  8
0
 10
1191.989873
 20
1028.650070
 42
0.012916
  0
VERTEX
  8
0
 10
1188.692000
 20
1034.965726
 42
0.272386
  0
VERTEX
  8
0
 10
1186.934316
 20
1036.000000
 42
-0.074076
  0
VERTEX
  8
0
 10
1185.975066
 20
1036.142899
 42
-0.322384
  0
VERTEX
  8
0
 10
1185.646484
 20
1036.573959
 42
-0.100434
  0
VERTEX
  8
0
 10
1185.802860
 20
1037.470842
 42
-0.006204
  0
VERTEX
  8
0
 10
1186.824262
 20
1039.989829
 42
-0.007056
  0
VERTEX
  8
0
 10
1187.492456
 20
1041.519916
 42
-0.011141
  0
VERTEX
  8
0
 10
1188.112975
 20
1042.810634
 42
-0.005297
  0
VERTEX
  8
0
 10
1188.666536
 20
1043.871312
 42
-0.268917
  0
VERTEX
  8
0
 10
1188.858207
 20
1043.989829
 42
-0.169123
  0
VERTEX
  8
0
 10
1189.107210
 20
1043.910975
 42
-0.001174
  0
VERTEX
  8
0
 10
1190.915343
 20
1042.553149
 42
-0.004361
  0
VERTEX
  8
0
 10
1192.978045
 20
1040.968144
 42
-0.002755
  0
SEQEND
  0
POLYLINE
  8
0
 66
1
 70
1
  0
VERTEX
  8
0
 10
1189.372804
 20
988.750582
 42
-0.002532
  0
VERTEX
  8
0
 10
1195.464307
 20
974.143614
 42
-0.004078
  0
VERTEX
  8
0
 10
1200.489070
 20
961.631538
 42
-0.001723
  0
VERTEX
  8
0
 10
1204.605600
 20
951.026929
 42
-0.091966
  0
VERTEX
  8
0
 10
1205.000000
 20
948.900799
 42
-0.411674
  0
VERTEX
  8
0
 10
1204.752623
 20
948.651266
 42
-0.049330
  0
VERTEX
  8
0
 10
1203.898438
 20
948.728267
 42
-0.036505
  0
VERTEX
  8
0
 10
1202.688698
 20
949.051975
 42
-0.019625
  0
VERTEX
  8
0
 10
1201.250000
 20
949.616097
 42
0.016060
  0
VERTEX
  8
0
 10
1188.406094
 20
954.758179
 42
0.017837
  0
VERTEX
  8
0
 10
1175.696375
 20
958.871829
 42
0.018382
  0
VERTEX
  8
0
 10
1163.096234
 20
961.963176
 42
0.019657
  0
VERTEX
  8
0
 10
1150.580819
 20
964.041003
 42
0.000000
  0
VERTEX
  8
0
 10
1141.005146
 20
965.246299
 42
0.000000
  0
VERTEX
  8
0
 10
1151.768001
 20
976.873150
 42
0.003013
  0
VERTEX
  8
0
 10
1161.087601
 20
987.063389
 42
0.006753
  0
VERTEX
  8
0
 10
1168.012854
 20
994.939099
 42
0.008642
  0
VERTEX
  8
0
 10
1173.109278
 20
1001.108011
 42
0.022977
  0
VERTEX
  8
0
 10
1176.462435
 20
1005.733597
 42
-0.017050
  0
VERTEX
  8
0
 10
1177.585100
 20
1007.321546
 42
-0.027577
  0
VERTEX
  8
0
 10
1178.656536
 20
1008.581690
 42
-0.026407
  0
VERTEX
  8
0
 10
1179.573128
 20
1009.449761
 42
-0.325570
  0
VERTEX
  8
0
 10
1180.025598
 20
1009.484179
 42
-0.148613
  0
VERTEX
  8
0
 10
1180.476651
 20
1008.972136
 42
-0.000887
  0
VERTEX
  8
0
 10
1183.093723
 20
1003.194441
 42
-0.003583
  0
VERTEX
  8
0
 10
1186.032934
 20
996.548085
 42
-0.002261
  0
SEQEND
  0
POLYLINE
  8
0
 66
1
 70
1
  0
VERTEX
  8
0
 10
882.217018
 20
969.307575
 42
-0.024475
  0
VERTEX
  8
0
 10
880.314795
 20
966.897583
 42
-0.025412
  0
VERTEX
  8
0
 10
878.208627
 20
964.716553
 42
-0.028315
  0
VERTEX
  8
0
 10
876.462513
 20
963.259408
 42
-0.616416
  0
VERTEX
  8
0
 10
876.000000
 20
963.492021
 42
-0.169426
  0
VERTEX
  8
0
 10
876.476532
 20
964.857963
 42
-0.007791
  0
VERTEX
  8
0
 10
879.648745
 20
968.725768
 42
-0.005496
  0
VERTEX
  8
0
 10
882.993863
 20
972.590229
 42
-0.432171
  0
VERTEX
  8
0
 10
883.720951
 20
972.612382
 42
-0.281547
  0
VERTEX
  8
0
 10
883.804940
 20
972.263914
 42
-0.028681
  0
VERTEX
  8
0
 10
883.484279
 20
971.436487
 42
-0.029165
  0
VERTEX
  8
0
 10
882.947845
 20
970.419486
 42
-0.018891
  0
SEQEND
  0
POLYLINE
  8
0
 66
1
 70
1
  0
VERTEX
  8
0
 10
969.950921
 20
947.321942
 42
-0.012273
  0
VERTEX
  8
0
 10
971.824689
 20
941.181962
 42
-0.035958
  0
VERTEX
  8
0
 10
972.702063
 20
936.848587
 42
-0.052359
  0
VERTEX
  8
0
 10
972.780135
 20
933.492966
 42
-0.073132
  0
VERTEX
  8
0
 10
972.104581
 20
930.573115
 42
-0.011932
  0
VERTEX
  8
0
 10
971.644878
 20
929.477374
 42
-0.239683
  0
VERTEX
  8
0
 10
971.371635
 20
929.256770
 42
-0.346398
  0
VERTEX
  8
0
 10
971.106509
 20
929.387535
 42
-0.019817
  0
VERTEX
  8
0
 10
970.722637
 20
930.280414
 42
0.137847
  0
VERTEX
  8
0
 10
969.026707
 20
932.556444
 42
0.046451
  0
VERTEX
  8
0
 10
965.495656
 20
934.788080
 42
0.045837
  0
VERTEX
  8
0
 10
961.328178
 20
936.448632
 42
0.072015
  0
VERTEX
  8
0
 10
957.519872
 20
937.000000
 42
0.000000
  0
VERTEX
  8
0
 10
953.000000
 20
937.000000
 42
0.000000
  0
VERTEX
  8
0
 10
953.000000
 20
942.297052
 42
0.021600
  0
VERTEX
  8
0
 10
952.863405
 20
945.457453
 42
0.081007
  0
VERTEX
  8
0
 10
952.377407
 20
947.376392
 42
0.077960
  0
VERTEX
  8
0
 10
951.297212
 20
949.079159
 42
0.019098
  0
VERTEX
  8
0
 10
949.005723
 20
951.494412
 42
0.000000
  0
VERTEX
  8
0
 10
945.011446
 20
955.394719
 42
0.000000
  0
VERTEX
  8
0
 10
949.755723
 20
957.259254
 42
-0.014853
  0
VERTEX
  8
0
 10
951.899394
 20
958.029052
 42
-0.009529
  0
VERTEX
  8
0
 10
954.428244
 20
958.800246
 42
-0.009577
  0
VERTEX
  8
0
 10
956.935351
 20
959.461257
 42
-0.017665
  0
VERTEX
  8
0
 10
959.000000
 20
959.886899
 42
-0.080121
  0
VERTEX
  8
0
 10
962.683313
 20
959.916666
 42
-0.177352
  0
VERTEX
  8
0
 10
965.110127
 20
958.581825
 42
-0.087968
  0
VERTEX
  8
0
 10
967.121506
 20
955.236855
 42
-0.011290
  0
SEQEND
  0
POLYLINE
  8
0
 66
1
 70
1
  0
VERTEX
  8
0
 10
905.399987
 20
947.750000
 42
-0.018429
  0
VERTEX
  8
0
 10
904.936701
 20
947.008191
 42
-0.002375
  0
VERTEX
  8
0
 10
903.879318
 20
945.462176
 42
-0.002771
  0
VERTEX
  8
0
 10
902.605278
 20
943.639915
 42
-0.002308
  0
VERTEX
  8
0
 10
901.231563
 20
941.716981
 42
0.025672
  0
VERTEX
  8
0
 10
899.211624
 20
938.590415
 42
0.066850
  0
VERTEX
  8
0
 10
898.198448
 20
936.116904
 42
0.044454
  0
VERTEX
  8
0
 10
897.663405
 20
932.931500
 42
0.006643
  0
VERTEX
  8
0
 10
897.245759
 20
926.443066
 42
-0.002652
  0
VERTEX
  8
0
 10
896.868197
 20
919.743424
 42
-0.049513
  0
VERTEX
  8
0
 10
896.530545
 20
917.658358
 42
-0.351881
  0
VERTEX
  8
0
 10
895.889885
 20
917.186706
 42
-0.175126
  0
VERTEX
  8
0
 10
894.896470
 20
917.593694
 42
-0.100295
  0
VERTEX
  8
0
 10
893.153224
 20
919.958120
 42
-0.029136
  0
VERTEX
  8
0
 10
891.477327
 20
924.189207
 42
-0.028616
  0
VERTEX
  8
0
 10
890.307908
 20
928.555980
 42
-0.113065
  0
VERTEX
  8
0
 10
890.365194
 20
931.318913
 42
-0.092850
  0
VERTEX
  8
0
 10
890.947162
 20
932.584281
 42
-0.010250
  0
VERTEX
  8
0
 10
892.851266
 20
935.159167
 42
-0.012221
  0
VERTEX
  8
0
 10
895.276937
 20
938.148481
 42
-0.009603
  0
VERTEX
  8
0
 10
898.045022
 20
941.270826
 42
-0.003557
  0
VERTEX
  8
0
 10
902.478275
 20
946.013895
 42
-0.022468
  0
VERTEX
  8
0
 10
904.858812
 20
948.308890
 42
-0.405203
  0
VERTEX
  8
0
 10
905.337633
 20
948.285989
 42
-0.329850
  0
SEQEND
  0
POLYLINE
  8
0
 66
1
 70
1
  0
VERTEX
  8
0
 10
954.229782
 20
919.033894
 42
-0.041043
  0
VERTEX
  8
0
 10
955.279754
 20
918.058569
 42
-0.024400
  0
VERTEX
  8
0
 10
956.368966
 20
916.742625
 42
-0.024318
  0
VERTEX
  8
0
 10
957.333218
 20
915.314845
 42
-0.038185
  0
VERTEX
  8
0
 10
958.002177
 20
913.994745
 42
-0.028249
  0
VERTEX
  8
0
 10
958.643568
 20
912.159503
 42
-0.119349
  0
VERTEX
  8
0
 10
958.692327
 20
911.003672
 42
-0.114408
  0
VERTEX
  8
0
 10
958.207618
 20
909.927651
 42
-0.024966
  0
VERTEX
  8
0
 10
956.887536
 20
908.363534
 42
-0.049972
  0
VERTEX
  8
0
 10
954.527960
 20
906.293920
 42
-0.025343
  0
VERTEX
  8
0
 10
951.197592
 20
904.161656
 42
-0.023358
  0
VERTEX
  8
0
 10
947.859422
 20
902.457122
 42
-0.106753
  0
VERTEX
  8
0
 10
945.742786
 20
902.000000
 42
-0.143731
  0
VERTEX
  8
0
 10
945.011562
 20
902.214633
 42
-0.019311
  0
VERTEX
  8
0
 10
943.683084
 20
903.142400
 42
-0.021001
  0
VERTEX
  8
0
 10
942.160346
 20
904.399789
 42
-0.016267
  0
VERTEX
  8
0
 10
940.608369
 20
905.889020
 42
-0.014240
  0
VERTEX
  8
0
 10
938.659633
 20
908.001852
 42
-0.066125
  0
VERTEX
  8
0
 10
937.745872
 20
909.383006
 42
-0.122285
  0
VERTEX
  8
0
 10
937.507350
 20
910.507251
 42
-0.115492
  0
VERTEX
  8
0
 10
937.813599
 20
911.639020
 42
-0.080040
  0
VERTEX
  8
0
 10
939.984473
 20
914.471264
 42
-0.031947
  0
VERTEX
  8
0
 10
943.757180
 20
917.605468
 42
-0.030719
  0
VERTEX
  8
0
 10
947.778441
 20
920.171221
 42
-0.118201
  0
VERTEX
  8
0
 10
950.615141
 20
920.959962
 42
-0.108168
  0
VERTEX
  8
0
 10
951.202405
 20
920.853335
 42
-0.023623
  0
VERTEX
  8
0
 10
952.136938
 20
920.410695
 42
-0.023557
  0
VERTEX
  8
0
 10
953.191045
 20
919.783570
 42
-0.020684
  0
SEQEND
  0
POLYLINE
  8
0
 66
1
 70
1
  0
VERTEX
  8
0
 10
1229.306641
 20
871.000000
 42
-0.012425
  0
VERTEX
  8
0
 10
1232.795725
 20
849.702488
 42
-0.010098
  0
VERTEX
  8
0
 10
1235.503532
 20
826.731846
 42
-0.008354
  0
VERTEX
  8
0
 10
1237.677503
 20
799.763142
 42
-0.004324
  0
VERTEX
  8
0
 10
1239.539094
 20
766.000000
 42
-0.001260
  0
VERTEX
  8
0
 10
1240.164595
 20
751.764844
 42
-0.001259
  0
VERTEX
  8
0
 10
1240.718543
 20
737.521875
 42
-0.001231
  0
VERTEX
  8
0
 10
1241.140320
 20
725.082503
 42
-0.004985
  0
VERTEX
  8
0
 10
1241.303079
 20
717.500000
 42
-0.009383
  0
VERTEX
  8
0
 10
1241.211755
 20
704.946813
 42
-0.007863
  0
VERTEX
  8
0
 10
1240.655725
 20
691.642078
 42
-0.002129
  0
VERTEX
  8
0
 10
1239.866804
 20
678.882605
 42
-0.565401
  0
VERTEX
  8
0
 10
1239.056336
 20
678.465182
 42
-0.230549
  0
VERTEX
  8
0
 10
1238.741958
 20
678.962148
 42
-0.002934
  0
VERTEX
  8
0
 10
1238.341160
 20
682.765407
 42
-0.007833
  0
VERTEX
  8
0
 10
1237.966991
 20
687.238208
 42
-0.004968
  0
VERTEX
  8
0
 10
1237.664546
 20
692.459729
 42
0.009976
  0
VERTEX
  8
0
 10
1236.686594
 20
706.845811
 42
0.005190
  0
VERTEX
  8
0
 10
1234.922776
 20
724.748372
 42
0.004633
  0
VERTEX
  8
0
 10
1232.486432
 20
745.325474
 42
0.003445
  0
VERTEX
  8
0
 10
1229.429547
 20
768.000000
 42
0.007747
  0
VERTEX
  8
0
 10
1225.037947
 20
795.851657
 42
0.010381
  0
VERTEX
  8
0
 10
1220.143207
 20
820.944553
 42
0.011077
  0
VERTEX
  8
0
 10
1214.510463
 20
844.412734
 42
0.011443
  0
VERTEX
  8
0
 10
1207.898895
 20
867.353537
 42
-0.002695
  0
VERTEX
  8
0
 10
1206.378207
 20
872.302937
 42
-0.004398
  0
VERTEX
  8
0
 10
1205.148111
 20
876.518653
 42
-0.000865
  0
VERTEX
  8
0
 10
1204.109230
 20
880.223655
 42
-0.277599
  0
VERTEX
  8
0
 10
1204.186870
 20
880.504284
 42
-0.117690
  0
VERTEX
  8
0
 10
1204.469898
 20
880.668227
 42
-0.000647
  0
VERTEX
  8
0
 10
1207.492393
 20
881.568275
 42
-0.002756
  0
VERTEX
  8
0
 10
1210.952464
 20
882.573038
 42
-0.001741
  0
VERTEX
  8
0
 10
1215.000000
 20
883.709021
 42
-0.007115
  0
VERTEX
  8
0
 10
1219.668469
 20
884.930510
 42
-0.019241
  0
VERTEX
  8
0
 10
1223.022329
 20
885.621564
 42
-0.019223
  0
VERTEX
  8
0
 10
1225.411483
 20
885.924890
 42
-0.289045
  0
VERTEX
  8
0
 10
1226.124521
 20
885.558274
 42
-0.077669
  0
VERTEX
  8
0
 10
1226.449369
 20
884.740466
 42
-0.001971
  0
VERTEX
  8
0
 10
1227.316884
 20
880.845243
 42
-0.004166
  0
VERTEX
  8
0
 10
1228.281323
 20
876.249702
 42
-0.002824
  0
SEQEND
  0
POLYLINE
  8
0
 66
1
 70
1
  0
VERTEX
  8
0
 10
1034.036920
 20
835.399555
 42
0.002518
  0
VERTEX
  8
0
 10
1033.653301
 20
832.647789
 42
0.003134
  0
VERTEX
  8
0
 10
1033.325658
 20
830.086119
 42
0.002551
  0
VERTEX
  8
0
 10
1033.075146
 20
827.933237
 42
0.023765
  0
VERTEX
  8
0
 10
1033.016071
 20
827.000000
 42
-0.423467
  0
VERTEX
  8
0
 10
1032.794885
 20
826.792304
 42
-0.177606
  0
VERTEX
  8
0
 10
1032.376072
 20
826.968750
 42
-0.050823
  0
VERTEX
  8
0
 10
1031.689372
 20
827.753345
 42
-0.018089
  0
VERTEX
  8
0
 10
1030.870418
 20
829.000000
 42
0.012016
  0
VERTEX
  8
0
 10
1029.982601
 20
830.387922
 42
0.013914
  0
VERTEX
  8
0
 10
1029.069830
 20
831.663940
 42
0.013004
  0
VERTEX
  8
0
 10
1028.243289
 20
832.697048
 42
0.075981
  0
VERTEX
  8
0
 10
1027.720735
 20
833.153837
 42
-0.347875
  0
VERTEX
  8
0
 10
1027.535318
 20
833.687215
 42
-0.043498
  0
VERTEX
  8
0
 10
1028.072476
 20
834.883813
 42
-0.034384
  0
VERTEX
  8
0
 10
1029.097137
 20
836.455913
 42
-0.017014
  0
VERTEX
  8
0
 10
1030.596578
 20
838.308659
 42
-0.005808
  0
VERTEX
  8
0
 10
1032.112534
 20
840.016209
 42
-0.009705
  0
VERTEX
  8
0
 10
1033.431834
 20
841.412495
 42
-0.003742
  0
VERTEX
  8
0
 10
1034.568766
 20
842.552727
 42
-0.405831
  0
VERTEX
  8
0
 10
1034.767112
 20
842.554377
 42
-0.229327
  0
VERTEX
  8
0
 10
1034.855782
 20
842.316796
 42
-0.002014
  0
VERTEX
  8
0
 10
1034.662802
 20
840.347350
 42
-0.006424
  0
VERTEX
  8
0
 10
1034.399953
 20
838.062821
 42
-0.004038
  0
SEQEND
  0
POLYLINE
  8
0
 66
1
 70
1
  0
VERTEX
  8
0
 10
1258.288930
 20
809.500000
 42
-0.002912
  0
VERTEX
  8
0
 10
1263.576579
 20
793.889665
 42
-0.008028
  0
VERTEX
  8
0
 10
1267.061491
 20
782.809371
 42
-0.007957
  0
VERTEX
  8
0
 10
1270.205725
 20
771.568800
 42
-0.002818
  0
VERTEX
  8
0
 10
1274.358824
 20
755.385083
 42
-0.006455
  0
VERTEX
  8
0
 10
1278.587306
 20
737.539372
 42
-0.008643
  0
VERTEX
  8
0
 10
1281.932113
 20
721.245016
 42
-0.009535
  0
VERTEX
  8
0
 10
1284.424591
 20
706.378074
 42
-0.012902
  0
VERTEX
  8
0
 10
1286.072196
 20
692.854575
 42
-0.003267
  0
VERTEX
  8
0
 10
1287.027579
 20
682.135935
 42
-0.111340
  0
VERTEX
  8
0
 10
1286.675194
 20
679.624494
 42
-0.595026
  0
VERTEX
  8
0
 10
1285.619517
 20
679.479900
 42
-0.020115
  0
VERTEX
  8
0
 10
1282.671718
 20
683.852326
 42
0.027152
  0
VERTEX
  8
0
 10
1278.619188
 20
689.684667
 42
0.019565
  0
VERTEX
  8
0
 10
1273.508506
 20
695.744062
 42
0.018655
  0
VERTEX
  8
0
 10
1268.423639
 20
700.914053
 42
0.073546
  0
VERTEX
  8
0
 10
1264.772209
 20
703.463750
 42
0.029301
  0
VERTEX
  8
0
 10
1263.396567
 20
704.052112
 42
0.021315
  0
VERTEX
  8
0
 10
1261.807743
 20
704.548727
 42
0.021653
  0
VERTEX
  8
0
 10
1260.254767
 20
704.891151
 42
0.043458
  0
VERTEX
  8
0
 10
1259.004793
 20
705.000000
 42
0.000000
  0
VERTEX
  8
0
 10
1256.316861
 20
705.000000
 42
0.000000
  0
VERTEX
  8
0
 10
1255.645704
 20
727.250000
 42
0.002641
  0
VERTEX
  8
0
 10
1254.907246
 20
748.080251
 42
0.001034
  0
VERTEX
  8
0
 10
1253.677224
 20
776.810635
 42
0.000913
  0
VERTEX
  8
0
 10
1252.371866
 20
804.752900
 42
0.004875
  0
VERTEX
  8
0
 10
1251.482571
 20
820.000000
 42
-0.006671
  0
VERTEX
  8
0
 10
1251.287247
 20
823.569322
 42
-0.022891
  0
VERTEX
  8
0
 10
1251.297568
 20
825.890530
 42
-0.066202
  0
VERTEX
  8
0
 10
1251.494664
 20
826.958906
 42
-0.637998
  0
VERTEX
  8
0
 10
1251.834403
 20
827.000000
 42
-0.048913
  0
VERTEX
  8
0
 10
1252.385887
 20
825.880258
 42
-0.001635
  0
VERTEX
  8
0
 10
1254.114379
 20
821.240625
 42
-0.003088
  0
VERTEX
  8
0
 10
1256.104977
 20
815.739157
 42
-0.002145
  0
SEQEND
  0
POLYLINE
  8
0
 66
1
 70
1
  0
VERTEX
  8
0
 10
929.000000
 20
792.514188
 42
-0.222697
  0
VERTEX
  8
0
 10
928.868378
 20
792.233327
 42
-0.006960
  0
VERTEX
  8
0
 10
927.856163
 20
791.414129
 42
-0.012362
  0
VERTEX
  8
0
 10
926.598376
 20
790.474225
 42
-0.008106
  0
VERTEX
  8
0
 10
925.106087
 20
789.451507
 42
-0.027879
  0
VERTEX
  8
0
 10
922.996701
 20
788.218807
 42
-0.050515
  0
VERTEX
  8
0
 10
921.136398
 20
787.492607
 42
-0.052749
  0
VERTEX
  8
0
 10
919.224285
 20
787.172581
 42
-0.033488
  0
VERTEX
  8
0
 10
916.963946
 20
787.187318
 42
0.000000
  0
VERTEX
  8
0
 10
912.715720
 20
787.500000
 42
0.000000
  0
VERTEX
  8
0
 10
916.595980
 20
790.250000
 42
-0.029760
  0
VERTEX
  8
0
 10
918.627085
 20
791.515068
 42
-0.042984
  0
VERTEX
  8
0
 10
920.564905
 20
792.361072
 42
-0.044833
  0
VERTEX
  8
0
 10
922.554390
 20
792.839746
 42
-0.036644
  0
VERTEX
  8
0
 10
924.738120
 20
793.000000
 42
-0.010698
  0
VERTEX
  8
0
 10
926.372144
 20
792.965035
 42
-0.017679
  0
VERTEX
  8
0
 10
927.748073
 20
792.857293
 42
-0.011880
  0
VERTEX
  8
0
 10
928.835956
 20
792.707026
 42
-0.367801
  0
SEQEND
  0
POLYLINE
  8
0
 66
1
 70
1
  0
VERTEX
  8
0
 10
602.041240
 20
536.047604
 42
-0.016256
  0
VERTEX
  8
0
 10
595.940568
 20
529.451505
 42
-0.023018
  0
VERTEX
  8
0
 10
590.067585
 20
524.025478
 42
-0.025702
  0
VERTEX
  8
0
 10
584.320426
 20
519.670583
 42
-0.032977
  0
VERTEX
  8
0
 10
578.601151
 20
516.310963
 42
0.008148
  0
VERTEX
  8
0
 10
575.411046
 20
514.644141
 42
0.004893
  0
VERTEX
  8
0
 10
571.676588
 20
512.567169
 42
0.004898
  0
VERTEX
  8
0
 10
568.001607
 20
510.428001
 42
0.008513
  0
VERTEX
  8
0
 10
565.000000
 20
508.571267
 42
-0.001125
  0
VERTEX
  8
0
 10
558.123298
 20
504.175667
 42
-0.140999
  0
VERTEX
  8
0
 10
557.150194
 20
503.889148
 42
-0.673978
  0
VERTEX
  8
0
 10
557.002813
 20
504.246779
 42
-0.002444
  0
VERTEX
  8
0
 10
561.433487
 20
508.549171
 42
-0.016053
  0
VERTEX
  8
0
 10
568.901778
 20
515.282845
 42
-0.010574
  0
VERTEX
  8
0
 10
577.893742
 20
522.561238
 42
-0.010471
  0
VERTEX
  8
0
 10
587.345570
 20
529.574748
 42
-0.013979
  0
VERTEX
  8
0
 10
596.227414
 20
535.514976
 42
-0.001358
  0
VERTEX
  8
0
 10
600.190682
 20
537.993175
 42
-0.002182
  0
VERTEX
  8
0
 10
603.584930
 20
540.082284
 42
-0.000380
  0
VERTEX
  8
0
 10
606.592776
 20
541.912382
 42
-0.129014
  0
VERTEX
  8
0
 10
606.848944
 20
541.988612
 42
-0.640103
  0
VERTEX
  8
0
 10
606.899323
 20
541.888106
 42
-0.001556
  0
VERTEX
  8
0
 10
605.580621
 20
540.248139
 42
-0.005332
  0
VERTEX
  8
0
 10
603.994180
 20
538.329926
 42
-0.003053
  0
SEQEND
  0
POLYLINE
  8
0
 66
1
 70
1
  0
VERTEX
  8
0
 10
226.864954
 20
507.224533
 42
0.009017
  0
VERTEX
  8
0
 10
228.881872
 20
504.379344
 42
0.003221
  0
VERTEX
  8
0
 10
231.858473
 20
500.390957
 42
0.003194
  0
VERTEX
  8
0
 10
235.180544
 20
496.056805
 42
0.003770
  0
VERTEX
  8
0
 10
238.380708
 20
492.000000
 42
0.000000
  0
VERTEX
  8
0
 10
245.991575
 20
482.500000
 42
0.000000
  0
VERTEX
  8
0
 10
239.995788
 20
482.202283
 42
0.000000
  0
VERTEX
  8
0
 10
234.000000
 20
481.904565
 42
0.000000
  0
VERTEX
  8
0
 10
234.000000
 20
473.075587
 42
0.000000
  0
VERTEX
  8
0
 10
234.000000
 20
464.246608
 42
0.000000
  0
VERTEX
  8
0
 10
246.875883
 20
451.771702
 42
0.018220
  0
VERTEX
  8
0
 10
259.182960
 20
440.687971
 42
0.039817
  0
VERTEX
  8
0
 10
269.526500
 20
433.348541
 42
0.030473
  0
VERTEX
  8
0
 10
282.499762
 20
426.650503
 42
0.007006
  0
VERTEX
  8
0
 10
305.186838
 20
417.014151
 42
0.000000
  0
VERTEX
  8
0
 10
317.873675
 20
411.834017
 42
0.000000
  0
VERTEX
  8
0
 10
313.452173
 20
405.827831
 42
0.040939
  0
VERTEX
  8
0
 10
310.287215
 20
400.697371
 42
0.025543
  0
VERTEX
  8
0
 10
307.406354
 20
394.243579
 42
0.024542
  0
VERTEX
  8
0
 10
305.057324
 20
387.147837
 42
0.026740
  0
VERTEX
  8
0
 10
303.492483
 20
380.055198
 42
0.021014
  0
VERTEX
  8
0
 10
303.171079
 20
377.426415
 42
0.003280
  0
VERTEX
  8
0
 10
302.789199
 20
372.209957
 42
0.003646
  0
VERTEX
  8
0
 10
302.423907
 20
366.049233
 42
0.003170
  0
VERTEX
  8
0
 10
302.129191
 20
359.589634
 42
0.000000
  0
VERTEX
  8
0
 10
301.500000
 20
343.568872
 42
0.000000
  0
VERTEX
  8
0
 10
295.073950
 20
351.534436
 42
-0.031741
  0
VERTEX
  8
0
 10
277.600450
 20
376.251508
 42
-0.016389
  0
VERTEX
  8
0
 10
258.808961
 20
409.137707
 42
-0.016282
  0
VERTEX
  8
0
 10
241.753442
 20
444.105924
 42
-0.024991
  0
VERTEX
  8
0
 10
229.531269
 20
475.500000
 42
-0.007054
  0
VERTEX
  8
0
 10
225.497481
 20
488.215971
 42
-0.003053
  0
VERTEX
  8
0
 10
220.470842
 20
505.248888
 42
-0.000921
  0
VERTEX
  8
0
 10
215.404840
 20
522.931610
 42
-0.071511
  0
VERTEX
  8
0
 10
215.014066
 20
525.821639
 42
-0.673318
  0
VERTEX
  8
0
 10
215.306824
 20
525.937631
 42
-0.036194
  0
VERTEX
  8
0
 10
216.189002
 20
524.869813
 42
-0.020541
  0
VERTEX
  8
0
 10
217.468928
 20
522.903616
 42
-0.009223
  0
VERTEX
  8
0
 10
218.994099
 20
520.224533
 42
0.006790
  0
VERTEX
  8
0
 10
220.796854
 20
517.021697
 42
0.004543
  0
VERTEX
  8
0
 10
222.942124
 20
513.404653
 42
0.004575
  0
VERTEX
  8
0
 10
225.085310
 20
509.936851
 42
0.008979
  0
SEQEND
  0
POLYLINE
  8
0
 66
1
 70
1
  0
VERTEX
  8
0
 10
1095.908388
 20
497.945474
 42
-0.033868
  0
VERTEX
  8
0
 10
1087.592306
 20
475.797554
 42
-0.031508
  0
VERTEX
  8
0
 10
1076.188311
 20
454.411927
 42
-0.032332
  0
VERTEX
  8
0
 10
1062.565020
 20
435.229415
 42
-0.041902
  0
VERTEX
  8
0
 10
1047.614734
 20
419.685425
 42
-0.004509
  0
VERTEX
  8
0
 10
1045.077238
 20
417.495123
 42
-0.008017
  0
VERTEX
  8
0
 10
1042.943078
 20
415.744313
 42
-0.003429
  0
VERTEX
  8
0
 10
1041.165360
 20
414.352762
 42
-0.622808
  0
VERTEX
  8
0
 10
1041.000000
 20
414.434022
 42
-0.075617
  0
VERTEX
  8
0
 10
1041.064197
 20
414.856079
 42
-0.000670
  0
VERTEX
  8
0
 10
1042.030774
 20
417.945326
 42
-0.002301
  0
VERTEX
  8
0
 10
1043.164057
 20
421.493263
 42
-0.001481
  0
VERTEX
  8
0
 10
1044.509017
 20
425.596558
 42
-0.030386
  0
VERTEX
  8
0
 10
1050.884066
 20
441.536512
 42
-0.023348
  0
VERTEX
  8
0
 10
1059.674215
 20
458.100130
 42
-0.021881
  0
VERTEX
  8
0
 10
1070.640985
 20
474.899763
 42
-0.018880
  0
VERTEX
  8
0
 10
1083.560336
 20
491.551297
 42
0.002346
  0
VERTEX
  8
0
 10
1087.930447
 20
496.814918
 42
0.002769
  0
VERTEX
  8
0
 10
1092.014266
 20
501.837373
 42
0.002422
  0
VERTEX
  8
0
 10
1095.417878
 20
506.113208
 42
0.017389
  0
VERTEX
  8
0
 10
1096.977591
 20
508.240373
 42
-0.007216
  0
VERTEX
  8
0
 10
1097.945193
 20
509.617921
 42
-0.012255
  0
VERTEX
  8
0
 10
1098.798947
 20
510.737997
 42
-0.006023
  0
VERTEX
  8
0
 10
1099.529705
 20
511.627317
 42
-0.439489
  0
VERTEX
  8
0
 10
1099.698783
 20
511.634550
 42
-0.269642
  0
VERTEX
  8
0
 10
1099.759419
 20
511.405360
 42
-0.000503
  0
VERTEX
  8
0
 10
1098.685840
 20
507.512899
 42
-0.003316
  0
VERTEX
  8
0
 10
1097.437518
 20
503.118091
 42
-0.002024
  0
SEQEND
  0
POLYLINE
  8
0
 66
1
 70
1
  0
VERTEX
  8
0
 10
1006.424737
 20
457.000000
 42
-0.029028
  0
VERTEX
  8
0
 10
1006.514203
 20
444.682472
 42
-0.047909
  0
VERTEX
  8
0
 10
1004.995966
 20
434.394888
 42
-0.038366
  0
VERTEX
  8
0
 10
1001.269073
 20
423.109393
 42
-0.012337
  0
VERTEX
  8
0
 10
994.068711
 20
407.000000
 42
0.000000
  0
VERTEX
  8
0
 10
990.968838
 20
400.500000
 42
0.000000
  0
VERTEX
  8
0
 10
991.507831
 20
410.295920
 42
-0.015736
  0
VERTEX
  8
0
 10
992.248684
 20
418.845618
 42
-0.018296
  0
VERTEX
  8
0
 10
993.504432
 20
426.908980
 42
-0.012654
  0
VERTEX
  8
0
 10
995.710300
 20
436.943426
 42
-0.003419
  0
VERTEX
  8
0
 10
999.715534
 20
452.725825
 42
-0.004540
  0
VERTEX
  8
0
 10
1001.687433
 20
460.007791
 42
-0.010558
  0
VERTEX
  8
0
 10
1003.329493
 20
465.418590
 42
-0.009033
  0
VERTEX
  8
0
 10
1004.649916
 20
469.226001
 42
-0.698392
  0
VERTEX
  8
0
 10
1005.105908
 20
469.225825
 42
-0.056543
  0
VERTEX
  8
0
 10
1005.386136
 20
468.071491
 42
-0.004433
  0
VERTEX
  8
0
 10
1005.754083
 20
464.922586
 42
-0.005992
  0
VERTEX
  8
0
 10
1006.115611
 20
461.147420
 42
-0.004547
  0
SEQEND
  0
POLYLINE
  8
0
 66
1
 70
1
  0
VERTEX
  8
0
 10
1178.336775
 20
444.600573
 42
-0.015829
  0
VERTEX
  8
0
 10
1183.258101
 20
427.071578
 42
-0.006198
  0
VERTEX
  8
0
 10
1188.978121
 20
402.604145
 42
-0.006264
  0
VERTEX
  8
0
 10
1194.286236
 20
377.040347
 42
-0.010617
  0
VERTEX
  8
0
 10
1198.005320
 20
355.500000
 42
-0.033691
  0
VERTEX
  8
0
 10
1200.773724
 20
321.971165
 42
-0.033754
  0
VERTEX
  8
0
 10
1199.010752
 20
288.395579
 42
-0.034155
  0
VERTEX
  8
0
 10
1192.792673
 20
255.751504
 42
-0.036503
  0
VERTEX
  8
0
 10
1182.277299
 20
225.000000
 42
-0.019708
  0
VERTEX
  8
0
 10
1176.732292
 20
213.278482
 42
-0.037867
  0
VERTEX
  8
0
 10
1171.240059
 20
204.459062
 42
-0.047360
  0
VERTEX
  8
0
 10
1165.518559
 20
198.031166
 42
-0.067999
  0
VERTEX
  8
0
 10
1159.291527
 20
193.650754
 42
0.020738
  0
VERTEX
  8
0
 10
1158.071703
 20
192.954401
 42
0.017288
  0
VERTEX
  8
0
 10
1156.835374
 20
192.118051
 42
0.017635
  0
VERTEX
  8
0
 10
1155.756492
 20
191.272738
 42
0.044580
  0
VERTEX
  8
0
 10
1155.054723
 20
190.565937
 42
-0.201850
  0
VERTEX
  8
0
 10
1152.195045
 20
189.078158
 42
-0.071595
  0
VERTEX
  8
0
 10
1147.497406
 20
189.367750
 42
-0.063662
  0
VERTEX
  8
0
 10
1142.362632
 20
191.136104
 42
-0.074101
  0
VERTEX
  8
0
 10
1138.125041
 20
194.077383
 42
-0.081476
  0
VERTEX
  8
0
 10
1134.683960
 20
198.570964
 42
-0.059190
  0
VERTEX
  8
0
 10
1132.386520
 20
204.447400
 42
-0.059732
  0
VERTEX
  8
0
 10
1131.545769
 20
210.631606
 42
-0.087937
  0
VERTEX
  8
0
 10
1132.415126
 20
216.031608
 42
0.056023
  0
VERTEX
  8
0
 10
1133.580847
 20
221.169346
 42
0.025652
  0
VERTEX
  8
0
 10
1133.992850
 20
228.040002
 42
0.019572
  0
VERTEX
  8
0
 10
1133.792904
 20
234.585157
 42
0.204895
  0
VERTEX
  8
0
 10
1132.594796
 20
236.921326
 42
0.126804
  0
VERTEX
  8
0
 10
1131.568167
 20
237.405224
 42
0.023545
  0
VERTEX
  8
0
 10
1129.485252
 20
237.701133
 42
0.021342
  0
VERTEX
  8
0
 10
1126.735348
 20
237.842502
 42
0.011530
  0
VERTEX
  8
0
 10
1123.344796
 20
237.793771
 42
0.000000
  0
VERTEX
  8
0
 10
1115.500000
 20
237.500000
 42
0.000000
  0
VERTEX
  8
0
 10
1113.793770
 20
232.500000
 42
0.042320
  0
VERTEX
  8
0
 10
1112.929964
 20
229.034260
 42
0.022132
  0
VERTEX
  8
0
 10
1112.417391
 20
224.612972
 42
0.013722
  0
VERTEX
  8
0
 10
1112.139171
 20
218.253228
 42
0.003510
  0
VERTEX
  8
0
 10
1112.043770
 20
207.949266
 42
0.000000
  0
VERTEX
  8
0
 10
1112.000000
 20
188.398531
 42
0.000000
  0
VERTEX
  8
0
 10
1107.341492
 20
186.135253
 42
0.000000
  0
VERTEX
  8
0
 10
1102.682984
 20
183.871975
 42
0.000000
  0
VERTEX
  8
0
 10
1096.229784
 20
190.185988
 42
-0.036013
  0
VERTEX
  8
0
 10
1089.723729
 20
197.539847
 42
-0.100808
  0
VERTEX
  8
0
 10
1086.736690
 20
203.701869
 42
-0.099228
  0
VERTEX
  8
0
 10
1086.373333
 20
210.599877
 42
-0.034233
  0
VERTEX
  8
0
 10
1088.500000
 20
220.403244
 42
0.032721
  0
VERTEX
  8
0
 10
1090.166966
 20
227.976954
 42
0.025510
  0
VERTEX
  8
0
 10
1091.010337
 20
236.364143
 42
0.020618
  0
VERTEX
  8
0
 10
1091.070247
 20
243.872001
 42
0.190285
  0
VERTEX
  8
0
 10
1089.800000
 20
246.800000
 42
0.142229
  0
VERTEX
  8
0
 10
1088.886476
 20
247.302429
 42
0.021670
  0
VERTEX
  8
0
 10
1086.817607
 20
247.672362
 42
0.021075
  0
VERTEX
  8
0
 10
1084.118344
 20
247.919930
 42
0.012330
  0
VERTEX
  8
0
 10
1080.871849
 20
248.000000
 42
0.000000
  0
VERTEX
  8
0
 10
1073.143698
 20
248.000000
 42
0.000000
  0
VERTEX
  8
0
 10
1070.978277
 20
242.250000
 42
0.014280
  0
VERTEX
  8
0
 10
1070.025223
 20
239.482109
 42
0.006657
  0
VERTEX
  8
0
 10
1068.940849
 20
235.844821
 42
0.006589
  0
VERTEX
  8
0
 10
1067.903392
 20
231.995247
 42
0.009157
  0
VERTEX
  8
0
 10
1067.083158
 20
228.519602
 42
0.000000
  0
VERTEX
  8
0
 10
1065.353460
 20
220.539204
 42
0.000000
  0
VERTEX
  8
0
 10
1064.176730
 20
225.212422
 42
-0.009187
  0
VERTEX
  8
0
 10
1063.726274
 20
227.151090
 42
-0.009092
  0
VERTEX
  8
0
 10
1063.345664
 20
229.111676
 42
-0.008990
  0
VERTEX
  8
0
 10
1063.074806
 20
230.838531
 42
-0.034415
  0
VERTEX
  8
0
 10
1063.000000
 20
231.924087
 42
-0.112541
  0
VERTEX
  8
0
 10
1063.295397
 20
233.219867
 42
-0.006769
  0
VERTEX
  8
0
 10
1065.087620
 20
236.820806
 42
-0.009866
  0
VERTEX
  8
0
 10
1067.384411
 20
241.074636
 42
-0.007112
  0
VERTEX
  8
0
 10
1070.106791
 20
245.731267
 42
0.014054
  0
VERTEX
  8
0
 10
1079.234360
 20
261.853555
 42
0.017937
  0
VERTEX
  8
0
 10
1086.679660
 20
277.220254
 42
0.018147
  0
VERTEX
  8
0
 10
1092.937124
 20
292.931717
 42
0.014979
  0
VERTEX
  8
0
 10
1098.485258
 20
310.088057
 42
0.012245
  0
VERTEX
  8
0
 10
1100.647470
 20
318.271061
 42
0.018048
  0
VERTEX
  8
0
 10
1102.107405
 20
325.557399
 42
0.012533
  0
VERTEX
  8
0
 10
1103.355891
 20
334.640798
 42
0.002988
  0
VERTEX
  8
0
 10
1104.962879
 20
349.809012
 42
-0.007842
  0
VERTEX
  8
0
 10
1105.437189
 20
353.905956
 42
-0.009813
  0
VERTEX
  8
0
 10
1106.011201
 20
357.689438
 42
-0.008236
  0
VERTEX
  8
0
 10
1106.604507
 20
360.830922
 42
-0.072191
  0
VERTEX
  8
0
 10
1107.085366
 20
362.159507
 42
-0.063592
  0
VERTEX
  8
0
 10
1108.025330
 20
363.480587
 42
-0.002282
  0
VERTEX
  8
0
 10
1112.266783
 20
368.033574
 42
-0.004169
  0
VERTEX
  8
0
 10
1117.359031
 20
373.360354
 42
-0.002906
  0
VERTEX
  8
0
 10
1123.189988
 20
379.289567
 42
0.009135
  0
VERTEX
  8
0
 10
1135.663263
 20
392.293135
 42
0.010036
  0
VERTEX
  8
0
 10
1147.259286
 20
405.349089
 42
0.010769
  0
VERTEX
  8
0
 10
1157.293352
 20
417.640305
 42
0.018978
  0
VERTEX
  8
0
 10
1164.962934
 20
428.267221
 42
0.000000
  0
VERTEX
  8
0
 10
1171.000000
 20
437.338606
 42
0.000000
  0
VERTEX
  8
0
 10
1171.000000
 20
445.092658
 42
0.000000
  0
VERTEX
  8
0
 10
1171.000000
 20
452.846711
 42
0.000000
  0
VERTEX
  8
0
 10
1173.810697
 20
451.444550
 42
-0.067076
  0
VERTEX
  8
0
 10
1175.236061
 20
450.476315
 42
-0.064053
  0
VERTEX
  8
0
 10
1176.379854
 20
449.151566
 42
-0.049118
  0
VERTEX
  8
0
 10
1177.368672
 20
447.280355
 42
-0.020658
  0
SEQEND
  0
POLYLINE
  8
0
 66
1
 70
1
  0
VERTEX
  8
0
 10
1108.404988
 20
418.894249
 42
-0.042076
  0
VERTEX
  8
0
 10
1101.556747
 20
412.497680
 42
-0.016235
  0
VERTEX
  8
0
 10
1091.079920
 20
404.782546
 42
-0.008845
  0
VERTEX
  8
0
 10
1080.273142
 20
397.631273
 42
-0.225890
  0
VERTEX
  8
0
 10
1076.865524
 20
397.211492
 42
-0.485848
  0
VERTEX
  8
0
 10
1076.722954
 20
397.608806
 42
-0.014718
  0
VERTEX
  8
0
 10
1077.842044
 20
399.282239
 42
-0.018689
  0
VERTEX
  8
0
 10
1079.454931
 20
401.376616
 42
-0.010481
  0
VERTEX
  8
0
 10
1081.560664
 20
403.803906
 42
-0.020971
  0
VERTEX
  8
0
 10
1085.020621
 20
407.319103
 42
-0.035316
  0
VERTEX
  8
0
 10
1088.235292
 20
409.922823
 42
-0.028800
  0
VERTEX
  8
0
 10
1092.216616
 20
412.378013
 42
-0.009453
  0
VERTEX
  8
0
 10
1098.339673
 20
415.535462
 42
-0.001439
  0
VERTEX
  8
0
 10
1102.628805
 20
417.630239
 42
-0.002290
  0
VERTEX
  8
0
 10
1106.311172
 20
419.394792
 42
-0.000477
  0
VERTEX
  8
0
 10
1109.556468
 20
420.927887
 42
-0.110541
  0
VERTEX
  8
0
 10
1109.878666
 20
421.000000
 42
-0.576520
  0
VERTEX
  8
0
 10
1109.944428
 20
420.886423
 42
-0.022381
  0
VERTEX
  8
0
 10
1109.623688
 20
420.381436
 42
-0.020599
  0
VERTEX
  8
0
 10
1109.105652
 20
419.702543
 42
-0.010596
  0
SEQEND
  0
POLYLINE
  8
0
 66
1
 70
1
  0
VERTEX
  8
0
 10
1080.544367
 20
334.363147
 42
-0.021005
  0
VERTEX
  8
0
 10
1075.255069
 20
317.473545
 42
-0.016951
  0
VERTEX
  8
0
 10
1068.213105
 20
299.811842
 42
-0.016523
  0
VERTEX
  8
0
 10
1059.764033
 20
282.156172
 42
-0.017034
  0
VERTEX
  8
0
 10
1050.247320
 20
265.279362
 42
0.000000
  0
VERTEX
  8
0
 10
1042.186859
 20
252.058724
 42
0.000000
  0
VERTEX
  8
0
 10
1035.645483
 20
258.992926
 42
-0.009004
  0
VERTEX
  8
0
 10
1029.699187
 20
265.528158
 42
-0.013079
  0
VERTEX
  8
0
 10
1024.712071
 20
271.520649
 42
-0.012873
  0
VERTEX
  8
0
 10
1019.987110
 20
277.837899
 42
-0.008339
  0
VERTEX
  8
0
 10
1014.835544
 20
285.371739
 42
0.000000
  0
VERTEX
  8
0
 10
1008.983848
 20
294.243479
 42
0.000000
  0
VERTEX
  8
0
 10
1019.741924
 20
300.211164
 42
0.006078
  0
VERTEX
  8
0
 10
1024.227401
 20
302.771121
 42
0.005478
  0
VERTEX
  8
0
 10
1028.808565
 20
305.527952
 42
0.005496
  0
VERTEX
  8
0
 10
1032.860819
 20
308.089279
 42
0.017271
  0
VERTEX
  8
0
 10
1035.500000
 20
309.930714
 42
-0.006236
  0
VERTEX
  8
0
 10
1038.222308
 20
311.920876
 42
-0.001573
  0
VERTEX
  8
0
 10
1042.703125
 20
315.090433
 42
-0.001605
  0
VERTEX
  8
0
 10
1047.847656
 20
318.680648
 42
-0.001619
  0
VERTEX
  8
0
 10
1053.000000
 20
322.227142
 42
0.003336
  0
VERTEX
  8
0
 10
1058.407190
 20
325.976493
 42
0.002488
  0
VERTEX
  8
0
 10
1064.323450
 20
330.181717
 42
0.002514
  0
VERTEX
  8
0
 10
1069.860858
 20
334.201638
 42
0.005714
  0
VERTEX
  8
0
 10
1073.994725
 20
337.307796
 42
-0.002863
  0
VERTEX
  8
0
 10
1077.268674
 20
339.797153
 42
-0.004744
  0
VERTEX
  8
0
 10
1080.062732
 20
341.855300
 42
-0.000912
  0
VERTEX
  8
0
 10
1082.525163
 20
343.626549
 42
-0.367053
  0
VERTEX
  8
0
 10
1082.723009
 20
343.610324
 42
-0.258743
  0
VERTEX
  8
0
 10
1082.785312
 20
343.392855
 42
-0.001005
  0
VERTEX
  8
0
 10
1082.179377
 20
340.797622
 42
-0.004658
  0
VERTEX
  8
0
 10
1081.452344
 20
337.835643
 42
-0.002870
  0
SEQEND
  0
POLYLINE
  8
0
 66
1
 70
1
  0
VERTEX
  8
0
 10
826.000000
 20
241.600867
 42
-0.279611
  0
VERTEX
  8
0
 10
825.275993
 20
240.407417
 42
-0.001371
  0
VERTEX
  8
0
 10
812.186560
 20
233.635056
 42
-0.004915
  0
VERTEX
  8
0
 10
800.099386
 20
227.572658
 42
-0.044179
  0
VERTEX
  8
0
 10
794.571885
 20
225.449311
 42
-0.044490
  0
VERTEX
  8
0
 10
788.968488
 20
224.374337
 42
-0.041832
  0
VERTEX
  8
0
 10
783.144638
 20
224.275305
 42
-0.044390
  0
VERTEX
  8
0
 10
777.829987
 20
225.107560
 42
-0.080268
  0
VERTEX
  8
0
 10
773.790551
 20
226.835677
 42
0.000000
  0
VERTEX
  8
0
 10
770.593539
 20
228.859881
 42
0.000000
  0
VERTEX
  8
0
 10
773.046770
 20
229.423817
 42
-0.001822
  0
VERTEX
  8
0
 10
774.633284
 20
229.782434
 42
-0.000152
  0
VERTEX
  8
0
 10
778.744989
 20
230.694794
 42
-0.000203
  0
VERTEX
  8
0
 10
783.650647
 20
231.779673
 42
-0.000157
  0
VERTEX
  8
0
 10
789.000000
 20
232.958640
 42
0.003465
  0
VERTEX
  8
0
 10
798.207521
 20
235.051894
 42
0.004107
  0
VERTEX
  8
0
 10
806.876090
 20
237.161164
 42
0.004470
  0
VERTEX
  8
0
 10
814.513329
 20
239.158851
 42
0.008967
  0
VERTEX
  8
0
 10
820.500000
 20
240.897953
 42
-0.013148
  0
VERTEX
  8
0
 10
822.762480
 20
241.534732
 42
-0.030246
  0
VERTEX
  8
0
 10
824.499244
 20
241.864403
 42
-0.039416
  0
VERTEX
  8
0
 10
825.688585
 20
241.921918
 42
-0.405317
  0
SEQEND
  0
POLYLINE
  8
0
 66
1
 70
1
  0
VERTEX
  8
0
 10
306.500000
 20
887.503329
 42
0.009272
  0
VERTEX
  8
0
 10
294.664670
 20
874.883122
 42
0.033661
  0
VERTEX
  8
0
 10
287.860167
 20
866.249642
 42
0.049863
  0
VERTEX
  8
0
 10
283.749719
 20
858.735065
 42
0.046361
  0
VERTEX
  8
0
 10
281.086839
 20
850.371256
 42
-0.014364
  0
VERTEX
  8
0
 10
280.410113
 20
847.656563
 42
-0.007508
  0
VERTEX
  8
0
 10
279.420153
 20
844.315306
 42
-0.007460
  0
VERTEX
  8
0
 10
278.301310
 20
840.916107
 42
-0.011328
  0
VERTEX
  8
0
 10
277.218455
 20
838.000000
 42
0.006484
  0
VERTEX
  8
0
 10
276.086714
 20
835.040412
 42
0.003895
  0
VERTEX
  8
0
 10
274.816450
 20
831.500000
 42
0.003900
  0
VERTEX
  8
0
 10
273.607766
 20
827.958493
 42
0.006790
  0
VERTEX
  8
0
 10
272.668172
 20
825.000000
 42
0.037037
  0
VERTEX
  8
0
 10
271.178601
 20
818.335597
 42
0.020660
  0
VERTEX
  8
0
 10
270.310422
 20
810.061266
 42
0.014723
  0
VERTEX
  8
0
 10
270.046105
 20
802.240206
 42
0.176051
  0
VERTEX
  8
0
 10
271.049927
 20
799.439841
 42
0.137515
  0
VERTEX
  8
0
 10
272.016583
 20
798.771744
 42
0.043085
  0
VERTEX
  8
0
 10
273.740410
 20
798.340152
 42
0.029925
  0
VERTEX
  8
0
 10
276.257226
 20
798.089215
 42
0.010648
  0
VERTEX
  8
0
 10
279.872445
 20
798.023235
 42
0.000000
  0
VERTEX
  8
0
 10
287.500000
 20
798.046469
 42
0.000000
  0
VERTEX
  8
0
 10
295.775482
 20
807.773235
 42
0.002944
  0
VERTEX
  8
0
 10
301.929536
 20
815.093417
 42
0.002833
  0
VERTEX
  8
0
 10
308.076833
 20
822.579453
 42
0.002636
  0
VERTEX
  8
0
 10
314.539400
 20
830.627301
 42
0.001915
  0
VERTEX
  8
0
 10
321.650133
 20
839.649288
 42
0.018424
  0
VERTEX
  8
0
 10
323.918851
 20
842.781870
 42
0.020149
  0
VERTEX
  8
0
 10
325.879932
 20
845.982854
 42
0.021557
  0
VERTEX
  8
0
 10
327.435453
 20
849.073611
 42
0.033565
  0
VERTEX
  8
0
 10
328.474606
 20
851.867707
 42
-0.011882
  0
VERTEX
  8
0
 10
329.324009
 20
854.494777
 42
-0.005937
  0
VERTEX
  8
0
 10
330.516482
 20
857.778317
 42
-0.005891
  0
VERTEX
  8
0
 10
331.832017
 20
861.149932
 42
-0.008646
  0
VERTEX
  8
0
 10
333.074473
 20
864.079756
 42
0.008821
  0
VERTEX
  8
0
 10
334.194690
 20
866.723903
 42
0.010896
  0
VERTEX
  8
0
 10
335.140626
 20
869.227109
 42
0.009383
  0
VERTEX
  8
0
 10
335.845862
 20
871.349926
 42
0.075639
  0
VERTEX
  8
0
 10
336.000000
 20
872.363000
 42
-0.076491
  0
VERTEX
  8
0
 10
336.146378
 20
873.314231
 42
-0.013718
  0
VERTEX
  8
0
 10
336.734375
 20
875.015307
 42
-0.014525
  0
VERTEX
  8
0
 10
337.542909
 20
876.986273
 42
-0.012673
  0
VERTEX
  8
0
 10
338.500000
 20
879.000000
 42
0.028467
  0
VERTEX
  8
0
 10
339.817237
 20
882.013332
 42
0.045460
  0
VERTEX
  8
0
 10
340.550886
 20
884.723905
 42
0.033982
  0
VERTEX
  8
0
 10
340.901642
 20
888.035184
 42
0.009400
  0
VERTEX
  8
0
 10
341.000000
 20
893.266756
 42
0.009331
  0
VERTEX
  8
0
 10
340.924600
 20
897.306739
 42
0.019031
  0
VERTEX
  8
0
 10
340.685714
 20
900.469861
 42
0.019910
  0
VERTEX
  8
0
 10
340.323098
 20
902.817474
 42
0.149175
  0
VERTEX
  8
0
 10
339.800000
 20
903.800000
 42
0.141485
  0
VERTEX
  8
0
 10
338.893401
 20
904.300344
 42
0.022148
  0
VERTEX
  8
0
 10
336.862627
 20
904.667578
 42
0.021451
  0
VERTEX
  8
0
 10
334.217939
 20
904.910818
 42
0.012702
  0
VERTEX
  8
0
 10
331.050000
 20
904.985016
 42
0.000000
  0
VERTEX
  8
0
 10
323.500000
 20
904.970032
 42
0.000000
  0
SEQEND
  0
POLYLINE
  8
0
 66
1
 70
1
  0
VERTEX
  8
0
 10
313.587316
 20
862.903540
 42
-0.024217
  0
VERTEX
  8
0
 10
312.804892
 20
861.277200
 42
-0.009929
  0
VERTEX
  8
0
 10
311.594586
 20
859.147040
 42
-0.009797
  0
VERTEX
  8
0
 10
310.202374
 20
856.907276
 42
-0.012377
  0
VERTEX
  8
0
 10
308.824189
 20
854.894895
 42
-0.016484
  0
VERTEX
  8
0
 10
305.363376
 20
850.419116
 42
-0.009466
  0
VERTEX
  8
0
 10
300.916416
 20
845.246445
 42
-0.003874
  0
VERTEX
  8
0
 10
296.475486
 20
840.351252
 42
-0.683060
  0
VERTEX
  8
0
 10
296.000000
 20
840.536915
 42
-0.100183
  0
VERTEX
  8
0
 10
296.105327
 20
841.057314
 42
-0.002792
  0
VERTEX
  8
0
 10
297.014183
 20
843.177451
 42
-0.005620
  0
VERTEX
  8
0
 10
298.129605
 20
845.663133
 42
-0.003818
  0
VERTEX
  8
0
 10
299.452537
 20
848.468257
 42
-0.022138
  0
VERTEX
  8
0
 10
301.301788
 20
851.913767
 42
-0.020743
  0
VERTEX
  8
0
 10
303.486297
 20
855.260195
 42
-0.020688
  0
VERTEX
  8
0
 10
305.947028
 20
858.423085
 42
-0.021712
  0
VERTEX
  8
0
 10
308.623255
 20
861.319137
 42
-0.005636
  0
VERTEX
  8
0
 10
310.840434
 20
863.469666
 42
-0.009373
  0
VERTEX
  8
0
 10
312.762303
 20
865.224941
 42
-0.003488
  0
VERTEX
  8
0
 10
314.416977
 20
866.659898
 42
-0.391557
  0
VERTEX
  8
0
 10
314.683845
 20
866.649489
 42
-0.261143
  0
VERTEX
  8
0
 10
314.760991
 20
866.375564
 42
-0.012104
  0
VERTEX
  8
0
 10
314.502983
 20
865.407873
 42
-0.017446
  0
VERTEX
  8
0
 10
314.113988
 20
864.232693
 42
-0.011360
  0
SEQEND
  0
POLYLINE
  8
0
 66
1
 70
1
  0
VERTEX
  8
0
 10
252.182975
 20
751.636689
 42
0.003825
  0
VERTEX
  8
0
 10
245.558995
 20
732.268258
 42
0.029209
  0
VERTEX
  8
0
 10
243.053003
 20
722.978174
 42
0.039775
  0
VERTEX
  8
0
 10
241.991636
 20
714.570229
 42
0.010478
  0
VERTEX
  8
0
 10
241.650902
 20
701.002107
 42
0.000000
  0
VERTEX
  8
0
 10
241.574057
 20
682.500000
 42
0.000000
  0
VERTEX
  8
0
 10
246.761390
 20
662.500000
 42
0.006921
  0
VERTEX
  8
0
 10
250.596531
 20
648.513073
 42
0.012504
  0
VERTEX
  8
0
 10
254.180037
 20
637.188471
 42
0.012514
  0
VERTEX
  8
0
 10
257.389481
 20
628.570466
 42
0.086540
  0
VERTEX
  8
0
 10
259.753840
 20
624.750000
 42
0.103727
  0
VERTEX
  8
0
 10
260.925530
 20
623.882615
 42
0.061703
  0
VERTEX
  8
0
 10
262.587005
 20
623.355358
 42
0.036593
  0
VERTEX
  8
0
 10
265.089623
 20
623.076707
 42
0.009433
  0
VERTEX
  8
0
 10
269.154988
 20
623.000000
 42
0.000000
  0
VERTEX
  8
0
 10
277.000000
 20
623.000000
 42
0.000000
  0
VERTEX
  8
0
 10
277.018320
 20
641.250000
 42
-0.010166
  0
VERTEX
  8
0
 10
277.280660
 20
653.544230
 42
-0.012899
  0
VERTEX
  8
0
 10
278.046224
 20
664.874983
 42
-0.014225
  0
VERTEX
  8
0
 10
279.281008
 20
674.970481
 42
-0.022670
  0
VERTEX
  8
0
 10
280.969962
 20
683.500000
 42
0.064585
  0
VERTEX
  8
0
 10
281.985994
 20
692.548053
 42
0.010794
  0
VERTEX
  8
0
 10
281.307470
 20
710.048328
 42
0.012095
  0
VERTEX
  8
0
 10
279.615840
 20
730.013110
 42
0.012795
  0
VERTEX
  8
0
 10
276.982749
 20
749.500000
 42
-0.008888
  0
VERTEX
  8
0
 10
276.611627
 20
752.093694
 42
-0.006904
  0
VERTEX
  8
0
 10
276.297134
 20
754.927187
 42
-0.006987
  0
VERTEX
  8
0
 10
276.077231
 20
757.578326
 42
-0.016731
  0
VERTEX
  8
0
 10
276.007554
 20
759.550000
 42
0.026890
  0
VERTEX
  8
0
 10
275.916309
 20
761.188432
 42
0.029178
  0
VERTEX
  8
0
 10
275.649719
 20
762.762812
 42
0.030433
  0
VERTEX
  8
0
 10
275.263672
 20
764.071142
 42
0.109845
  0
VERTEX
  8
0
 10
274.800000
 20
764.800000
 42
0.144362
  0
VERTEX
  8
0
 10
273.865173
 20
765.309067
 42
0.021207
  0
VERTEX
  8
0
 10
271.716823
 20
765.676748
 42
0.020473
  0
VERTEX
  8
0
 10
268.883746
 20
765.921436
 42
0.011304
  0
VERTEX
  8
0
 10
265.409138
 20
766.000000
 42
0.000000
  0
VERTEX
  8
0
 10
257.218276
 20
766.000000
 42
0.000000
  0
SEQEND
  0
POLYLINE
  8
0
 66
1
 70
1
  0
VERTEX
  8
0
 10
265.999748
 20
711.002626
 42
-0.006249
  0
VERTEX
  8
0
 10
266.523818
 20
704.727115
 42
-0.014803
  0
VERTEX
  8
0
 10
266.716996
 20
700.042574
 42
-0.019655
  0
VERTEX
  8
0
 10
266.617895
 20
696.465299
 42
-0.043388
  0
VERTEX
  8
0
 10
266.199848
 20
693.767244
 42
0.016099
  0
VERTEX
  8
0
 10
265.716233
 20
691.478613
 42
0.004328
  0
VERTEX
  8
0
 10
265.097327
 20
687.816003
 42
0.004379
  0
VERTEX
  8
0
 10
264.466481
 20
683.641501
 42
0.004519
  0
VERTEX
  8
0
 10
263.915813
 20
679.500000
 42
0.000000
  0
VERTEX
  8
0
 10
262.678046
 20
669.500000
 42
0.000000
  0
VERTEX
  8
0
 10
259.392657
 20
682.500000
 42
-0.014735
  0
VERTEX
  8
0
 10
256.889291
 20
693.796991
 42
-0.049470
  0
VERTEX
  8
0
 10
256.210934
 20
701.335399
 42
-0.053710
  0
VERTEX
  8
0
 10
257.052527
 20
708.530998
 42
-0.019664
  0
VERTEX
  8
0
 10
259.720211
 20
718.436596
 42
-0.004921
  0
VERTEX
  8
0
 10
262.709351
 20
727.696824
 42
-0.585280
  0
VERTEX
  8
0
 10
263.705721
 20
727.888104
 42
-0.151048
  0
VERTEX
  8
0
 10
264.515188
 20
725.981955
 42
-0.001484
  0
SEQEND
  0
POLYLINE
  8
0
 66
1
 70
1
  0
VERTEX
  8
0
 10
285.000000
 20
574.790244
 42
0.015866
  0
VERTEX
  8
0
 10
285.177363
 20
569.202413
 42
0.032649
  0
VERTEX
  8
0
 10
285.738888
 20
564.864649
 42
0.025116
  0
VERTEX
  8
0
 10
286.957308
 20
559.975421
 42
0.006101
  0
VERTEX
  8
0
 10
289.469922
 20
552.040244
 42
-0.001374
  0
VERTEX
  8
0
 10
291.410807
 20
546.106189
 42
-0.000985
  0
VERTEX
  8
0
 10
293.549378
 20
539.461785
 42
-0.000994
  0
VERTEX
  8
0
 10
295.561100
 20
533.125610
 42
-0.002139
  0
VERTEX
  8
0
 10
297.080521
 20
528.233919
 42
0.035155
  0
VERTEX
  8
0
 10
301.278334
 20
517.319376
 42
0.046238
  0
VERTEX
  8
0
 10
306.668576
 20
508.116692
 42
0.045337
  0
VERTEX
  8
0
 10
313.749488
 20
499.926357
 42
0.031970
  0
VERTEX
  8
0
 10
323.036490
 20
492.050072
 42
0.027134
  0
VERTEX
  8
0
 10
333.854591
 20
484.881489
 42
0.026823
  0
VERTEX
  8
0
 10
345.426281
 20
478.896413
 42
0.026935
  0
VERTEX
  8
0
 10
357.522979
 20
474.206813
 42
0.027925
  0
VERTEX
  8
0
 10
369.910021
 20
470.909646
 42
0.006474
  0
VERTEX
  8
0
 10
380.654785
 20
468.828004
 42
0.017063
  0
VERTEX
  8
0
 10
388.413307
 20
467.700654
 42
0.014860
  0
VERTEX
  8
0
 10
396.811933
 20
467.023482
 42
0.003941
  0
VERTEX
  8
0
 10
410.250000
 20
466.447226
 42
0.000000
  0
VERTEX
  8
0
 10
430.000000
 20
465.756188
 42
0.000000
  0
VERTEX
  8
0
 10
430.000000
 20
473.723107
 42
0.009162
  0
VERTEX
  8
0
 10
429.924100
 20
477.865022
 42
0.036349
  0
VERTEX
  8
0
 10
429.646655
 20
480.393036
 42
0.061949
  0
VERTEX
  8
0
 10
429.119928
 20
482.061948
 42
0.105035
  0
VERTEX
  8
0
 10
428.250000
 20
483.233384
 42
0.054861
  0
VERTEX
  8
0
 10
424.665080
 20
485.755661
 42
0.007497
  0
VERTEX
  8
0
 10
416.569714
 20
490.058248
 42
0.009266
  0
VERTEX
  8
0
 10
407.626525
 20
494.433523
 42
0.013812
  0
VERTEX
  8
0
 10
399.635920
 20
497.895490
 42
-0.016119
  0
VERTEX
  8
0
 10
388.984960
 20
502.568547
 42
-0.052319
  0
VERTEX
  8
0
 10
382.417467
 20
506.597224
 42
-0.052884
  0
VERTEX
  8
0
 10
376.866319
 20
511.878049
 42
-0.016730
  0
VERTEX
  8
0
 10
369.743744
 20
520.845790
 42
0.015833
  0
VERTEX
  8
0
 10
361.770494
 20
530.921662
 42
0.030886
  0
VERTEX
  8
0
 10
354.692899
 20
538.325984
 42
0.028485
  0
VERTEX
  8
0
 10
346.387277
 20
545.170429
 42
0.011504
  0
VERTEX
  8
0
 10
334.339520
 20
553.578045
 42
-0.007871
  0
VERTEX
  8
0
 10
328.070010
 20
557.885878
 42
-0.011835
  0
VERTEX
  8
0
 10
322.754385
 20
561.855437
 42
-0.013424
  0
VERTEX
  8
0
 10
318.545685
 20
565.342821
 42
-0.036877
  0
VERTEX
  8
0
 10
315.839520
 20
568.087774
 42
0.002647
  0
VERTEX
  8
0
 10
313.825572
 20
570.431545
 42
0.001454
  0
VERTEX
  8
0
 10
311.336811
 20
573.280281
 42
0.001449
  0
VERTEX
  8
0
 10
308.794364
 20
576.156583
 42
0.002319
  0
VERTEX
  8
0
 10
306.604943
 20
578.596199
 42
0.000000
  0
VERTEX
  8
0
 10
301.709886
 20
584.000000
 42
0.000000
  0
VERTEX
  8
0
 10
293.354943
 20
584.000000
 42
0.000000
  0
VERTEX
  8
0
 10
285.000000
 20
584.000000
 42
0.000000
  0
SEQEND
  0
POLYLINE
  8
0
 66
1
 70
1
  0
VERTEX
  8
0
 10
323.500000
 20
537.421024
 42
-0.015712
  0
VERTEX
  8
0
 10
333.512575
 20
530.389268
 42
-0.028739
  0
VERTEX
  8
0
 10
341.134419
 20
523.954530
 42
-0.028437
  0
VERTEX
  8
0
 10
348.020401
 20
516.641474
 42
-0.015026
  0
VERTEX
  8
0
 10
355.746970
 20
506.857144
 42
0.005879
  0
VERTEX
  8
0
 10
359.426020
 20
502.018891
 42
0.007774
  0
VERTEX
  8
0
 10
362.895967
 20
497.705340
 42
0.005807
  0
VERTEX
  8
0
 10
365.887780
 20
494.186304
 42
0.073117
  0
VERTEX
  8
0
 10
367.208084
 20
493.054651
 42
0.007107
  0
VERTEX
  8
0
 10
368.418279
 20
492.315297
 42
0.002091
  0
VERTEX
  8
0
 10
370.295500
 20
491.215329
 42
0.002099
  0
VERTEX
  8
0
 10
372.417633
 20
489.995621
 42
0.002254
  0
VERTEX
  8
0
 10
374.500000
 20
488.822767
 42
-0.012827
  0
VERTEX
  8
0
 10
378.168132
 20
486.653354
 42
-0.735537
  0
VERTEX
  8
0
 10
378.034502
 20
486.145520
 42
-0.093123
  0
VERTEX
  8
0
 10
376.119924
 20
486.416455
 42
-0.004195
  0
VERTEX
  8
0
 10
369.809597
 20
488.610938
 42
-0.029289
  0
VERTEX
  8
0
 10
357.524002
 20
493.828823
 42
-0.023243
  0
VERTEX
  8
0
 10
344.913944
 20
500.827305
 42
-0.023841
  0
VERTEX
  8
0
 10
333.690567
 20
508.519126
 42
-0.047672
  0
VERTEX
  8
0
 10
325.781319
 20
515.795773
 42
-0.022627
  0
VERTEX
  8
0
 10
321.698145
 20
520.778352
 42
-0.022184
  0
VERTEX
  8
0
 10
318.053246
 20
526.141618
 42
-0.022587
  0
VERTEX
  8
0
 10
314.962321
 20
531.701607
 42
-0.025916
  0
VERTEX
  8
0
 10
312.538289
 20
537.272829
 42
-0.004660
  0
VERTEX
  8
0
 10
311.565972
 20
539.942690
 42
-0.006415
  0
VERTEX
  8
0
 10
310.745622
 20
542.360520
 42
-0.004246
  0
VERTEX
  8
0
 10
310.102388
 20
544.398116
 42
-0.074460
  0
VERTEX
  8
0
 10
310.000000
 20
545.081846
 42
-0.446735
  0
VERTEX
  8
0
 10
310.448828
 20
545.483934
 42
-0.101953
  0
VERTEX
  8
0
 10
311.548237
 20
545.128183
 42
-0.015570
  0
VERTEX
  8
0
 10
314.134430
 20
543.552188
 42
-0.000602
  0
SEQEND
  0
ENDSEC
  0
EOF
